<?xml version="1.0" encoding="UTF-8"?>
<svg width="500px" height="500px" viewBox="0 0 500 500" version="1.1" xmlns="http://www.w3.org/2000/svg" xmlns:xlink="http://www.w3.org/1999/xlink">
    <title>admin</title>
    <g id="admin" stroke="none" stroke-width="1" fill="none" fill-rule="evenodd">
        <path d="M250.989967,319.108535 L251.278124,319.179415 L311.566844,335.945745 C313.375576,336.448519 314.73169,337.938715 315.072725,339.771941 L315.108741,339.993534 C315.458421,342.508614 323.435696,401.918885 302.974525,431.473038 C282.538192,460.992549 252.389256,468.557398 251.115376,468.865247 C250.736938,468.956099 250.35131,469.001851 249.964374,469.001851 C249.577439,469.001851 249.191811,468.956752 248.813372,468.865247 L248.280668,468.728284 C243.957236,467.57058 216.164991,459.221379 196.954223,431.473038 C176.493053,401.918232 184.470327,342.50796 184.820007,339.993534 C185.078936,338.133267 186.375442,336.591465 188.147065,336.010773 L188.361904,335.945745 L248.650624,319.179415 C249.415199,318.966775 250.217473,318.943148 250.989967,319.108535 Z M250,236 C325.375976,236 386.839081,285.640072 389.88191,347.830714 L389.956189,349.719083 C389.985339,350.698662 390,446 390,446 L359.993876,446 L359.969463,350.611418 C358.609436,304.90799 310.8173,266 250,266 C189.338674,266 141.605079,304.721321 140.040599,350.297394 L140.008113,446 L110,446 L110.058258,349.268197 C112.216089,286.406758 174.044167,236 250,236 Z M250,394 L214.803703,394.001459 C216.285256,402.983304 218.625893,410.071966 221.619832,414.396511 C227.430381,422.789362 234.838334,429.271555 243.181776,434.080761 C245.234633,435.264039 247.258445,436.294316 249.216401,437.178151 L249.964,437.509 L249.999216,437.493 L250,394 Z M286.721,360.174 L249.999216,349.962 L250,394 L285.124,393.999 L285.217438,393.431461 C286.107688,387.84901 286.6699,381.56177 286.85708,374.767461 C286.984674,370.136009 286.939631,365.488661 286.754316,360.929042 L286.721,360.174 Z M250,6 C307.989899,6 355,53.0101013 355,111 C355,168.989899 307.989899,216 250,216 C192.010101,216 145,168.989899 145,111 C145,53.0101013 192.010101,6 250,6 Z M250,36 C208.578644,36 175,69.5786438 175,111 C175,152.421356 208.578644,186 250,186 C291.421356,186 325,152.421356 325,111 C325,69.5786438 291.421356,36 250,36 Z" id="Shape" fill="#000000"></path>
    </g>
</svg>