<?xml version="1.0" encoding="UTF-8"?>
<svg width="500px" height="500px" viewBox="0 0 500 500" version="1.1" xmlns="http://www.w3.org/2000/svg" xmlns:xlink="http://www.w3.org/1999/xlink">
    <title>aidaio</title>
    <g id="aidaio" stroke="none" stroke-width="1" fill="none" fill-rule="evenodd">
        <g id="Shape" transform="translate(5.000000, 103.000000)" fill="#000000" fill-rule="nonzero">
            <path d="M130.919351,219.208809 C154.67433,257.934811 196.853297,283.690075 244.92742,283.690075 C293.001542,283.690075 335.18051,257.934811 358.935489,219.208809 L358.935489,219.208809 L369.586994,219.208809 C344.841455,263.346611 298.24613,293.089904 244.842825,293.089904 C191.439521,293.089904 144.844196,263.346611 120.098657,219.208809 L120.098657,219.208809 Z M126.896411,116.161591 L126.896411,207.923418 L111.908646,207.923418 L111.908646,116.161591 L126.896411,116.161591 Z M49.959217,105.965833 C77.5509307,105.965833 99.918434,128.789816 99.918434,156.944625 L99.918434,207.923418 L84.9306689,207.923418 L84.9306689,193.350788 C75.9192717,202.365107 63.5753688,207.923418 49.959217,207.923418 C22.3675033,207.923418 0,185.099435 0,156.944625 C0,128.789816 22.3675033,105.965833 49.959217,105.965833 Z M238.805057,44.7912814 L238.805057,207.923418 L223.817292,207.923418 L223.818503,193.349577 C214.807001,202.364609 202.462602,207.923418 188.84584,207.923418 C161.254127,207.923418 138.886623,185.099435 138.886623,156.944625 C138.886623,128.789816 161.254127,105.965833 188.84584,105.965833 C202.462778,105.965833 214.80732,111.524786 223.818853,120.540024 L223.817292,44.7912814 L238.805057,44.7912814 Z M301.15416,105.965833 C328.745873,105.965833 351.113377,128.789816 351.113377,156.944625 L351.113377,207.923418 L335.925775,207.923418 L335.925775,193.549582 C326.932148,202.446757 314.669935,207.923418 301.15416,207.923418 C273.562446,207.923418 251.194943,185.099435 251.194943,156.944625 C251.194943,128.789816 273.562446,105.965833 301.15416,105.965833 Z M440.040783,105.965833 C467.632497,105.965833 490,128.789816 490,156.944625 C490,185.099435 467.632497,207.923418 440.040783,207.923418 C412.449069,207.923418 390.081566,185.099435 390.081566,156.944625 C390.081566,128.789816 412.449069,105.965833 440.040783,105.965833 Z M378.091354,116.161591 L378.091354,207.923418 L363.103588,207.923418 L363.103588,116.161591 L378.091354,116.161591 Z M49.959217,121.259471 C30.6450175,121.259471 14.9877651,137.236259 14.9877651,156.944625 C14.9877651,176.652992 30.6450175,192.629781 49.959217,192.629781 C69.2734165,192.629781 84.9306689,176.652992 84.9306689,156.944625 C84.9306689,137.236259 69.2734165,121.259471 49.959217,121.259471 Z M188.84584,121.259471 C169.531641,121.259471 153.874388,137.236259 153.874388,156.944625 C153.874388,176.652992 169.531641,192.629781 188.84584,192.629781 C208.16004,192.629781 223.817292,176.652992 223.817292,156.944625 C223.817292,137.236259 208.16004,121.259471 188.84584,121.259471 Z M440.040783,121.259471 C420.726583,121.259471 405.069332,137.236259 405.069332,156.944625 C405.069332,176.652992 420.726583,192.629781 440.040783,192.629781 C459.354983,192.629781 475.012236,176.652992 475.012236,156.944625 C475.012236,137.236259 459.354983,121.259471 440.040783,121.259471 Z M301.254079,121.667301 C282.105429,121.667301 266.582382,137.507145 266.582382,157.046584 C266.582382,176.586021 282.105429,192.425865 301.254079,192.425865 C320.402727,192.425865 335.925775,176.586021 335.925775,157.046584 C335.925775,137.507145 320.402727,121.667301 301.254079,121.667301 Z M119.502447,59.8810041 C133.298304,59.8810041 144.482055,71.2929956 144.482055,85.3704004 C144.482055,99.4478054 133.298304,110.859797 119.502447,110.859797 C105.70659,110.859797 94.5228385,99.4478054 94.5228385,85.3704004 C94.5228385,71.2929956 105.70659,59.8810041 119.502447,59.8810041 Z M370.497553,59.8810041 C384.29341,59.8810041 395.477162,71.2929956 395.477162,85.3704004 C395.477162,99.4478054 384.29341,110.859797 370.497553,110.859797 C356.701696,110.859797 345.517945,99.4478054 345.517945,85.3704004 C345.517945,71.2929956 356.701696,59.8810041 370.497553,59.8810041 Z M119.602365,72.7276599 C112.704437,72.7276599 107.112561,78.4336556 107.112561,85.472358 C107.112561,92.5110606 112.704437,98.2170563 119.602365,98.2170563 C126.500294,98.2170563 132.09217,92.5110606 132.09217,85.472358 C132.09217,78.4336556 126.500294,72.7276599 119.602365,72.7276599 Z M370.597472,72.7276599 C363.699543,72.7276599 358.107667,78.4336556 358.107667,85.472358 C358.107667,92.5110606 363.699543,98.2170563 370.597472,98.2170563 C377.495399,98.2170563 383.087275,92.5110606 383.087275,85.472358 C383.087275,78.4336556 377.495399,72.7276599 370.597472,72.7276599 Z M244.842825,-8.52651283e-14 C289.424528,-8.52651283e-14 329.26168,20.728415 355.603118,53.2554907 C352.793619,54.6000441 350.187776,56.3141799 347.845722,58.3365394 C323.191151,28.4156267 286.235561,9.39982879 244.92742,9.39982879 C203.644252,9.39982879 166.708373,28.3926426 142.053845,58.2822871 C139.683562,56.2248186 137.0414,54.4836927 134.19005,53.1228829 C160.532313,20.6720844 200.32174,-8.52651283e-14 244.842825,-8.52651283e-14 Z" id="Combined-Shape"></path>
        </g>
    </g>
</svg>