<?xml version="1.0" encoding="UTF-8"?>
<svg width="500px" height="500px" viewBox="0 0 500 500" version="1.1" xmlns="http://www.w3.org/2000/svg" xmlns:xlink="http://www.w3.org/1999/xlink">
    <title>align-top</title>
    <g id="align-top" stroke="none" stroke-width="1" fill="none" fill-rule="evenodd">
        <path d="M243.428932,241.571068 C247.263171,237.736829 253.436385,237.667116 257.355677,241.361928 L257.571068,241.571068 L308.428932,292.428932 C310.304296,294.304296 311.357864,296.847835 311.357864,299.5 C311.357864,304.92924 307.031194,309.347932 301.637769,309.496158 L301.357864,309.5 L199.642136,309.5 C196.989971,309.5 194.446432,308.446432 192.571068,306.571068 C188.736829,302.736829 188.667116,296.563615 192.361928,292.644323 L192.571068,292.428932 L243.428932,241.571068 Z M412.5,155 C430.449254,155 445,166.192881 445,180 C445,193.807119 430.449254,205 412.5,205 L87.5,205 C69.5507456,205 55,193.807119 55,180 C55,166.192881 69.5507456,155 87.5,155 L412.5,155 Z M412.5,75 C430.449254,75 445,86.1928813 445,100 C445,113.807119 430.449254,125 412.5,125 L87.5,125 C69.5507456,125 55,113.807119 55,100 C55,86.1928813 69.5507456,75 87.5,75 L412.5,75 Z" id="Shape" fill="#000000"></path>
    </g>
</svg>