<?xml version="1.0" encoding="UTF-8"?>
<svg width="500px" height="500px" viewBox="0 0 500 500" version="1.1" xmlns="http://www.w3.org/2000/svg" xmlns:xlink="http://www.w3.org/1999/xlink">
    <title>align-left</title>
    <g id="align-left" stroke="none" stroke-width="1" fill="none" fill-rule="evenodd">
        <path d="M283,400 C296.807119,400 308,411.192881 308,425 C308,438.807119 296.807119,450 283,450 L33,450 C19.1928813,450 8,438.807119 8,425 C8,411.192881 19.1928813,400 33,400 L283,400 Z M473,283 C486.807119,283 498,294.192881 498,308 C498,321.807119 486.807119,333 473,333 L33,333 C19.1928813,333 8,321.807119 8,308 C8,294.192881 19.1928813,283 33,283 L473,283 Z M283,167 C296.807119,167 308,178.192881 308,192 C308,205.807119 296.807119,217 283,217 L33,217 C19.1928813,217 8,205.807119 8,192 C8,178.192881 19.1928813,167 33,167 L283,167 Z M473,50 C486.807119,50 498,61.1928813 498,75 C498,88.8071187 486.807119,100 473,100 L33,100 C19.1928813,100 8,88.8071187 8,75 C8,61.1928813 19.1928813,50 33,50 L473,50 Z" id="Shape" fill="#000000"></path>
    </g>
</svg>