<?xml version="1.0" encoding="UTF-8"?>
<svg width="500px" height="500px" viewBox="0 0 500 500" version="1.1" xmlns="http://www.w3.org/2000/svg" xmlns:xlink="http://www.w3.org/1999/xlink">
    <title>align-bottom</title>
    <g id="align-bottom" stroke="none" stroke-width="1" fill="none" fill-rule="evenodd">
        <path d="M412.5,375 C430.449254,375 445,386.192881 445,400 C445,413.807119 430.449254,425 412.5,425 L87.5,425 C69.5507456,425 55,413.807119 55,400 C55,386.192881 69.5507456,375 87.5,375 L412.5,375 Z M412.5,295 C430.449254,295 445,306.192881 445,320 C445,333.807119 430.449254,345 412.5,345 L87.5,345 C69.5507456,345 55,333.807119 55,320 C55,306.192881 69.5507456,295 87.5,295 L412.5,295 Z M300.357864,190.5 C305.880712,190.5 310.357864,194.977153 310.357864,200.5 C310.357864,203.152165 309.304296,205.695704 307.428932,207.571068 L256.571068,258.428932 C252.665825,262.334175 246.334175,262.334175 242.428932,258.428932 L191.571068,207.571068 C187.665825,203.665825 187.665825,197.334175 191.571068,193.428932 C193.446432,191.553568 195.989971,190.5 198.642136,190.5 L300.357864,190.5 Z" id="Shape" fill="#000000"></path>
    </g>
</svg>