<?xml version="1.0" encoding="UTF-8"?>
<svg width="500px" height="500px" viewBox="0 0 500 500" version="1.1" xmlns="http://www.w3.org/2000/svg" xmlns:xlink="http://www.w3.org/1999/xlink">
    <title>align-middle</title>
    <g id="align-middle" stroke="none" stroke-width="1" fill="none" fill-rule="evenodd">
        <path d="M243.428932,351.571068 C247.263171,347.736829 253.436385,347.667116 257.355677,351.361928 L257.571068,351.571068 L308.428932,402.428932 C310.304296,404.304296 311.357864,406.847835 311.357864,409.5 C311.357864,414.92924 307.031194,419.347932 301.637769,419.496158 L301.357864,419.5 L199.642136,419.5 C196.989971,419.5 194.446432,418.446432 192.571068,416.571068 C188.736829,412.736829 188.667116,406.563615 192.361928,402.644323 L192.571068,402.428932 L243.428932,351.571068 Z M412.5,265 C430.449254,265 445,276.192881 445,290 C445,303.807119 430.449254,315 412.5,315 L87.5,315 C69.5507456,315 55,303.807119 55,290 C55,276.192881 69.5507456,265 87.5,265 L412.5,265 Z M412.5,185 C430.449254,185 445,196.192881 445,210 C445,223.807119 430.449254,235 412.5,235 L87.5,235 C69.5507456,235 55,223.807119 55,210 C55,196.192881 69.5507456,185 87.5,185 L412.5,185 Z M301.357864,80.5 C306.880712,80.5 311.357864,84.9771525 311.357864,90.5 C311.357864,93.1521649 310.304296,95.695704 308.428932,97.5710678 L257.571068,148.428932 C253.665825,152.334175 247.334175,152.334175 243.428932,148.428932 L192.571068,97.5710678 C188.665825,93.6658249 188.665825,87.3341751 192.571068,83.4289322 C194.446432,81.5535684 196.989971,80.5 199.642136,80.5 L301.357864,80.5 Z" id="Shape" fill="#000000"></path>
    </g>
</svg>