<?xml version="1.0" encoding="UTF-8"?>
<svg width="500px" height="500px" viewBox="0 0 500 500" version="1.1" xmlns="http://www.w3.org/2000/svg" xmlns:xlink="http://www.w3.org/1999/xlink">
    <title>align-center</title>
    <g id="align-center" stroke="none" stroke-width="1" fill="none" fill-rule="evenodd">
        <path d="M378,400 C391.807119,400 403,411.192881 403,425 C403,438.807119 391.807119,450 378,450 L128,450 C114.192881,450 103,438.807119 103,425 C103,411.192881 114.192881,400 128,400 L378,400 Z M473,283 C486.807119,283 498,294.192881 498,308 C498,321.807119 486.807119,333 473,333 L33,333 C19.1928813,333 8,321.807119 8,308 C8,294.192881 19.1928813,283 33,283 L473,283 Z M378,167 C391.807119,167 403,178.192881 403,192 C403,205.807119 391.807119,217 378,217 L128,217 C114.192881,217 103,205.807119 103,192 C103,178.192881 114.192881,167 128,167 L378,167 Z M473,50 C486.807119,50 498,61.1928813 498,75 C498,88.8071187 486.807119,100 473,100 L33,100 C19.1928813,100 8,88.8071187 8,75 C8,61.1928813 19.1928813,50 33,50 L473,50 Z" id="Shape" fill="#000000"></path>
    </g>
</svg>