<?xml version="1.0" encoding="UTF-8"?>
<svg width="500px" height="500px" viewBox="0 0 500 500" version="1.1" xmlns="http://www.w3.org/2000/svg" xmlns:xlink="http://www.w3.org/1999/xlink">
    <title>analytics</title>
    <g id="analytics" stroke="none" stroke-width="1" fill="none" fill-rule="evenodd">
        <path d="M469.996847,475 C475.427799,475 479.847884,479.325497 479.996157,484.720035 L480,485 C480,490.522847 475.527994,495 469.996847,495 L40.0031528,495 C34.478564,495 30,490.524062 30,485 C30,479.477153 34.4720062,475 40.0031528,475 L469.996847,475 Z M85,315 C109.852814,315 130,335.138718 130,360.008537 L130,409.991463 C130,434.848992 109.858278,455 85,455 C60.1471863,455 40,434.861282 40,409.991463 L40,360.008537 C40,335.151008 60.1417218,315 85,315 Z M195,265 C219.852814,265 240,285.149679 240,309.994154 L240,410.005846 C240,434.855431 219.858278,455 195,455 C170.147186,455 150,434.850321 150,410.005846 L150,309.994154 C150,285.144569 170.141722,265 195,265 Z M305,215 C329.852814,215 350,235.138718 350,260.008537 L350,409.991463 C350,434.848992 329.858278,455 305,455 C280.147186,455 260,434.861282 260,409.991463 L260,260.008537 C260,235.151008 280.141722,215 305,215 Z M415,115 C439.852814,115 460,135.156003 460,159.995819 L460,410.004181 C460,434.854685 439.858278,455 415,455 C390.147186,455 370,434.843997 370,410.004181 L370,159.995819 C370,135.145315 390.141722,115 415,115 Z M85,345 C76.713989,345 70,351.715826 70,360.008537 L70,409.991463 C70,418.288502 76.7114913,425 85,425 C93.286011,425 100,418.284174 100,409.991463 L100,360.008537 C100,351.711498 93.2885087,345 85,345 Z M195,295 C186.711842,295 180,301.711533 180,309.994154 L180,410.005846 C180,418.283197 186.717148,425 195,425 C203.288158,425 210,418.288467 210,410.005846 L210,309.994154 C210,301.716803 203.282852,295 195,295 Z M305,245 C296.713989,245 290,251.715826 290,260.008537 L290,409.991463 C290,418.288502 296.711491,425 305,425 C313.286011,425 320,418.284174 320,409.991463 L320,260.008537 C320,251.711498 313.288509,245 305,245 Z M415,145 C406.712091,145 400,151.71203 400,159.995819 L400,410.004181 C400,418.279624 406.719898,425 415,425 C423.287909,425 430,418.28797 430,410.004181 L430,159.995819 C430,151.720376 423.280102,145 415,145 Z M441.886943,5 C447.311006,5 451.725485,9.32549728 451.87357,14.7200355 L451.877408,15 C451.877408,15.7386168 451.797412,16.4585304 451.645618,17.1515325 C451.639418,17.5687905 451.607116,17.9890904 451.547217,18.410412 L451.778,18.815 L451.625708,18.5558473 C451.598754,18.5113816 451.571611,18.4671035 451.544282,18.4230136 C451.489064,18.8156998 451.408835,19.2088565 451.303705,19.6012054 L435.769627,77.5751755 C434.365776,82.8144181 429.045116,85.9589558 423.796065,84.7057858 L423.524646,84.6370331 C418.189985,83.2076149 415.022974,77.7286729 416.45111,72.3987946 L425.027624,40.389 L47.5820085,269.710186 C34,278 24,260 37.5820085,252.389678 L411.847624,25 L381.867873,25 C376.44381,25 372.029331,20.6745027 371.881246,15.2799645 L371.877408,15 C371.877408,9.4771525 376.349977,5 381.867873,5 L441.886943,5 Z" id="Shape" fill="#000000"></path>
    </g>
</svg>