<?xml version="1.0" encoding="UTF-8"?>
<svg width="500px" height="500px" viewBox="0 0 500 500" version="1.1" xmlns="http://www.w3.org/2000/svg" xmlns:xlink="http://www.w3.org/1999/xlink">
    <title>arrow-right</title>
    <g id="arrow-right" stroke="none" stroke-width="1" fill="none" fill-rule="evenodd">
        <path d="M194.279221,122.786797 C205.877792,134.385368 205.993778,153.118304 194.627178,164.859562 L194.279221,165.213203 L139.493,220 L432,220 C448.568542,220 462,233.431458 462,250 C462,266.402857 448.835828,279.731057 432.496105,279.995981 L432,280 L139.361,280 L194.279221,334.918831 C205.877792,346.517402 205.993778,365.250338 194.627178,376.991597 L194.279221,377.345238 C182.680649,388.943809 163.947714,389.059795 152.206455,377.693195 L151.852814,377.345238 L45.7867966,271.279221 C34.1882251,259.680649 34.0722394,240.947714 45.4388394,229.206455 L45.7867966,228.852814 L151.852814,122.786797 C163.568542,111.071068 182.563492,111.071068 194.279221,122.786797 Z" id="Shape" fill="#000000" fill-rule="nonzero" transform="translate(249.500000, 250.066017) scale(-1, 1) translate(-249.500000, -250.066017) "></path>
    </g>
</svg>