<?xml version="1.0" encoding="UTF-8"?>
<svg width="500px" height="500px" viewBox="0 0 500 500" version="1.1" xmlns="http://www.w3.org/2000/svg" xmlns:xlink="http://www.w3.org/1999/xlink">
    <title>arrow-up</title>
    <g id="arrow-up" stroke="none" stroke-width="1" fill="none" fill-rule="evenodd">
        <path d="M122.220779,194.845238 C133.819351,206.443809 152.552286,206.559795 164.293545,195.193195 L164.647186,194.845238 L219.433983,140.059017 L219.433983,432.566017 C219.433983,449.13456 232.86544,462.566017 249.433983,462.566017 C265.83684,462.566017 279.16504,449.401846 279.429964,433.062122 L279.433983,432.566017 L279.433983,139.927017 L334.352814,194.845238 C345.951385,206.443809 364.684321,206.559795 376.42558,195.193195 L376.779221,194.845238 C388.377792,183.246666 388.493778,164.513731 377.127178,152.772472 L376.779221,152.418831 L270.713203,46.3528137 C259.114632,34.7542423 240.381696,34.6382566 228.640438,46.0048566 L228.286797,46.3528137 L122.220779,152.418831 C110.505051,164.13456 110.505051,183.129509 122.220779,194.845238 Z" id="Shape" fill="#000000" fill-rule="nonzero"></path>
    </g>
</svg>