<?xml version="1.0" encoding="UTF-8"?>
<svg width="500px" height="500px" viewBox="0 0 500 500" version="1.1" xmlns="http://www.w3.org/2000/svg" xmlns:xlink="http://www.w3.org/1999/xlink">
    <title>attachment</title>
    <g id="attachment" stroke="none" stroke-width="1" fill="none" fill-rule="evenodd">
        <path d="M255,495.5 C318.151,495.5 359.46457,444.81794 360.484526,381.910004 L360.5,380 L360.5,93.5 C360.5,44.898942 321.101058,5.5 272.5,5.5 C224.384953,5.5 195.288899,44.1149031 194.511789,92.0447591 L194.5,93.5 L194.5,359.519828 C194.5,392.985617 221.629382,420.114998 255.09517,420.114998 C288.226301,420.114998 305.147119,393.525491 305.682222,360.52188 L305.69034,359.519828 L305.69034,109.438254 C305.69034,100.877841 298.750754,93.9382543 290.19034,93.9382543 C281.735611,93.9382543 274.861935,100.707551 274.693503,109.121953 L274.69034,109.438254 L274.69034,359.519828 C274.69034,375.864789 271.440131,389.114998 255.09517,389.114998 C238.913659,389.114998 225.765314,376.128469 225.503965,360.009239 L225.5,359.519828 L225.5,93.5 C225.5,62.0197693 241.019769,36.5 272.5,36.5 C303.665428,36.5 328.989009,61.5119259 329.492364,92.5574008 L329.5,93.5 L329.5,380 C329.5,426.201381 302.420917,463.742478 256.397362,464.488679 L255,464.5 L245,464.5 C198.798619,464.5 172.257522,427.420917 171.511321,381.397362 L171.5,380 L171.5,179.896744 C171.5,171.33633 164.560414,164.396744 156,164.396744 C147.54527,164.396744 140.671595,171.16604 140.503163,179.580442 L140.5,179.896744 L140.5,380 C140.5,443.151 180.18206,494.46457 243.089996,495.484526 L245,495.5 L255,495.5 Z" fill="#000000" fill-rule="nonzero"></path>
    </g>
</svg>