<?xml version="1.0" encoding="UTF-8"?>
<svg width="500px" height="500px" viewBox="0 0 500 500" version="1.1" xmlns="http://www.w3.org/2000/svg" xmlns:xlink="http://www.w3.org/1999/xlink">
    <title>bar-chart</title>
    <g id="bar-chart" stroke="none" stroke-width="1" fill="none" fill-rule="evenodd">
        <path d="M30,430 C30,424.477153 34.4720062,420 40.0031528,420 L469.996847,420 C475.521436,420 480,424.475938 480,430 L480,430 C480,435.522847 475.527994,440 469.996847,440 L40.0031528,440 C34.478564,440 30,435.524062 30,430 L30,430 Z M70,245.008537 L70,354.991463 C70,363.288502 76.7114913,370 85,370 C93.286011,370 100,363.284174 100,354.991463 L100,245.008537 C100,236.711498 93.2885087,230 85,230 C76.713989,230 70,236.715826 70,245.008537 Z M40,245.008537 C40,220.151008 60.1417218,200 85,200 C109.852814,200 130,220.138718 130,245.008537 L130,354.991463 C130,379.848992 109.858278,400 85,400 C60.1471863,400 40,379.861282 40,354.991463 L40,245.008537 Z M180,144.994154 L180,355.005846 C180,363.283197 186.717148,370 195,370 C203.288158,370 210,363.288467 210,355.005846 L210,144.994154 C210,136.716803 203.282852,130 195,130 C186.711842,130 180,136.711533 180,144.994154 Z M150,144.994154 C150,120.144569 170.141722,100 195,100 C219.852814,100 240,120.149679 240,144.994154 L240,355.005846 C240,379.855431 219.858278,400 195,400 C170.147186,400 150,379.850321 150,355.005846 L150,144.994154 Z M290,245.008537 L290,354.991463 C290,363.288502 296.711491,370 305,370 C313.286011,370 320,363.284174 320,354.991463 L320,245.008537 C320,236.711498 313.288509,230 305,230 C296.713989,230 290,236.715826 290,245.008537 Z M260,245.008537 C260,220.151008 280.141722,200 305,200 C329.852814,200 350,220.138718 350,245.008537 L350,354.991463 C350,379.848992 329.858278,400 305,400 C280.147186,400 260,379.861282 260,354.991463 L260,245.008537 Z M400,104.995819 L400,355.004181 C400,363.279624 406.719898,370 415,370 C423.287909,370 430,363.28797 430,355.004181 L430,104.995819 C430,96.7203762 423.280102,90 415,90 C406.712091,90 400,96.7120304 400,104.995819 Z M370,104.995819 C370,80.1453145 390.141722,60 415,60 C439.852814,60 460,80.1560032 460,104.995819 L460,355.004181 C460,379.854685 439.858278,400 415,400 C390.147186,400 370,379.843997 370,355.004181 L370,104.995819 Z" id="Shape" fill="#000000"></path>
    </g>
</svg>