<?xml version="1.0" encoding="UTF-8"?>
<svg width="500px" height="500px" viewBox="0 0 500 500" version="1.1" xmlns="http://www.w3.org/2000/svg" xmlns:xlink="http://www.w3.org/1999/xlink">
    <title>billboard</title>
    <g id="billboard" stroke="none" stroke-width="1" fill="none" fill-rule="evenodd">
        <path d="M35,144.000724 L35,180 L35,263.999502 C35,275.044065 43.9541298,284 54.9933326,284 L445.006667,284 C456.044562,284 465,275.043666 465,263.998027 L465,180 L465,144.000618 C465,132.955565 456.046172,124 445.006667,124 L54.9933326,124 C43.9552699,124 35,132.955943 35,144.000724 Z M280,324 L280,444.005775 C280,460.405475 266.839399,473.731109 250.496212,473.995982 L250,474 C233.431458,474 220,460.573023 220,444.005775 L220,324 L280,324 Z M445.006667,94 C472.617223,94 495,116.389531 495,144.000618 L495,263.998027 L495,263.998027 C495,291.613354 472.611959,314 445.006667,314 L54.9933326,314 C27.3827774,314 5,291.609798 5,263.999502 L5,144.000724 C5,116.386086 27.3880408,94 54.9933326,94 L445.006667,94 Z M250,50 C258.284271,50 265,56.7157288 265,65 C265,73.2842712 258.284271,80 250,80 C241.715729,80 235,73.2842712 235,65 C235,56.7157288 241.715729,50 250,50 Z M330,50 C338.284271,50 345,56.7157288 345,65 C345,73.2842712 338.284271,80 330,80 C321.715729,80 315,73.2842712 315,65 C315,56.7157288 321.715729,50 330,50 Z M170,50 C178.284271,50 185,56.7157288 185,65 C185,73.2842712 178.284271,80 170,80 C161.715729,80 155,73.2842712 155,65 C155,56.7157288 161.715729,50 170,50 Z" id="Shape" fill="#000000" fill-rule="nonzero"></path>
    </g>
</svg>