<?xml version="1.0" encoding="UTF-8"?>
<svg width="500px" height="500px" viewBox="0 0 500 500" version="1.1" xmlns="http://www.w3.org/2000/svg" xmlns:xlink="http://www.w3.org/1999/xlink">
    <title>blockquote</title>
    <g id="blockquote" stroke="none" stroke-width="1" fill="none" fill-rule="evenodd">
        <path d="M40,25 C48.2842712,25 55,31.7157288 55,40 L55,460 C55,468.284271 48.2842712,475 40,475 C31.7157288,475 25,468.284271 25,460 L25,40 C25,31.7157288 31.7157288,25 40,25 Z M269,45 C296.614237,45 319,67.3857625 319,95 L319,194.581 L319.238389,194.645146 C305.08706,247.458623 251.202703,279.015203 198.363943,265.771336 L196.778,265.36 L197.887509,264.909763 C231.189168,251.232709 259.803997,226.921685 278.494158,195.000755 L219,195 C191.385763,195 169,172.614237 169,145 L169,95 C169,67.3857625 191.385763,45 219,45 L269,45 Z M439,45 C466.614237,45 489,67.3857625 489,95 L489,194.581 L489.238389,194.645146 C475.08706,247.458623 421.202703,279.015203 368.363943,265.771336 L366.778,265.36 L367.887509,264.909763 C401.189168,251.232709 429.803997,226.921685 448.494158,195.000755 L389,195 C361.385763,195 339,172.614237 339,145 L339,95 C339,67.3857625 361.385763,45 389,45 L439,45 Z" id="Shape" fill="#000000"></path>
    </g>
</svg>