<?xml version="1.0" encoding="UTF-8"?>
<svg width="500px" height="500px" viewBox="0 0 500 500" version="1.1" xmlns="http://www.w3.org/2000/svg" xmlns:xlink="http://www.w3.org/1999/xlink">
    <title>bold</title>
    <g id="bold" stroke="none" stroke-width="1" fill="none" fill-rule="evenodd">
        <path d="M279.742188,484.21875 C334.097656,484.21875 376.099609,472.670898 405.748047,449.575195 C435.396484,426.479492 450.220703,392.480469 450.220703,347.578125 C450.220703,321.582031 443.18457,298.701172 429.112305,278.935547 C415.040039,259.169922 393.931641,246.279297 365.787109,240.263672 C387.701172,231.669922 404.405273,218.833008 415.899414,201.75293 C427.393555,184.672852 433.140625,165.283203 433.140625,143.583984 C433.140625,100.830078 417.671875,68.7109375 386.734375,47.2265625 C355.796875,25.7421875 312.720703,15 257.505859,15 L257.505859,15 L49,15 L49,71.71875 L98.9511719,81.3867188 L98.9511719,418.154297 L49,427.822266 L49,484.21875 L279.742188,484.21875 Z M260.728516,211.582031 L193.052734,211.582031 L193.052734,87.5097656 L257.505859,87.5097656 C284.576172,87.5097656 304.932617,92.6660156 318.575195,102.978516 C332.217773,113.291016 339.039062,129.296875 339.039062,150.996094 C339.039062,170.761719 332.271484,185.800781 318.736328,196.113281 C305.201172,206.425781 285.865234,211.582031 260.728516,211.582031 L260.728516,211.582031 Z M279.742188,412.03125 L193.052734,412.03125 L193.052734,276.679688 L286.832031,276.679688 C310.894531,276.679688 328.511719,282.749023 339.683594,294.887695 C350.855469,307.026367 356.441406,324.589844 356.441406,347.578125 C356.441406,368.847656 349.888672,384.907227 336.783203,395.756836 C323.677734,406.606445 304.664062,412.03125 279.742188,412.03125 L279.742188,412.03125 Z" id="Shape" fill="#000000" fill-rule="nonzero"></path>
    </g>
</svg>