<?xml version="1.0" encoding="UTF-8"?>
<svg width="500px" height="500px" viewBox="0 0 500 500" version="1.1" xmlns="http://www.w3.org/2000/svg" xmlns:xlink="http://www.w3.org/1999/xlink">
    <title>bookmark</title>
    <g id="bookmark" stroke="none" stroke-width="1" fill="none" fill-rule="evenodd">
        <path d="M330,5 C385.228475,5 430,49.771525 430,105 L430,453.913169 C430,464.958864 421.045695,473.913169 410,473.913169 C405.526911,473.913169 401.182938,472.413654 397.662367,469.654287 L245,350 L102.760357,467.855704 C94.254934,474.903055 81.6469195,473.721053 74.5995688,465.21563 C71.6268042,461.627811 70,457.114648 70,452.455273 L70,105 C70,49.771525 114.771525,5 170,5 L330,5 Z M330,35 L170,35 C131.726667,35 100.627533,65.7164002 100.009378,103.842422 L100,105 L100,431.182 L244.477029,311.473371 L400,433.37 L400,105 C400,66.7266668 369.2836,35.6275333 331.157578,35.009378 L330,35 Z" id="Shape" fill="#000000" fill-rule="nonzero"></path>
    </g>
</svg>