<?xml version="1.0" encoding="UTF-8"?>
<svg width="500px" height="500px" viewBox="0 0 500 500" version="1.1" xmlns="http://www.w3.org/2000/svg" xmlns:xlink="http://www.w3.org/1999/xlink">
    <title>booth</title>
    <g id="booth" stroke="none" stroke-width="1" fill="none" fill-rule="evenodd">
        <path d="M100,450 L400,450 L400,330 L100,330 L100,450 Z M70,319.994199 C70,308.951708 80.7496289,300 94.0043182,300 L405.995682,300 C419.252901,300 430,308.956997 430,319.994199 L430,460.005801 C430,471.048292 419.250371,480 405.995682,480 L94.0043182,480 C80.7470993,480 70,471.043003 70,460.005801 L70,319.994199 Z M100,100 L400,100 L400,51 L100,51 L100,100 Z M70,40.99228 C70,29.9508486 80.7496289,21 94.0043182,21 L405.995682,21 C419.252901,21 430,29.9546555 430,40.99228 L430,110.00772 C430,121.049151 419.250371,130 405.995682,130 L94.0043182,130 C80.7470993,130 70,121.045345 70,110.00772 L70,40.99228 Z M370,140 L400,140 L400,290 L370,290 L370,140 Z M130,140 L130,290 L100,290 L100,140 L130,140 Z M249.50214,237.696148 C275.879457,237.696148 297.338879,258.752161 297.989102,284.972881 C297.9992,285.380124 298.00428,290 298.00428,290 L201,290 L201.000759,289.532123 C201.002866,288.323308 201.009357,285.163911 201.020183,284.785433 C201.76775,258.651882 223.187708,237.696148 249.50214,237.696148 Z M249.259629,155 C269.349873,155 285.636234,171.286361 285.636234,191.376605 C285.636234,211.466849 269.349873,227.75321 249.259629,227.75321 C229.169385,227.75321 212.883024,211.466849 212.883024,191.376605 C212.883024,171.286361 229.169385,155 249.259629,155 Z" id="Shape" fill="#000000" fill-rule="nonzero"></path>
    </g>
</svg>