<?xml version="1.0" encoding="UTF-8"?>
<svg width="500px" height="500px" viewBox="0 0 500 500" version="1.1" xmlns="http://www.w3.org/2000/svg" xmlns:xlink="http://www.w3.org/1999/xlink">
    <title>brightness</title>
    <g id="brightness" stroke="none" stroke-width="1" fill="none" fill-rule="evenodd">
        <path d="M250,415 C255.522847,415 260,419.477153 260,425 L260,485 C260,490.522847 255.522847,495 250,495 C244.477153,495 240,490.522847 240,485 L240,425 C240,419.477153 244.477153,415 250,415 Z M346.160254,396.554446 L376.160254,448.51597 C378.921678,453.298896 377.282926,459.4148 372.5,462.176224 C367.717074,464.937648 361.60117,463.298896 358.839746,458.51597 L328.839746,406.554446 C326.078322,401.771519 327.717074,395.655615 332.5,392.894192 C337.282926,390.132768 343.39883,391.771519 346.160254,396.554446 Z M167.5,392.894192 C172.282926,395.655615 173.921678,401.771519 171.160254,406.554446 L141.160254,458.51597 C138.39883,463.298896 132.282926,464.937648 127.5,462.176224 C122.717074,459.4148 121.078322,453.298896 123.839746,448.51597 L153.839746,396.554446 C156.60117,391.771519 162.717074,390.132768 167.5,392.894192 Z M406.554446,328.839746 L458.51597,358.839746 C463.298896,361.60117 464.937648,367.717074 462.176224,372.5 C459.4148,377.282926 453.298896,378.921678 448.51597,376.160254 L396.554446,346.160254 C391.771519,343.39883 390.132768,337.282926 392.894192,332.5 C395.655615,327.717074 401.771519,326.078322 406.554446,328.839746 Z M107.105808,332.5 C109.867232,337.282926 108.228481,343.39883 103.445554,346.160254 L51.4840301,376.160254 C46.7011039,378.921678 40.5851998,377.282926 37.8237761,372.5 C35.0623523,367.717074 36.7011039,361.60117 41.4840301,358.839746 L93.4455543,328.839746 C98.2284806,326.078322 104.344385,327.717074 107.105808,332.5 Z M250,125 C319.035594,125 375,180.964406 375,250 C375,318.345238 320.149285,373.879405 252.067104,374.983254 L250,375 C180.964406,375 125,319.035594 125,250 C125,180.964406 180.964406,125 250,125 Z M250,155 C197.532949,155 155,197.532949 155,250 C155,302.467051 197.532949,345 250,345 L250,155 Z M485,240 C490.522847,240 495,244.477153 495,250 C495,255.522847 490.522847,260 485,260 L425,260 C419.477153,260 415,255.522847 415,250 C415,244.477153 419.477153,240 425,240 L485,240 Z M75,240 C80.5228475,240 85,244.477153 85,250 C85,255.522847 80.5228475,260 75,260 L15,260 C9.4771525,260 5,255.522847 5,250 C5,244.477153 9.4771525,240 15,240 L75,240 Z M462.176224,127.5 C464.937648,132.282926 463.298896,138.39883 458.51597,141.160254 L406.554446,171.160254 C401.771519,173.921678 395.655615,172.282926 392.894192,167.5 C390.132768,162.717074 391.771519,156.60117 396.554446,153.839746 L448.51597,123.839746 C453.298896,121.078322 459.4148,122.717074 462.176224,127.5 Z M51.4840301,123.839746 L103.445554,153.839746 C108.228481,156.60117 109.867232,162.717074 107.105808,167.5 C104.344385,172.282926 98.2284806,173.921678 93.4455543,171.160254 L41.4840301,141.160254 C36.7011039,138.39883 35.0623523,132.282926 37.8237761,127.5 C40.5851998,122.717074 46.7011039,121.078322 51.4840301,123.839746 Z M372.5,37.8237761 C377.282926,40.5851998 378.921678,46.7011039 376.160254,51.4840301 L346.160254,103.445554 C343.39883,108.228481 337.282926,109.867232 332.5,107.105808 C327.717074,104.344385 326.078322,98.2284806 328.839746,93.4455543 L358.839746,41.4840301 C361.60117,36.7011039 367.717074,35.0623523 372.5,37.8237761 Z M141.160254,41.4840301 L171.160254,93.4455543 C173.921678,98.2284806 172.282926,104.344385 167.5,107.105808 C162.717074,109.867232 156.60117,108.228481 153.839746,103.445554 L123.839746,51.4840301 C121.078322,46.7011039 122.717074,40.5851998 127.5,37.8237761 C132.282926,35.0623523 138.39883,36.7011039 141.160254,41.4840301 Z M250,5 C255.522847,5 260,9.4771525 260,15 L260,75 C260,80.5228475 255.522847,85 250,85 C244.477153,85 240,80.5228475 240,75 L240,15 C240,9.4771525 244.477153,5 250,5 Z" id="Shape" fill="#000000"></path>
    </g>
</svg>