<?xml version="1.0" encoding="UTF-8"?>
<svg width="499px" height="500px" viewBox="0 0 499 500" version="1.1" xmlns="http://www.w3.org/2000/svg" xmlns:xlink="http://www.w3.org/1999/xlink">
    <title>calendar</title>
    <g id="calendar" stroke="none" stroke-width="1" fill="none" fill-rule="evenodd">
        <path d="M370,130 L370,59.9980749 C370,65.0717065 371.887892,69.7038101 375.00002,73.2298534 C376.42975,74.8497379 378.117859,76.2361843 380,77.3247602 C382.941847,79.0262394 386.357728,80 390.001925,80 L359.998075,80 C363.641831,80 367.057857,79.0262717 370,77.3246445 C371.882068,76.2361255 373.57022,74.8497452 375.00002,73.2298534 C378.111906,69.704244 380,65.0725088 380,59.9980749 L380,130 L120,130 L120,59.9980749 C120,65.0717065 121.887892,69.7038101 125.00002,73.2298534 C126.42975,74.8497379 128.117859,76.2361843 130,77.3247602 C132.941847,79.0262394 136.357728,80 140.001925,80 L109.998075,80 C113.641831,80 117.057857,79.0262717 120,77.3246445 C121.882068,76.2361255 123.57022,74.8497452 125.00002,73.2298534 C128.111906,69.704244 130,65.0725088 130,59.9980749 L130,130 L55.0038508,130 C43.9600502,130 35,138.960271 35,150.009152 L35,409.990848 C35,421.047243 43.9507001,430 54.9933326,430 L445.006667,430 C456.043598,430 465,421.041415 465,409.990848 L465,150.009152 C465,138.95417 456.046004,130 444.996149,130 L370,130 Z M5,150.009152 C5,122.38986 27.3933762,100 55.0038508,100 L100,100 L100,59.9980749 C100,54.4762906 104.481169,50 109.998075,50 L140.001925,50 C145.523709,50 150,54.4811691 150,59.9980749 L150,100 L350,100 L350,59.9980749 C350,54.4762906 354.481169,50 359.998075,50 L390.001925,50 C395.523709,50 400,54.4811691 400,59.9980749 L400,100 L444.996149,100 C472.612513,100 495,122.383594 495,150.009152 L495,409.990848 C495,437.61014 472.611959,460 445.006667,460 L54.9933326,460 C27.3827774,460 5,437.616406 5,409.990848 L5,150.009152 Z M130,175 C130,166.715729 136.708853,160 145.000829,160 L234.999171,160 C243.2839,160 250,166.713907 250,175 L250,175 C250,183.284271 243.291147,190 234.999171,190 L145.000829,190 C136.7161,190 130,183.286093 130,175 L130,175 Z M265,175 C265,166.715729 271.70945,160 280.000649,160 L339.999351,160 C348.283981,160 355,166.713907 355,175 L355,175 C355,183.284271 348.29055,190 339.999351,190 L280.000649,190 C271.716019,190 265,183.286093 265,175 L265,175 Z M65,245 C65,236.715729 71.7081139,230 80.0050808,230 L109.994919,230 C118.281996,230 125,236.713907 125,245 L125,245 C125,253.284271 118.291886,260 109.994919,260 L80.0050808,260 C71.7180035,260 65,253.286093 65,245 L65,245 Z M143,245 C143,236.715729 149.708114,230 158.005081,230 L187.994919,230 C196.281996,230 203,236.713907 203,245 L203,245 C203,253.284271 196.291886,260 187.994919,260 L158.005081,260 C149.718004,260 143,253.286093 143,245 L143,245 Z M220,245 C220,236.715729 226.708114,230 235.005081,230 L264.994919,230 C273.281996,230 280,236.713907 280,245 L280,245 C280,253.284271 273.291886,260 264.994919,260 L235.005081,260 C226.718004,260 220,253.286093 220,245 L220,245 Z M298,245 C298,236.715729 304.708114,230 313.005081,230 L342.994919,230 C351.281996,230 358,236.713907 358,245 L358,245 C358,253.284271 351.291886,260 342.994919,260 L313.005081,260 C304.718004,260 298,253.286093 298,245 L298,245 Z M375,245 C375,236.715729 381.708114,230 390.005081,230 L419.994919,230 C428.281996,230 435,236.713907 435,245 L435,245 C435,253.284271 428.291886,260 419.994919,260 L390.005081,260 C381.718004,260 375,253.286093 375,245 L375,245 Z M65,295 C65,286.715729 71.7081139,280 80.0050808,280 L109.994919,280 C118.281996,280 125,286.713907 125,295 L125,295 C125,303.284271 118.291886,310 109.994919,310 L80.0050808,310 C71.7180035,310 65,303.286093 65,295 L65,295 Z M143,295 C143,286.715729 149.708114,280 158.005081,280 L187.994919,280 C196.281996,280 203,286.713907 203,295 L203,295 C203,303.284271 196.291886,310 187.994919,310 L158.005081,310 C149.718004,310 143,303.286093 143,295 L143,295 Z M220,295 C220,286.715729 226.708114,280 235.005081,280 L264.994919,280 C273.281996,280 280,286.713907 280,295 L280,295 C280,303.284271 273.291886,310 264.994919,310 L235.005081,310 C226.718004,310 220,303.286093 220,295 L220,295 Z M298,295 C298,286.715729 304.708114,280 313.005081,280 L342.994919,280 C351.281996,280 358,286.713907 358,295 L358,295 C358,303.284271 351.291886,310 342.994919,310 L313.005081,310 C304.718004,310 298,303.286093 298,295 L298,295 Z M375,295 C375,286.715729 381.708114,280 390.005081,280 L419.994919,280 C428.281996,280 435,286.713907 435,295 L435,295 C435,303.284271 428.291886,310 419.994919,310 L390.005081,310 C381.718004,310 375,303.286093 375,295 L375,295 Z M65,345 C65,336.715729 71.7081139,330 80.0050808,330 L109.994919,330 C118.281996,330 125,336.713907 125,345 L125,345 C125,353.284271 118.291886,360 109.994919,360 L80.0050808,360 C71.7180035,360 65,353.286093 65,345 L65,345 Z M143,345 C143,336.715729 149.708114,330 158.005081,330 L187.994919,330 C196.281996,330 203,336.713907 203,345 L203,345 C203,353.284271 196.291886,360 187.994919,360 L158.005081,360 C149.718004,360 143,353.286093 143,345 L143,345 Z M220,345 C220,336.715729 226.708114,330 235.005081,330 L264.994919,330 C273.281996,330 280,336.713907 280,345 L280,345 C280,353.284271 273.291886,360 264.994919,360 L235.005081,360 C226.718004,360 220,353.286093 220,345 L220,345 Z M298,345 C298,336.715729 304.708114,330 313.005081,330 L342.994919,330 C351.281996,330 358,336.713907 358,345 L358,345 C358,353.284271 351.291886,360 342.994919,360 L313.005081,360 C304.718004,360 298,353.286093 298,345 L298,345 Z M375,345 C375,336.715729 381.708114,330 390.005081,330 L419.994919,330 C428.281996,330 435,336.713907 435,345 L435,345 C435,353.284271 428.291886,360 419.994919,360 L390.005081,360 C381.718004,360 375,353.286093 375,345 L375,345 Z M65,395 C65,386.715729 71.7081139,380 80.0050808,380 L109.994919,380 C118.281996,380 125,386.713907 125,395 L125,395 C125,403.284271 118.291886,410 109.994919,410 L80.0050808,410 C71.7180035,410 65,403.286093 65,395 L65,395 Z M143,395 C143,386.715729 149.708114,380 158.005081,380 L187.994919,380 C196.281996,380 203,386.713907 203,395 L203,395 C203,403.284271 196.291886,410 187.994919,410 L158.005081,410 C149.718004,410 143,403.286093 143,395 L143,395 Z M220,395 C220,386.715729 226.708114,380 235.005081,380 L264.994919,380 C273.281996,380 280,386.713907 280,395 L280,395 C280,403.284271 273.291886,410 264.994919,410 L235.005081,410 C226.718004,410 220,403.286093 220,395 L220,395 Z M298,395 C298,386.715729 304.708114,380 313.005081,380 L342.994919,380 C351.281996,380 358,386.713907 358,395 L358,395 C358,403.284271 351.291886,410 342.994919,410 L313.005081,410 C304.718004,410 298,403.286093 298,395 L298,395 Z M375,395 C375,386.715729 381.708114,380 390.005081,380 L419.994919,380 C428.281996,380 435,386.713907 435,395 L435,395 C435,403.284271 428.291886,410 419.994919,410 L390.005081,410 C381.718004,410 375,403.286093 375,395 L375,395 Z" fill="#000000" fill-rule="nonzero"></path>
    </g>
</svg>