<?xml version="1.0" encoding="UTF-8"?>
<svg width="500px" height="500px" viewBox="0 0 500 500" version="1.1" xmlns="http://www.w3.org/2000/svg" xmlns:xlink="http://www.w3.org/1999/xlink">
    <title>calendar-plus</title>
    <g id="calendar-plus" stroke="none" stroke-width="1" fill="none" fill-rule="evenodd">
        <path d="M370,130 L370,59.9980749 C370,65.0717065 371.887892,69.7038101 375.00002,73.2298534 C376.42975,74.8497379 378.117859,76.2361843 380,77.3247602 C382.941847,79.0262394 386.357728,80 390.001925,80 L359.998075,80 C363.641831,80 367.057857,79.0262717 370,77.3246445 C371.882068,76.2361255 373.57022,74.8497452 375.00002,73.2298534 C378.111906,69.704244 380,65.0725088 380,59.9980749 L380,130 L120,130 L120,59.9980749 C120,65.0717065 121.887892,69.7038101 125.00002,73.2298534 C126.42975,74.8497379 128.117859,76.2361843 130,77.3247602 C132.941847,79.0262394 136.357728,80 140.001925,80 L109.998075,80 C113.641831,80 117.057857,79.0262717 120,77.3246445 C121.882068,76.2361255 123.57022,74.8497452 125.00002,73.2298534 C128.111906,69.704244 130,65.0725088 130,59.9980749 L130,130 L55.0038508,130 C43.9600502,130 35,138.960271 35,150.009152 L35,409.990848 C35,421.047243 43.9507001,430 54.9933326,430 L335,430 L335,460 L444.996149,460 C472.609985,460 495,437.609985 495,409.990848 L495,300 L465,300 L465,150.009152 C465,138.95417 456.046004,130 444.996149,130 L370,130 Z M5,150.009152 C5,122.38986 27.3933762,100 55.0038508,100 L100,100 L100,59.9980749 C100,54.4762906 104.481169,50 109.998075,50 L140.001925,50 C145.523709,50 150,54.4811691 150,59.9980749 L150,100 L350,100 L350,59.9980749 C350,54.4762906 354.481169,50 359.998075,50 L390.001925,50 C395.523709,50 400,54.4811691 400,59.9980749 L400,100 L444.996149,100 C472.612513,100 495,122.383594 495,150.009152 L495,409.990848 C495,437.609985 472.609985,460 445.006667,460 L54.9933326,460 C27.3827774,460 5,437.616406 5,409.990848 L5,150.009152 Z M130,175 C130,166.715729 136.708853,160 145.000829,160 L234.999171,160 C243.2839,160 250,166.713907 250,175 L250,175 C250,183.284271 243.291147,190 234.999171,190 L145.000829,190 C136.7161,190 130,183.286093 130,175 L130,175 Z M265,175 C265,166.715729 271.70945,160 280.000649,160 L339.999351,160 C348.283981,160 355,166.713907 355,175 L355,175 C355,183.284271 348.29055,190 339.999351,190 L280.000649,190 C271.716019,190 265,183.286093 265,175 L265,175 Z M65,245 C65,236.715729 71.7081139,230 80.0050808,230 L109.994919,230 C118.281996,230 125,236.713907 125,245 L125,245 C125,253.284271 118.291886,260 109.994919,260 L80.0050808,260 C71.7180035,260 65,253.286093 65,245 L65,245 Z M143,245 C143,236.715729 149.708114,230 158.005081,230 L187.994919,230 C196.281996,230 203,236.713907 203,245 L203,245 C203,253.284271 196.291886,260 187.994919,260 L158.005081,260 C149.718004,260 143,253.286093 143,245 L143,245 Z M65,295 C65,286.715729 71.7081139,280 80.0050808,280 L109.994919,280 C118.281996,280 125,286.713907 125,295 L125,295 C125,303.284271 118.291886,310 109.994919,310 L80.0050808,310 C71.7180035,310 65,303.286093 65,295 L65,295 Z M143,295 C143,286.715729 149.708114,280 158.005081,280 L187.994919,280 C196.281996,280 203,286.713907 203,295 L203,295 C203,303.284271 196.291886,310 187.994919,310 L158.005081,310 C149.718004,310 143,303.286093 143,295 L143,295 Z M65,345 C65,336.715729 71.7081139,330 80.0050808,330 L109.994919,330 C118.281996,330 125,336.713907 125,345 L125,345 C125,353.284271 118.291886,360 109.994919,360 L80.0050808,360 C71.7180035,360 65,353.286093 65,345 L65,345 Z M143,345 C143,336.715729 149.708114,330 158.005081,330 L187.994919,330 C196.281996,330 203,336.713907 203,345 L203,345 C203,353.284271 196.291886,360 187.994919,360 L158.005081,360 C149.718004,360 143,353.286093 143,345 L143,345 Z M65,395 C65,386.715729 71.7081139,380 80.0050808,380 L109.994919,380 C118.281996,380 125,386.713907 125,395 L125,395 C125,403.284271 118.291886,410 109.994919,410 L80.0050808,410 C71.7180035,410 65,403.286093 65,395 L65,395 Z M143,395 C143,386.715729 149.708114,380 158.005081,380 L187.994919,380 C196.281996,380 203,386.713907 203,395 L203,395 C203,403.284271 196.291886,410 187.994919,410 L158.005081,410 C149.718004,410 143,403.286093 143,395 L143,395 Z M223,245 C223,236.715729 229.708114,230 238.005081,230 L267.994919,230 C276.281996,230 283,236.713907 283,245 L283,245 C283,253.284271 276.291886,260 267.994919,260 L238.005081,260 C229.718004,260 223,253.286093 223,245 L223,245 Z M223,295 C223,286.715729 229.708114,280 238.005081,280 L267.994919,280 C276.281996,280 283,286.713907 283,295 L283,295 C283,303.284271 276.291886,310 267.994919,310 L238.005081,310 C229.718004,310 223,303.286093 223,295 L223,295 Z M223,345 C223,336.715729 229.708114,330 238.005081,330 L267.994919,330 C276.281996,330 283,336.713907 283,345 L283,345 C283,353.284271 276.291886,360 267.994919,360 L238.005081,360 C229.718004,360 223,353.286093 223,345 L223,345 Z M405,300 C413.284271,300 420,306.721965 420,314.998465 L420,365 L480.006827,365 C488.182511,365 494.829808,371.545011 494.996784,379.686104 L495,380 C495,388.284271 488.283438,395 480.006827,395 L420,395 L420,445.001535 C420,453.180105 413.454989,459.829748 405.313896,459.996783 L405,460 C396.715729,460 390,453.278035 390,445.001535 L390,395 L339.993173,395 C331.712672,395 325,388.286093 325,380 C325,371.715729 331.716562,365 339.993173,365 L390,365 L390,314.998465 C390,306.819895 396.545011,300.170252 404.686104,300.003217 L405,300 Z M267.994919,380 C276.177097,380 282.829673,386.545011 282.996781,394.686104 L283,395 C283,403.284271 276.291886,410 267.994919,410 L238.005081,410 C229.718004,410 223,403.286093 223,395 C223,386.715729 229.708114,380 238.005081,380 L267.994919,380 Z" id="Shape" fill="#000000" fill-rule="nonzero"></path>
    </g>
</svg>