<?xml version="1.0" encoding="UTF-8"?>
<svg width="500px" height="500px" viewBox="0 0 500 500" version="1.1" xmlns="http://www.w3.org/2000/svg" xmlns:xlink="http://www.w3.org/1999/xlink">
    <title>camera</title>
    <g id="camera" stroke="none" stroke-width="1" fill="none" fill-rule="evenodd">
        <path d="M280,139 C371.126984,139 445,212.873016 445,304 C445,395.126984 371.126984,469 280,469 C188.873016,469 115,395.126984 115,304 C115,212.873016 188.873016,139 280,139 Z M321.459341,70 C329.637433,70 336.991608,74.9790189 340.028875,82.5721865 L363,140 L445,140 C472.614237,140 495,162.385763 495,190 L495,390 C495,417.614237 472.614237,440 445,440 L397.914662,440.004183 C408.195034,431.083452 417.453916,421.016486 425.492422,410.00217 L445,410 C455.930636,410 464.813225,401.231271 465,390.344489 L465,190 C465,179.069364 456.231271,170.186775 445.344489,170.002907 L445,170 L400.182244,169.996944 C380.998534,152.780302 358.097118,139.62321 332.829564,131.877236 L318.074,95 L181.925,95 L163.925,140 L205.712663,139.996064 C188.868517,147.637916 173.409968,157.798456 159.817756,169.996944 L55,170 C44.0693643,170 35.186775,178.768729 35,189.655511 L35,390 C35,400.930636 43.7687286,409.813225 54.6555106,409.997093 L55,410 L134.507578,410.00217 C142.546084,421.016486 151.804966,431.083452 162.085338,440.004183 L55,440 C27.3857625,440 5,417.614237 5,390 L5,190 C5,162.385763 27.3857625,140 55,140 L50,140 L50,130 C50,118.954305 58.954305,110 70,110 L90,110 C101.045695,110 110,118.954305 110,130 L110,140 L137,140 L159.971125,82.5721865 C163.008392,74.9790189 170.362567,70 178.540659,70 L321.459341,70 Z M280,169 C205.441559,169 145,229.441559 145,304 C145,378.558441 205.441559,439 280,439 C354.558441,439 415,378.558441 415,304 C415,229.441559 354.558441,169 280,169 Z M280,229 C321.421356,229 355,262.578644 355,304 C355,345.421356 321.421356,379 280,379 C238.578644,379 205,345.421356 205,304 C205,262.578644 238.578644,229 280,229 Z M280,259 C255.147186,259 235,279.147186 235,304 C235,328.852814 255.147186,349 280,349 C304.852814,349 325,328.852814 325,304 C325,279.147186 304.852814,259 280,259 Z M65,180 C76.045695,180 85,188.954305 85,200 C85,211.045695 76.045695,220 65,220 C53.954305,220 45,211.045695 45,200 C45,188.954305 53.954305,180 65,180 Z" id="Shape" fill="#000000" fill-rule="nonzero"></path>
    </g>
</svg>