<?xml version="1.0" encoding="UTF-8"?>
<svg width="500px" height="500px" viewBox="0 0 500 500" version="1.1" xmlns="http://www.w3.org/2000/svg" xmlns:xlink="http://www.w3.org/1999/xlink">
    <title>chat</title>
    <g id="chat" stroke="none" stroke-width="1" fill="none" fill-rule="evenodd">
        <path d="M388.809,320 L444.996149,320 C456.040888,320 465,311.04192 465,299.997837 L465,100.002163 C465,88.9589821 456.043678,80 445.006667,80 L54.9933326,80 C43.9554632,80 35,88.9563937 35,100.002163 L35,299.997837 C35,311.039572 43.9596957,320 55.0040961,320 L280,320 L280,414.301134 L388.809,320 Z M5,100.002163 C5,72.3867309 27.3880408,50 54.9933326,50 L445.006667,50 C472.617223,50 495,72.3954421 495,100.002163 L495,299.997837 C495,327.613269 472.606624,350 444.996149,350 L400,350 L250,480 L250,350 L55.0040961,350 C27.3875964,350 5,327.604558 5,299.997837 L5,100.002163 Z" fill="#000000" fill-rule="nonzero"></path>
    </g>
</svg>