<?xml version="1.0" encoding="UTF-8"?>
<svg width="500px" height="500px" viewBox="0 0 500 500" version="1.1" xmlns="http://www.w3.org/2000/svg" xmlns:xlink="http://www.w3.org/1999/xlink">
    <title>check-circle-filled</title>
    <g id="check-circle-filled" stroke="none" stroke-width="1" fill="none" fill-rule="evenodd">
        <path d="M250,10 C385.309764,10 495,119.690236 495,255 C495,390.309764 385.309764,500 250,500 C114.690236,500 5,390.309764 5,255 C5,119.690236 114.690236,10 250,10 Z M396.432108,144.567892 C391.754205,139.889989 384.218267,139.812024 379.445096,144.333997 L379.204801,144.567892 L198.31808,325.454614 L120.795199,247.931733 C116.038009,243.174544 108.325081,243.174544 103.567892,247.931733 C98.8899891,252.609636 98.8120241,260.145574 103.333997,264.918745 L103.567892,265.15904 L198.31808,359.909227 L396.432108,161.795199 C401.189297,157.038009 401.189297,149.325081 396.432108,144.567892 Z" id="Shape" fill="#000000"></path>
    </g>
</svg>