<?xml version="1.0" encoding="UTF-8"?>
<svg width="500px" height="500px" viewBox="0 0 500 500" version="1.1" xmlns="http://www.w3.org/2000/svg" xmlns:xlink="http://www.w3.org/1999/xlink">
    <title>clear-format</title>
    <g id="clear-format" stroke="none" stroke-width="1" fill="none" fill-rule="evenodd">
        <path d="M46.4254714,5 L54.743,15 L55.318,15 L116.642,88.727 L116.595,89.361 L202.777,192.971 L202.777,192.282 L296.878,305.414 L296.878,306.103 L454,495 L411.573529,495 L296.878,357.109 L296.878906,418.154297 L347.152344,427.822266 L347.152344,484.21875 L152.503906,484.21875 L152.503906,427.822266 L202.777344,418.154297 L202.777,243.977 L113.146,136.22 L112.865234,140.039062 L41,140.039062 L41,49.483 L4,5 L46.4254714,5 Z M459.300781,15 L459.300781,140.039062 L387.113281,140.039062 L383.246094,87.5097656 L296.878906,87.5097656 L296.878,254.406 L202.777,141.275 L202.777344,87.5097656 L158.056,87.509 L97.744,15 L459.300781,15 Z" id="Shape" fill="#000000" fill-rule="nonzero"></path>
    </g>
</svg>