<?xml version="1.0" encoding="UTF-8"?>
<svg width="500px" height="500px" viewBox="0 0 500 500" version="1.1" xmlns="http://www.w3.org/2000/svg" xmlns:xlink="http://www.w3.org/1999/xlink">
    <title>clock</title>
    <g id="clock" stroke="none" stroke-width="1" fill="none" fill-rule="evenodd">
        <path d="M250,5 C385.309764,5 495,114.690236 495,250 C495,299.045634 480.58846,344.725272 455.76905,383.035243 C440.983041,405.85817 422.503169,426.065524 401.175953,442.810786 C380.585619,458.977477 357.3413,471.917182 332.204769,480.868131 C306.509244,490.018133 278.836411,495 250,495 C114.690236,495 5,385.309764 5,250 C5,114.690236 114.690236,5 250,5 Z M250,35 C131.258779,35 35,131.258779 35,250 C35,368.741221 131.258779,465 250,465 C274.912,465 299.203487,460.774379 322.14099,452.60649 C343.994363,444.824652 364.4157,433.531237 382.649404,419.214875 C401.407206,404.487013 417.628881,386.731384 430.591123,366.72353 C452.939002,332.228487 465,292.046164 465,250 C465,131.258779 368.741221,35 250,35 Z M139.999054,260 C131.715305,260 125,253.286093 125,245 C125,236.715729 131.717103,230 139.999054,230 L235,230 L235,74.9915858 C235,66.816767 241.545011,60.1701743 249.686104,60.003216 L250,60 C258.284271,60 265,66.711547 265,74.9915858 L265,245.008414 C265,252.34479 259.728706,258.450346 252.763139,259.746269 L252.46349,259.79874 C251.762411,259.914583 251.044948,259.98179 250.314688,259.996782 L250,260 L139.999054,260 Z" fill="#000000" fill-rule="nonzero"></path>
    </g>
</svg>