<?xml version="1.0" encoding="UTF-8"?>
<svg width="500px" height="500px" viewBox="0 0 500 500" version="1.1" xmlns="http://www.w3.org/2000/svg" xmlns:xlink="http://www.w3.org/1999/xlink">
    <title>copy</title>
    <g id="copy" stroke="none" stroke-width="1" fill="none" fill-rule="evenodd">
        <path d="M440.009625,105 C467.345585,105 489.551911,126.939863 489.993304,154.172211 L490,154.999036 L490,375 L390,475 L229.990375,475 C202.654415,475 180.448089,453.060137 180.006696,425.827789 L180,425.000964 L180,154.999036 C180,127.668557 201.936062,105.448371 229.163692,105.006701 L229.990375,105 L440.009625,105 Z M440.357623,135 L229.646183,135 C218.884438,135.184837 210.186807,143.883701 210.002969,154.650995 L210,154.999036 L210,425.000964 L210.002905,425.345515 C210.184717,436.118352 218.876491,444.813253 229.642377,445 L377.573,445 L460,362.573 L460,154.999036 L459.997095,154.654485 C459.815283,143.881648 451.123509,135.186747 440.357623,135 Z M454,345 L364,435 L364,345 L454,345 Z M270.009625,5 C297.345585,5 319.551911,26.9398629 319.993304,54.1722107 L320,54.9990362 L320,75 L290,75 L290,54.9990362 L289.997095,54.6544854 C289.813328,43.7658113 280.935605,35 270.009625,35 L59.6461826,35 C48.8844375,35.1848374 40.1868072,43.8837008 40.0029691,54.6509947 L40,54.9990362 L40,325.000964 L40.0029055,325.345515 C40.1847175,336.118352 48.8764912,344.813253 59.6423765,344.997032 L59.9903746,345 L150,345 L150,375 L59.9903746,375 C32.6544153,375 10.4480893,353.060137 10.0066963,325.827789 L10,325.000964 L10,54.9990362 C10,27.6685571 31.9360622,5.44837124 59.1636923,5.00670057 L59.9903746,5 L270.009625,5 Z" id="Shape" fill="#000000" fill-rule="nonzero"></path>
    </g>
</svg>