<?xml version="1.0" encoding="UTF-8"?>
<svg width="500px" height="500px" viewBox="0 0 500 500" version="1.1" xmlns="http://www.w3.org/2000/svg" xmlns:xlink="http://www.w3.org/1999/xlink">
    <title>copy-to</title>
    <g id="copy-to" stroke="none" stroke-width="1" fill="none" fill-rule="evenodd">
        <path d="M159.292208,75 C172.553232,75 185.271102,80.268 194.647954,89.6450679 L250.001612,145 L445.003223,145 C472.617461,145 495.003223,167.385763 495.003223,195 L495.003223,375 C495.003223,402.614237 472.617461,425 445.003223,425 L55,425 C27.3857625,425 5,402.614237 5,375 L5,315 L35,315 L35,375 C35,385.930636 43.7687286,394.813225 54.6555106,394.997093 L55,395 L445.003223,395 C455.933859,395 464.816448,386.231271 465.003223,375.344489 L465.003223,195 C465.003223,184.069364 456.234495,175.186775 445.347713,175.002907 L445.003223,175 L237.575002,175 L173.434506,110.858027 C169.787953,107.21139 164.878206,105.118335 159.733715,105.004868 L159.292208,105 L55,105 C44.0693643,105 35.186775,113.768729 35,124.655511 L35,225 L5,225 L5,125 C5,97.3857625 27.3857625,75 55,75 L159.292208,75 Z M181.819805,174.393398 L277.279221,269.852814 L181.819805,365.312229 C175.961941,371.170094 166.464466,371.170094 160.606602,365.312229 C154.748737,359.454365 154.748737,349.95689 160.606602,344.099026 L219.919,284.786 L5,284.786797 L5,254.786797 L219.787,254.786 L160.606602,195.606602 C154.748737,189.748737 154.748737,180.251263 160.606602,174.393398 C166.464466,168.535534 175.961941,168.535534 181.819805,174.393398 Z M367,210 C375.284271,210 382,216.715729 382,225 L382,255 L412,255 C420.284271,255 427,261.715729 427,270 C427,278.284271 420.284271,285 412,285 L382,285 L382,315 C382,323.284271 375.284271,330 367,330 C358.715729,330 352,323.284271 352,315 L352,285 L322,285 C313.715729,285 307,278.284271 307,270 C307,261.715729 313.715729,255 322,255 L352,255 L352,225 C352,216.715729 358.715729,210 367,210 Z" id="Shape" fill="#000000" fill-rule="nonzero"></path>
    </g>
</svg>