<?xml version="1.0" encoding="UTF-8"?>
<svg width="500px" height="500px" viewBox="0 0 500 500" version="1.1" xmlns="http://www.w3.org/2000/svg" xmlns:xlink="http://www.w3.org/1999/xlink">
    <title>credit-card-alt</title>
    <g id="credit-card-alt" stroke="none" stroke-width="1" fill="none" fill-rule="evenodd">
        <path d="M435,100 C467.805714,100 494.462114,126.328343 494.991962,159.00779 L495,160 L495,340 C495,372.805714 468.671657,399.462114 435.99221,399.991962 L435,400 L65,400 C32.1942859,400 5.53788572,373.671657 5.00803829,340.99221 L5,340 L5,160 C5,127.194286 31.328343,100.537886 64.0077903,100.008038 L65,100 L435,100 Z M465,230 L35,230 L35,340 C35,356.402857 48.1641715,369.731057 64.5038951,369.995981 L65,370 L435,370 C451.402857,370 464.731057,356.835828 465,340.496105 L465,230 Z M133,270 C152.329966,270 168,285.670034 168,305 C168,324.329966 152.329966,340 133,340 C125.563648,340 118.668962,337.680857 112.999746,333.726376 C107.331849,337.680584 100.436789,340 93,340 C73.6700338,340 58,324.329966 58,305 C58,285.670034 73.6700338,270 93,270 C100.436789,270 107.331849,272.319416 113.001254,276.274321 C118.668962,272.319143 125.563648,270 133,270 Z M445,270 L445,320 L295,320 L295,270 L445,270 Z M435,130 L65,130 C48.5971429,130 35.2689429,143.164172 35,159.503895 L35,180 L465,180 L465,160 C465,143.597143 451.835828,130.268943 435.496105,130.004019 L435,130 Z" id="Shape" fill="#000000" fill-rule="nonzero"></path>
    </g>
</svg>