<?xml version="1.0" encoding="UTF-8"?>
<svg width="500px" height="500px" viewBox="0 0 500 500" version="1.1" xmlns="http://www.w3.org/2000/svg" xmlns:xlink="http://www.w3.org/1999/xlink">
    <title>credit-card</title>
    <g id="credit-card" stroke="none" stroke-width="1" fill="none" fill-rule="evenodd">
        <path d="M435,100 C467.805714,100 494.462114,126.328343 494.991962,159.00779 L495,160 L495,340 C495,372.805714 468.671657,399.462114 435.99221,399.991962 L435,400 L65,400 C32.1942859,400 5.53788572,373.671657 5.00803829,340.99221 L5,340 L5,160 C5,127.194286 31.328343,100.537886 64.0077903,100.008038 L65,100 L435,100 Z M435,130 L65,130 C48.5971429,130 35.2689429,143.164172 35,159.503895 L35,340 C35,356.402857 48.1641715,369.731057 64.5038951,369.995981 L65,370 L435,370 C451.402857,370 464.731057,356.835828 465,340.496105 L465,160 C465,143.597143 451.835828,130.268943 435.496105,130.004019 L435,130 Z M245,300 C250.522847,300 255,304.477153 255,310 C255,315.522847 250.522847,320 245,320 L65,320 C59.4771525,320 55,315.522847 55,310 C55,304.477153 59.4771525,300 65,300 L245,300 Z M135,260 C140.522847,260 145,264.477153 145,270 C145,275.522847 140.522847,280 135,280 L65,280 C59.4771525,280 55,275.522847 55,270 C55,264.477153 59.4771525,260 65,260 L135,260 Z M235,260 C240.522847,260 245,264.477153 245,270 C245,275.522847 240.522847,280 235,280 L165,280 C159.477153,280 155,275.522847 155,270 C155,264.477153 159.477153,260 165,260 L235,260 Z M335,260 C340.522847,260 345,264.477153 345,270 C345,275.522847 340.522847,280 335,280 L265,280 C259.477153,280 255,275.522847 255,270 C255,264.477153 259.477153,260 265,260 L335,260 Z M435,260 C440.522847,260 445,264.477153 445,270 C445,275.522847 440.522847,280 435,280 L365,280 C359.477153,280 355,275.522847 355,270 C355,264.477153 359.477153,260 365,260 L435,260 Z M80,205 L80,215 L145,215 L145,220 C145,225.522847 140.522847,230 135,230 L65,230 C59.4771525,230 55,225.522847 55,220 L55,205 L80,205 Z M110,185 L110,205 L90,205 L90,185 L110,185 Z M145,195 L145,205 L120,205 L120,195 L145,195 Z M80,185 L80,195 L55,195 L55,185 L80,185 Z M135,160 C140.522847,160 145,164.477153 145,170 L145,185 L120,185 L120,175 L55,175 L55,170 C55,164.477153 59.4771525,160 65,160 L135,160 Z" id="Shape" fill="#000000" fill-rule="nonzero"></path>
    </g>
</svg>