<?xml version="1.0" encoding="UTF-8"?>
<svg width="500px" height="500px" viewBox="0 0 500 500" version="1.1" xmlns="http://www.w3.org/2000/svg" xmlns:xlink="http://www.w3.org/1999/xlink">
    <title>crop</title>
    <g id="crop" stroke="none" stroke-width="1" fill="none" fill-rule="evenodd">
        <path d="M295.918367,25 C321.278381,25 341.836735,45.5583533 341.836735,70.9183673 L341.836735,158.163265 L429.081633,158.163265 C454.441647,158.163265 475,178.721619 475,204.081633 L475,429.081633 C475,454.441647 454.441647,475 429.081633,475 L204.081633,475 C178.721619,475 158.163265,454.441647 158.163265,429.081633 L158.163265,341.836735 L70.9183673,341.836735 C45.5583533,341.836735 25,321.278381 25,295.918367 L25,70.9183673 C25,45.5583533 45.5583533,25 70.9183673,25 L295.918367,25 Z M296.875,175 L203.125,175 C187.747321,175 175.252134,187.341411 175.003768,202.659902 L175,203.125 L175,296.875 C175,312.252679 187.341411,324.747866 202.659902,324.996232 L203.125,325 L296.875,325 C312.252679,325 324.747866,312.658589 324.996232,297.340098 L325,296.875 L325,203.125 C325,187.747321 312.658589,175.252134 297.340098,175.003768 L296.875,175 Z" id="Combined-Shape" fill="#000000"></path>
    </g>
</svg>