<?xml version="1.0" encoding="UTF-8"?>
<svg width="500px" height="500px" viewBox="0 0 500 500" version="1.1" xmlns="http://www.w3.org/2000/svg" xmlns:xlink="http://www.w3.org/1999/xlink">
    <title>currency-bitcoin</title>
    <g id="currency-bitcoin" stroke="none" stroke-width="1" fill="none" fill-rule="evenodd">
        <path d="M104,440 L104,60 L170,60 L170,5 L200,5 L200,60 L250,60 L250,5 L280,5 L280,60 L292.929577,60 L293.770555,60.0038766 C306.639531,60.1227586 318.312257,62.9759265 328.788732,68.5633803 C339.492958,74.2723005 348.591549,81.6760563 356.084507,90.7746479 C363.577465,99.8732394 369.375587,110.220657 373.478873,121.816901 C377.58216,133.413146 379.633803,145.098592 379.633803,156.873239 C379.633803,175.784038 374.906103,193.267606 365.450704,209.323944 C355.995305,225.380282 342.525822,237.333333 325.042254,245.183099 C346.807512,251.605634 364.023474,263.469484 376.690141,280.774648 C389.356808,298.079812 395.690141,318.507042 395.690141,342.056338 C395.690141,356.685446 392.746479,370.065728 386.859155,382.197183 C380.971831,394.328638 372.943662,404.676056 362.774648,413.239437 C352.605634,421.802817 340.830986,428.403756 327.450704,433.042254 C314.40493,437.564789 300.426382,439.882588 285.515062,439.995651 L284.366197,440 L280,440 L280,495 L250,495 L250,440 L200,440 L200,495 L170,495 L170,440 L104,440 Z M288.112676,267.661972 L152.169014,267.661972 L152.169014,398.253521 L284.366197,398.253521 C293.286385,398.253521 301.492958,396.469484 308.985915,392.901408 C316.478873,389.333333 323.079812,384.605634 328.788732,378.71831 C334.497653,372.830986 338.957746,365.962441 342.169014,358.112676 C345.380282,350.262911 346.985915,342.056338 346.985915,333.492958 C346.985915,324.929577 345.469484,316.633803 342.43662,308.605634 C339.403756,300.577465 335.300469,293.530516 330.126761,287.464789 C324.953052,281.399061 318.798122,276.58216 311.661972,273.014085 C304.742069,269.554133 297.151144,267.771734 288.889199,267.666887 L288.112676,267.661972 Z M276.338028,101.746479 L152.169014,101.746479 L152.169014,228.591549 L273.126761,228.591549 C281.690141,228.591549 289.539906,226.896714 296.676056,223.507042 C303.812207,220.117371 309.967136,215.568075 315.140845,209.859155 C320.314554,204.150235 324.41784,197.460094 327.450704,189.788732 C330.483568,182.117371 332,174 332,165.43662 C332,156.516432 330.57277,148.131455 327.71831,140.28169 C324.86385,132.431925 321.028169,125.652582 316.211268,119.943662 C311.394366,114.234742 305.507042,109.774648 298.549296,106.56338 C291.823474,103.459155 284.680882,101.855305 277.121518,101.751831 L276.338028,101.746479 Z" id="Shape" fill="#000000" fill-rule="nonzero"></path>
    </g>
</svg>