<?xml version="1.0" encoding="UTF-8"?>
<svg width="500px" height="500px" viewBox="0 0 500 500" version="1.1" xmlns="http://www.w3.org/2000/svg" xmlns:xlink="http://www.w3.org/1999/xlink">
    <title>currency-gbp</title>
    <g id="currency-gbp" stroke="none" stroke-width="1" fill="none" fill-rule="evenodd">
        <path d="M315.739726,495 C328.269406,495 340.910959,493.43379 353.664384,490.30137 C366.417808,487.16895 378.611872,482.694064 390.246575,476.876712 L390.246575,476.876712 L375.479452,431.90411 C363.844749,435.931507 353.664384,438.952055 344.938356,440.965753 C336.212329,442.979452 327.374429,443.986301 318.424658,443.986301 C302.762557,443.986301 287.659817,441.972603 273.116438,437.945205 C258.573059,433.917808 242.351598,431.90411 224.452055,431.90411 C207.894977,431.90411 191.3379,434.141553 174.780822,438.616438 C198.945205,412.6621 215.949772,389.840183 225.794521,370.150685 C235.639269,350.461187 240.561644,329.652968 240.561644,307.726027 C240.561644,302.803653 240.3379,297.993151 239.890411,293.294521 C239.442922,288.59589 238.771689,283.785388 237.876712,278.863014 L237.876712,278.863014 L343.260274,278.863014 L343.260274,233.219178 L223.109589,233.219178 C218.634703,223.374429 213.824201,213.977169 208.678082,205.027397 C203.531963,196.077626 198.833333,187.239726 194.582192,178.513699 C190.33105,169.787671 186.751142,161.061644 183.842466,152.335616 C180.93379,143.609589 179.479452,134.771689 179.479452,125.821918 C179.479452,115.977169 181.269406,106.579909 184.849315,97.630137 C188.429224,88.6803653 193.46347,81.0730594 199.952055,74.8082192 C206.440639,68.543379 213.936073,63.5091324 222.438356,59.7054795 C230.940639,55.9018265 240.3379,54 250.630137,54 C268.52968,54 286.205479,59.2579909 303.657534,69.7739726 C321.109589,80.2899543 335.205479,94.2739726 345.945205,111.726027 L345.945205,111.726027 L378.835616,75.4794521 C364.515982,53.5525114 346.16895,36.3242009 323.794521,23.7945205 C301.420091,11.2648402 277.479452,5 251.972603,5 C234.520548,5 218.075342,8.02054795 202.636986,14.0616438 C187.19863,20.1027397 173.773973,28.3812785 162.363014,38.8972603 C150.952055,49.413242 141.890411,61.7191781 135.178082,75.8150685 C128.465753,89.9109589 125.109589,105.013699 125.109589,121.123288 C125.109589,131.415525 126.452055,141.372146 129.136986,150.993151 C131.821918,160.614155 135.289954,169.899543 139.541096,178.849315 C143.792237,187.799087 148.378995,196.748858 153.30137,205.69863 C158.223744,214.648402 162.922374,223.821918 167.39726,233.219178 L167.39726,233.219178 L109,233.219178 L109,278.863014 L184.849315,278.863014 C187.534247,289.155251 188.876712,299.671233 188.876712,310.410959 C188.876712,332.3379 182.723744,353.817352 170.417808,374.849315 C158.111872,395.881279 137.639269,420.045662 109,447.342466 L109,447.342466 L123.767123,490.30137 C135.849315,486.721461 148.826484,483.812785 162.69863,481.575342 C176.570776,479.3379 189.100457,478.219178 200.287671,478.219178 C210.579909,478.219178 220.53653,479.114155 230.157534,480.90411 C239.778539,482.694064 249.287671,484.59589 258.684932,486.609589 C268.082192,488.623288 277.36758,490.525114 286.541096,492.315068 C295.714612,494.105023 305.447489,495 315.739726,495 Z" id="£" fill="#000000" fill-rule="nonzero"></path>
    </g>
</svg>