<?xml version="1.0" encoding="UTF-8"?>
<svg width="500px" height="500px" viewBox="0 0 500 500" version="1.1" xmlns="http://www.w3.org/2000/svg" xmlns:xlink="http://www.w3.org/1999/xlink">
    <title>currency-inr</title>
    <g id="currency-inr" stroke="none" stroke-width="1" fill="none" fill-rule="evenodd">
        <path d="M342.408451,495 L223.704225,307.28169 C239.347418,303.140845 253.495305,296.469484 266.147887,287.267606 C278.800469,278.065728 289.612676,267.023474 298.584507,254.140845 C307.556338,241.258216 314.457746,226.880282 319.288732,211.007042 C324.119718,195.133803 326.535211,178.685446 326.535211,161.661972 C326.535211,155.220657 326.075117,149.00939 325.15493,143.028169 C324.234742,137.046948 323.084507,130.835681 321.704225,124.394366 L321.704225,124.394366 L394.859155,124.394366 L394.859155,88.5070423 L307.901408,88.5070423 C303.300469,79.3051643 297.894366,70.7934272 291.683099,62.971831 C285.471831,55.1502347 278.455399,47.7887324 270.633803,40.8873239 L270.633803,40.8873239 L394.859155,40.8873239 L394.859155,5 L105,5 L105,60.2112676 L174.704225,60.2112676 C186.206573,60.2112676 197.248826,62.741784 207.830986,67.8028169 C218.413146,72.8638498 227.615023,79.7652582 235.43662,88.5070423 L235.43662,88.5070423 L105,88.5070423 L105,124.394366 L256.830986,124.394366 C261.431925,137.276995 263.732394,149.699531 263.732394,161.661972 C263.732394,175.004695 261.661972,187.887324 257.521127,200.309859 C253.380282,212.732394 247.629108,223.659624 240.267606,233.091549 C232.906103,242.523474 224.049296,250 213.697183,255.521127 C203.34507,261.042254 191.7277,263.802817 178.84507,263.802817 L178.84507,263.802817 L125.704225,263.802817 L272.014085,495 L342.408451,495 Z" id="₹" fill="#000000" fill-rule="nonzero"></path>
    </g>
</svg>