<?xml version="1.0" encoding="UTF-8"?>
<svg width="500px" height="500px" viewBox="0 0 500 500" version="1.1" xmlns="http://www.w3.org/2000/svg" xmlns:xlink="http://www.w3.org/1999/xlink">
    <title>currency-cny</title>
    <g id="currency-cny" stroke="none" stroke-width="1" fill="none" fill-rule="evenodd">
        <path d="M439.955947,62.6475771 L439.955947,13 L63.8215859,13 L63.8215859,62.6475771 L439.955947,62.6475771 Z M32.5220264,486.810573 C92.9625551,465.22467 136.134361,435.544053 163.11674,397.229075 C190.099119,355.676211 205.209251,300.092511 207.367841,231.017621 L207.367841,221.303965 L292.632159,221.303965 L292.632159,419.894273 C292.632159,457.669604 310.980176,476.557269 347.676211,476.557269 L431.321586,476.557269 C450.748899,476.557269 464.779736,470.621145 474.493392,459.828194 C484.207048,447.955947 491.222467,412.339207 495,351.898678 L448.590308,336.788546 C447.511013,382.118943 444.273128,409.101322 439.4163,418.27533 C435.638767,426.370044 429.702643,430.687225 421.60793,430.687225 L362.246696,430.687225 C348.755507,430.687225 342.279736,423.132159 342.279736,409.101322 L342.279736,221.303965 L486.905286,221.303965 L486.905286,171.656388 L22.2687225,171.656388 L22.2687225,221.303965 L157.720264,221.303965 L157.720264,231.017621 C155.561674,285.522026 144.229075,329.773128 123.722467,364.310573 C102.676211,396.14978 63.2819383,422.592511 5,443.638767 L32.5220264,486.810573 Z" id="元" fill="#000000" fill-rule="nonzero"></path>
    </g>
</svg>