<?xml version="1.0" encoding="UTF-8"?>
<svg width="500px" height="500px" viewBox="0 0 500 500" version="1.1" xmlns="http://www.w3.org/2000/svg" xmlns:xlink="http://www.w3.org/1999/xlink">
    <title>currency-eur</title>
    <g id="currency-eur" stroke="none" stroke-width="1" fill="none" fill-rule="evenodd">
        <path d="M300.638889,495 C319.240741,495 338.296296,492.50463 357.805556,487.513889 C377.314815,482.523148 395.803241,475.263889 413.270833,465.736111 C430.738426,456.208333 446.391204,444.525463 460.229167,430.6875 C474.06713,416.849537 484.842593,400.856481 492.555556,382.708333 L492.555556,382.708333 L441.513889,354.805556 C434.708333,369.777778 425.974537,382.594907 415.3125,393.256944 C404.650463,403.918981 393.194444,412.766204 380.944444,419.798611 C368.694444,426.831019 355.877315,431.935185 342.493056,435.111111 C329.108796,438.287037 316.064815,439.875 303.361111,439.875 C284.759259,439.875 267.178241,436.699074 250.618056,430.347222 C234.05787,423.99537 218.972222,415.261574 205.361111,404.145833 C191.75,393.030093 179.953704,379.759259 169.972222,364.333333 C159.990741,348.907407 152.050926,332.347222 146.152778,314.652778 L146.152778,314.652778 L315.611111,314.652778 L330.583333,279.263889 L137.986111,279.263889 C136.625,269.736111 135.944444,259.527778 135.944444,248.638889 L135.944444,248.638889 L135.944444,239.111111 L339.430556,239.111111 L354.402778,203.722222 L140.027778,203.722222 C144.111111,184.666667 150.576389,166.518519 159.423611,149.277778 C168.270833,132.037037 179.5,116.837963 193.111111,103.680556 C206.722222,90.5231481 222.488426,79.974537 240.409722,72.0347222 C258.331019,64.0949074 278.634259,60.125 301.319444,60.125 C313.569444,60.125 326.046296,61.4861111 338.75,64.2083333 C351.453704,66.9305556 363.81713,71.4675926 375.840278,77.8194444 C387.863426,84.1712963 398.979167,92.5648148 409.1875,103 C419.395833,113.435185 428.12963,126.365741 435.388889,141.791667 L435.388889,141.791667 L483.708333,110.486111 C468.736111,79.1805556 445.824074,53.7731481 414.972222,34.2638889 C384.12037,14.7546296 347.143519,5 304.041667,5 C271.828704,5 242.791667,10.5578704 216.930556,21.6736111 C191.069444,32.7893519 168.497685,47.5347222 149.215278,65.9097222 C129.93287,84.2847222 114.280093,105.381944 102.256944,129.201389 C90.2337963,153.020833 81.9537037,177.861111 77.4166667,203.722222 L77.4166667,203.722222 L39.3055556,203.722222 L24.3333333,239.111111 L74.0138889,239.111111 L74.0138889,245.916667 C74.0138889,257.259259 74.6944444,268.375 76.0555556,279.263889 L76.0555556,279.263889 L22.9722222,279.263889 L8,314.652778 L83.5416667,314.652778 C90.3472222,339.152778 100.44213,362.291667 113.826389,384.069444 C127.210648,405.847222 143.203704,424.902778 161.805556,441.236111 C180.407407,457.569444 201.391204,470.613426 224.756944,480.368056 C248.122685,490.122685 273.416667,495 300.638889,495 Z" id="€" fill="#000000" fill-rule="nonzero"></path>
    </g>
</svg>