<?xml version="1.0" encoding="UTF-8"?>
<svg width="500px" height="500px" viewBox="0 0 500 500" version="1.1" xmlns="http://www.w3.org/2000/svg" xmlns:xlink="http://www.w3.org/1999/xlink">
    <title>currency-usd</title>
    <g id="currency-usd" stroke="none" stroke-width="1" fill="none" fill-rule="evenodd">
        <path d="M264.436009,495 L264.436009,441.854664 C282.859725,441.500362 300.13196,439.108821 316.252711,434.680043 C332.373463,430.251265 346.279826,423.785249 357.9718,415.281996 C369.663774,406.778742 378.875633,395.972523 385.607375,382.863341 C392.339118,369.754158 395.704989,354.34201 395.704989,336.626898 C395.704989,319.62039 392.781996,305.27115 386.936009,293.579176 C381.090022,281.887202 372.586768,271.966739 361.426247,263.817787 C350.265727,255.668836 336.802242,248.848518 321.035792,243.356833 C305.269342,237.865148 287.642805,232.993492 268.156182,228.741866 L268.156182,228.741866 L261.247289,227.147505 L261.247289,101.193059 C271.876356,101.547361 281.97397,102.875994 291.54013,105.178959 C301.106291,107.481923 310.052422,110.493492 318.378525,114.213666 C326.704628,117.933839 334.056399,122.008315 340.433839,126.437093 C346.81128,130.865871 352.125813,135.383225 356.37744,139.989154 L356.37744,139.989154 L378.698482,101.193059 C363.817787,88.7924801 346.899855,78.8720174 327.944685,71.4316703 C308.989516,63.9913232 287.819957,59.7396963 264.436009,58.6767896 L264.436009,58.6767896 L264.436009,5 L241.052061,5 L241.052061,58.6767896 C223.336949,59.7396963 207.039046,62.9284165 192.158351,68.2429501 C177.277657,73.5574837 164.434201,80.9092552 153.627983,90.2982646 C142.821764,99.687274 134.407086,111.024946 128.383948,124.31128 C122.36081,137.597614 119.349241,152.744035 119.349241,169.750542 C119.349241,184.631236 121.829356,197.386117 126.789588,208.015184 C131.749819,218.644252 139.101591,227.678959 148.844902,235.119306 C158.588214,242.559653 170.723066,248.937093 185.249458,254.251627 C199.77585,259.566161 216.605206,264.526392 235.737527,269.132321 L235.737527,269.132321 L243.709328,271.258134 L243.709328,398.275488 C230.954447,397.212581 218.73102,394.998192 207.039046,391.632321 C195.347072,388.26645 184.452278,384.28055 174.354664,379.67462 C164.25705,375.068691 155.310918,370.019884 147.516269,364.5282 C139.72162,359.036515 133.167028,353.633406 127.852495,348.318872 L127.852495,348.318872 L105,388.709328 C143.973247,420.596529 189.323933,438.13449 241.052061,441.32321 L241.052061,441.32321 L241.052061,495 L264.436009,495 Z M243.709328,223.427332 C230.954447,220.238612 219.793926,216.961316 210.227766,213.595445 C200.661605,210.229573 192.866956,206.243673 186.843818,201.637744 C180.82068,197.031815 176.303326,191.54013 173.291757,185.16269 C170.280188,178.785249 168.774403,171.167751 168.774403,162.310195 C168.774403,144.240781 174.797542,129.89154 186.843818,119.262473 C198.890094,108.633406 217.845264,102.610268 243.709328,101.193059 L243.709328,101.193059 L243.709328,223.427332 Z M261.247289,398.806941 L261.247289,275.509761 C274.710774,279.052784 286.579899,282.772957 296.854664,286.670282 C307.129429,290.567607 315.809834,295.08496 322.895879,300.222343 C329.981923,305.359725 335.385033,311.205712 339.105206,317.760304 C342.82538,324.314895 344.685466,332.19812 344.685466,341.409978 C344.685466,360.542299 337.42227,374.89154 322.895879,384.457701 C308.369487,394.023861 287.819957,398.806941 261.247289,398.806941 L261.247289,398.806941 Z" id="$" fill="#000000" fill-rule="nonzero"></path>
    </g>
</svg>