<?xml version="1.0" encoding="UTF-8"?>
<svg width="500px" height="500px" viewBox="0 0 500 500" version="1.1" xmlns="http://www.w3.org/2000/svg" xmlns:xlink="http://www.w3.org/1999/xlink">
    <title>cut</title>
    <g id="cut" stroke="none" stroke-width="1" fill="none" fill-rule="evenodd">
        <path d="M500.062752,76.0057903 L507.13382,83.0768581 L208.538358,381.674306 C211.065159,410.143165 201.433332,439.488025 179.642875,461.278481 C140.590446,500.33091 77.2739482,500.33091 38.221519,461.278481 C-0.830910138,422.226052 -0.830910138,358.909554 38.221519,319.857125 C62.6450367,295.433607 96.5589419,286.284638 128.092595,292.410217 L344.49926,76.0057903 C387.456932,33.0481182 457.10508,33.0481182 500.062752,76.0057903 Z M351.9252,260.711885 L507.13382,415.923142 L500.062752,422.99421 C457.534657,465.522305 388.847226,465.947586 345.795944,424.270053 L344.499164,422.994306 L267.070972,345.566113 L288.284882,324.352203 L365.712464,401.781006 L366.503847,402.56169 C392.491064,427.850569 431.414127,431.963768 461.609336,414.901284 L462.521649,414.377758 L462.922676,414.139819 L330.710582,281.926503 L351.9252,260.711885 Z M73.5768581,355.212464 C54.0506435,374.738678 54.0506435,406.396927 73.5768581,425.923142 C93.1030727,445.449356 124.761322,445.449356 144.287536,425.923142 C163.813751,406.396927 163.813751,374.738678 144.287536,355.212464 C124.761322,335.686249 93.1030727,335.686249 73.5768581,355.212464 Z M366.503847,96.43831 L365.712464,97.2189937 L183.278111,279.65174 L225.704614,322.078243 L462.922676,84.8601814 L462.521649,84.6222422 C432.201771,66.9552981 392.753561,70.8939874 366.503847,96.43831 Z M255,231 C263.284271,231 270,237.715729 270,246 C270,254.284271 263.284271,261 255,261 C246.715729,261 240,254.284271 240,246 C240,237.715729 246.715729,231 255,231 Z M179.642875,37.721519 C201.215427,59.2940709 210.871307,88.2706936 208.610514,116.471374 L208.538358,117.325694 L245.859183,154.645868 L161.004248,239.500803 L128.092596,206.589783 C96.8742784,212.654107 63.3230768,203.747845 38.9570598,179.870998 L38.221519,179.142875 C-0.830910137,140.090446 -0.830910137,76.7739482 38.221519,37.721519 C77.2739482,-1.33091014 140.590446,-1.33091014 179.642875,37.721519 Z M73.5768581,73.0768581 C54.0506435,92.6030727 54.0506435,124.261322 73.5768581,143.787536 C93.1030727,163.313751 124.761322,163.313751 144.287536,143.787536 C163.813751,124.261322 163.813751,92.6030727 144.287536,73.0768581 C124.761322,53.5506435 93.1030727,53.5506435 73.5768581,73.0768581 Z" id="Shape" fill="#000000" fill-rule="nonzero"></path>
    </g>
</svg>