<?xml version="1.0" encoding="UTF-8"?>
<svg width="500px" height="500px" viewBox="0 0 500 500" version="1.1" xmlns="http://www.w3.org/2000/svg" xmlns:xlink="http://www.w3.org/1999/xlink">
    <title>desktop</title>
    <g id="desktop" stroke="none" stroke-width="1" fill="none" fill-rule="evenodd">
        <path d="M5,130.002163 C5,102.386731 27.3880408,80 54.9933326,80 L445.006667,80 C472.617223,80 495,102.395442 495,130.002163 L495,329.997837 C495,357.613269 472.611959,380 445.006667,380 L54.9933326,380 C27.3827774,380 5,357.604558 5,329.997837 L5,130.002163 Z M35,130.002163 L35,329.997837 C35,341.041018 43.9563222,350 54.9933326,350 L445.006667,350 C456.044537,350 465,341.043606 465,329.997837 L465,130.002163 C465,118.958982 456.043678,110 445.006667,110 L54.9933326,110 C43.9554632,110 35,118.956394 35,130.002163 Z M125,460 C125,451.715729 131.719202,445 140.005878,445 L359.994122,445 C368.28164,445 375,451.713907 375,460 L375,460 C375,468.284271 368.280798,475 359.994122,475 L140.005878,475 C131.71836,475 125,468.286093 125,460 L125,460 Z M235,374.998051 C235,366.714856 241.713907,360 250,360 L250,360 C258.284271,360 265,366.71656 265,374.998051 L265,445.001949 C265,453.285144 258.286093,460 250,460 L250,460 C241.715729,460 235,453.28344 235,445.001949 L235,374.998051 Z" fill="#000000" fill-rule="nonzero"></path>
    </g>
</svg>