<?xml version="1.0" encoding="UTF-8"?>
<svg width="500px" height="500px" viewBox="0 0 500 500" version="1.1" xmlns="http://www.w3.org/2000/svg" xmlns:xlink="http://www.w3.org/1999/xlink">
    <title>divide</title>
    <g id="divide" stroke="none" stroke-width="1" fill="none" fill-rule="evenodd">
        <path d="M50,250 C50,241.715729 56.7124761,235 64.9956024,235 L435.004398,235 C443.181407,235 449.82978,241.545011 450,249.686104 L450,250 C450,258.284271 443.287524,265 435.004398,265 L64.9956024,265 C56.8185933,265 50.1702199,258.454989 50,250.313896 L50,250 Z" id="minus" fill="#000000"></path>
        <path d="M250,320 C277.614237,320 300,342.385763 300,370 C300,397.614237 277.614237,420 250,420 C222.385763,420 200,397.614237 200,370 C200,342.385763 222.385763,320 250,320 Z M250,350 C238.954305,350 230,358.954305 230,370 C230,381.045695 238.954305,390 250,390 C261.045695,390 270,381.045695 270,370 C270,358.954305 261.045695,350 250,350 Z M250,80 C277.614237,80 300,102.385763 300,130 C300,157.614237 277.614237,180 250,180 C222.385763,180 200,157.614237 200,130 C200,102.385763 222.385763,80 250,80 Z M250,110 C238.954305,110 230,118.954305 230,130 C230,141.045695 238.954305,150 250,150 C261.045695,150 270,141.045695 270,130 C270,118.954305 261.045695,110 250,110 Z" id="Shape" fill="#000000" fill-rule="nonzero"></path>
    </g>
</svg>