<?xml version="1.0" encoding="UTF-8"?>
<svg width="500px" height="500px" viewBox="0 0 500 500" version="1.1" xmlns="http://www.w3.org/2000/svg" xmlns:xlink="http://www.w3.org/1999/xlink">
    <title>document</title>
    <g id="document" stroke="none" stroke-width="1" fill="none" fill-rule="evenodd">
        <path d="M380.009625,25 C407.345585,25 429.551911,46.9398629 429.993304,74.1722107 L430,74.9990362 L430,375 L330,475 L119.990375,475 C92.6544153,475 70.4480893,453.060137 70.0066963,425.827789 L70,425.000964 L70,74.9990362 C70,47.6685571 91.9360622,25.4483712 119.163692,25.0067006 L119.990375,25 L380.009625,25 Z M380.009625,55 L119.646183,55 C108.884438,55.1848374 100.186807,63.8837008 100.002969,74.6509947 L100,74.9990362 L100,425.345515 C100.184687,436.118352 108.876491,444.813253 119.642377,444.997032 L119.990375,445 L317.573,445 L400,362.573 L400,74.6544854 C399.813328,63.7658113 390.935605,55 380.009625,55 Z M394,345 L304,435 L304,345 L394,345 Z M240,275 C245.522847,275 250,279.477153 250,285 C250,290.522847 245.522847,295 240,295 L135,295 C129.477153,295 125,290.522847 125,285 C125,279.477153 129.477153,275 135,275 L240,275 Z M365,235 C370.522847,235 375,239.477153 375,245 C375,250.522847 370.522847,255 365,255 L135,255 C129.477153,255 125,250.522847 125,245 C125,239.477153 129.477153,235 135,235 L365,235 Z M365,195 C370.522847,195 375,199.477153 375,205 C375,210.522847 370.522847,215 365,215 L135,215 C129.477153,215 125,210.522847 125,205 C125,199.477153 129.477153,195 135,195 L365,195 Z M210,75 C218.284271,75 225,81.7157288 225,90 L225,160 C225,168.284271 218.284271,175 210,175 L140,175 C131.715729,175 125,168.284271 125,160 L125,90 C125,81.7157288 131.715729,75 140,75 L210,75 Z" id="Shape" fill="#000000" fill-rule="nonzero"></path>
    </g>
</svg>