<?xml version="1.0" encoding="UTF-8"?>
<svg width="500px" height="500px" viewBox="0 0 500 500" version="1.1" xmlns="http://www.w3.org/2000/svg" xmlns:xlink="http://www.w3.org/1999/xlink">
    <title>double-check</title>
    <g id="double-check" stroke="none" stroke-width="1" fill="none" fill-rule="evenodd">
        <path d="M385.017857,119.393398 C390.875721,125.251263 390.875721,134.748737 385.017857,140.606602 L141.066017,384.558441 L24.3933983,267.885822 C18.5355339,262.027958 18.5355339,252.530483 24.3933983,246.672619 C30.2512627,240.814755 39.7487373,240.814755 45.6066017,246.672619 L141.066017,342.132034 L363.804653,119.393398 C369.662518,113.535534 379.159992,113.535534 385.017857,119.393398 Z M174.432421,285.498438 L153.219217,306.711641 L114.393398,267.885822 C108.535534,262.027958 108.535534,252.530483 114.393398,246.672619 C120.251263,240.814755 129.748737,240.814755 135.606602,246.672619 L174.432421,285.498438 Z M475.017857,119.393398 C480.875721,125.251263 480.875721,134.748737 475.017857,140.606602 L231.066017,384.558441 L195.645624,349.138048 L216.858828,327.924845 L231.066017,342.132034 L453.804653,119.393398 C459.662518,113.535534 469.159992,113.535534 475.017857,119.393398 Z" id="Shape" fill="#000000"></path>
    </g>
</svg>