<?xml version="1.0" encoding="UTF-8"?>
<svg width="500px" height="500px" viewBox="0 0 500 500" version="1.1" xmlns="http://www.w3.org/2000/svg" xmlns:xlink="http://www.w3.org/1999/xlink">
    <title>download</title>
    <g id="download" stroke="none" stroke-width="1" fill="none" fill-rule="evenodd">
        <path d="M35,285 L35,445 C35,455.930636 43.7687286,464.813225 54.6555106,464.997093 L55,465 L445,465 C455.930636,465 464.813225,456.231271 465,445.344489 L465,285 L495,285 L495,445 C495,472.614237 472.614237,495 445,495 L55,495 C27.3857625,495 5,472.614237 5,445 L5,285 L35,285 Z M249.433983,5 C265.83684,5 279.16504,18.1641715 279.429964,34.5038951 L279.433983,35 L279.433983,327.639 L334.352814,272.720779 C345.951385,261.122208 364.684321,261.006222 376.42558,272.372822 L376.779221,272.720779 C388.377792,284.319351 388.493778,303.052286 377.127178,314.793545 L376.779221,315.147186 L270.713203,421.213203 C259.114632,432.811775 240.381696,432.927761 228.640438,421.561161 L228.286797,421.213203 L122.220779,315.147186 C110.505051,303.431458 110.505051,284.436508 122.220779,272.720779 C133.819351,261.122208 152.552286,261.006222 164.293545,272.372822 L164.647186,272.720779 L219.433983,327.507 L219.433983,35 C219.433983,18.4314575 232.86544,5 249.433983,5 Z" fill="#000000" fill-rule="nonzero"></path>
    </g>
</svg>