<?xml version="1.0" encoding="UTF-8"?>
<svg width="500px" height="500px" viewBox="0 0 500 500" version="1.1" xmlns="http://www.w3.org/2000/svg" xmlns:xlink="http://www.w3.org/1999/xlink">
    <title>ellipsis</title>
    <g id="ellipsis" stroke="none" stroke-width="1" fill="none" fill-rule="evenodd">
        <path d="M250,355 C277.614237,355 300,377.385763 300,405 C300,432.614237 277.614237,455 250,455 C222.385763,455 200,432.614237 200,405 C200,377.385763 222.385763,355 250,355 Z M250,200 C277.614237,200 300,222.385763 300,250 C300,277.614237 277.614237,300 250,300 C222.385763,300 200,277.614237 200,250 C200,222.385763 222.385763,200 250,200 Z M250,45 C277.614237,45 300,67.3857625 300,95 C300,122.614237 277.614237,145 250,145 C222.385763,145 200,122.614237 200,95 C200,67.3857625 222.385763,45 250,45 Z" fill="#000000"></path>
    </g>
</svg>