<?xml version="1.0" encoding="UTF-8"?>
<svg width="500px" height="500px" viewBox="0 0 500 500" version="1.1" xmlns="http://www.w3.org/2000/svg" xmlns:xlink="http://www.w3.org/1999/xlink">
    <title>ellipsis-h</title>
    <g id="ellipsis-h" stroke="none" stroke-width="1" fill="none" fill-rule="evenodd">
        <path d="M145,250 C145,277.614237 122.614237,300 95,300 C67.3857625,300 45,277.614237 45,250 C45,222.385763 67.3857625,200 95,200 C122.614237,200 145,222.385763 145,250 Z M300,250 C300,277.614237 277.614237,300 250,300 C222.385763,300 200,277.614237 200,250 C200,222.385763 222.385763,200 250,200 C277.614237,200 300,222.385763 300,250 Z M455,250 C455,277.614237 432.614237,300 405,300 C377.385763,300 355,277.614237 355,250 C355,222.385763 377.385763,200 405,200 C432.614237,200 455,222.385763 455,250 Z" fill="#000000"></path>
    </g>
</svg>