<?xml version="1.0" encoding="UTF-8"?>
<svg width="500px" height="500px" viewBox="0 0 500 500" version="1.1" xmlns="http://www.w3.org/2000/svg" xmlns:xlink="http://www.w3.org/1999/xlink">
    <title>ext-pdf</title>
    <g id="ext-pdf" stroke="none" stroke-width="1" fill="none" fill-rule="evenodd">
        <path d="M445,85 C472.614237,85 495,107.385763 495,135 L495,365 C495,392.614237 472.614237,415 445,415 L390,415 L330,475 L119.990375,475 C92.6544153,475 70.4480893,453.060137 70.0066963,425.827789 L70,425.000964 L70,415 L55,415 C27.3857625,415 5,392.614237 5,365 L5,135 C5,107.385763 27.3857625,85 55,85 L445,85 Z M347.573,415 L100,415 L100,425.345515 C100.184687,436.118352 108.876491,444.813253 119.642377,444.997032 L119.990375,445 L317.573,445 L347.573,415 Z M445,115 L55,115 C44.0693643,115 35.186775,123.768729 35,134.655511 L35,365 C35,375.930636 43.7687286,384.813225 54.6555106,384.997093 L55,385 L445,385 C455.930636,385 464.813225,376.231271 465,365.344489 L465,135 C465,124.069364 456.231271,115.186775 445.344489,115.002907 L445,115 Z M123.2,175 C155.825,175 173.6,197.05 173.6,223.375 C173.6,249.214 155.9582,270.863072 124.167676,271.29347 L123.2,271.3 L84.95,271.3 L84.95,325.075 L53,325.075 L53,175 L123.2,175 Z M245.075,175 C292.1,175 324.725,204.925 324.725,250.15 C324.725,294.92275 292.749238,324.479447 246.481412,325.066104 L245.075,325.075 L185.9,325.075 L185.9,175 L245.075,175 Z M446.15,175 L446.15,202.45 L371.9,202.45 L371.9,235.075 L444.575,235.075 L444.575,262.525 L371.9,262.525 L371.9,325.075 L339.95,325.075 L339.95,175 L446.15,175 Z M245.075,203.125 L217.85,203.125 L217.85,296.95 L245.075,296.95 C274.775,296.95 292.1,275.575 292.1,250.15 C292.1,223.8655 276.22238,203.535107 245.995361,203.131128 L245.075,203.125 Z M118.925,202.45 L84.95,202.45 L84.95,243.85 L118.925,243.85 C131.525,243.85 140.975,235.75 140.975,223.15 C140.975,210.89875 131.713055,202.616905 119.302049,202.452493 L118.925,202.45 Z M380.009625,25 C405.934834,25 427.246205,44.7337569 429.753348,70.0007546 L399.372554,70.0007546 C397.182818,61.490886 389.538934,55.1750176 380.391623,55.003577 L380.009625,55 L119.646183,55 C110.486627,55.1573191 102.822334,61.4822685 100.629913,70.0007546 L70.246796,70.0007546 C72.7297027,44.9921013 93.6441185,25.395342 119.214115,25.0059076 L119.990375,25 L380.009625,25 Z" id="Shape" fill="#000000" fill-rule="nonzero"></path>
    </g>
</svg>