<?xml version="1.0" encoding="UTF-8"?>
<svg width="500px" height="500px" viewBox="0 0 500 500" version="1.1" xmlns="http://www.w3.org/2000/svg" xmlns:xlink="http://www.w3.org/1999/xlink">
    <title>ext-xls</title>
    <g id="ext-xls" stroke="none" stroke-width="1" fill="none" fill-rule="evenodd">
        <path d="M445,85 C472.614237,85 495,107.385763 495,135 L495,365 C495,392.614237 472.614237,415 445,415 L390,415 L330,475 L119.990375,475 C92.6544153,475 70.4480893,453.060137 70.0066963,425.827789 L70,425.000964 L70,415 L55,415 C27.3857625,415 5,392.614237 5,365 L5,135 C5,107.385763 27.3857625,85 55,85 L445,85 Z M347.573,415 L100,415 L100,425.345515 C100.184687,436.118352 108.876491,444.813253 119.642377,444.997032 L119.990375,445 L317.573,445 L347.573,415 Z M445,115 L55,115 C44.0693643,115 35.186775,123.768729 35,134.655511 L35,365 C35,375.930636 43.7687286,384.813225 54.6555106,384.997093 L55,385 L445,385 C455.930636,385 464.813225,376.231271 465,365.344489 L465,135 C465,124.069364 456.231271,115.186775 445.344489,115.002907 L445,115 Z M379.025,172 C402.607022,172 422.229545,179.039111 437.022565,192.464832 L437.525,192.925 L419.75,216.325 C407.6,205.075 391.4,199.9 376.775,199.9 C362.375,199.9 354.725,206.2 354.725,215.2 C354.725,225.325 367.325,228.475 384.65,232.525 L386.894692,233.03676 C411.26165,238.618788 440.9,246.574 440.9,278.875 C440.9,306.325 421.325,327.025 380.825,327.025 C352.313,327.025 331.73981,317.542532 317.577209,303.598895 L317.15,303.175 L334.7,278.875 C345.275,289.9 361.7,299.125 382.4,299.125 C399.95,299.125 408.5,290.8 408.5,282.25 C408.5,271 395.45,267.175 378.125,263.125 L372.885414,261.918415 L370.757555,261.416522 C347.734209,255.921727 322.1,247.467903 322.1,217.225 C322.1,192.25 343.7,172 379.025,172 Z M100.4,174.25 L134.825,225.55 L168.8,174.25 L207.275,174.25 L156.2,247.15 L210.65,324.325 L172.4,324.325 L134.825,269.425 L97.025,324.325 L59,324.325 L113.45,247.375 L62.375,174.25 L100.4,174.25 Z M249.275,174.25 L249.275,296.2 L312.725,296.2 L312.725,324.325 L217.325,324.325 L217.325,174.25 L249.275,174.25 Z M380.009625,25 C405.934834,25 427.246205,44.7337569 429.753348,70.0007546 L399.372554,70.0007546 C397.182818,61.490886 389.538934,55.1750176 380.391623,55.003577 L380.009625,55 L119.646183,55 C110.486627,55.1573191 102.822334,61.4822685 100.629913,70.0007546 L70.246796,70.0007546 C72.7297027,44.9921013 93.6441185,25.395342 119.214115,25.0059076 L119.990375,25 L380.009625,25 Z" id="Shape" fill="#000000" fill-rule="nonzero"></path>
    </g>
</svg>