<?xml version="1.0" encoding="UTF-8"?>
<svg width="500px" height="500px" viewBox="0 0 500 500" version="1.1" xmlns="http://www.w3.org/2000/svg" xmlns:xlink="http://www.w3.org/1999/xlink">
    <title>ext-js</title>
    <g id="ext-js" stroke="none" stroke-width="1" fill="none" fill-rule="evenodd">
        <path d="M445,85 C472.614237,85 495,107.385763 495,135 L495,365 C495,392.614237 472.614237,415 445,415 L390,415 L330,475 L119.990375,475 C92.6544153,475 70.4480893,453.060137 70.0066963,425.827789 L70,425.000964 L70,415 L55,415 C27.3857625,415 5,392.614237 5,365 L5,135 C5,107.385763 27.3857625,85 55,85 L445,85 Z M347.573,415 L100,415 L100,425.345515 C100.184687,436.118352 108.876491,444.813253 119.642377,444.997032 L119.990375,445 L317.573,445 L347.573,415 Z M445,115 L55,115 C44.0693643,115 35.186775,123.768729 35,134.655511 L35,365 C35,375.930636 43.7687286,384.813225 54.6555106,384.997093 L55,385 L445,385 C455.930636,385 464.813225,376.231271 465,365.344489 L465,135 C465,124.069364 456.231271,115.186775 445.344489,115.002907 L445,115 Z M229.15,174.25 L229.15,275.05 C229.15,310.6 207.1,327.025 176.275,327.025 C161.190493,327.025 147.199519,323.088281 136.45834,312.842955 L136,312.4 L149.95,287.875 L150.572477,288.465239 C156.340166,293.856787 163.813158,298.675 173.8,298.675 C187.83325,298.675 197.015005,289.413055 197.197237,275.037193 L197.2,274.6 L197.2,174.25 L229.15,174.25 Z M302.875,172 C326.457022,172 346.079545,179.039111 360.872565,192.464832 L361.375,192.925 L343.6,216.325 C331.45,205.075 315.25,199.9 300.625,199.9 C286.225,199.9 278.575,206.2 278.575,215.2 C278.575,225.325 291.175,228.475 308.5,232.525 L310.744692,233.03676 C335.11165,238.618788 364.75,246.574 364.75,278.875 C364.75,306.325 345.175,327.025 304.675,327.025 C276.163,327.025 255.58981,317.542532 241.427209,303.598895 L241,303.175 L258.55,278.875 C269.125,289.9 285.55,299.125 306.25,299.125 C323.8,299.125 332.35,290.8 332.35,282.25 C332.35,271.225 319.81678,267.33097 303.0093,263.367791 L301.975,263.125 C277.45,257.5 245.95,250.75 245.95,217.225 C245.95,192.25 267.55,172 302.875,172 Z M380.009625,25 C405.934834,25 427.246205,44.7337569 429.753348,70.0007546 L399.372554,70.0007546 C397.182818,61.490886 389.538934,55.1750176 380.391623,55.003577 L380.009625,55 L119.646183,55 C110.486627,55.1573191 102.822334,61.4822685 100.629913,70.0007546 L70.246796,70.0007546 C72.7297027,44.9921013 93.6441185,25.395342 119.214115,25.0059076 L119.990375,25 L380.009625,25 Z" id="Shape" fill="#000000" fill-rule="nonzero"></path>
    </g>
</svg>