<?xml version="1.0" encoding="UTF-8"?>
<svg width="500px" height="500px" viewBox="0 0 500 500" version="1.1" xmlns="http://www.w3.org/2000/svg" xmlns:xlink="http://www.w3.org/1999/xlink">
    <title>ext-mp4</title>
    <g id="ext-mp4" stroke="none" stroke-width="1" fill="none" fill-rule="evenodd">
        <path d="M445,85 C472.614237,85 495,107.385763 495,135 L495,365 C495,392.614237 472.614237,415 445,415 L390,415 L330,475 L119.990375,475 C92.6544153,475 70.4480893,453.060137 70.0066963,425.827789 L70,425.000964 L70,415 L55,415 C27.3857625,415 5,392.614237 5,365 L5,135 C5,107.385763 27.3857625,85 55,85 L445,85 Z M347.573,415 L100,415 L100,425.345515 C100.184687,436.118352 108.876491,444.813253 119.642377,444.997032 L119.990375,445 L317.573,445 L347.573,415 Z M445,115 L55,115 C44.0693643,115 35.186775,123.768729 35,134.655511 L35,365 C35,375.930636 43.7687286,384.813225 54.6555106,384.997093 L55,385 L445,385 C455.930636,385 464.813225,376.231271 465,365.344489 L465,135 C465,124.069364 456.231271,115.186775 445.344489,115.002907 L445,115 Z M97.8,183 L130.2,266.2 L162.6,183 L202.6,183 L202.6,316.4 L174,316.4 L174,220.4 L136.4,316.4 L124,316.4 L86.4,220.4 L86.4,316.4 L58,316.4 L58,183 L97.8,183 Z M284.733333,183 C313.733333,183 329.533333,202.6 329.533333,226 C329.533333,248.968 313.851733,268.21162 285.59349,268.594196 L284.733333,268.6 L250.733333,268.6 L250.733333,316.4 L222.333333,316.4 L222.333333,183 L284.733333,183 Z M424.466667,183 L424.466667,263.8 L441.666667,263.8 L441.666667,288.8 L424.466667,288.8 L424.466667,316.4 L396.066667,316.4 L396.066667,288.8 L332.266667,288.8 L332.266667,266.4 L385.266667,183 L424.466667,183 Z M396.066667,208.2 L360.066667,263.8 L396.066667,263.8 L396.066667,208.2 Z M280.933333,207.4 L250.733333,207.4 L250.733333,244.2 L280.933333,244.2 C292.133333,244.2 300.533333,237 300.533333,225.8 C300.533333,214.91828 292.313007,207.559556 281.293645,207.402562 L280.933333,207.4 Z M380.009625,25 C405.934834,25 427.246205,44.7337569 429.753348,70.0007546 L399.372554,70.0007546 C397.182818,61.490886 389.538934,55.1750176 380.391623,55.003577 L380.009625,55 L119.646183,55 C110.486627,55.1573191 102.822334,61.4822685 100.629913,70.0007546 L70.246796,70.0007546 C72.7297027,44.9921013 93.6441185,25.395342 119.214115,25.0059076 L119.990375,25 L380.009625,25 Z" id="Shape" fill="#000000" fill-rule="nonzero"></path>
    </g>
</svg>