<?xml version="1.0" encoding="UTF-8"?>
<svg width="500px" height="500px" viewBox="0 0 500 500" version="1.1" xmlns="http://www.w3.org/2000/svg" xmlns:xlink="http://www.w3.org/1999/xlink">
    <title>ext-mov</title>
    <g id="ext-mov" stroke="none" stroke-width="1" fill="none" fill-rule="evenodd">
        <path d="M445,85 C472.614237,85 495,107.385763 495,135 L495,365 C495,392.614237 472.614237,415 445,415 L390,415 L330,475 L119.990375,475 C92.6544153,475 70.4480893,453.060137 70.0066963,425.827789 L70,425.000964 L70,415 L55,415 C27.3857625,415 5,392.614237 5,365 L5,135 C5,107.385763 27.3857625,85 55,85 L445,85 Z M347.573,415 L100,415 L100,425.345515 C100.184687,436.118352 108.876491,444.813253 119.642377,444.997032 L119.990375,445 L317.573,445 L347.573,415 Z M445,115 L55,115 C44.0693643,115 35.186775,123.768729 35,134.655511 L35,365 C35,375.930636 43.7687286,384.813225 54.6555106,384.997093 L55,385 L445,385 C455.930636,385 464.813225,376.231271 465,365.344489 L465,135 C465,124.069364 456.231271,115.186775 445.344489,115.002907 L445,115 Z M260.78,188 C297.14,188 323.6,213.92 323.6,250.1 C323.6,286.28 297.14,312.2 260.78,312.2 C224.6,312.2 198.14,286.28 198.14,250.1 C198.14,213.92 224.6,188 260.78,188 Z M91.82,189.98 L120.98,264.86 L150.14,189.98 L186.14,189.98 L186.14,310.04 L160.4,310.04 L160.4,223.64 L126.56,310.04 L115.4,310.04 L81.56,223.64 L81.56,310.04 L56,310.04 L56,189.98 L91.82,189.98 Z M348.38,189.98 L381.68,282.32 L414.8,189.98 L443.96,189.98 L397.7,310.04 L365.66,310.04 L319.22,189.98 L348.38,189.98 Z M260.78,210.68 C238.64,210.68 224.42,227.6 224.42,250.1 C224.42,272.42 238.64,289.52 260.78,289.52 C282.92,289.52 297.32,272.42 297.32,250.1 C297.32,227.6 282.92,210.68 260.78,210.68 Z M380.009625,25 C405.934834,25 427.246205,44.7337569 429.753348,70.0007546 L399.372554,70.0007546 C397.182818,61.490886 389.538934,55.1750176 380.391623,55.003577 L380.009625,55 L119.646183,55 C110.486627,55.1573191 102.822334,61.4822685 100.629913,70.0007546 L70.246796,70.0007546 C72.7297027,44.9921013 93.6441185,25.395342 119.214115,25.0059076 L119.990375,25 L380.009625,25 Z" id="Shape" fill="#000000" fill-rule="nonzero"></path>
    </g>
</svg>