<?xml version="1.0" encoding="UTF-8"?>
<svg width="500px" height="500px" viewBox="0 0 500 500" version="1.1" xmlns="http://www.w3.org/2000/svg" xmlns:xlink="http://www.w3.org/1999/xlink">
    <title>ext-css</title>
    <g id="ext-css" stroke="none" stroke-width="1" fill="none" fill-rule="evenodd">
        <path d="M445,85 C472.614237,85 495,107.385763 495,135 L495,365 C495,392.614237 472.614237,415 445,415 L390,415 L330,475 L119.990375,475 C92.6544153,475 70.4480893,453.060137 70.0066963,425.827789 L70,425.000964 L70,415 L55,415 C27.3857625,415 5,392.614237 5,365 L5,135 C5,107.385763 27.3857625,85 55,85 L445,85 Z M347.573,415 L100,415 L100,425.345515 C100.184687,436.118352 108.876491,444.813253 119.642377,444.997032 L119.990375,445 L317.573,445 L347.573,415 Z M445,115 L55,115 C44.0693643,115 35.186775,123.768729 35,134.655511 L35,365 C35,375.930636 43.7687286,384.813225 54.6555106,384.997093 L55,385 L445,385 C455.930636,385 464.813225,376.231271 465,365.344489 L465,135 C465,124.069364 456.231271,115.186775 445.344489,115.002907 L445,115 Z M144,181 C174.096,181 191.05866,196.6816 200.515714,213.102195 L200.8,213.6 L176.4,225.6 C170.8,214.8 158.8,206.2 144,206.2 C120.8,206.2 103.2,224.8 103.2,250 C103.2,275.2 120.8,293.8 144,293.8 C158.633708,293.8 170.529984,285.587704 176.208817,274.769794 L176.4,274.4 L200.8,286.2 L200.215309,287.195394 C190.52256,303.44152 173.792,319 144,319 C105,319 74,291 74,250 C74,209 105,181 144,181 Z M256.933333,181.2 C277.877912,181.2 295.308714,187.446712 308.45431,199.361563 L308.933333,199.8 L293.133333,220.6 C282.333333,210.6 267.933333,206 254.933333,206 C242.133333,206 235.333333,211.6 235.333333,219.6 C235.333333,228.6 246.533333,231.4 261.933333,235 L263.928615,235.454898 C285.588133,240.4167 311.933333,247.488 311.933333,276.2 C311.933333,300.6 294.533333,319 258.533333,319 C233.194558,319 214.909593,310.574615 202.320861,298.18446 L201.933333,297.8 L217.533333,276.2 C226.933333,286 241.533333,294.2 259.933333,294.2 C275.533333,294.2 283.133333,286.8 283.133333,279.2 C283.133333,269.3 271.764173,265.86866 256.594186,262.307947 L252.149761,261.284275 C231.074133,256.39432 206.333333,249.412 206.333333,221.4 C206.333333,199.2 225.533333,181.2 256.933333,181.2 Z M370.266667,181.2 C391.211245,181.2 408.642048,187.446712 421.787644,199.361563 L422.266667,199.8 L406.466667,220.6 C395.666667,210.6 381.266667,206 368.266667,206 C355.466667,206 348.666667,211.6 348.666667,219.6 C348.666667,228.6 359.866667,231.4 375.266667,235 L377.261949,235.454898 C398.921467,240.4167 425.266667,247.488 425.266667,276.2 C425.266667,300.6 407.866667,319 371.866667,319 C346.527891,319 328.242927,310.574615 315.654194,298.18446 L315.266667,297.8 L330.866667,276.2 C340.266667,286 354.866667,294.2 373.266667,294.2 C388.866667,294.2 396.466667,286.8 396.466667,279.2 C396.466667,269.3 385.097507,265.86866 369.927519,262.307947 L365.483094,261.284275 C344.407467,256.39432 319.666667,249.412 319.666667,221.4 C319.666667,199.2 338.866667,181.2 370.266667,181.2 Z M380.009625,25 C405.934834,25 427.246205,44.7337569 429.753348,70.0007546 L399.372554,70.0007546 C397.182818,61.490886 389.538934,55.1750176 380.391623,55.003577 L380.009625,55 L119.646183,55 C110.486627,55.1573191 102.822334,61.4822685 100.629913,70.0007546 L70.246796,70.0007546 C72.7297027,44.9921013 93.6441185,25.395342 119.214115,25.0059076 L119.990375,25 L380.009625,25 Z" id="Shape" fill="#000000" fill-rule="nonzero"></path>
    </g>
</svg>