<?xml version="1.0" encoding="UTF-8"?>
<svg width="500px" height="500px" viewBox="0 0 500 500" version="1.1" xmlns="http://www.w3.org/2000/svg" xmlns:xlink="http://www.w3.org/1999/xlink">
    <title>ext-png</title>
    <g id="ext-png" stroke="none" stroke-width="1" fill="none" fill-rule="evenodd">
        <path d="M445,85 C472.614237,85 495,107.385763 495,135 L495,365 C495,392.614237 472.614237,415 445,415 L390,415 L330,475 L119.990375,475 C92.6544153,475 70.4480893,453.060137 70.0066963,425.827789 L70,425.000964 L70,415 L55,415 C27.3857625,415 5,392.614237 5,365 L5,135 C5,107.385763 27.3857625,85 55,85 L445,85 Z M347.573,415 L100,415 L100,425.345515 C100.184687,436.118352 108.876491,444.813253 119.642377,444.997032 L119.990375,445 L317.573,445 L347.573,415 Z M445,115 L55,115 C44.0693643,115 35.186775,123.768729 35,134.655511 L35,365 C35,375.930636 43.7687286,384.813225 54.6555106,384.997093 L55,385 L445,385 C455.930636,385 464.813225,376.231271 465,365.344489 L465,135 C465,124.069364 456.231271,115.186775 445.344489,115.002907 L445,115 Z M382.866667,181 C410.190667,181 427.517647,194.13334 437.758504,209.726731 L438.066667,210.2 L414.466667,223 C408.266667,213.6 396.866667,206.2 382.866667,206.2 C358.666667,206.2 341.066667,224.8 341.066667,250 C341.066667,275.2 358.666667,293.8 382.866667,293.8 C394.869892,293.8 405.517915,288.95999 411.382134,283.851437 L411.666667,283.6 L411.666667,267.4 L376.066667,267.4 L376.066667,243 L439.666667,243 L439.666667,294 C426.066667,309.2 407.066667,319.2 382.866667,319.2 C343.866667,319.2 311.866667,292 311.866667,250 C311.866667,207.8 343.866667,181 382.866667,181 Z M123.4,183.2 C152.4,183.2 168.2,202.8 168.2,226.2 C168.2,249.168 152.5184,268.41162 124.260157,268.794196 L123.4,268.8 L89.4,268.8 L89.4,316.6 L61,316.6 L61,183.2 L123.4,183.2 Z M208.333333,183.2 L270.133333,269.6 L270.133333,183.2 L298.533333,183.2 L298.533333,316.6 L271.133333,316.6 L207.533333,227 L207.533333,316.6 L179.133333,316.6 L179.133333,183.2 L208.333333,183.2 Z M119.6,207.6 L89.4,207.6 L89.4,244.4 L119.6,244.4 C130.8,244.4 139.2,237.2 139.2,226 C139.2,215.11828 130.979674,207.759556 119.960312,207.602562 L119.6,207.6 Z M380.009625,25 C405.934834,25 427.246205,44.7337569 429.753348,70.0007546 L399.372554,70.0007546 C397.182818,61.490886 389.538934,55.1750176 380.391623,55.003577 L380.009625,55 L119.646183,55 C110.486627,55.1573191 102.822334,61.4822685 100.629913,70.0007546 L70.246796,70.0007546 C72.7297027,44.9921013 93.6441185,25.395342 119.214115,25.0059076 L119.990375,25 L380.009625,25 Z" id="Shape" fill="#000000" fill-rule="nonzero"></path>
    </g>
</svg>