<?xml version="1.0" encoding="UTF-8"?>
<svg width="500px" height="500px" viewBox="0 0 500 500" version="1.1" xmlns="http://www.w3.org/2000/svg" xmlns:xlink="http://www.w3.org/1999/xlink">
    <title>ext-gif</title>
    <g id="ext-gif" stroke="none" stroke-width="1" fill="none" fill-rule="evenodd">
        <path d="M445,85 C472.614237,85 495,107.385763 495,135 L495,365 C495,392.614237 472.614237,415 445,415 L390,415 L330,475 L119.990375,475 C92.6544153,475 70.4480893,453.060137 70.0066963,425.827789 L70,425.000964 L70,415 L55,415 C27.3857625,415 5,392.614237 5,365 L5,135 C5,107.385763 27.3857625,85 55,85 L445,85 Z M347.573,415 L100,415 L100,425.345515 C100.184687,436.118352 108.876491,444.813253 119.642377,444.997032 L119.990375,445 L317.573,445 L347.573,415 Z M445,115 L55,115 C44.0693643,115 35.186775,123.768729 35,134.655511 L35,365 C35,375.930636 43.7687286,384.813225 54.6555106,384.997093 L55,385 L445,385 C455.930636,385 464.813225,376.231271 465,365.344489 L465,135 C465,124.069364 456.231271,115.186775 445.344489,115.002907 L445,115 Z M168.875,172 C199.6145,172 219.107353,186.775007 230.628317,204.317572 L230.975,204.85 L204.425,219.25 C197.45,208.675 184.625,200.35 168.875,200.35 C141.65,200.35 121.85,221.275 121.85,249.625 C121.85,277.975 141.65,298.9 168.875,298.9 C182.392045,298.9 194.381457,293.444163 200.974549,287.690735 L201.275,287.425 L201.275,269.2 L161.225,269.2 L161.225,241.75 L232.775,241.75 L232.775,299.125 C217.475,316.225 196.1,327.475 168.875,327.475 C125,327.475 89,296.875 89,249.625 C89,202.15 125,172 168.875,172 Z M282.65,174.475 L282.65,324.55 L250.7,324.55 L250.7,174.475 L282.65,174.475 Z M411.05,174.475 L411.05,201.925 L336.8,201.925 L336.8,234.55 L409.475,234.55 L409.475,262 L336.8,262 L336.8,324.55 L304.85,324.55 L304.85,174.475 L411.05,174.475 Z M380.009625,25 C405.934834,25 427.246205,44.7337569 429.753348,70.0007546 L399.372554,70.0007546 C397.182818,61.490886 389.538934,55.1750176 380.391623,55.003577 L380.009625,55 L119.646183,55 C110.486627,55.1573191 102.822334,61.4822685 100.629913,70.0007546 L70.246796,70.0007546 C72.7297027,44.9921013 93.6441185,25.395342 119.214115,25.0059076 L119.990375,25 L380.009625,25 Z" id="Shape" fill="#000000" fill-rule="nonzero"></path>
    </g>
</svg>