<?xml version="1.0" encoding="UTF-8"?>
<svg width="500px" height="500px" viewBox="0 0 500 500" version="1.1" xmlns="http://www.w3.org/2000/svg" xmlns:xlink="http://www.w3.org/1999/xlink">
    <title>ext-cpp</title>
    <g id="ext-cpp" stroke="none" stroke-width="1" fill="none" fill-rule="evenodd">
        <path d="M445,85 C472.614237,85 495,107.385763 495,135 L495,365 C495,392.614237 472.614237,415 445,415 L390,415 L330,475 L119.990375,475 C92.6544153,475 70.4480893,453.060137 70.0066963,425.827789 L70,425.000964 L70,415 L55,415 C27.3857625,415 5,392.614237 5,365 L5,135 C5,107.385763 27.3857625,85 55,85 L445,85 Z M347.573,415 L100,415 L100,425.345515 C100.184687,436.118352 108.876491,444.813253 119.642377,444.997032 L119.990375,445 L317.573,445 L347.573,415 Z M445,115 L55,115 C44.0693643,115 35.186775,123.768729 35,134.655511 L35,365 C35,375.930636 43.7687286,384.813225 54.6555106,384.997093 L55,385 L445,385 C455.930636,385 464.813225,376.231271 465,365.344489 L465,135 C465,124.069364 456.231271,115.186775 445.344489,115.002907 L445,115 Z M153.75,172 C187.608,172 206.690993,189.6418 217.330178,208.11497 L217.65,208.675 L190.2,222.175 C183.9,210.025 170.4,200.35 153.75,200.35 C127.65,200.35 107.85,221.275 107.85,249.625 C107.85,277.975 127.65,298.9 153.75,298.9 C170.224737,298.9 183.61544,289.6479 189.998664,277.46481 L190.2,277.075 L217.65,290.35 C206.85,309.025 187.95,327.25 153.75,327.25 C109.875,327.25 75,295.75 75,249.625 C75,203.5 109.875,172 153.75,172 Z M278.1,195.85 L278.1,239.725 L318.375,239.725 L318.375,257.5 L278.1,257.5 L278.1,303.175 L258.525,303.175 L258.525,257.5 L218.025,257.5 L218.025,239.725 L258.525,239.725 L258.525,195.85 L278.1,195.85 Z M384,195.85 L384,239.725 L424.275,239.725 L424.275,257.5 L384,257.5 L384,303.175 L364.425,303.175 L364.425,257.5 L323.925,257.5 L323.925,239.725 L364.425,239.725 L364.425,195.85 L384,195.85 Z M380.009625,25 C405.934834,25 427.246205,44.7337569 429.753348,70.0007546 L399.372554,70.0007546 C397.182818,61.490886 389.538934,55.1750176 380.391623,55.003577 L380.009625,55 L119.646183,55 C110.486627,55.1573191 102.822334,61.4822685 100.629913,70.0007546 L70.246796,70.0007546 C72.7297027,44.9921013 93.6441185,25.395342 119.214115,25.0059076 L119.990375,25 L380.009625,25 Z" id="Shape" fill="#000000" fill-rule="nonzero"></path>
    </g>
</svg>