<?xml version="1.0" encoding="UTF-8"?>
<svg width="500px" height="500px" viewBox="0 0 500 500" version="1.1" xmlns="http://www.w3.org/2000/svg" xmlns:xlink="http://www.w3.org/1999/xlink">
    <title>ext-bmp</title>
    <g id="ext-bmp" stroke="none" stroke-width="1" fill="none" fill-rule="evenodd">
        <path d="M445,85 C472.614237,85 495,107.385763 495,135 L495,365 C495,392.614237 472.614237,415 445,415 L390,415 L330,475 L119.990375,475 C92.6544153,475 70.4480893,453.060137 70.0066963,425.827789 L70,425.000964 L70,415 L55,415 C27.3857625,415 5,392.614237 5,365 L5,135 C5,107.385763 27.3857625,85 55,85 L445,85 Z M347.573,415 L100,415 L100,425.345515 C100.184687,436.118352 108.876491,444.813253 119.642377,444.997032 L119.990375,445 L317.573,445 L347.573,415 Z M445,115 L55,115 C44.0693643,115 35.186775,123.768729 35,134.655511 L35,365 C35,375.930636 43.7687286,384.813225 54.6555106,384.997093 L55,385 L445,385 C455.930636,385 464.813225,376.231271 465,365.344489 L465,135 C465,124.069364 456.231271,115.186775 445.344489,115.002907 L445,115 Z M121.2,183 C146.6,183 159.6,199.2 159.6,217 C159.6,233.8 149.2,245 136.6,247.6 C150.8,249.8 162.2,263.6 162.2,280.4 C162.2,300.2 149.06666,316.0796 124.158399,316.395212 L123.4,316.4 L51,316.4 L51,183 L121.2,183 Z M216.733333,183 L249.133333,266.2 L281.533333,183 L321.533333,183 L321.533333,316.4 L292.933333,316.4 L292.933333,220.4 L255.333333,316.4 L242.933333,316.4 L205.333333,220.4 L205.333333,316.4 L176.933333,316.4 L176.933333,183 L216.733333,183 Z M403.666667,183 C432.666667,183 448.466667,202.6 448.466667,226 C448.466667,248.968 432.785067,268.21162 404.526823,268.594196 L403.666667,268.6 L369.666667,268.6 L369.666667,316.4 L341.266667,316.4 L341.266667,183 L403.666667,183 Z M116,260.8 L79.4,260.8 L79.4,292.2 L116,292.2 C126.8,292.2 133.2,286 133.2,276.4 C133.2,268.098824 127.340346,260.969578 116.393134,260.80298 L116,260.8 Z M399.866667,207.4 L369.666667,207.4 L369.666667,244.2 L399.866667,244.2 C411.066667,244.2 419.466667,237 419.466667,225.8 C419.466667,214.91828 411.246341,207.559556 400.226979,207.402562 L399.866667,207.4 Z M115,207.2 L79.4,207.2 L79.4,236.6 L115,236.6 C124.6,236.6 130.6,230.4 130.6,221.8 C130.6,213.703797 124.750937,207.362314 115.362822,207.203067 L115,207.2 Z M380.009625,25 C405.934834,25 427.246205,44.7337569 429.753348,70.0007546 L399.372554,70.0007546 C397.182818,61.490886 389.538934,55.1750176 380.391623,55.003577 L380.009625,55 L119.646183,55 C110.486627,55.1573191 102.822334,61.4822685 100.629913,70.0007546 L70.246796,70.0007546 C72.7297027,44.9921013 93.6441185,25.395342 119.214115,25.0059076 L119.990375,25 L380.009625,25 Z" id="Shape" fill="#000000" fill-rule="nonzero"></path>
    </g>
</svg>