<?xml version="1.0" encoding="UTF-8"?>
<svg width="500px" height="500px" viewBox="0 0 500 500" version="1.1" xmlns="http://www.w3.org/2000/svg" xmlns:xlink="http://www.w3.org/1999/xlink">
    <title>ext-php</title>
    <g id="ext-php" stroke="none" stroke-width="1" fill="none" fill-rule="evenodd">
        <path d="M445,85 C472.614237,85 495,107.385763 495,135 L495,365 C495,392.614237 472.614237,415 445,415 L390,415 L330,475 L119.990375,475 C92.6544153,475 70.4480893,453.060137 70.0066963,425.827789 L70,425.000964 L70,415 L55,415 C27.3857625,415 5,392.614237 5,365 L5,135 C5,107.385763 27.3857625,85 55,85 L445,85 Z M347.573,415 L100,415 L100,425.345515 C100.184687,436.118352 108.876491,444.813253 119.642377,444.997032 L119.990375,445 L317.573,445 L347.573,415 Z M445,115 L55,115 C44.0693643,115 35.186775,123.768729 35,134.655511 L35,365 C35,375.930636 43.7687286,384.813225 54.6555106,384.997093 L55,385 L445,385 C455.930636,385 464.813225,376.231271 465,365.344489 L465,135 C465,124.069364 456.231271,115.186775 445.344489,115.002907 L445,115 Z M130.4,183 C159.4,183 175.2,202.6 175.2,226 C175.2,248.968 159.5184,268.21162 131.260157,268.594196 L130.4,268.6 L96.4,268.6 L96.4,316.4 L68,316.4 L68,183 L130.4,183 Z M214.533333,183 L214.533333,235.4 L277.533333,235.4 L277.533333,183 L306.133333,183 L306.133333,316.4 L277.533333,316.4 L277.533333,260.4 L214.533333,260.4 L214.533333,316.4 L186.133333,316.4 L186.133333,183 L214.533333,183 Z M388.066667,183 C417.066667,183 432.866667,202.6 432.866667,226 C432.866667,248.968 417.185067,268.21162 388.926823,268.594196 L388.066667,268.6 L354.066667,268.6 L354.066667,316.4 L325.666667,316.4 L325.666667,183 L388.066667,183 Z M126.6,207.4 L96.4,207.4 L96.4,244.2 L126.6,244.2 C137.8,244.2 146.2,237 146.2,225.8 C146.2,214.91828 137.979674,207.559556 126.960312,207.402562 L126.6,207.4 Z M384.266667,207.4 L354.066667,207.4 L354.066667,244.2 L384.266667,244.2 C395.466667,244.2 403.866667,237 403.866667,225.8 C403.866667,214.91828 395.646341,207.559556 384.626979,207.402562 L384.266667,207.4 Z M380.009625,25 C405.934834,25 427.246205,44.7337569 429.753348,70.0007546 L399.372554,70.0007546 C397.182818,61.490886 389.538934,55.1750176 380.391623,55.003577 L380.009625,55 L119.646183,55 C110.486627,55.1573191 102.822334,61.4822685 100.629913,70.0007546 L70.246796,70.0007546 C72.7297027,44.9921013 93.6441185,25.395342 119.214115,25.0059076 L119.990375,25 L380.009625,25 Z" id="Shape" fill="#000000" fill-rule="nonzero"></path>
    </g>
</svg>