<?xml version="1.0" encoding="UTF-8"?>
<svg width="500px" height="500px" viewBox="0 0 500 500" version="1.1" xmlns="http://www.w3.org/2000/svg" xmlns:xlink="http://www.w3.org/1999/xlink">
    <title>ext-jpg</title>
    <g id="ext-jpg" stroke="none" stroke-width="1" fill="none" fill-rule="evenodd">
        <path d="M445,85 C472.614237,85 495,107.385763 495,135 L495,365 C495,392.614237 472.614237,415 445,415 L390,415 L330,475 L119.990375,475 C92.6544153,475 70.4480893,453.060137 70.0066963,425.827789 L70,425.000964 L70,415 L55,415 C27.3857625,415 5,392.614237 5,365 L5,135 C5,107.385763 27.3857625,85 55,85 L445,85 Z M347.573,415 L100,415 L100,425.345515 C100.184687,436.118352 108.876491,444.813253 119.642377,444.997032 L119.990375,445 L317.573,445 L347.573,415 Z M445,115 L55,115 C44.0693643,115 35.186775,123.768729 35,134.655511 L35,365 C35,375.930636 43.7687286,384.813225 54.6555106,384.997093 L55,385 L445,385 C455.930636,385 464.813225,376.231271 465,365.344489 L465,135 C465,124.069364 456.231271,115.186775 445.344489,115.002907 L445,115 Z M378.925,172 C409.6645,172 429.157353,186.775007 440.678317,204.317572 L441.025,204.85 L414.475,219.25 C407.5,208.675 394.675,200.35 378.925,200.35 C351.7,200.35 331.9,221.275 331.9,249.625 C331.9,277.975 351.7,298.9 378.925,298.9 C392.442045,298.9 404.431457,293.444163 411.024549,287.690735 L411.325,287.425 L411.325,269.2 L371.275,269.2 L371.275,241.75 L442.825,241.75 L442.825,299.125 C427.525,316.225 406.15,327.475 378.925,327.475 C335.05,327.475 299.05,296.875 299.05,249.625 C299.05,202.15 335.05,172 378.925,172 Z M151.15,174.475 L151.15,275.275 C151.15,310.825 129.1,327.25 98.275,327.25 C83.190493,327.25 69.1995189,323.313281 58.4583403,313.067955 L58,312.625 L71.95,288.1 C77.8,293.725 85.45,298.9 95.8,298.9 C109.83325,298.9 119.015005,289.638055 119.197237,275.262193 L119.2,274.825 L119.2,174.475 L151.15,174.475 Z M243.55,174.475 C276.175,174.475 293.95,196.525 293.95,222.85 C293.95,248.689 276.3082,270.338072 244.517676,270.76847 L243.55,270.775 L205.3,270.775 L205.3,324.55 L173.35,324.55 L173.35,174.475 L243.55,174.475 Z M239.275,201.925 L205.3,201.925 L205.3,243.325 L239.275,243.325 C251.875,243.325 261.325,235.225 261.325,222.625 C261.325,210.37375 252.063055,202.091905 239.652049,201.927493 L239.275,201.925 Z M380.009625,25 C405.934834,25 427.246205,44.7337569 429.753348,70.0007546 L399.372554,70.0007546 C397.182818,61.490886 389.538934,55.1750176 380.391623,55.003577 L380.009625,55 L119.646183,55 C110.486627,55.1573191 102.822334,61.4822685 100.629913,70.0007546 L70.246796,70.0007546 C72.7297027,44.9921013 93.6441185,25.395342 119.214115,25.0059076 L119.990375,25 L380.009625,25 Z" id="Shape" fill="#000000" fill-rule="nonzero"></path>
    </g>
</svg>