<?xml version="1.0" encoding="UTF-8"?>
<svg width="500px" height="500px" viewBox="0 0 500 500" version="1.1" xmlns="http://www.w3.org/2000/svg" xmlns:xlink="http://www.w3.org/1999/xlink">
    <title>ext-mp3</title>
    <g id="ext-mp3" stroke="none" stroke-width="1" fill="none" fill-rule="evenodd">
        <path d="M445,85 C472.614237,85 495,107.385763 495,135 L495,365 C495,392.614237 472.614237,415 445,415 L390,415 L330,475 L119.990375,475 C92.6544153,475 70.4480893,453.060137 70.0066963,425.827789 L70,425.000964 L70,415 L55,415 C27.3857625,415 5,392.614237 5,365 L5,135 C5,107.385763 27.3857625,85 55,85 L445,85 Z M347.573,415 L100,415 L100,425.345515 C100.184687,436.118352 108.876491,444.813253 119.642377,444.997032 L119.990375,445 L317.573,445 L347.573,415 Z M445,115 L55,115 C44.0693643,115 35.186775,123.768729 35,134.655511 L35,365 C35,375.930636 43.7687286,384.813225 54.6555106,384.997093 L55,385 L445,385 C455.930636,385 464.813225,376.231271 465,365.344489 L465,135 C465,124.069364 456.231271,115.186775 445.344489,115.002907 L445,115 Z M387.066667,181 C418.266667,181 437.466667,195 437.466667,217.2 C437.466667,234 423.066667,245 408.266667,247.6 C421.866667,249 439.466667,259.6 439.466667,279.6 C439.466667,302.6 418.866667,318.8 386.866667,318.8 C362.512667,318.8 344.431307,309.58706 334.563185,297.759213 L334.266667,297.4 L349.066667,278.8 C358.266667,288.4 372.866667,294 385.866667,294 C402.066667,294 411.066667,287 411.066667,276.8 C411.066667,266.108 403.029847,261.10058 384.821549,261.001501 L377.523903,261.008793 C373.317159,261.024425 369.216944,261.067847 367.792309,261.188464 L367.666667,261.2 L367.666667,236.4 L368.174487,236.434263 C370.28706,236.55211 375.061967,236.586162 379.400907,236.596002 L384.266667,236.6 C399.066667,236.6 408.866667,231.8 408.866667,221.8 C408.866667,211.2 398.066667,205.8 384.066667,205.8 C371.276344,205.8 359.841224,210.64001 350.523219,219.367642 L350.066667,219.8 L336.066667,202.2 C346.866667,190 363.666667,181 387.066667,181 Z M100.8,183 L133.2,266.2 L165.6,183 L205.6,183 L205.6,316.4 L177,316.4 L177,220.4 L139.4,316.4 L127,316.4 L89.4,220.4 L89.4,316.4 L61,316.4 L61,183 L100.8,183 Z M287.733333,183 C316.733333,183 332.533333,202.6 332.533333,226 C332.533333,248.968 316.851733,268.21162 288.59349,268.594196 L287.733333,268.6 L253.733333,268.6 L253.733333,316.4 L225.333333,316.4 L225.333333,183 L287.733333,183 Z M283.933333,207.4 L253.733333,207.4 L253.733333,244.2 L283.933333,244.2 C295.133333,244.2 303.533333,237 303.533333,225.8 C303.533333,214.91828 295.313007,207.559556 284.293645,207.402562 L283.933333,207.4 Z M380.009625,25 C405.934834,25 427.246205,44.7337569 429.753348,70.0007546 L399.372554,70.0007546 C397.182818,61.490886 389.538934,55.1750176 380.391623,55.003577 L380.009625,55 L119.646183,55 C110.486627,55.1573191 102.822334,61.4822685 100.629913,70.0007546 L70.246796,70.0007546 C72.7297027,44.9921013 93.6441185,25.395342 119.214115,25.0059076 L119.990375,25 L380.009625,25 Z" id="Shape" fill="#000000" fill-rule="nonzero"></path>
    </g>
</svg>