<?xml version="1.0" encoding="UTF-8"?>
<svg width="500px" height="500px" viewBox="0 0 500 500" version="1.1" xmlns="http://www.w3.org/2000/svg" xmlns:xlink="http://www.w3.org/1999/xlink">
    <title>ext-java</title>
    <g id="ext-java" stroke="none" stroke-width="1" fill="none" fill-rule="evenodd">
        <path d="M445,85 C472.614237,85 495,107.385763 495,135 L495,365 C495,392.614237 472.614237,415 445,415 L390,415 L330,475 L119.990375,475 C92.6544153,475 70.4480893,453.060137 70.0066963,425.827789 L70,425.000964 L70,415 L55,415 C27.3857625,415 5,392.614237 5,365 L5,135 C5,107.385763 27.3857625,85 55,85 L445,85 Z M347.573,415 L100,415 L100,425.345515 C100.184687,436.118352 108.876491,444.813253 119.642377,444.997032 L119.990375,445 L317.573,445 L347.573,415 Z M445,115 L55,115 C44.0693643,115 35.186775,123.768729 35,134.655511 L35,365 C35,375.930636 43.7687286,384.813225 54.6555106,384.997093 L55,385 L445,385 C455.930636,385 464.813225,376.231271 465,365.344489 L465,135 C465,124.069364 456.231271,115.186775 445.344489,115.002907 L445,115 Z M116.52,189 L116.52,269.64 C116.52,298.08 98.88,311.22 74.22,311.22 C62.1774194,311.22 51.0060406,308.083673 42.4201641,299.925289 L42,299.52 L53.16,279.9 L53.7285581,280.43803 C58.333056,284.724576 64.2912,288.54 72.24,288.54 C83.4580645,288.54 90.8008325,281.141707 90.9574444,269.655979 L90.96,269.28 L90.96,189 L116.52,189 Z M194.04,189 L240.3,309.06 L212.4,309.06 L204.84,288.36 L151.2,288.36 L143.64,309.06 L115.56,309.06 L162,189 L194.04,189 Z M253.38,189 L286.68,281.34 L319.8,189 L348.96,189 L302.7,309.06 L270.66,309.06 L224.22,189 L253.38,189 Z M411.36,189 L457.62,309.06 L429.72,309.06 L422.16,288.36 L368.52,288.36 L360.96,309.06 L332.88,309.06 L379.32,189 L411.36,189 Z M178.02,211.14 L158.04,266.22 L197.82,266.22 L178.02,211.14 Z M395.34,211.14 L375.36,266.22 L415.14,266.22 L395.34,211.14 Z M380.009625,25 C405.934834,25 427.246205,44.7337569 429.753348,70.0007546 L399.372554,70.0007546 C397.182818,61.490886 389.538934,55.1750176 380.391623,55.003577 L380.009625,55 L119.646183,55 C110.486627,55.1573191 102.822334,61.4822685 100.629913,70.0007546 L70.246796,70.0007546 C72.7297027,44.9921013 93.6441185,25.395342 119.214115,25.0059076 L119.990375,25 L380.009625,25 Z" id="Shape" fill="#000000" fill-rule="nonzero"></path>
    </g>
</svg>