<?xml version="1.0" encoding="UTF-8"?>
<svg width="500px" height="500px" viewBox="0 0 500 500" version="1.1" xmlns="http://www.w3.org/2000/svg" xmlns:xlink="http://www.w3.org/1999/xlink">
    <title>ext-psd</title>
    <g id="ext-psd" stroke="none" stroke-width="1" fill="none" fill-rule="evenodd">
        <path d="M445,85 C472.614237,85 495,107.385763 495,135 L495,365 C495,392.614237 472.614237,415 445,415 L390,415 L330,475 L119.990375,475 C92.6544153,475 70.4480893,453.060137 70.0066963,425.827789 L70,425.000964 L70,415 L55,415 C27.3857625,415 5,392.614237 5,365 L5,135 C5,107.385763 27.3857625,85 55,85 L445,85 Z M347.573,415 L100,415 L100,425.345515 C100.184687,436.118352 108.876491,444.813253 119.642377,444.997032 L119.990375,445 L317.573,445 L347.573,415 Z M445,115 L55,115 C44.0693643,115 35.186775,123.768729 35,134.655511 L35,365 C35,375.930636 43.7687286,384.813225 54.6555106,384.997093 L55,385 L445,385 C455.930636,385 464.813225,376.231271 465,365.344489 L465,135 C465,124.069364 456.231271,115.186775 445.344489,115.002907 L445,115 Z M234.425,172 C258.007022,172 277.629545,179.039111 292.422565,192.464832 L292.925,192.925 L275.15,216.325 C263,205.075 246.8,199.9 232.175,199.9 C217.775,199.9 210.125,206.2 210.125,215.2 C210.125,225.325 222.725,228.475 240.05,232.525 L242.294692,233.03676 C266.66165,238.618788 296.3,246.574 296.3,278.875 C296.3,306.325 276.725,327.025 236.225,327.025 C208.001,327.025 187.55624,317.73313 173.408343,304.020059 L172.55,303.175 L190.1,278.875 C200.675,289.9 217.1,299.125 237.8,299.125 C255.35,299.125 263.9,290.8 263.9,282.25 C263.9,271.225 251.36678,267.33097 234.5593,263.367791 L233.525,263.125 C209,257.5 177.5,250.75 177.5,217.225 C177.5,192.25 199.1,172 234.425,172 Z M120.2,174.25 C152.825,174.25 170.6,196.3 170.6,222.625 C170.6,248.464 152.9582,270.113073 121.167676,270.54347 L120.2,270.55 L81.95,270.55 L81.95,324.325 L50,324.325 L50,174.25 L120.2,174.25 Z M369.575,174.25 C416.6,174.25 449.225,204.175 449.225,249.4 C449.225,294.17275 417.249237,323.729448 370.981412,324.316104 L369.575,324.325 L310.4,324.325 L310.4,174.25 L369.575,174.25 Z M369.575,202.375 L342.35,202.375 L342.35,296.2 L369.575,296.2 C399.275,296.2 416.6,274.825 416.6,249.4 C416.6,223.1155 400.72238,202.785108 370.495361,202.381128 L369.575,202.375 Z M115.925,201.7 L81.95,201.7 L81.95,243.1 L115.925,243.1 C128.525,243.1 137.975,235 137.975,222.4 C137.975,210.14875 128.713055,201.866905 116.302049,201.702493 L115.925,201.7 Z M380.009625,25 C405.934834,25 427.246205,44.7337569 429.753348,70.0007546 L399.372554,70.0007546 C397.182818,61.490886 389.538934,55.1750176 380.391623,55.003577 L380.009625,55 L119.646183,55 C110.486627,55.1573191 102.822334,61.4822685 100.629913,70.0007546 L70.246796,70.0007546 C72.7297027,44.9921013 93.6441185,25.395342 119.214115,25.0059076 L119.990375,25 L380.009625,25 Z" id="Shape" fill="#000000" fill-rule="nonzero"></path>
    </g>
</svg>