<?xml version="1.0" encoding="UTF-8"?>
<svg width="500px" height="500px" viewBox="0 0 500 500" version="1.1" xmlns="http://www.w3.org/2000/svg" xmlns:xlink="http://www.w3.org/1999/xlink">
    <title>ext-doc</title>
    <g id="ext-doc" stroke="none" stroke-width="1" fill="none" fill-rule="evenodd">
        <path d="M445,85 C472.614237,85 495,107.385763 495,135 L495,365 C495,392.614237 472.614237,415 445,415 L390,415 L330,475 L119.990375,475 C92.6544153,475 70.4480893,453.060137 70.0066963,425.827789 L70,425.000964 L70,415 L55,415 C27.3857625,415 5,392.614237 5,365 L5,135 C5,107.385763 27.3857625,85 55,85 L445,85 Z M347.573,415 L100,415 L100,425.345515 C100.184687,436.118352 108.876491,444.813253 119.642377,444.997032 L119.990375,445 L317.573,445 L347.573,415 Z M445,115 L55,115 C44.0693643,115 35.186775,123.768729 35,134.655511 L35,365 C35,375.930636 43.7687286,384.813225 54.6555106,384.997093 L55,385 L445,385 C455.930636,385 464.813225,376.231271 465,365.344489 L465,135 C465,124.069364 456.231271,115.186775 445.344489,115.002907 L445,115 Z M248.133333,181 C288.533333,181 317.933333,209.8 317.933333,250 C317.933333,290.2 288.533333,319 248.133333,319 C207.933333,319 178.533333,290.2 178.533333,250 C178.533333,209.8 207.933333,181 248.133333,181 Z M394.866667,181 C424.962667,181 441.925327,196.6816 451.382381,213.102195 L451.666667,213.6 L427.266667,225.6 C421.666667,214.8 409.666667,206.2 394.866667,206.2 C371.666667,206.2 354.066667,224.8 354.066667,250 C354.066667,275.2 371.666667,293.8 394.866667,293.8 C409.500375,293.8 421.39665,285.587704 427.075484,274.769794 L427.266667,274.4 L451.666667,286.2 C442.066667,302.8 425.266667,319 394.866667,319 C355.866667,319 324.866667,291 324.866667,250 C324.866667,209 355.866667,181 394.866667,181 Z M100.6,183.2 C142.4,183.2 171.4,209.8 171.4,250 C171.4,289.798 142.9771,316.07062 101.850144,316.592093 L100.6,316.6 L48,316.6 L48,183.2 L100.6,183.2 Z M248.133333,206.2 C223.533333,206.2 207.733333,225 207.733333,250 C207.733333,274.8 223.533333,293.8 248.133333,293.8 C272.733333,293.8 288.733333,274.8 288.733333,250 C288.733333,225 272.733333,206.2 248.133333,206.2 Z M100.6,208.2 L76.4,208.2 L76.4,291.6 L100.6,291.6 C127,291.6 142.4,272.6 142.4,250 C142.4,226.636 128.28656,208.56454 101.418099,208.205447 L100.6,208.2 Z M380.009625,25 C405.934834,25 427.246205,44.7337569 429.753348,70.0007546 L399.372554,70.0007546 C397.182818,61.490886 389.538934,55.1750176 380.391623,55.003577 L380.009625,55 L119.646183,55 C110.486627,55.1573191 102.822334,61.4822685 100.629913,70.0007546 L70.246796,70.0007546 C72.7297027,44.9921013 93.6441185,25.395342 119.214115,25.0059076 L119.990375,25 L380.009625,25 Z" id="Shape" fill="#000000" fill-rule="nonzero"></path>
    </g>
</svg>