<?xml version="1.0" encoding="UTF-8"?>
<svg width="500px" height="500px" viewBox="0 0 500 500" version="1.1" xmlns="http://www.w3.org/2000/svg" xmlns:xlink="http://www.w3.org/1999/xlink">
    <title>facebook</title>
    <g id="facebook" stroke="none" stroke-width="1" fill="none" fill-rule="evenodd">
        <path d="M143.258065,264.67 L192.585323,264.67 L192.585323,467.741935 C192.585323,471.75129 195.834032,475 199.843387,475 L283.479516,475 C287.488871,475 290.737581,471.75129 290.737581,467.741935 L290.737581,265.626613 L347.443387,265.626613 C351.130484,265.626613 354.232581,262.859839 354.653548,259.197419 L363.265968,184.436452 C363.502581,182.379516 362.850806,180.319677 361.474677,178.776613 C360.097097,177.232097 358.125806,176.348065 356.057258,176.348065 L290.740484,176.348065 L290.740484,129.484194 C290.740484,115.357097 298.346935,108.193387 313.350806,108.193387 L356.057258,108.193387 C360.066613,108.193387 363.315323,104.943226 363.315323,100.935323 L363.315323,32.3117742 C363.315323,28.3024194 360.066613,25.0537097 356.057258,25.0537097 L297.201613,25.0537097 C296.786452,25.0333871 295.864677,25 294.505968,25 C284.293871,25 248.797581,27.0046774 220.758226,52.7998387 C189.690806,81.385 194.009355,115.611129 195.041452,121.545323 L195.041452,176.346613 L143.258065,176.346613 C139.24871,176.346613 136,179.595323 136,183.604677 L136,257.410484 C136,261.419839 139.24871,264.67 143.258065,264.67 Z" id="Shape" fill="#000000"></path>
    </g>
</svg>