<?xml version="1.0" encoding="UTF-8"?>
<svg width="500px" height="500px" viewBox="0 0 500 500" version="1.1" xmlns="http://www.w3.org/2000/svg" xmlns:xlink="http://www.w3.org/1999/xlink">
    <title>file-bmp</title>
    <g id="file-bmp" stroke="none" stroke-width="1" fill="none" fill-rule="evenodd">
        <path d="M100,310 L100,445.345515 C100.184687,456.118352 108.876491,464.813253 119.642377,464.997032 L119.990375,465 L317.573,465 L400,382.573 L400,310 L430,310 L430,395 L330,495 L119.990375,495 C92.6544153,495 70.4480893,473.060137 70.0066963,445.827789 L70,445.000964 L70,310 L100,310 Z M394,365 L304,455 L304,365 L394,365 Z M380.009625,5 C407.345585,5 429.551911,26.9398629 429.993304,54.1722107 L430,54.9990362 L430,70 L445,70 C472.614237,70 495,92.3857625 495,120 L495,230 C495,257.614237 472.614237,280 445,280 L55,280 C27.3857625,280 5,257.614237 5,230 L5,120 C5,92.3857625 27.3857625,70 55,70 L70,70 L70,54.9990362 C70,27.6685571 91.9360622,5.44837124 119.163692,5.00670057 L119.990375,5 L380.009625,5 Z M445,100 L55,100 C44.0693643,100 35.186775,108.768729 35,119.655511 L35,230 C35,240.930636 43.7687286,249.813225 54.6555106,249.997093 L55,250 L445,250 C455.930636,250 464.813225,241.231271 465,230.344489 L465,120 C465,109.069364 456.231271,100.186775 445.344489,100.002907 L445,100 Z M153.65,120 C172.7,120 182.45,132.15 182.45,145.5 C182.45,158.1 174.65,166.5 165.2,168.45 C175.85,170.1 184.4,180.45 184.4,193.05 C184.4,207.9 174.549995,219.8097 155.868799,220.046409 L155.3,220.05 L101,220.05 L101,120 L153.65,120 Z M225.3,120 L249.6,182.4 L273.9,120 L303.9,120 L303.9,220.05 L282.45,220.05 L282.45,148.05 L254.25,220.05 L244.95,220.05 L216.75,148.05 L216.75,220.05 L195.45,220.05 L195.45,120 L225.3,120 Z M365.5,120 C387.25,120 399.1,134.7 399.1,152.25 C399.1,169.476 387.3388,183.908715 366.145118,184.195647 L365.5,184.2 L340,184.2 L340,220.05 L318.7,220.05 L318.7,120 L365.5,120 Z M149.75,178.35 L122.3,178.35 L122.3,201.9 L149.75,201.9 C157.85,201.9 162.65,197.25 162.65,190.05 C162.65,183.84403 158.283326,178.511395 150.123511,178.353594 L149.75,178.35 Z M362.65,138.3 L340,138.3 L340,165.9 L362.65,165.9 C371.05,165.9 377.35,160.5 377.35,152.1 C377.35,143.96 371.21688,138.44848 362.98487,138.302953 L362.65,138.3 Z M149,138.15 L122.3,138.15 L122.3,160.2 L149,160.2 C156.2,160.2 160.7,155.55 160.7,149.1 C160.7,143.046094 156.339526,138.30033 149.335516,138.153502 L149,138.15 Z M380.009625,35 L119.646183,35 C108.884438,35.1848374 100.186807,43.8837008 100,54.6509947 L100,54.9990362 L100,70 L400,70 L400,54.6544854 C399.813328,43.7658113 390.935605,35 380.009625,35 Z" id="Shape" fill="#000000" fill-rule="nonzero"></path>
    </g>
</svg>