<?xml version="1.0" encoding="UTF-8"?>
<svg width="500px" height="500px" viewBox="0 0 500 500" version="1.1" xmlns="http://www.w3.org/2000/svg" xmlns:xlink="http://www.w3.org/1999/xlink">
    <title>file-blank</title>
    <g id="file-blank" stroke="none" stroke-width="1" fill="none" fill-rule="evenodd">
        <path d="M380.009625,25 C407.621705,25 430,47.385331 430,74.9990362 L430,74.9990362 L430,375 L330,475 L119.990375,475 C92.3782945,475 70,452.614669 70,425.000964 L70,425.000964 L70,74.9990362 C70,47.3924916 92.3814531,25 119.990375,25 L119.990375,25 Z M380.009625,55 L119.646183,55 C108.76872,55.1868249 100,64.0717575 100,74.9990362 L100,74.9990362 L100,425.345515 C100.186672,436.234189 109.064395,445 119.990375,445 L119.990375,445 L317.573,445 L400,362.573 L400,74.6544854 C399.813328,63.7658113 390.935605,55 380.009625,55 L380.009625,55 Z M394,345 L304,435 L304,345 L394,345 Z" id="Shape" fill="#000000" fill-rule="nonzero"></path>
    </g>
</svg>