<?xml version="1.0" encoding="UTF-8"?>
<svg width="500px" height="500px" viewBox="0 0 500 500" version="1.1" xmlns="http://www.w3.org/2000/svg" xmlns:xlink="http://www.w3.org/1999/xlink">
    <title>file-mov</title>
    <g id="file-mov" stroke="none" stroke-width="1" fill="none" fill-rule="evenodd">
        <path d="M100,310 L100,445.345515 C100.184687,456.118352 108.876491,464.813253 119.642377,464.997032 L119.990375,465 L317.573,465 L400,382.573 L400,310 L430,310 L430,395 L330,495 L119.990375,495 C92.6544153,495 70.4480893,473.060137 70.0066963,445.827789 L70,445.000964 L70,310 L100,310 Z M394,365 L304,455 L304,365 L394,365 Z M380.009625,5 C407.345585,5 429.551911,26.9398629 429.993304,54.1722107 L430,54.9990362 L430,70 L445,70 C472.614237,70 495,92.3857625 495,120 L495,230 C495,257.614237 472.614237,280 445,280 L55,280 C27.3857625,280 5,257.614237 5,230 L5,120 C5,92.3857625 27.3857625,70 55,70 L70,70 L70,54.9990362 C70,27.6685571 91.9360622,5.44837124 119.163692,5.00670057 L119.990375,5 L380.009625,5 Z M445,100 L55,100 C44.0693643,100 35.186775,108.768729 35,119.655511 L35,230 C35,240.930636 43.7687286,249.813225 54.6555106,249.997093 L55,250 L445,250 C455.930636,250 464.813225,241.231271 465,230.344489 L465,120 C465,109.069364 456.231271,100.186775 445.344489,100.002907 L445,100 Z M258.65,120 C288.95,120 311,141.6 311,171.75 C311,201.9 288.95,223.5 258.65,223.5 C228.5,223.5 206.45,201.9 206.45,171.75 C206.45,141.6 228.5,120 258.65,120 Z M117.85,121.65 L142.15,184.05 L166.45,121.65 L196.45,121.65 L196.45,221.7 L175,221.7 L175,149.7 L146.8,221.7 L137.5,221.7 L109.3,149.7 L109.3,221.7 L88,221.7 L88,121.65 L117.85,121.65 Z M331.65,121.65 L359.4,198.6 L387,121.65 L411.3,121.65 L372.75,221.7 L346.05,221.7 L307.35,121.65 L331.65,121.65 Z M258.65,138.9 C240.2,138.9 228.35,153 228.35,171.75 C228.35,190.35 240.2,204.6 258.65,204.6 C277.1,204.6 289.1,190.35 289.1,171.75 C289.1,153 277.1,138.9 258.65,138.9 Z M380.009625,35 L119.646183,35 C108.884438,35.1848374 100.186807,43.8837008 100,54.6509947 L100,54.9990362 L100,70 L400,70 L400,54.6544854 C399.813328,43.7658113 390.935605,35 380.009625,35 Z" id="Shape" fill="#000000" fill-rule="nonzero"></path>
    </g>
</svg>