<?xml version="1.0" encoding="UTF-8"?>
<svg width="500px" height="500px" viewBox="0 0 500 500" version="1.1" xmlns="http://www.w3.org/2000/svg" xmlns:xlink="http://www.w3.org/1999/xlink">
    <title>file-js</title>
    <g id="file-js" stroke="none" stroke-width="1" fill="none" fill-rule="evenodd">
        <path d="M100,310 L100,445.345515 C100.184687,456.118352 108.876491,464.813253 119.642377,464.997032 L119.990375,465 L317.573,465 L400,382.573 L400,310 L430,310 L430,395 L330,495 L119.990375,495 C92.6544153,495 70.4480893,473.060137 70.0066963,445.827789 L70,445.000964 L70,310 L100,310 Z M394,365 L304,455 L304,365 L394,365 Z M380.009625,5 C407.345585,5 429.551911,26.9398629 429.993304,54.1722107 L430,54.9990362 L430,70 L445,70 C472.614237,70 495,92.3857625 495,120 L495,230 C495,257.614237 472.614237,280 445,280 L55,280 C27.3857625,280 5,257.614237 5,230 L5,120 C5,92.3857625 27.3857625,70 55,70 L70,70 L70,54.9990362 C70,27.6685571 91.9360622,5.44837124 119.163692,5.00670057 L119.990375,5 L380.009625,5 Z M445,100 L55,100 C44.0693643,100 35.186775,108.768729 35,119.655511 L35,230 C35,240.930636 43.7687286,249.813225 54.6555106,249.997093 L55,250 L445,250 C455.930636,250 464.813225,241.231271 465,230.344489 L465,120 C465,109.069364 456.231271,100.186775 445.344489,100.002907 L445,100 Z M236.1,121.5 L236.1,188.7 C236.1,212.4 221.4,223.35 200.85,223.35 C190.832143,223.35 181.537739,220.745568 174.387858,213.973527 L174,213.6 L183.3,197.25 C187.2,201 192.3,204.45 199.2,204.45 C208.536145,204.45 214.651328,198.300893 214.797327,188.750902 L214.8,188.4 L214.8,121.5 L236.1,121.5 Z M285.25,120 C300.905385,120 313.943207,124.653444 323.790736,133.530783 L324.25,133.95 L312.4,149.55 C304.3,142.05 293.5,138.6 283.75,138.6 C274.15,138.6 269.05,142.8 269.05,148.8 C269.05,155.466667 277.243873,157.597439 288.573672,160.250264 L292.013092,161.041427 C307.9444,164.7561 326.5,170.382 326.5,191.25 C326.5,209.55 313.45,223.35 286.45,223.35 C267.487037,223.35 253.791564,217.058276 244.351991,207.798622 L244,207.45 L255.7,191.25 C262.75,198.6 273.7,204.75 287.5,204.75 C299.2,204.75 304.9,199.2 304.9,193.5 C304.9,186 296.2,183.45 284.65,180.75 L281.66232,180.063206 C265.8556,176.39574 247.3,171.159 247.3,150.15 C247.3,133.5 261.7,120 285.25,120 Z M380.009625,35 L119.646183,35 C108.884438,35.1848374 100.186807,43.8837008 100,54.6509947 L100,54.9990362 L100,70 L400,70 L400,54.6544854 C399.813328,43.7658113 390.935605,35 380.009625,35 Z" id="Shape" fill="#000000" fill-rule="nonzero"></path>
    </g>
</svg>