<?xml version="1.0" encoding="UTF-8"?>
<svg width="500px" height="500px" viewBox="0 0 500 500" version="1.1" xmlns="http://www.w3.org/2000/svg" xmlns:xlink="http://www.w3.org/1999/xlink">
    <title>file-css</title>
    <g id="file-css" stroke="none" stroke-width="1" fill="none" fill-rule="evenodd">
        <path d="M100,310 L100,445.345515 C100.184687,456.118352 108.876491,464.813253 119.642377,464.997032 L119.990375,465 L317.573,465 L400,382.573 L400,310 L430,310 L430,395 L330,495 L119.990375,495 C92.6544153,495 70.4480893,473.060137 70.0066963,445.827789 L70,445.000964 L70,310 L100,310 Z M394,365 L304,455 L304,365 L394,365 Z M380.009625,5 C407.345585,5 429.551911,26.9398629 429.993304,54.1722107 L430,54.9990362 L430,70 L445,70 C472.614237,70 495,92.3857625 495,120 L495,230 C495,257.614237 472.614237,280 445,280 L55,280 C27.3857625,280 5,257.614237 5,230 L5,120 C5,92.3857625 27.3857625,70 55,70 L70,70 L70,54.9990362 C70,27.6685571 91.9360622,5.44837124 119.163692,5.00670057 L119.990375,5 L380.009625,5 Z M445,100 L55,100 C44.0693643,100 35.186775,108.768729 35,119.655511 L35,230 C35,240.930636 43.7687286,249.813225 54.6555106,249.997093 L55,250 L445,250 C455.930636,250 464.813225,241.231271 465,230.344489 L465,120 C465,109.069364 456.231271,100.186775 445.344489,100.002907 L445,100 Z M170.5,120 C193.072,120 205.793995,131.7612 212.886786,144.076647 L213.1,144.45 L194.8,153.45 C190.6,145.35 181.6,138.9 170.5,138.9 C153.1,138.9 139.9,152.85 139.9,171.75 C139.9,190.65 153.1,204.6 170.5,204.6 C181.441429,204.6 190.342429,198.478714 194.617069,190.402365 L194.8,190.05 L213.1,198.9 C205.9,211.35 193.3,223.5 170.5,223.5 C141.25,223.5 118,202.5 118,171.75 C118,141 141.25,120 170.5,120 Z M255.2,120.15 C270.855385,120.15 283.893207,124.803444 293.740736,133.680783 L294.2,134.1 L282.35,149.7 C274.25,142.2 263.45,138.75 253.7,138.75 C244.1,138.75 239,142.95 239,148.95 C239,155.7 247.4,157.8 258.95,160.5 L261.455562,161.073506 C277.4975,164.788125 296.45,170.31 296.45,191.4 C296.45,209.7 283.4,223.5 256.4,223.5 C237.437037,223.5 223.741564,217.208276 214.301991,207.948622 L213.95,207.6 L225.65,191.4 C232.7,198.75 243.65,204.9 257.45,204.9 C269.15,204.9 274.85,199.35 274.85,193.65 C274.85,186.15 266.15,183.6 254.6,180.9 L251.61232,180.213206 C235.8056,176.54574 217.25,171.309 217.25,150.3 C217.25,133.65 231.65,120.15 255.2,120.15 Z M340.2,120.15 C355.855385,120.15 368.893207,124.803444 378.740736,133.680783 L379.2,134.1 L367.35,149.7 C359.25,142.2 348.45,138.75 338.7,138.75 C329.1,138.75 324,142.95 324,148.95 C324,155.7 332.4,157.8 343.95,160.5 L346.455562,161.073506 C362.4975,164.788125 381.45,170.31 381.45,191.4 C381.45,209.7 368.4,223.5 341.4,223.5 C322.437037,223.5 308.741564,217.208276 299.301991,207.948622 L298.95,207.6 L310.65,191.4 C317.7,198.75 328.65,204.9 342.45,204.9 C354.15,204.9 359.85,199.35 359.85,193.65 C359.85,186.15 351.15,183.6 339.6,180.9 L336.61232,180.213206 C320.8056,176.54574 302.25,171.309 302.25,150.3 C302.25,133.65 316.65,120.15 340.2,120.15 Z M380.009625,35 L119.646183,35 C108.884438,35.1848374 100.186807,43.8837008 100,54.6509947 L100,54.9990362 L100,70 L400,70 L400,54.6544854 C399.813328,43.7658113 390.935605,35 380.009625,35 Z" id="Shape" fill="#000000" fill-rule="nonzero"></path>
    </g>
</svg>