<?xml version="1.0" encoding="UTF-8"?>
<svg width="500px" height="500px" viewBox="0 0 500 500" version="1.1" xmlns="http://www.w3.org/2000/svg" xmlns:xlink="http://www.w3.org/1999/xlink">
    <title>file-doc</title>
    <g id="file-doc" stroke="none" stroke-width="1" fill="none" fill-rule="evenodd">
        <path d="M100,310 L100,445.345515 C100.184687,456.118352 108.876491,464.813253 119.642377,464.997032 L119.990375,465 L317.573,465 L400,382.573 L400,310 L430,310 L430,395 L330,495 L119.990375,495 C92.6544153,495 70.4480893,473.060137 70.0066963,445.827789 L70,445.000964 L70,310 L100,310 Z M394,365 L304,455 L304,365 L394,365 Z M380.009625,5 C407.345585,5 429.551911,26.9398629 429.993304,54.1722107 L430,54.9990362 L430,70 L445,70 C472.614237,70 495,92.3857625 495,120 L495,230 C495,257.614237 472.614237,280 445,280 L55,280 C27.3857625,280 5,257.614237 5,230 L5,120 C5,92.3857625 27.3857625,70 55,70 L70,70 L70,54.9990362 C70,27.6685571 91.9360622,5.44837124 119.163692,5.00670057 L119.990375,5 L380.009625,5 Z M445,100 L55,100 C44.0693643,100 35.186775,108.768729 35,119.655511 L35,230 C35,240.930636 43.7687286,249.813225 54.6555106,249.997093 L55,250 L445,250 C455.930636,250 464.813225,241.231271 465,230.344489 L465,120 C465,109.069364 456.231271,100.186775 445.344489,100.002907 L445,100 Z M249.1,120 C279.4,120 301.45,141.6 301.45,171.75 C301.45,201.9 279.4,223.5 249.1,223.5 C218.95,223.5 196.9,201.9 196.9,171.75 C196.9,141.6 218.95,120 249.1,120 Z M359.15,120 C381.494,120 394.18598,131.5248 401.320125,143.703632 L401.75,144.45 L383.45,153.45 C379.25,145.35 370.25,138.9 359.15,138.9 C341.75,138.9 328.55,152.85 328.55,171.75 C328.55,190.65 341.75,204.6 359.15,204.6 C370.091429,204.6 378.992429,198.478714 383.267069,190.402365 L383.45,190.05 L401.75,198.9 C394.55,211.35 381.95,223.5 359.15,223.5 C329.9,223.5 306.65,202.5 306.65,171.75 C306.65,141 329.9,120 359.15,120 Z M138.45,121.65 C169.8,121.65 191.55,141.6 191.55,171.75 C191.55,201.5985 170.232825,221.302965 139.387608,221.694069 L138.45,221.7 L99,221.7 L99,121.65 L138.45,121.65 Z M249.1,138.9 C230.65,138.9 218.8,153 218.8,171.75 C218.8,190.35 230.65,204.6 249.1,204.6 C267.55,204.6 279.55,190.35 279.55,171.75 C279.55,153 267.55,138.9 249.1,138.9 Z M138.45,140.4 L120.3,140.4 L120.3,202.95 L138.45,202.95 C158.25,202.95 169.8,188.7 169.8,171.75 C169.8,154.227 159.21492,140.673405 139.063574,140.404085 L138.45,140.4 Z M380.009625,35 L119.646183,35 C108.884438,35.1848374 100.186807,43.8837008 100,54.6509947 L100,54.9990362 L100,70 L400,70 L400,54.6544854 C399.813328,43.7658113 390.935605,35 380.009625,35 Z" id="Shape" fill="#000000" fill-rule="nonzero"></path>
    </g>
</svg>