<?xml version="1.0" encoding="UTF-8"?>
<svg width="500px" height="500px" viewBox="0 0 500 500" version="1.1" xmlns="http://www.w3.org/2000/svg" xmlns:xlink="http://www.w3.org/1999/xlink">
    <title>file-mp3</title>
    <g id="file-mp3" stroke="none" stroke-width="1" fill="none" fill-rule="evenodd">
        <path d="M100,310 L100,445.345515 C100.184687,456.118352 108.876491,464.813253 119.642377,464.997032 L119.990375,465 L317.573,465 L400,382.573 L400,310 L430,310 L430,395 L330,495 L119.990375,495 C92.6544153,495 70.4480893,473.060137 70.0066963,445.827789 L70,445.000964 L70,310 L100,310 Z M394,365 L304,455 L304,365 L394,365 Z M380.009625,5 C407.345585,5 429.551911,26.9398629 429.993304,54.1722107 L430,54.9990362 L430,70 L445,70 C472.614237,70 495,92.3857625 495,120 L495,230 C495,257.614237 472.614237,280 445,280 L55,280 C27.3857625,280 5,257.614237 5,230 L5,120 C5,92.3857625 27.3857625,70 55,70 L70,70 L70,54.9990362 C70,27.6685571 91.9360622,5.44837124 119.163692,5.00670057 L119.990375,5 L380.009625,5 Z M445,100 L55,100 C44.0693643,100 35.186775,108.768729 35,119.655511 L35,230 C35,240.930636 43.7687286,249.813225 54.6555106,249.997093 L55,250 L445,250 C455.930636,250 464.813225,241.231271 465,230.344489 L465,120 C465,109.069364 456.231271,100.186775 445.344489,100.002907 L445,100 Z M352.55,120 C375.95,120 390.35,130.5 390.35,147.15 C390.35,159.75 379.55,168 368.45,169.95 C378.65,171 391.85,178.95 391.85,193.95 C391.85,211.2 376.4,223.35 352.4,223.35 C334.164535,223.35 320.618091,216.463 313.208948,207.613155 L312.95,207.3 L324.05,193.35 C330.95,200.55 341.9,204.75 351.65,204.75 C363.8,204.75 370.55,199.5 370.55,191.85 C370.55,183.75 364.4,180 350.45,180 L343.906556,180.013887 C341.451114,180.029236 339.240314,180.061548 338.249158,180.129576 L338,180.15 L338,161.55 L338.302344,161.571167 C339.368747,161.634827 341.442116,161.667031 343.714197,161.683322 L348.053362,161.699062 L350.45,161.7 C361.55,161.7 368.9,158.1 368.9,150.6 C368.9,142.65 360.8,138.6 350.3,138.6 C340.733962,138.6 332.178676,142.209826 325.200815,148.721134 L324.8,149.1 L314.3,135.9 C322.4,126.75 335,120 352.55,120 Z M137.85,121.5 L162.15,183.9 L186.45,121.5 L216.45,121.5 L216.45,221.55 L195,221.55 L195,149.55 L166.8,221.55 L157.5,221.55 L129.3,149.55 L129.3,221.55 L108,221.55 L108,121.5 L137.85,121.5 Z M278.05,121.5 C299.8,121.5 311.65,136.2 311.65,153.75 C311.65,170.976 299.8888,185.408715 278.695118,185.695647 L278.05,185.7 L252.55,185.7 L252.55,221.55 L231.25,221.55 L231.25,121.5 L278.05,121.5 Z M275.2,139.8 L252.55,139.8 L252.55,167.4 L275.2,167.4 C283.6,167.4 289.9,162 289.9,153.6 C289.9,145.46 283.76688,139.94848 275.53487,139.802953 L275.2,139.8 Z M380.009625,35 L119.646183,35 C108.884438,35.1848374 100.186807,43.8837008 100,54.6509947 L100,54.9990362 L100,70 L400,70 L400,54.6544854 C399.813328,43.7658113 390.935605,35 380.009625,35 Z" id="Shape" fill="#000000" fill-rule="nonzero"></path>
    </g>
</svg>