<?xml version="1.0" encoding="UTF-8"?>
<svg width="500px" height="500px" viewBox="0 0 500 500" version="1.1" xmlns="http://www.w3.org/2000/svg" xmlns:xlink="http://www.w3.org/1999/xlink">
    <title>file-gif</title>
    <g id="file-gif" stroke="none" stroke-width="1" fill="none" fill-rule="evenodd">
        <path d="M100,310 L100,445.345515 C100.184687,456.118352 108.876491,464.813253 119.642377,464.997032 L119.990375,465 L317.573,465 L400,382.573 L400,310 L430,310 L430,395 L330,495 L119.990375,495 C92.6544153,495 70.4480893,473.060137 70.0066963,445.827789 L70,445.000964 L70,310 L100,310 Z M394,365 L304,455 L304,365 L394,365 Z M380.009625,5 C407.345585,5 429.551911,26.9398629 429.993304,54.1722107 L430,54.9990362 L430,70 L445,70 C472.614237,70 495,92.3857625 495,120 L495,230 C495,257.614237 472.614237,280 445,280 L55,280 C27.3857625,280 5,257.614237 5,230 L5,120 C5,92.3857625 27.3857625,70 55,70 L70,70 L70,54.9990362 C70,27.6685571 91.9360622,5.44837124 119.163692,5.00670057 L119.990375,5 L380.009625,5 Z M445,100 L55,100 C44.0693643,100 35.186775,108.768729 35,119.655511 L35,230 C35,240.930636 43.7687286,249.813225 54.6555106,249.997093 L55,250 L445,250 C455.930636,250 464.813225,241.231271 465,230.344489 L465,120 C465,109.069364 456.231271,100.186775 445.344489,100.002907 L445,100 Z M196.25,120 C216.743,120 229.738235,129.850005 237.418878,141.545048 L237.65,141.9 L219.95,151.5 C215.3,144.45 206.75,138.9 196.25,138.9 C178.1,138.9 164.9,152.85 164.9,171.75 C164.9,190.65 178.1,204.6 196.25,204.6 C205.230556,204.6 213.19964,200.987603 217.604492,197.166489 L217.85,196.95 L217.85,184.8 L191.15,184.8 L191.15,166.5 L238.85,166.5 L238.85,204.75 C228.65,216.15 214.4,223.65 196.25,223.65 C167,223.65 143,203.25 143,171.75 C143,140.1 167,120 196.25,120 Z M272.1,121.65 L272.1,221.7 L250.8,221.7 L250.8,121.65 L272.1,121.65 Z M357.7,121.65 L357.7,139.95 L308.2,139.95 L308.2,161.7 L356.65,161.7 L356.65,180 L308.2,180 L308.2,221.7 L286.9,221.7 L286.9,121.65 L357.7,121.65 Z M380.009625,35 L119.646183,35 C108.884438,35.1848374 100.186807,43.8837008 100,54.6509947 L100,54.9990362 L100,70 L400,70 L400,54.6544854 C399.813328,43.7658113 390.935605,35 380.009625,35 Z" id="Shape" fill="#000000" fill-rule="nonzero"></path>
    </g>
</svg>