<?xml version="1.0" encoding="UTF-8"?>
<svg width="500px" height="500px" viewBox="0 0 500 500" version="1.1" xmlns="http://www.w3.org/2000/svg" xmlns:xlink="http://www.w3.org/1999/xlink">
    <title>file-psd</title>
    <g id="file-psd" stroke="none" stroke-width="1" fill="none" fill-rule="evenodd">
        <path d="M100,310 L100,445.345515 C100.184687,456.118352 108.876491,464.813253 119.642377,464.997032 L119.990375,465 L317.573,465 L400,382.573 L400,310 L430,310 L430,395 L330,495 L119.990375,495 C92.6544153,495 70.4480893,473.060137 70.0066963,445.827789 L70,445.000964 L70,310 L100,310 Z M394,365 L304,455 L304,365 L394,365 Z M380.009625,5 C407.345585,5 429.551911,26.9398629 429.993304,54.1722107 L430,54.9990362 L430,70 L445,70 C472.614237,70 495,92.3857625 495,120 L495,230 C495,257.614237 472.614237,280 445,280 L55,280 C27.3857625,280 5,257.614237 5,230 L5,120 C5,92.3857625 27.3857625,70 55,70 L70,70 L70,54.9990362 C70,27.6685571 91.9360622,5.44837124 119.163692,5.00670057 L119.990375,5 L380.009625,5 Z M445,100 L55,100 C44.0693643,100 35.186775,108.768729 35,119.655511 L35,230 C35,240.930636 43.7687286,249.813225 54.6555106,249.997093 L55,250 L445,250 C455.930636,250 464.813225,241.231271 465,230.344489 L465,120 C465,109.069364 456.231271,100.186775 445.344489,100.002907 L445,100 Z M239.95,120 C255.605385,120 268.643207,124.653444 278.490736,133.530783 L278.95,133.95 L267.1,149.55 C259,142.05 248.2,138.6 238.45,138.6 C228.85,138.6 223.75,142.8 223.75,148.8 C223.75,155.466667 231.943873,157.597439 243.273672,160.250264 L246.713092,161.041427 C262.6444,164.7561 281.2,170.382 281.2,191.25 C281.2,209.55 268.15,223.35 241.15,223.35 C222.187037,223.35 208.491564,217.058276 199.051991,207.798622 L198.7,207.45 L210.4,191.25 C217.45,198.6 228.4,204.75 242.2,204.75 C253.9,204.75 259.6,199.2 259.6,193.5 C259.6,186 250.9,183.45 239.35,180.75 L236.36232,180.063206 C220.5556,176.39574 202,171.159 202,150.15 C202,133.5 216.4,120 239.95,120 Z M163.8,121.5 C185.55,121.5 197.4,136.2 197.4,153.75 C197.4,170.976 185.6388,185.408715 164.445118,185.695647 L163.8,185.7 L138.3,185.7 L138.3,221.55 L117,221.55 L117,121.5 L163.8,121.5 Z M330.05,121.5 C361.4,121.5 383.15,141.45 383.15,171.6 C383.15,201.4485 361.832825,221.152965 330.987608,221.544069 L330.05,221.55 L290.6,221.55 L290.6,121.5 L330.05,121.5 Z M330.05,140.25 L311.9,140.25 L311.9,202.8 L330.05,202.8 C349.85,202.8 361.4,188.55 361.4,171.6 C361.4,154.077 350.81492,140.523405 330.663574,140.254085 L330.05,140.25 Z M160.95,139.8 L138.3,139.8 L138.3,167.4 L160.95,167.4 C169.35,167.4 175.65,162 175.65,153.6 C175.65,145.46 169.51688,139.94848 161.28487,139.802953 L160.95,139.8 Z M380.009625,35 L119.646183,35 C108.884438,35.1848374 100.186807,43.8837008 100,54.6509947 L100,54.9990362 L100,70 L400,70 L400,54.6544854 C399.813328,43.7658113 390.935605,35 380.009625,35 Z" id="Shape" fill="#000000" fill-rule="nonzero"></path>
    </g>
</svg>