<?xml version="1.0" encoding="UTF-8"?>
<svg width="500px" height="500px" viewBox="0 0 500 500" version="1.1" xmlns="http://www.w3.org/2000/svg" xmlns:xlink="http://www.w3.org/1999/xlink">
    <title>file-xls</title>
    <g id="file-xls" stroke="none" stroke-width="1" fill="none" fill-rule="evenodd">
        <path d="M100,310 L100,445.345515 C100.184687,456.118352 108.876491,464.813253 119.642377,464.997032 L119.990375,465 L317.573,465 L400,382.573 L400,310 L430,310 L430,395 L330,495 L119.990375,495 C92.6544153,495 70.4480893,473.060137 70.0066963,445.827789 L70,445.000964 L70,310 L100,310 Z M394,365 L304,455 L304,365 L394,365 Z M380.009625,5 C407.345585,5 429.551911,26.9398629 429.993304,54.1722107 L430,54.9990362 L430,70 L445,70 C472.614237,70 495,92.3857625 495,120 L495,230 C495,257.614237 472.614237,280 445,280 L55,280 C27.3857625,280 5,257.614237 5,230 L5,120 C5,92.3857625 27.3857625,70 55,70 L70,70 L70,54.9990362 C70,27.6685571 91.9360622,5.44837124 119.163692,5.00670057 L119.990375,5 L380.009625,5 Z M445,100 L55,100 C44.0693643,100 35.186775,108.768729 35,119.655511 L35,230 C35,240.930636 43.7687286,249.813225 54.6555106,249.997093 L55,250 L445,250 C455.930636,250 464.813225,241.231271 465,230.344489 L465,120 C465,109.069364 456.231271,100.186775 445.344489,100.002907 L445,100 Z M336.35,120 C352.005385,120 365.043207,124.653444 374.890736,133.530783 L375.35,133.95 L363.5,149.55 C355.4,142.05 344.6,138.6 334.85,138.6 C325.25,138.6 320.15,142.8 320.15,148.8 C320.15,155.466667 328.343873,157.597439 339.673672,160.250264 L343.113092,161.041427 C359.0444,164.7561 377.6,170.382 377.6,191.25 C377.6,209.55 364.55,223.35 337.55,223.35 C318.587037,223.35 304.891564,217.058276 295.451991,207.798622 L295.1,207.45 L306.8,191.25 C313.85,198.6 324.8,204.75 338.6,204.75 C350.3,204.75 356,199.2 356,193.5 C356,186 347.3,183.45 335.75,180.75 L332.76232,180.063206 C316.9556,176.39574 298.4,171.159 298.4,150.15 C298.4,133.5 312.8,120 336.35,120 Z M150.6,121.5 L173.55,155.7 L196.2,121.5 L221.85,121.5 L187.8,170.1 L224.1,221.55 L198.6,221.55 L173.55,184.95 L148.35,221.55 L123,221.55 L159.3,170.25 L125.25,121.5 L150.6,121.5 Z M249.85,121.5 L249.85,202.8 L292.15,202.8 L292.15,221.55 L228.55,221.55 L228.55,121.5 L249.85,121.5 Z M380.009625,35 L119.646183,35 C108.884438,35.1848374 100.186807,43.8837008 100,54.6509947 L100,54.9990362 L100,70 L400,70 L400,54.6544854 C399.813328,43.7658113 390.935605,35 380.009625,35 Z" id="Shape" fill="#000000" fill-rule="nonzero"></path>
    </g>
</svg>