<?xml version="1.0" encoding="UTF-8"?>
<svg width="500px" height="500px" viewBox="0 0 500 500" version="1.1" xmlns="http://www.w3.org/2000/svg" xmlns:xlink="http://www.w3.org/1999/xlink">
    <title>file-image</title>
    <g id="file-image" stroke="none" stroke-width="1" fill="none" fill-rule="evenodd">
        <path d="M380.009625,25 C407.345585,25 429.551911,46.9398629 429.993304,74.1722107 L430,74.9990362 L430,375 L330,475 L119.990375,475 C92.6544153,475 70.4480893,453.060137 70.0066963,425.827789 L70,425.000964 L70,74.9990362 C70,47.6685571 91.9360622,25.4483712 119.163692,25.0067006 L119.990375,25 L380.009625,25 Z M380.009625,55 L119.646183,55 C108.884438,55.1848374 100.186807,63.8837008 100,74.6509947 L100,74.9990362 L100,425.345515 C100.184687,436.118352 108.876491,444.813253 119.642377,445 L119.990375,445 L317.573,445 L400,362.573 L400,74.6544854 C399.813328,63.7658113 390.935605,55 380.009625,55 Z M394,345 L304,435 L304,345 L394,345 Z M304.901103,121.341111 L372.634823,246.341111 L122.634823,246.341111 L171.426857,195.756237 L230.212441,211.617028 L304.901103,121.341111 Z M180.5,91 C201.210678,91 218,107.789322 218,128.5 C218,149.210678 201.210678,166 180.5,166 C159.789322,166 143,149.210678 143,128.5 C143,107.789322 159.789322,91 180.5,91 Z" id="Shape" fill="#000000" fill-rule="nonzero"></path>
    </g>
</svg>