<?xml version="1.0" encoding="UTF-8"?>
<svg width="500px" height="500px" viewBox="0 0 500 500" version="1.1" xmlns="http://www.w3.org/2000/svg" xmlns:xlink="http://www.w3.org/1999/xlink">
    <title>file-php</title>
    <g id="file-php" stroke="none" stroke-width="1" fill="none" fill-rule="evenodd">
        <path d="M100,310 L100,445.345515 C100.184687,456.118352 108.876491,464.813253 119.642377,464.997032 L119.990375,465 L317.573,465 L400,382.573 L400,310 L430,310 L430,395 L330,495 L119.990375,495 C92.6544153,495 70.4480893,473.060137 70.0066963,445.827789 L70,445.000964 L70,310 L100,310 Z M394,365 L304,455 L304,365 L394,365 Z M380.009625,5 C407.345585,5 429.551911,26.9398629 429.993304,54.1722107 L430,54.9990362 L430,70 L445,70 C472.614237,70 495,92.3857625 495,120 L495,230 C495,257.614237 472.614237,280 445,280 L55,280 C27.3857625,280 5,257.614237 5,230 L5,120 C5,92.3857625 27.3857625,70 55,70 L70,70 L70,54.9990362 C70,27.6685571 91.9360622,5.44837124 119.163692,5.00670057 L119.990375,5 L380.009625,5 Z M445,100 L55,100 C44.0693643,100 35.186775,108.768729 35,119.655511 L35,230 C35,240.930636 43.7687286,249.813225 54.6555106,249.997093 L55,250 L445,250 C455.930636,250 464.813225,241.231271 465,230.344489 L465,120 C465,109.069364 456.231271,100.186775 445.344489,100.002907 L445,100 Z M159.8,120 C181.55,120 193.4,134.7 193.4,152.25 C193.4,169.476 181.6388,183.908715 160.445118,184.195647 L159.8,184.2 L134.3,184.2 L134.3,220.05 L113,220.05 L113,120 L159.8,120 Z M222.9,120 L222.9,159.3 L270.15,159.3 L270.15,120 L291.6,120 L291.6,220.05 L270.15,220.05 L270.15,178.05 L222.9,178.05 L222.9,220.05 L201.6,220.05 L201.6,120 L222.9,120 Z M353.05,120 C374.8,120 386.65,134.7 386.65,152.25 C386.65,169.476 374.8888,183.908715 353.695118,184.195647 L353.05,184.2 L327.55,184.2 L327.55,220.05 L306.25,220.05 L306.25,120 L353.05,120 Z M156.95,138.3 L134.3,138.3 L134.3,165.9 L156.95,165.9 C165.35,165.9 171.65,160.5 171.65,152.1 C171.65,143.96 165.51688,138.44848 157.28487,138.302953 L156.95,138.3 Z M350.2,138.3 L327.55,138.3 L327.55,165.9 L350.2,165.9 C358.6,165.9 364.9,160.5 364.9,152.1 C364.9,143.96 358.76688,138.44848 350.53487,138.302953 L350.2,138.3 Z M380.009625,35 L119.646183,35 C108.884438,35.1848374 100.186807,43.8837008 100,54.6509947 L100,54.9990362 L100,70 L400,70 L400,54.6544854 C399.813328,43.7658113 390.935605,35 380.009625,35 Z" id="Shape" fill="#000000" fill-rule="nonzero"></path>
    </g>
</svg>