<?xml version="1.0" encoding="UTF-8"?>
<svg width="500px" height="500px" viewBox="0 0 500 500" version="1.1" xmlns="http://www.w3.org/2000/svg" xmlns:xlink="http://www.w3.org/1999/xlink">
    <title>file-video</title>
    <g id="file-video" stroke="none" stroke-width="1" fill="none" fill-rule="evenodd">
        <path d="M380.009625,25 C407.345585,25 429.551911,46.9398629 429.993304,74.1722107 L430,74.9990362 L430,375 L330,475 L119.990375,475 C92.6544153,475 70.4480893,453.060137 70.0066963,425.827789 L70,425.000964 L70,74.9990362 C70,47.6685571 91.9360622,25.4483712 119.163692,25.0067006 L119.990375,25 L380.009625,25 Z M380.009625,55 L119.646183,55 C108.884438,55.1848374 100.186807,63.8837008 100,74.6509947 L100,74.9990362 L100,425.345515 C100.184687,436.118352 108.876491,444.813253 119.642377,445 L119.990375,445 L317.573,445 L400,362.573 L400,74.6544854 C399.813328,63.7658113 390.935605,55 380.009625,55 Z M394,345 L304,435 L304,345 L394,345 Z M219.10591,122.213945 L219.358748,122.357203 L318.823557,179.783237 C321.494914,181.325545 323.713229,183.54386 325.255538,186.215218 C330.059524,194.535966 327.285174,205.152477 319.074041,210.072362 L318.823557,210.219698 L219.358748,267.645732 C216.687391,269.18804 213.657117,270 210.572499,270 C200.964526,270 193.157533,262.289087 193.002354,252.718094 L193,252.427501 L193,137.575433 C193,134.490815 193.81196,131.460541 195.354268,128.789184 C200.158255,120.468435 210.739598,117.562837 219.10591,122.213945 Z" id="Shape" fill="#000000" fill-rule="nonzero"></path>
    </g>
</svg>