<?xml version="1.0" encoding="UTF-8"?>
<svg width="500px" height="500px" viewBox="0 0 500 500" version="1.1" xmlns="http://www.w3.org/2000/svg" xmlns:xlink="http://www.w3.org/1999/xlink">
    <title>file-audio</title>
    <g id="file-audio" stroke="none" stroke-width="1" fill="none" fill-rule="evenodd">
        <path d="M380.009625,25 C407.345585,25 429.551911,46.9398629 429.993304,74.1722107 L430,74.9990362 L430,375 L330,475 L119.990375,475 C92.6544153,475 70.4480893,453.060137 70.0066963,425.827789 L70,425.000964 L70,74.9990362 C70,47.6685571 91.9360622,25.4483712 119.163692,25.0067006 L119.990375,25 L380.009625,25 Z M380.009625,55 L119.646183,55 C108.884438,55.1848374 100.186807,63.8837008 100,74.6509947 L100,74.9990362 L100,425.345515 C100.184687,436.118352 108.876491,444.813253 119.642377,445 L119.990375,445 L317.573,445 L400,362.573 L400,74.6544854 C399.813328,63.7658113 390.935605,55 380.009625,55 Z M394,345 L304,435 L304,345 L394,345 Z M258.831875,127.828619 C259.449856,122.958763 264.140351,119.482071 269.313664,120.063493 C270.200716,120.162962 271.039359,120.382624 271.824566,120.691098 C272.247031,120.691571 272.67513,120.732212 273.102423,120.820294 L273.422642,120.895365 L304.459376,129.049488 C307.404603,129.82316 309.661842,132.524419 309.803129,135.395027 L309.809974,135.634599 L310.000163,158.886756 C310.011148,160.357482 309.451633,161.703872 308.42376,162.679027 C307.431092,163.621026 306.085113,164.139688 304.632889,164.139688 C304.201874,164.139688 303.765628,164.093837 303.332521,164.003045 L303.008409,163.926539 L274.208477,156.35976 L263.960552,237.177465 C263.888884,237.741717 263.762521,238.287023 263.587123,238.809829 C263.010634,250.261244 251.875029,262.120602 235.511417,267.371758 C230.075949,269.115433 224.574471,270 219.158492,270 C205.218397,270 194.456221,264.188737 191.072099,254.833876 C188.678758,248.217977 190.322726,240.830006 195.701613,234.032338 C200.818975,227.56505 208.787348,222.350604 218.138163,219.349943 C223.573002,217.606268 229.075109,216.721701 234.490459,216.721701 C238.934087,216.721701 243.052715,217.314207 246.714314,218.422195 L247.320326,218.61162 L258.831875,127.828619 Z" id="Shape" fill="#000000" fill-rule="nonzero"></path>
    </g>
</svg>