<?xml version="1.0" encoding="UTF-8"?>
<svg width="500px" height="500px" viewBox="0 0 500 500" version="1.1" xmlns="http://www.w3.org/2000/svg" xmlns:xlink="http://www.w3.org/1999/xlink">
    <title>file-pdf</title>
    <g id="file-pdf" stroke="none" stroke-width="1" fill="none" fill-rule="evenodd">
        <path d="M100,310 L100,445.345515 C100.184687,456.118352 108.876491,464.813253 119.642377,464.997032 L119.990375,465 L317.573,465 L400,382.573 L400,310 L430,310 L430,395 L330,495 L119.990375,495 C92.6544153,495 70.4480893,473.060137 70.0066963,445.827789 L70,445.000964 L70,310 L100,310 Z M394,365 L304,455 L304,365 L394,365 Z M380.009625,5 C407.345585,5 429.551911,26.9398629 429.993304,54.1722107 L430,54.9990362 L430,70 L445,70 C472.614237,70 495,92.3857625 495,120 L495,230 C495,257.614237 472.614237,280 445,280 L55,280 C27.3857625,280 5,257.614237 5,230 L5,120 C5,92.3857625 27.3857625,70 55,70 L70,70 L70,54.9990362 C70,27.6685571 91.9360622,5.44837124 119.163692,5.00670057 L119.990375,5 L380.009625,5 Z M445,100 L55,100 C44.0693643,100 35.186775,108.768729 35,119.655511 L35,230 C35,240.930636 43.7687286,249.813225 54.6555106,249.997093 L55,250 L445,250 C455.930636,250 464.813225,241.231271 465,230.344489 L465,120 C465,109.069364 456.231271,100.186775 445.344489,100.002907 L445,100 Z M165.8,120 C187.55,120 199.4,134.7 199.4,152.25 C199.4,169.476 187.6388,183.908715 166.445118,184.195647 L165.8,184.2 L140.3,184.2 L140.3,220.05 L119,220.05 L119,120 L165.8,120 Z M247.05,120 C278.4,120 300.15,139.95 300.15,170.1 C300.15,199.9485 278.832825,219.652965 247.987608,220.044069 L247.05,220.05 L207.6,220.05 L207.6,120 L247.05,120 Z M381.1,120 L381.1,138.3 L331.6,138.3 L331.6,160.05 L380.05,160.05 L380.05,178.35 L331.6,178.35 L331.6,220.05 L310.3,220.05 L310.3,120 L381.1,120 Z M247.05,138.75 L228.9,138.75 L228.9,201.3 L247.05,201.3 C266.85,201.3 278.4,187.05 278.4,170.1 C278.4,152.577 267.81492,139.023405 247.663574,138.754085 L247.05,138.75 Z M162.95,138.3 L140.3,138.3 L140.3,165.9 L162.95,165.9 C171.35,165.9 177.65,160.5 177.65,152.1 C177.65,143.96 171.51688,138.44848 163.28487,138.302953 L162.95,138.3 Z M380.009625,35 L119.646183,35 C108.884438,35.1848374 100.186807,43.8837008 100,54.6509947 L100,54.9990362 L100,70 L400,70 L400,54.6544854 C399.813328,43.7658113 390.935605,35 380.009625,35 Z" id="Shape" fill="#000000" fill-rule="nonzero"></path>
    </g>
</svg>