<?xml version="1.0" encoding="UTF-8"?>
<svg width="500px" height="500px" viewBox="0 0 500 500" version="1.1" xmlns="http://www.w3.org/2000/svg" xmlns:xlink="http://www.w3.org/1999/xlink">
    <title>file-attachment</title>
    <g id="file-attachment" stroke="none" stroke-width="1" fill="none" fill-rule="evenodd">
        <path d="M368.111,511.999 L364.731332,515.514305 L361.076,511.999 L368.111,511.999 Z M455,90 C463.284271,90 470,96.7157288 470,105 L470,404.568542 L386.568,488 L344.142,488 L440,392.142136 L440,105 C440,96.7157288 446.715729,90 455,90 Z M209.745215,13 C231.711971,13 249.569187,30.595035 249.992321,52.4605646 L250,53.1248762 L250,58.0067006 L380.009625,58 C407.345585,58 429.551911,79.9398629 429.993304,107.172211 L430,107.999036 L430,388 L330,488 L119.990375,488 C92.6544153,488 70.4480893,466.060137 70.0066963,438.827789 L70,438.000964 L70,107.999036 C70,80.6685571 91.9360622,58.4483712 119.163692,58.0067006 L119.990375,58 L130,58 C130,33.3957144 149.746257,13.4034143 174.255843,13.0060287 L175,13 L209.745215,13 Z M210.027483,43 L175,43 C166.820593,43 160.17027,49.5467864 160.003218,57.6861718 L160,58 L160,144.997567 C160,150.520414 164.477153,154.997567 170,154.997567 C175.42924,154.997567 179.847932,150.670896 179.996158,145.277471 L180,144.997567 L180,71.0183499 C180,62.7340787 186.715729,56.0183499 195,56.0183499 C203.179407,56.0183499 209.82973,62.5651363 209.996782,70.7045218 L210,71.0183499 L210,144.997567 C210,167.088957 192.09139,184.997567 170,184.997567 C148.129524,184.997567 130.35859,167.445338 130.005359,145.65904 L130,144.997567 L130,88 L119.646183,88 C108.884438,88.1848374 100.186807,96.8837008 100,107.650995 L100,438.345515 C100.184687,449.118352 108.876491,457.813253 119.642377,458 L317.573,458 L400,375.573 L400,107.654485 C399.813328,96.7658113 390.935605,88 380.009625,88 L220,88 L220,53.2547852 C220,47.6856164 215.560542,43.1533387 210.027483,43 Z M394,358 L304,448 L304,358 L394,358 Z" id="Shape" fill="#000000" fill-rule="nonzero"></path>
    </g>
</svg>