<?xml version="1.0" encoding="UTF-8"?>
<svg width="500px" height="500px" viewBox="0 0 500 500" version="1.1" xmlns="http://www.w3.org/2000/svg" xmlns:xlink="http://www.w3.org/1999/xlink">
    <title>file-code</title>
    <g id="file-code" stroke="none" stroke-width="1" fill="none" fill-rule="evenodd">
        <path d="M380.009625,25 C407.345585,25 429.551911,46.9398629 429.993304,74.1722107 L430,74.9990362 L430,375 L330,475 L119.990375,475 C92.6544153,475 70.4480893,453.060137 70.0066963,425.827789 L70,425.000964 L70,74.9990362 C70,47.6685571 91.9360622,25.4483712 119.163692,25.0067006 L119.990375,25 L380.009625,25 Z M380.009625,55 L119.646183,55 C108.884438,55.1848374 100.186807,63.8837008 100,74.6509947 L100,74.9990362 L100,425.345515 C100.184687,436.118352 108.876491,444.813253 119.642377,445 L119.990375,445 L317.573,445 L400,362.573 L400,74.6544854 C399.813328,63.7658113 390.935605,55 380.009625,55 Z M394,345 L304,435 L304,345 L394,345 Z M303.013798,106.245919 L303.349285,106.574596 L372.130028,175.355339 L303.349285,244.136082 C294.583157,252.90221 280.370455,252.90221 271.604327,244.136082 C262.949163,235.480917 262.839603,221.516194 271.27565,212.726611 L271.604327,212.391124 L308.640112,175.355339 L271.604327,138.319554 C262.949163,129.66439 262.839603,115.699667 271.27565,106.910083 L271.604327,106.574596 C280.259492,97.9194316 294.224215,97.8098726 303.013798,106.245919 Z M228.238456,106.292357 L228.525701,106.574596 L228.854378,106.910083 C237.197721,115.603078 237.182242,129.358098 228.80794,138.03231 L228.525701,138.319554 L191.489917,175.355339 L228.525701,212.391124 L228.854378,212.726611 C237.290425,221.516194 237.180866,235.480917 228.525701,244.136082 C219.853832,252.807951 205.851891,252.901196 197.065397,244.41582 L196.780743,244.136082 L128,175.355339 L196.780743,106.574596 L197.11623,106.245919 C205.712636,97.9952802 219.259202,97.9187436 227.947448,106.016309 L228.238456,106.292357 Z" id="Shape" fill="#000000" fill-rule="nonzero"></path>
    </g>
</svg>