<?xml version="1.0" encoding="UTF-8"?>
<svg width="500px" height="500px" viewBox="0 0 500 500" version="1.1" xmlns="http://www.w3.org/2000/svg" xmlns:xlink="http://www.w3.org/1999/xlink">
    <title>file-jpg</title>
    <g id="file-jpg" stroke="none" stroke-width="1" fill="none" fill-rule="evenodd">
        <path d="M100,310 L100,445.345515 C100.184687,456.118352 108.876491,464.813253 119.642377,464.997032 L119.990375,465 L317.573,465 L400,382.573 L400,310 L430,310 L430,395 L330,495 L119.990375,495 C92.6544153,495 70.4480893,473.060137 70.0066963,445.827789 L70,445.000964 L70,310 L100,310 Z M394,365 L304,455 L304,365 L394,365 Z M380.009625,5 C407.345585,5 429.551911,26.9398629 429.993304,54.1722107 L430,54.9990362 L430,70 L445,70 C472.614237,70 495,92.3857625 495,120 L495,230 C495,257.614237 472.614237,280 445,280 L55,280 C27.3857625,280 5,257.614237 5,230 L5,120 C5,92.3857625 27.3857625,70 55,70 L70,70 L70,54.9990362 C70,27.6685571 91.9360622,5.44837124 119.163692,5.00670057 L119.990375,5 L380.009625,5 Z M445,100 L55,100 C44.0693643,100 35.186775,108.768729 35,119.655511 L35,230 C35,240.930636 43.7687286,249.813225 54.6555106,249.997093 L55,250 L445,250 C455.930636,250 464.813225,241.231271 465,230.344489 L465,120 C465,109.069364 456.231271,100.186775 445.344489,100.002907 L445,100 Z M335.95,120 C356.443,120 369.438235,129.850005 377.118878,141.545048 L377.35,141.9 L359.65,151.5 C355,144.45 346.45,138.9 335.95,138.9 C317.8,138.9 304.6,152.85 304.6,171.75 C304.6,190.65 317.8,204.6 335.95,204.6 C344.930556,204.6 352.89964,200.987603 357.304492,197.166489 L357.55,196.95 L357.55,184.8 L330.85,184.8 L330.85,166.5 L378.55,166.5 L378.55,204.75 C368.35,216.15 354.1,223.65 335.95,223.65 C306.7,223.65 282.7,203.25 282.7,171.75 C282.7,140.1 306.7,120 335.95,120 Z M184.1,121.65 L184.1,188.85 C184.1,212.55 169.4,223.5 148.85,223.5 C138.832143,223.5 129.537739,220.895568 122.387858,214.123527 L122,213.75 L131.3,197.4 C135.2,201.15 140.3,204.6 147.2,204.6 C156.536145,204.6 162.651328,198.450893 162.797327,188.900902 L162.8,188.55 L162.8,121.65 L184.1,121.65 Z M245.7,121.65 C267.45,121.65 279.3,136.35 279.3,153.9 C279.3,171.126 267.5388,185.558715 246.345118,185.845647 L245.7,185.85 L220.2,185.85 L220.2,221.7 L198.9,221.7 L198.9,121.65 L245.7,121.65 Z M242.85,139.95 L220.2,139.95 L220.2,167.55 L242.85,167.55 C251.25,167.55 257.55,162.15 257.55,153.75 C257.55,145.61 251.41688,140.09848 243.18487,139.952953 L242.85,139.95 Z M380.009625,35 L119.646183,35 C108.884438,35.1848374 100.186807,43.8837008 100,54.6509947 L100,54.9990362 L100,70 L400,70 L400,54.6544854 C399.813328,43.7658113 390.935605,35 380.009625,35 Z" id="Shape" fill="#000000" fill-rule="nonzero"></path>
    </g>
</svg>