<?xml version="1.0" encoding="UTF-8"?>
<svg width="500px" height="500px" viewBox="0 0 500 500" version="1.1" xmlns="http://www.w3.org/2000/svg" xmlns:xlink="http://www.w3.org/1999/xlink">
    <title>film-reel</title>
    <g id="film-reel" stroke="none" stroke-width="1" fill="none" fill-rule="evenodd">
        <path d="M495,420 L495,450 L5,450 L5,420 L495,420 Z M39.9983513,370 C48.1786574,370 54.8297115,376.545011 54.9967819,384.686104 L55,385 C55,393.284271 48.2827377,400 39.9983513,400 L5,400 L5,370 L39.9983513,370 Z M129.994919,370 C138.177097,370 144.829673,376.545011 144.996781,384.686104 L145,385 C145,393.284271 138.291886,400 129.994919,400 L100.005081,400 C91.7180035,400 85,393.286093 85,385 C85,376.715729 91.7081139,370 100.005081,370 L129.994919,370 Z M219.994919,370 C228.177097,370 234.829673,376.545011 234.996781,384.686104 L235,385 C235,393.284271 228.291886,400 219.994919,400 L190.005081,400 C181.718004,400 175,393.286093 175,385 C175,376.715729 181.708114,370 190.005081,370 L219.994919,370 Z M309.994919,370 C318.177097,370 324.829673,376.545011 324.996781,384.686104 L325,385 C325,393.284271 318.291886,400 309.994919,400 L280.005081,400 C271.718004,400 265,393.286093 265,385 C265,376.715729 271.708114,370 280.005081,370 L309.994919,370 Z M399.994919,370 C408.177097,370 414.829673,376.545011 414.996781,384.686104 L415,385 C415,393.284271 408.291886,400 399.994919,400 L370.005081,400 C361.718004,400 355,393.286093 355,385 C355,376.715729 361.708114,370 370.005081,370 L399.994919,370 Z M495,370 L495,400 L460.001649,400 C451.716467,400 445,393.286093 445,385 C445,376.715729 451.717262,370 460.001649,370 L495,370 Z M240.919765,181.052633 L314.183321,223.545496 C334.564872,235.366795 334.626511,264.597454 314.183321,276.454504 L240.919765,318.947367 C220.426919,330.833218 195,316.157665 195,292.492863 L195,207.507137 C195,183.913932 220.364399,169.130521 240.919765,181.052633 Z M225,207.507137 L225,292.492863 C225,293.052651 225.388716,293.274545 225.868222,292.996431 L299.131778,250.503569 C299.614355,250.223674 299.611284,249.774545 299.131778,249.496431 L225.868222,207.003569 C225.385645,206.723674 225,206.950911 225,207.507137 Z M39.9983513,100 C48.1786574,100 54.8297115,106.545011 54.9967819,114.686104 L55,115 C55,123.284271 48.2827377,130 39.9983513,130 L5,130 L5,100 L39.9983513,100 Z M129.994919,100 C138.177097,100 144.829673,106.545011 144.996781,114.686104 L145,115 C145,123.284271 138.291886,130 129.994919,130 L100.005081,130 C91.7180035,130 85,123.286093 85,115 C85,106.715729 91.7081139,100 100.005081,100 L129.994919,100 Z M219.994919,100 C228.177097,100 234.829673,106.545011 234.996781,114.686104 L235,115 C235,123.284271 228.291886,130 219.994919,130 L190.005081,130 C181.718004,130 175,123.286093 175,115 C175,106.715729 181.708114,100 190.005081,100 L219.994919,100 Z M309.994919,100 C318.177097,100 324.829673,106.545011 324.996781,114.686104 L325,115 C325,123.284271 318.291886,130 309.994919,130 L280.005081,130 C271.718004,130 265,123.286093 265,115 C265,106.715729 271.708114,100 280.005081,100 L309.994919,100 Z M399.994919,100 C408.177097,100 414.829673,106.545011 414.996781,114.686104 L415,115 C415,123.284271 408.291886,130 399.994919,130 L370.005081,130 C361.718004,130 355,123.286093 355,115 C355,106.715729 361.708114,100 370.005081,100 L399.994919,100 Z M495,100 L495,130 L460.001649,130 C451.716467,130 445,123.286093 445,115 C445,106.715729 451.717262,100 460.001649,100 L495,100 Z M495,50 L495,80 L5,80 L5,50 L495,50 Z" id="Shape" fill="#000000"></path>
    </g>
</svg>