<?xml version="1.0" encoding="UTF-8"?>
<svg width="500px" height="500px" viewBox="0 0 500 500" version="1.1" xmlns="http://www.w3.org/2000/svg" xmlns:xlink="http://www.w3.org/1999/xlink">
    <title>flag-filled</title>
    <g id="flag-filled" stroke="none" stroke-width="1" fill="none" fill-rule="evenodd">
        <path d="M20,5 C28.2842712,5 35,11.7157288 35,20 L35,495 L5,495 L5,20 C5,11.7157288 11.7157288,5 20,5 Z M110,15.0316708 C137.717304,15.0316708 161.584623,18.0976659 184.792379,22.5319708 L187.519853,23.0598642 L190.242396,23.599769 L192.961161,24.1510709 C193.414038,24.2438701 193.866805,24.3371187 194.319488,24.4308037 L197.034752,24.9980494 L199.749126,25.5751563 L202.463763,26.1615102 C202.916289,26.2599723 203.368874,26.3587941 203.821541,26.4579628 L207.898446,27.3595018 L210.620801,27.9699108 L215.649292,29.1116708 L218.172004,29.6899908 L225.784833,31.4489508 L236.073228,33.8323108 L241.292788,35.0316708 L246.572211,36.2310308 L250.575404,37.1282408 L253.266665,37.7243808 L255.976952,38.3183608 L260.080026,39.2042308 L262.841822,39.7907108 L265.625799,40.3733508 C266.091694,40.4701108 266.558551,40.5666908 267.026388,40.6630808 L269.845331,41.2390608 L272.68871,41.8100008 L275.557429,42.3754208 L278.452389,42.9348408 C278.93712,43.0275508 279.422981,43.1199908 279.909992,43.2121508 L282.846006,43.7616708 C283.337691,43.8526708 283.830564,43.9433708 284.324643,44.0337608 L287.30374,44.5723008 C287.802718,44.6614108 288.302941,44.7501908 288.804426,44.8386308 L291.828635,45.3651108 C292.335245,45.4521508 292.843156,45.5388308 293.352385,45.6251408 L296.423737,46.1384808 C327.813114,51.3106708 344.25,55.0316708 390,55.0316708 C400.846108,55.0316708 411.515758,53.6200142 422.008952,50.7967009 C448.674828,43.6219434 476.108082,59.4226168 483.28284,86.088493 C484.422656,90.3247607 485,94.6926123 485,99.0795411 L485,245.537626 C485,262.474309 476.426095,278.259635 462.218935,287.479605 C439.084307,302.493202 415.011328,310 390,310 C342.48,310 325.013751,305.98551 292.815382,300.500112 L289.902637,299.997458 C288.453387,299.744176 287.014721,299.488014 285.586191,299.229211 L282.74251,298.708154 C282.270771,298.620748 281.800125,298.533066 281.330554,298.445118 L278.525915,297.914294 L275.746304,297.377489 L272.990924,296.835128 L270.258974,296.287636 C269.805557,296.195983 269.353083,296.104134 268.901536,296.012098 L266.203234,295.457705 L263.526365,294.899242 L260.870131,294.337134 L256.92272,293.488066 L253.017242,292.633185 L249.150999,291.773925 L246.59397,291.19936 L240.005495,289.70001 L233.50762,288.20216 L220.727224,285.24096 L215.675445,284.08 L211.651407,283.164872 L207.638815,282.263997 L204.968286,281.672304 L202.300104,281.088403 L199.633173,280.512876 L196.966396,279.946305 C196.521886,279.852655 196.077336,279.759403 195.632724,279.66656 L192.964124,279.114516 L190.29294,278.572886 L187.618073,278.04225 C163.524422,273.31776 138.850297,270 110,270 C91.6663681,270 73.3327362,273.35191 54.9989758,280.055729 L54.9989758,24.6433603 C72.7986678,18.2355673 91.1323425,15.0316708 110,15.0316708 Z" id="Shape" fill="#000000"></path>
    </g>
</svg>