<?xml version="1.0" encoding="UTF-8"?>
<svg width="500px" height="500px" viewBox="0 0 500 500" version="1.1" xmlns="http://www.w3.org/2000/svg" xmlns:xlink="http://www.w3.org/1999/xlink">
    <title>flag</title>
    <g id="flag" stroke="none" stroke-width="1" fill="none" fill-rule="evenodd">
        <path d="M20,5 C28.2842712,5 35,11.7157288 35,20 L35,495 L5,495 L5,20 C5,11.7157288 11.7157288,5 20,5 Z M110,15.0316708 C137.717304,15.0316708 161.584623,18.0976659 184.792379,22.5319708 L187.519853,23.0598642 L190.242396,23.599769 L192.961161,24.1510709 C193.414038,24.2438701 193.866805,24.3371187 194.319488,24.4308037 L197.034752,24.9980494 L199.749126,25.5751563 L202.463763,26.1615102 C202.916289,26.2599723 203.368874,26.3587941 203.821541,26.4579628 L207.898446,27.3595018 L210.620801,27.9699108 L215.649292,29.1116708 L218.172004,29.6899908 L225.784833,31.4489508 L236.073228,33.8323108 L241.292788,35.0316708 L246.572211,36.2310308 L250.575404,37.1282408 L253.266665,37.7243808 L255.976952,38.3183608 L260.080026,39.2042308 L262.841822,39.7907108 L265.625799,40.3733508 C266.091694,40.4701108 266.558551,40.5666908 267.026388,40.6630808 L269.845331,41.2390608 L272.68871,41.8100008 L275.557429,42.3754208 L278.452389,42.9348408 C278.93712,43.0275508 279.422981,43.1199908 279.909992,43.2121508 L282.846006,43.7616708 C283.337691,43.8526708 283.830564,43.9433708 284.324643,44.0337608 L287.30374,44.5723008 C287.802718,44.6614108 288.302941,44.7501908 288.804426,44.8386308 L291.828635,45.3651108 C292.335245,45.4521508 292.843156,45.5388308 293.352385,45.6251408 L296.423737,46.1384808 C327.813114,51.3106708 344.25,55.0316708 390,55.0316708 C400.846108,55.0316708 411.515758,53.6200142 422.008952,50.7967009 C448.674828,43.6219434 476.108082,59.4226168 483.28284,86.088493 C484.422656,90.3247607 485,94.6926123 485,99.0795411 L485,245.537626 C485,262.474309 476.426095,278.259635 462.218935,287.479605 C439.084307,302.493202 415.011328,310 390,310 C342.48,310 325.013751,305.98551 292.815382,300.500112 L289.902637,299.997458 C288.453387,299.744176 287.014721,299.488014 285.586191,299.229211 L282.74251,298.708154 C282.270771,298.620748 281.800125,298.533066 281.330554,298.445118 L278.525915,297.914294 L275.746304,297.377489 L272.990924,296.835128 L270.258974,296.287636 C269.805557,296.195983 269.353083,296.104134 268.901536,296.012098 L266.203234,295.457705 L263.526365,294.899242 L260.870131,294.337134 L256.92272,293.488066 L253.017242,292.633185 L249.150999,291.773925 L246.59397,291.19936 L240.005495,289.70001 L233.50762,288.20216 L220.727224,285.24096 L215.675445,284.08 L211.651407,283.164872 L207.638815,282.263997 L204.968286,281.672304 L202.300104,281.088403 L199.633173,280.512876 L196.966396,279.946305 C196.521886,279.852655 196.077336,279.759403 195.632724,279.66656 L192.964124,279.114516 L190.29294,278.572886 L187.618073,278.04225 C163.524422,273.31776 138.850297,270 110,270 C91.6663681,270 73.3327362,273.35191 54.9989758,280.055729 L54.9989758,248.414146 C72.8177817,242.940349 90.7905245,240.116304 108.871874,240.003518 L110,240 C141.701191,240 169.471129,243.469318 203.830926,250.734377 L208.253859,251.681948 L211.029177,252.287924 L216.099379,253.414836 L219.175108,254.108933 L224.98867,255.436925 L248.003406,260.75497 L250.817914,261.396201 L256.295538,262.629056 L258.963697,263.221472 L262.884711,264.081192 L266.715822,264.907414 L269.224152,265.440278 L271.69883,265.959242 L274.142377,266.464702 L276.557315,266.957053 L278.946166,267.436691 L281.311452,267.904011 L283.655695,268.359408 L285.981415,268.803277 L288.291136,269.236015 L290.587379,269.658016 L292.872665,270.069675 L295.149517,270.471389 L298.554497,271.056176 L300.821295,271.434754 L303.088486,271.80477 L305.35859,272.16662 L307.63413,272.520698 L309.917627,272.8674 L312.211603,273.207121 L314.51858,273.540257 L317.424425,273.948019 L318.008938,274.028478 C346.568688,277.947199 356.435949,280 390,280 C409.057119,280 427.495468,274.250277 445.887574,262.314418 C451.459009,258.698743 454.864641,252.558903 455,245.935589 L455,99.0795411 C455,97.3247696 454.769063,95.577629 454.313136,93.8831219 C451.473443,83.3290489 440.70005,77.030042 430.140505,79.6788258 L429.803581,79.766405 C416.769828,83.2732849 403.479511,85.0316708 390,85.0316708 C353.698806,85.0316708 341.103509,82.7915863 309.844859,78.5032877 L307.258474,78.1438501 L304.69264,77.7779686 L302.144589,77.4052224 L299.611554,77.0251905 L297.090766,76.6374518 L294.579459,76.2415855 L292.074864,75.8371706 L289.574215,75.423786 L287.074743,75.0010109 L284.57368,74.5684243 L282.06826,74.1256052 L279.555715,73.6721326 L277.033277,73.2075856 L275.767483,72.9710277 L273.225016,72.4890797 L270.665737,71.995005 L268.086879,71.4883824 L264.175826,70.7040006 L261.535911,70.1641668 L258.866729,69.6103119 L256.165514,69.0420148 L252.047574,68.1615693 L249.254167,67.5553252 L246.419039,66.9331655 L242.082067,65.9691636 L239.13053,65.3053734 L236.127587,64.6241943 L209.823136,58.5539474 L204.383941,57.3166784 L200.806202,56.5146382 L197.414941,55.7656439 L194.148665,55.0564101 L192.863377,54.7808736 L189.857784,54.1455141 C188.828842,53.9303028 187.807503,53.7190966 186.793376,53.5118754 L183.772237,52.9021462 C156.769683,47.5218107 134.739877,45.0316708 110,45.0316708 C91.07577,45.0316708 72.8134853,48.9679681 54.9989758,56.9803478 L54.9989758,24.6433603 C72.7986678,18.2355673 91.1323425,15.0316708 110,15.0316708 Z" id="Shape" fill="#000000"></path>
    </g>
</svg>