<?xml version="1.0" encoding="UTF-8"?>
<svg width="500px" height="500px" viewBox="0 0 500 500" version="1.1" xmlns="http://www.w3.org/2000/svg" xmlns:xlink="http://www.w3.org/1999/xlink">
    <title>flag-filled</title>
    <g id="flag-filled" stroke="none" stroke-width="1" fill="none" fill-rule="evenodd">
        <path d="M20,5 C28.2842712,5 35,11.7157288 35,20 L35,495 L5,495 L5,20 C5,11.7157288 11.7157288,5 20,5 Z M495,5 L495,305 C431.666667,338.333333 383.333333,355 350,355 C329.5,355 311.10125,353.319 293.942238,350.64621 L291.439913,350.24807 L288.954688,349.83625 C288.129063,349.69675 287.306188,349.55505 286.485963,349.41123 L284.033138,348.97349 L282.8125,348.75 L280.3824,348.29408 L277.9667,347.82664 L275.5648,347.34816 L273.1761,346.85912 L270.8,346.36 L268.4359,345.85128 L264.910938,345.07125 L262.574213,344.54063 L260.247388,344.00209 L257.929863,343.45611 L255.621038,342.90317 L253.320313,342.34375 L251.027088,341.77833 L247.6,340.92 L243.0512,339.75904 L239.652463,338.87803 L236.2625,337.99 L229.5008,336.19936 L216.173976,332.652819 L211.840082,331.511934 L208.581417,330.662866 L206.404052,330.100758 L203.129296,329.264563 L200.939545,328.712364 L198.74391,328.164872 L196.541861,327.622511 L194.332867,327.085706 L192.116397,326.554882 L189.89192,326.030464 L187.658906,325.512876 L186.539031,325.256775 L183.16514,324.499888 L180.903327,324.005338 L178.630853,323.519318 C178.251189,323.439048 177.87106,323.359152 177.490452,323.279638 L175.200991,322.807207 C174.81843,322.729256 174.43537,322.651704 174.051799,322.574561 L171.744156,322.116675 L170.585574,321.89154 L168.258557,321.449155 L165.917958,321.017634 L163.563248,320.597402 C162.775934,320.459253 161.986179,320.323057 161.193895,320.188884 L158.80937,319.792504 C140.8672,316.86624 121.6,315 100,315 C81.1326089,315 62.7991854,317.135871 44.9996347,321.407612 L44.9996347,21.4076121 C62.7991854,17.1358707 81.1326089,15 100,15 C119.5,15 137.09875,16.521 153.537738,18.96981 L156.057763,19.35379 L158.560088,19.75193 L161.045313,20.16375 C161.870938,20.30325 162.693813,20.44495 163.514038,20.58877 L165.966863,21.02651 L168.404388,21.47649 L169.6176,21.70592 L172.0333,22.17336 L174.4352,22.65184 L176.8239,23.14088 L179.2,23.64 L181.5641,24.14872 L185.089063,24.92875 L187.425788,25.45937 L189.752613,25.99791 L192.070138,26.54389 L194.378963,27.09683 L196.679688,27.65625 L198.972913,28.22167 L201.259238,28.79261 L203.539263,29.36859 L206.9488,30.24096 L210.347538,31.12197 L213.7375,32.01 L220.4992,33.80064 L233.826024,37.3471811 L238.159918,38.4880659 L241.418583,39.3371337 L243.595948,39.8992419 L246.870704,40.7354369 L249.060455,41.287636 L251.25609,41.8351283 L253.458139,42.3774892 L255.667133,42.9142939 L257.883603,43.4451178 L260.10808,43.9695362 L263.460969,44.7432246 L266.83486,45.5001118 L269.096673,45.9946615 L271.369147,46.4806824 L272.509548,46.7203618 L274.799009,47.1927931 C275.18157,47.2707443 275.56463,47.3482958 275.948201,47.4254389 L278.255844,47.8833252 L279.414426,48.1084595 L281.741443,48.5508452 L284.082042,48.9823664 L286.436752,49.4025983 C287.224066,49.5407468 288.013821,49.6769431 288.806105,49.8111163 L291.19063,50.2074957 C309.1328,53.13376 328.4,55 350,55 C383.333333,55 431.666667,38.3333333 495,5 Z" id="Shape" fill="#000000"></path>
    </g>
</svg>