<?xml version="1.0" encoding="UTF-8"?>
<svg width="500px" height="500px" viewBox="0 0 500 500" version="1.1" xmlns="http://www.w3.org/2000/svg" xmlns:xlink="http://www.w3.org/1999/xlink">
    <title>flag</title>
    <g id="flag" stroke="none" stroke-width="1" fill="none" fill-rule="evenodd">
        <path d="M20,5 C28.2842712,5 35,11.7157288 35,20 L35,495 L5,495 L5,20 C5,11.7157288 11.7157288,5 20,5 Z M495,5 L495,305 C431.666667,338.333333 383.333333,355 350,355 C329.5,355 311.10125,353.319 293.942238,350.64621 L291.439913,350.24807 L288.954688,349.83625 C288.129063,349.69675 287.306188,349.55505 286.485963,349.41123 L284.033138,348.97349 L282.8125,348.75 L280.3824,348.29408 L277.9667,347.82664 L275.5648,347.34816 L273.1761,346.85912 L270.8,346.36 L268.4359,345.85128 L264.910938,345.07125 L262.574213,344.54063 L260.247388,344.00209 L257.929863,343.45611 L255.621038,342.90317 L253.320313,342.34375 L251.027088,341.77833 L247.6,340.92 L243.0512,339.75904 L239.652463,338.87803 L236.2625,337.99 L229.5008,336.19936 L216.173976,332.652819 L211.840082,331.511934 L208.581417,330.662866 L206.404052,330.100758 L203.129296,329.264563 L200.939545,328.712364 L198.74391,328.164872 L196.541861,327.622511 L194.332867,327.085706 L192.116397,326.554882 L189.89192,326.030464 L187.658906,325.512876 L186.539031,325.256775 L183.16514,324.499888 L180.903327,324.005338 L178.630853,323.519318 C178.251189,323.439048 177.87106,323.359152 177.490452,323.279638 L175.200991,322.807207 C174.81843,322.729256 174.43537,322.651704 174.051799,322.574561 L171.744156,322.116675 L170.585574,321.89154 L168.258557,321.449155 L165.917958,321.017634 L163.563248,320.597402 C162.775934,320.459253 161.986179,320.323057 161.193895,320.188884 L158.80937,319.792504 C140.8672,316.86624 121.6,315 100,315 C81.1326089,315 62.7991854,317.135871 44.9996347,321.407612 L44.9996347,290.658261 C62.4653072,286.976282 80.3682189,285.089813 98.6766636,285.003131 L100,285 C124.193496,285 146.865398,287.14146 170.013319,291.272753 C173.167648,291.835717 176.235039,292.412141 179.290585,293.017738 L181.393047,293.439427 L182.779354,293.72295 L185.560418,294.304795 L188.363142,294.908549 L191.199995,295.536821 L193.357532,296.025684 L195.54654,296.530907 L198.523266,297.231888 L201.577761,297.966519 L204.722494,298.73741 L207.147764,299.340942 L210.480417,300.181565 L214.822812,301.29373 L219.384135,302.478859 L223.207186,303.482919 L228.223948,304.812224 L237.817922,307.366274 L246.272877,309.593403 L252.457955,311.195473 L255.649524,312.009004 L259.864861,313.065309 L262.718702,313.766086 L265.997859,314.554097 L268.629553,315.171246 L270.172267,315.526033 L272.694931,316.094213 L273.690238,316.314116 L274.664167,316.526887 C275.635442,316.737877 276.599279,316.943646 277.56043,317.145264 L279.480558,317.543287 C280.600186,317.772609 281.720468,317.997256 282.848947,318.218929 L283.818399,318.408246 C285.276115,318.691248 286.750946,318.970139 288.258924,319.248535 C308.866701,323.053047 328.683899,325 350,325 C351.086658,325 352.20038,324.975747 353.341037,324.9272 L354.490667,324.870553 L355.072207,324.836153 L355.072207,324.836153 L356.248718,324.755195 L357.443114,324.658017 C358.044778,324.605372 358.653138,324.546641 359.268178,324.481819 L360.507159,324.344053 C360.923119,324.295422 361.342042,324.244084 361.763924,324.190035 L363.038443,324.019756 C363.466239,323.960285 363.896989,323.898103 364.330689,323.833207 L365.640632,323.63038 L366.968243,323.411263 L367.638665,323.295594 L367.638665,323.295594 L368.992724,323.052028 C369.674156,322.926168 370.362185,322.794191 371.056798,322.656092 L372.454794,322.37173 C372.923715,322.27422 373.395557,322.173988 373.870315,322.071033 L375.30333,321.753992 C375.543623,321.69979 375.784643,321.644906 376.02639,321.58934 L377.485595,321.247767 L378.962224,320.889827 C379.704889,320.706763 380.454077,320.517559 381.209772,320.322208 L382.729833,319.923311 L384.267216,319.508014 L385.821893,319.076309 L387.393835,318.628187 L388.983013,318.163638 L389.784056,317.9252 L389.784056,317.9252 L391.399034,317.435994 C391.940223,317.270184 392.484272,317.101632 393.031176,316.930337 L394.680453,316.408222 L396.346837,315.869639 C396.625991,315.778502 396.905857,315.686678 397.186434,315.594168 L398.878423,315.030865 C399.44526,314.840349 400.014936,314.647085 400.587446,314.451071 L402.747636,313.703123 L402.747636,313.703123 L404.93434,312.929375 L406.702756,312.291788 L408.488077,311.637669 L410.290274,310.967008 L412.109317,310.279795 L413.945179,309.576023 L416.263613,308.673004 L416.263613,308.673004 L418.608223,307.744078 L421.45623,306.595143 L421.45623,306.595143 L423.37575,305.808429 L425.311915,305.0051 L427.964216,303.889091 C433.743922,301.43793 439.738319,298.771299 445.944116,295.888145 L448.823329,294.542081 C452.199896,292.953726 455.637609,291.302546 459.135955,289.588376 L462.149375,288.103657 L463.667199,287.34972 L465,286.683 L465,53.17 L464.895145,53.2184199 C461.216371,54.8835273 457.591241,56.4838307 454.019294,58.0191824 L451.350299,59.1585155 L448.965219,60.1630786 L446.596227,61.1478914 L444.24329,62.1129437 C443.461651,62.4313333 442.682682,62.7464278 441.906379,63.0582255 L439.58546,63.9837265 C438.814482,64.288929 438.046165,64.590833 437.280503,64.8894368 L434.991475,65.7753463 L432.718346,66.6414447 L431.587734,67.0670617 L431.587734,67.0670617 L429.338393,67.9034248 L428.219657,68.3141685 L428.219657,68.3141685 L425.994033,69.1207735 C420.819325,70.979696 415.773422,72.6764992 410.854521,74.2106061 L408.75419,74.8581178 C407.359147,75.2831494 405.97445,75.6948929 404.600057,76.0933348 L402.546191,76.68102 L401.525044,76.9673773 L401.525044,76.9673773 L399.494304,77.525115 L398.484702,77.796493 L398.484702,77.796493 L396.477016,78.3242607 L394.48466,78.8320357 C378.607053,82.8142384 364.198124,84.8761761 351.185166,84.9945897 L350,85 C325.806504,85 303.134602,82.8585395 279.986681,78.7272472 C276.832352,78.1642828 273.764961,77.5878592 270.709415,76.9822621 L268.606953,76.5605731 L267.220646,76.2770504 L264.439582,75.6952047 L261.636858,75.0914507 L258.800005,74.4631791 L256.642468,73.9743161 L254.45346,73.4690934 L251.476734,72.7681123 L248.422239,72.033481 L245.277506,71.2625904 L242.852236,70.6590576 L239.519583,69.8184346 L235.177188,68.7062697 L230.615865,67.5211415 L226.792814,66.5170807 L221.776052,65.1877761 L212.182078,62.6337257 L203.727123,60.4065967 L197.542045,58.804527 L194.350476,57.9909959 L190.135139,56.9346914 L187.281298,56.2339137 L184.002141,55.4459027 L181.370447,54.8287542 L179.827733,54.4739667 L177.305069,53.905787 L176.309762,53.6858838 L175.335833,53.4731133 C174.364558,53.262123 173.400721,53.0563544 172.43957,52.8547355 L170.519442,52.4567133 C169.399814,52.2273907 168.279532,52.0027439 167.151053,51.7810708 L166.181601,51.5917538 C164.723885,51.3087517 163.249054,51.0298613 161.741076,50.7514654 C141.133299,46.9469527 121.316101,45 100,45 C80.9958902,45 62.6876698,47.4616348 44.9996347,52.3950639 L44.9996347,21.4076121 C62.7991854,17.1358707 81.1326089,15 100,15 C119.5,15 137.09875,16.521 153.537738,18.96981 L156.057763,19.35379 L158.560088,19.75193 L161.045313,20.16375 C161.870938,20.30325 162.693813,20.44495 163.514038,20.58877 L165.966863,21.02651 L168.404388,21.47649 L169.6176,21.70592 L172.0333,22.17336 L174.4352,22.65184 L176.8239,23.14088 L179.2,23.64 L181.5641,24.14872 L185.089063,24.92875 L187.425788,25.45937 L189.752613,25.99791 L192.070138,26.54389 L194.378963,27.09683 L196.679688,27.65625 L198.972913,28.22167 L201.259238,28.79261 L203.539263,29.36859 L206.9488,30.24096 L210.347538,31.12197 L213.7375,32.01 L220.4992,33.80064 L233.826024,37.3471811 L238.159918,38.4880659 L241.418583,39.3371337 L243.595948,39.8992419 L246.870704,40.7354369 L249.060455,41.287636 L251.25609,41.8351283 L253.458139,42.3774892 L255.667133,42.9142939 L257.883603,43.4451178 L260.10808,43.9695362 L263.460969,44.7432246 L266.83486,45.5001118 L269.096673,45.9946615 L271.369147,46.4806824 L272.509548,46.7203618 L274.799009,47.1927931 C275.18157,47.2707443 275.56463,47.3482958 275.948201,47.4254389 L278.255844,47.8833252 L279.414426,48.1084595 L281.741443,48.5508452 L284.082042,48.9823664 L286.436752,49.4025983 C287.224066,49.5407468 288.013821,49.6769431 288.806105,49.8111163 L291.19063,50.2074957 C309.1328,53.13376 328.4,55 350,55 C383.333333,55 431.666667,38.3333333 495,5 Z" id="Shape" fill="#000000"></path>
    </g>
</svg>