<?xml version="1.0" encoding="UTF-8"?>
<svg width="500px" height="500px" viewBox="0 0 500 500" version="1.1" xmlns="http://www.w3.org/2000/svg" xmlns:xlink="http://www.w3.org/1999/xlink">
    <title>folder</title>
    <g id="folder" stroke="none" stroke-width="1" fill="none" fill-rule="evenodd">
        <path d="M159.292208,75 C172.553232,75 185.271102,80.268 194.647954,89.6450679 L250.001612,145 L445.003223,145 C472.617461,145 495.003223,167.385763 495.003223,195 L495.003223,375 C495.003223,402.614237 472.617461,425 445.003223,425 L55,425 C27.3857625,425 5,402.614237 5,375 L5,125 C5,97.3857625 27.3857625,75 55,75 L159.292208,75 Z M159.292208,105 L55,105 C44.0693643,105 35.186775,113.768729 35,124.655511 L35,125 L35,375 C35,385.930636 43.7687286,394.813225 54.6555106,394.997093 L55,395 L445.003223,395 C455.933859,395 464.816448,386.231271 465.003223,375.344489 L465.003223,375 L465.003223,195 C465.003223,184.069364 456.234495,175.186775 445.347713,175.002907 L445.003223,175 L237.575002,175 L173.434506,110.858027 C169.787953,107.21139 164.878206,105.118335 159.733715,105.004868 L159.292208,105 Z" id="Shape" fill="#000000" fill-rule="nonzero"></path>
    </g>
</svg>