<?xml version="1.0" encoding="UTF-8"?>
<svg width="500px" height="500px" viewBox="0 0 500 500" version="1.1" xmlns="http://www.w3.org/2000/svg" xmlns:xlink="http://www.w3.org/1999/xlink">
    <title>folder-open</title>
    <g id="folder-open" stroke="none" stroke-width="1" fill="none" fill-rule="evenodd">
        <path d="M55,425 C27.3857625,425 5,402.614237 5,375 L5,125 C5,97.3857625 27.3857625,75 55,75 L159.292208,75 C172.553232,75 185.271102,80.268 194.647954,89.6450679 L250.001612,145 L445.153862,145 C472.7681,145 495.153862,167.385763 495.153862,195 C495.153862,198.521492 494.781838,202.033131 494.043983,205.476454 L455.472554,385.476454 C450.53251,408.529994 430.159323,425 406.582434,425 L55,425 Z M445.153862,175 L126.041608,175 C116.988353,175 109.081143,181.078174 106.732202,189.7896 L106.63881,190.149077 L61.6367381,370.149077 C61.2401003,371.735555 61.0395355,373.364691 61.0395355,375 C61.0395355,385.930636 69.8082641,394.813225 80.6950461,394.997093 L81.0395355,395 L406.582434,395 C415.890712,395 423.950579,388.582003 426.058381,379.548517 L426.138482,379.190582 L464.709911,199.190582 C465.005053,197.813252 465.153862,196.408597 465.153862,195 C465.153862,184.069364 456.385134,175.186775 445.498352,175.002907 L445.153862,175 Z" id="Shape" fill="#000000" fill-rule="nonzero"></path>
    </g>
</svg>