<?xml version="1.0" encoding="UTF-8"?>
<svg width="500px" height="500px" viewBox="0 0 500 500" version="1.1" xmlns="http://www.w3.org/2000/svg" xmlns:xlink="http://www.w3.org/1999/xlink">
    <title>forward-filled</title>
    <g id="forward-filled" stroke="none" stroke-width="1" fill="none" fill-rule="evenodd">
        <path d="M127,122 C138.393816,122 149.237598,126.858355 156.819892,135.339644 L157.184221,135.752851 L233.932264,224.013101 C246.889092,238.913453 247.018661,261.009419 234.320969,276.053684 L233.932264,276.507398 L157.184221,364.767647 C142.688321,381.437932 117.423136,383.200619 100.752851,368.70472 C92.1550147,361.22834 87.1601862,350.44674 87.0037865,339.071372 L87,338.520499 L87,162 C87,139.90861 104.90861,122 127,122 Z M297,122 C308.393816,122 319.237598,126.858355 326.819892,135.339644 L327.184221,135.752851 L403.932264,224.013101 C416.889092,238.913453 417.018661,261.009419 404.320969,276.053684 L403.932264,276.507398 L327.184221,364.767647 C312.688321,381.437932 287.423136,383.200619 270.752851,368.70472 C262.155015,361.22834 257.160186,350.44674 257.003786,339.071372 L257,338.520499 L257,162 C257,139.90861 274.90861,122 297,122 Z" id="Shape" fill="#000000" fill-rule="nonzero"></path>
    </g>
</svg>