<?xml version="1.0" encoding="UTF-8"?>
<svg width="500px" height="500px" viewBox="0 0 500 500" version="1.1" xmlns="http://www.w3.org/2000/svg" xmlns:xlink="http://www.w3.org/1999/xlink">
    <title>forward-end copy</title>
    <g id="forward-end-copy" stroke="none" stroke-width="1" fill="none" fill-rule="evenodd">
        <path d="M125.50985,128.867192 L125.931247,129.105955 L291.705928,224.816011 C296.158191,227.386526 299.855382,231.083717 302.425897,235.53598 C310.432541,249.403894 305.808624,267.098079 292.123402,275.297887 L291.705928,275.543447 L125.931247,371.253503 C121.478985,373.824018 116.428528,375.177284 111.287498,375.177284 C95.27421,375.177284 82.2625555,362.325762 82.0039237,346.374108 L82,345.889785 L82,154.469672 C82,149.328643 83.3532659,144.278186 85.9237808,139.825923 C93.9304249,125.958009 111.565996,121.115346 125.50985,128.867192 Z M387.177284,125 C403.745826,125 417.177284,138.431458 417.177284,155 L417.177284,345 C417.177284,361.568542 403.745826,375 387.177284,375 L347.177284,375 C330.608741,375 317.177284,361.568542 317.177284,345 L317.177284,155 C317.177284,138.431458 330.608741,125 347.177284,125 L387.177284,125 Z M377.177284,155 L357.177284,155 C351.654436,155 347.177284,159.477153 347.177284,165 L347.177284,335 C347.177284,340.522847 351.654436,345 357.177284,345 L377.177284,345 C382.700131,345 387.177284,340.522847 387.177284,335 L387.177284,165 C387.177284,159.477153 382.700131,155 377.177284,155 Z M112.627244,166.790181 C111.749561,168.310373 111.287498,170.034814 111.287498,171.790181 L111.287498,328.569277 C111.287498,334.092125 115.764651,338.569277 121.287498,338.569277 C123.042865,338.569277 124.767306,338.107215 126.287498,337.229531 L262.062179,258.839983 C266.845105,256.078559 268.483857,249.962655 265.722433,245.179729 C264.84475,243.659537 263.582371,242.397158 262.062179,241.519475 L126.287498,163.129926 C121.504572,160.368503 115.388668,162.007254 112.627244,166.790181 Z" id="Shape" fill="#000000" fill-rule="nonzero"></path>
    </g>
</svg>