<?xml version="1.0" encoding="UTF-8"?>
<svg width="500px" height="500px" viewBox="0 0 500 500" version="1.1" xmlns="http://www.w3.org/2000/svg" xmlns:xlink="http://www.w3.org/1999/xlink">
    <title>full-screen-exit</title>
    <g id="full-screen-exit" stroke="none" stroke-width="1" fill="none" fill-rule="evenodd">
        <path d="M325,495 L325,465 L365,465 C420.228475,465 465,420.228475 465,365 L465,135 C465,79.771525 420.228475,35 365,35 L135,35 C79.771525,35 35,79.771525 35,135 L35,465 L42.9670701,464.959502 C48.2301858,464.94311 52.1263326,464.956609 54.6555106,465 L175,465 L175,495 L5,495 L5,325 L35,325 L35,175 L5,175 L5,125 C5,58.72583 58.72583,5 125,5 L375,5 C441.27417,5 495,58.72583 495,125 L495,375 C495,441.27417 441.27417,495 375,495 L325,495 Z M35.47,464.600568 L35.4739349,443.660351 L335.387368,143.399432 C341.241899,137.538237 350.739372,137.532836 356.600568,143.387368 C362.375569,149.155803 362.465739,158.460823 356.867119,164.339649 L356.612632,164.600568 L56.9536862,464.600568 L35.47,464.600568 Z" id="Shape" fill="#000000" fill-rule="nonzero"></path>
    </g>
</svg>