<?xml version="1.0" encoding="UTF-8"?>
<svg width="500px" height="500px" viewBox="0 0 500 500" version="1.1" xmlns="http://www.w3.org/2000/svg" xmlns:xlink="http://www.w3.org/1999/xlink">
    <title>full-screen</title>
    <g id="full-screen" stroke="none" stroke-width="1" fill="none" fill-rule="evenodd">
        <path d="M175,5 L175,35 L135,35 C79.771525,35 35,79.771525 35,135 L35,365 C35,420.228475 79.771525,465 135,465 L365,465 C420.228475,465 465,420.228475 465,365 L465,35 L457.03293,35.0404982 C451.769814,35.0568903 447.873667,35.0433909 445.344489,35 L325,35 L325,5 L495,5 L495,175 L465,175 L465,325 L495,325 L495,375 C495,441.27417 441.27417,495 375,495 L125,495 C58.72583,495 5,441.27417 5,375 L5,125 C5,58.72583 58.72583,5 125,5 L175,5 Z M464.53,35.3994325 L464.526065,56.3396494 L164.612632,356.600568 C158.758101,362.461763 149.260628,362.467164 143.399432,356.612632 C137.624431,350.844197 137.534261,341.539177 143.132881,335.660351 L143.387368,335.399432 L443.046314,35.3994325 L464.53,35.3994325 Z" id="Shape" fill="#000000" fill-rule="nonzero"></path>
    </g>
</svg>