<?xml version="1.0" encoding="UTF-8"?>
<svg width="500px" height="500px" viewBox="0 0 500 500" version="1.1" xmlns="http://www.w3.org/2000/svg" xmlns:xlink="http://www.w3.org/1999/xlink">
    <title>gamepad</title>
    <g id="gamepad" stroke="none" stroke-width="1" fill="none" fill-rule="evenodd">
        <path d="M249.21,75 C257.389407,75 264.03973,81.5467864 264.206782,89.6861718 L264.21,90.0020101 L264.21,90.0020101 L264.219068,90.0021455 L264.274008,118.95214 C302.251328,117.469505 340.228647,110.069837 378.205966,96.7531355 C416.110089,83.4620823 457.611971,103.414935 470.903008,141.319064 C473.614827,149.052784 475,157.189227 475,165.384615 L474.999506,218.453 L477.282339,228.025845 L478.567068,233.389824 C480.728207,242.375602 482.997272,251.584083 485.498753,260.91974 C510.51357,354.276308 481.682726,443.115573 446.273576,452.603426 C418.367514,460.080833 369.357041,422.832671 337.595047,361.013725 C347.165841,358.168928 356.719754,354.860299 366.25613,351.088634 C375.686754,368.69821 386.927461,384.420718 399.18167,397.272399 C409.255249,407.837129 419.345365,415.672343 428.073237,420.071688 C431.450309,421.773926 434.375624,422.832385 436.672565,423.300945 L436.996406,423.363875 L437.247702,423.408172 L437.485381,423.446042 L437.709372,423.47774 L438.115992,423.523644 L438.298473,423.538362 L438.48843,423.547922 L438.647686,423.444791 C438.793625,423.34656 438.953868,423.231153 439.127552,423.09774 L439.305684,422.958293 L439.688066,422.642647 C441.501269,421.096796 443.597414,418.643268 445.769664,415.329945 C451.12855,407.156064 455.94924,395.325512 459.39085,381.139397 C466.909247,350.149004 466.967887,312.774937 458.420326,276.254497 L458.132493,276.68757 C457.003852,268.379519 455.228148,259.508683 452.786171,250.395101 C450.482859,241.799022 447.774187,233.686349 444.808393,226.281597 C444.915813,224.840033 444.978156,223.388457 444.995199,221.929388 L445,221.107063 L445,165.384615 C445,160.569768 444.186201,155.789552 442.592989,151.245938 C434.784413,128.977002 410.401777,117.254568 388.13284,125.063154 C342.253229,141.150785 296.167319,149.230769 250,149.230769 C203.832681,149.230769 157.746771,141.150785 111.867101,125.063134 C107.323527,123.469924 102.543333,122.656127 97.7284884,122.656127 C74.3661788,122.656127 55.3830507,141.405632 55.0057244,164.678022 L55,165.384615 L55,221.107063 C55,222.121239 55.021901,223.13196 55.0653451,224.138668 C51.7573988,232.110319 48.7415216,240.961622 46.2138286,250.395101 C43.8945556,259.050746 42.1762804,267.487426 41.042546,275.430964 L40.876066,275.173353 C33.0010113,310.760672 33.2514263,346.974161 40.5696368,377.139397 C44.0112465,391.325512 48.8319372,403.156064 54.1908228,411.329945 C56.3630734,414.643268 58.4592176,417.096796 60.2724205,418.642647 L60.6548025,418.958293 C60.8982016,419.152307 61.1182155,419.313816 61.3128005,419.444791 L61.4720574,419.547922 L61.4935156,419.547932 C61.6011702,419.543211 61.7181962,419.535229 61.8444954,419.523644 L62.2511148,419.47774 C62.3958625,419.458608 62.5497854,419.435533 62.7127854,419.408172 L62.9640811,419.363875 C65.3072864,418.931731 68.3493647,417.854985 71.8872502,416.071688 C80.6151217,411.672343 90.7052384,403.837129 100.778817,393.272399 C112.268579,381.222437 122.867345,366.648654 131.918767,350.361532 C141.44858,354.190094 150.99681,357.556866 160.560632,360.459123 C128.774913,420.2123 81.0702911,455.940781 53.6869106,448.603426 C18.2777612,439.115573 -10.5530834,350.276308 14.4617337,256.91974 C16.9632154,247.584083 19.2322796,238.375602 21.393419,229.389824 L22.6781475,224.025845 L24.9995062,214.289 L25,165.384615 C25,125.21778 57.5616534,92.656127 97.7284884,92.656127 C105.923877,92.656127 114.06032,94.0412997 121.794034,96.7531355 C159.276478,109.896309 196.758923,117.275653 234.241367,118.891166 L234.207612,89.7680868 C234.335756,81.5906975 241.003208,75 249.21,75 Z M68.7716202,262.801249 C75.6996077,272.146363 84.9787117,279.800562 95.9997535,284.817233 C147.663724,308.334166 198.920684,320 250,320 C301.079315,320 352.336276,308.334167 404.000246,284.817233 C414.634455,279.976645 423.646862,272.680432 430.49021,263.778986 L439.527701,297.507217 C432.63729,303.327488 424.892675,308.268974 416.428923,312.121591 C360.952615,337.373864 305.476308,350 250,350 C194.523692,350 139.047384,337.373864 83.5710766,312.121591 C74.7725295,308.116578 66.7511369,302.934849 59.6587804,296.812416 L68.7716202,262.801249 Z M140,164 C148.284271,164 155,170.715729 155,179 L154.999,194 L170,194 C178.284271,194 185,200.715729 185,209 C185,217.284271 178.284271,224 170,224 L154.999,224 L155,239 C155,247.284271 148.284271,254 140,254 C131.715729,254 125,247.284271 125,239 L124.999,223.999 L110,224 C101.715729,224 95,217.284271 95,209 C95,200.715729 101.715729,194 110,194 L124.999,193.999 L125,179 C125,170.715729 131.715729,164 140,164 Z M350,199 C358.284271,199 365,205.715729 365,214 C365,222.284271 358.284271,229 350,229 C341.715729,229 335,222.284271 335,214 C335,205.715729 341.715729,199 350,199 Z M385,169 C393.284271,169 400,175.715729 400,184 C400,192.284271 393.284271,199 385,199 C376.715729,199 370,192.284271 370,184 C370,175.715729 376.715729,169 385,169 Z" id="Shape" fill="#000000" fill-rule="nonzero"></path>
    </g>
</svg>