<?xml version="1.0" encoding="UTF-8"?>
<svg width="500px" height="500px" viewBox="0 0 500 500" version="1.1" xmlns="http://www.w3.org/2000/svg" xmlns:xlink="http://www.w3.org/1999/xlink">
    <title>globe-americas</title>
    <g id="globe-americas" stroke="none" stroke-width="1" fill="none" fill-rule="evenodd">
        <g id="world-map-with-a-placeholder-svgrepo-com" transform="translate(33.000000, 18.000000)" fill="#000000" fill-rule="nonzero">
            <path d="M86.0217096,49.7229241 C88.5917987,52.7958567 124.824467,58.8858504 133.568357,55.8408535 L138.79445,54.0196265 C144.213258,52.2081713 147.34689,51.7374022 149.12857,55.1703955 C151.391366,59.5842441 162.342181,49.7787956 169.493733,48.0467791 C176.617349,46.3706341 183.71303,59.2490151 182.763214,67.7135476 C181.813399,76.2060158 179.187438,73.4683122 178.572852,78.6084903 C177.902394,83.692797 183.405737,83.692797 183.405737,86.709858 C183.405737,89.2473554 180.049566,88.9718778 177.443523,90.1837204 L176.002763,91.1237066 C173.879646,93.0233377 171.613497,93.4032639 168.632194,92.4351225 L166.253186,91.4589357 C162.062823,89.4196259 160.749843,92.1573294 154.911271,96.8784713 C149.851408,101.033914 150.67333,103.88467 150.096992,110.221721 L149.743157,113.165014 C148.458112,121.601611 152.648475,119.618172 157.844525,123.333627 C163.012639,127.077018 167.230937,130.792473 174.326618,130.792473 C181.47817,130.792473 179.550603,137.58086 179.550603,141.966773 C179.550603,146.436493 181.47817,145.738099 185.361239,146.045392 C189.216373,146.436493 185.361239,134.172698 189.216373,132.161324 C193.127378,130.14995 190.529353,124.032021 187.624035,118.249321 C185.085872,113.316665 188.068726,106.865217 188.779256,102.325454 L188.909079,100.230761 C188.601786,95.8169128 193.127378,94.112832 197.652969,95.4816837 C202.150625,96.8225998 204.776586,97.5489293 207.989197,100.56599 L210.047809,102.590233 C211.289036,103.984984 211.656762,105.139472 213.49254,109.728917 C216.090565,116.210011 220.92345,109.421623 223.186245,104.309381 C225.449041,99.2250743 228.717524,105.650297 231.622842,113.137078 L233.745633,118.439333 C235.358251,122.202514 236.95458,124.862112 241.344483,130.429308 C246.722115,137.249123 250.602566,151.340963 253.659566,158.612606 L254.921258,161.270377 C258.13387,167.025141 255.563781,168.421929 251.680711,167.388306 C248.307469,166.483886 238.988277,170.755437 234.970713,172.997772 L233.60628,173.813529 C230.952384,175.573481 223.884639,178.562606 219.331112,181.970768 L213.471588,186.559215 C211.64878,187.914099 209.777085,189.094384 207.318739,190.100071 C202.485854,192.167317 201.843332,196.55323 197.960263,204.040011 C194.133065,211.498856 185.668532,218.650409 184.383488,224.014073 C183.098443,229.405673 185.053946,235.858831 181.47817,236.892454 C177.874458,237.926076 175.639598,229.433608 172.73428,226.388611 C169.801026,223.343615 160.079385,221.332241 148.458112,224.712466 C136.780969,228.120628 144.575043,246.44648 146.195317,250.804458 C147.787654,255.274178 158.79434,246.474416 162.034887,243.066255 C165.275434,239.658093 167.845523,244.714464 168.208688,249.491477 C168.515981,254.240555 166.253186,259.660091 170.778777,260.665778 C175.304369,261.671465 176.924642,262.677152 180.137254,269.828704 C183.405737,276.924384 191.842333,274.214617 197.960263,269.828704 C204.161999,265.414855 229.974633,273.907323 233.885638,275.946633 C237.768707,277.985943 245.199617,279.326859 249.054751,284.411166 C252.993691,289.495472 268.861198,303.770641 269.811013,304.385227 C270.788765,305.083621 294.729703,308.827012 301.238733,313.939254 C307.691891,319.079432 298.333415,339.08143 295.73539,349.250043 C293.109429,359.39072 285.035997,365.815943 281.488157,368.525711 C277.940317,371.263414 251.345482,403.8365 247.183055,408.585577 C242.964757,413.334655 229.387982,424.173726 226.119499,428.252346 C223.442323,431.604636 222.530531,434.316732 223.060793,438.247783 L223.54941,440.767562 C224.599794,445.103191 224.809871,447.704568 223.507395,451.017524 L222.23643,453.673879 C219.638405,458.395021 219.331112,464.820244 221.593908,469.932486 C223.884639,475.016793 227.739773,475.379957 222.906888,476.692938 C222.472404,476.821022 221.98757,476.910046 221.460262,476.958102 L221.051523,476.967177 L221.051523,476.967177 L219.768267,476.978011 C214.254478,476.655389 205.854181,472.760685 200.558287,463.842492 C194.642892,453.881069 200.933868,430.539585 201.50702,420.478399 L201.482156,415.490768 C201.856136,404.072014 207.118533,372.937232 208.29649,365.229292 C209.581535,356.736824 204.134064,350.64683 198.630721,346.90344 C193.099442,343.187985 186.311055,326.538278 183.042572,320.783513 C180.747849,316.653013 181.417737,312.36573 182.802308,308.023472 L184.662845,302.79289 C186.953577,296.67496 187.931328,291.255425 185.640597,287.176805 C183.701057,283.680845 175.337436,278.686617 170.137477,276.046811 L167.845523,274.940946 C163.347868,272.873701 159.744156,270.527098 155.553793,266.476414 C151.391366,262.341923 145.888023,261.6994 134.853402,259.324861 C123.846716,256.978258 117.030393,243.401484 114.48824,238.959699 C111.862279,234.545851 111.862279,240.66378 110.884528,246.781709 C109.962648,252.899639 97.6709177,227.114941 85.6585449,212.867708 C73.7579151,198.59254 72.7801638,173.8694 73.3947503,166.410555 C73.9788615,159.629786 65.7204995,145.276351 55.4829179,138.357058 L52.3591301,136.519301 C40.7378578,130.764537 38.7823552,120.595924 35.2345149,113.835472 C32.0414586,107.725923 22.55783,107.114968 15.2351713,111.513843 L12.8859144,113.165014 C9.47597631,115.946805 5.3836566,116.957934 0.700736234,116.843567 C14.5309926,90.9101694 32.8916547,67.7595694 54.7238761,48.4438605 C55.3275462,48.3128143 55.9340225,48.2764989 56.5494927,48.3820081 C59.8778378,48.9566864 69.8765561,49.7981796 74.6885095,48.5315417 L76.6073617,47.7115501 C79.8479087,45.3370113 86.0217096,49.7229241 86.0217096,49.7229241 Z M412.9538,203.425424 C422.982734,207.476108 419.099665,213.230873 427.536262,217.309492 C435.889051,221.388112 443.990419,213.901331 451.449264,217.97995 C455.41351,220.178985 458.752923,220.59965 461.694856,219.683781 C461.897795,223.763281 462,227.869705 462,232 C462,282.409376 446.775875,329.262966 420.674642,368.213756 L417.488521,352.052665 C414.171923,336.091063 410.355775,319.394175 408.120915,315.252234 L405.529874,310.377882 C403.508024,306.298826 403.246127,304.077934 405.215597,298.965692 C407.785686,292.20524 393.873682,290.16593 370.882559,293.574092 C347.919372,296.982253 340.823692,263.040316 340.823692,250.497164 C340.823692,239.883728 354.484604,222.489839 360.44808,215.324325 L362.809127,212.532479 C365.714445,209.180189 366.021739,208.45386 373.145355,206.442485 L379.074215,204.954069 C388.862008,202.746027 404.975349,200.162529 412.9538,203.425424 Z M437.384417,124.841337 C448.93357,148.549327 456.769823,174.398824 460.136563,201.633212 C456.572963,200.927799 452.752523,200.174461 450.806742,199.318869 C446.979544,197.642724 445.6945,193.536169 444.381519,198.955704 C443.096475,204.403176 436.615381,201.050886 435.637629,199.318869 L434.137376,197.026068 C432.819223,195.289913 431.000295,193.545481 429.491764,194.234562 C427.228968,195.240249 423.988421,197.950017 420.133288,200.324556 C416.250218,202.699095 419.46283,195.575478 420.440581,192.530482 C421.418332,189.485485 405.858119,180.993017 399.404961,180.657788 C392.951802,180.350494 390.018549,187.08301 387.420524,193.20094 C384.850435,199.318869 374.849436,201.972765 369.597515,204.738405 C364.457337,207.448172 360.239038,199.654098 358.953994,195.575478 C357.668949,191.496859 360.239038,188.088697 360.881561,182.361868 C361.524083,176.607104 371.245724,177.584855 377.05636,177.94802 C381.898557,178.227377 378.437628,170.475206 374.724501,164.957249 L372.530769,161.996706 C368.340406,156.940335 375.771316,158.337123 381.889245,156.605106 C387.266877,155.114036 394.890282,146.372328 398.658443,142.619444 L400.019547,141.352186 C402.980737,138.977648 404.545139,136.603109 407.115228,135.597422 C409.769124,134.563799 418.149849,139.340812 425.915988,139.676041 C431.093414,139.899527 433.526928,135.765036 435.24446,131.171157 Z M408.794164,79.5380904 C417.384891,90.3307011 425.083795,101.864827 431.779379,114.028969 C429.358367,115.283147 428.315914,120.133823 425.273466,126.434496 C421.390397,134.563799 413.624258,128.501741 412.339213,126.79766 C411.054169,125.065644 410.104353,120.28863 409.098666,115.902717 C408.092979,111.54474 403.930552,112.550427 395.801249,104.756353 C388.868862,98.0638411 399.835498,88.8996574 408.786514,79.5453197 Z M297.884748,0.666095986 C310.78118,5.17493229 323.185623,10.7317136 334.996003,17.2343684 L334.510212,18.2113974 C331.940123,23.3236397 333.532461,30.4472562 335.208606,39.3028891 C336.648849,47.1000675 332.725428,49.5777272 328.637688,53.6029278 L327.107238,55.1983313 C322.581646,60.3385094 301.909191,74.5578065 294.450345,78.9716551 C286.9915,83.357568 286.9915,89.8386621 284.086182,98.6384236 L281.156349,108.41162 C280.059443,112.037892 278.989903,114.685517 276.962566,116.265882 C273.833761,118.636929 274.447911,113.222631 271.150674,111.382855 L269.475784,110.846347 C264.30767,110.147953 258.161805,95.5934268 253.021627,84.0559617 C248.378085,73.8004372 248.612607,64.891347 249.879641,59.9381736 L250.395667,58.2712638 C252.01594,53.885351 252.658462,48.1026506 250.060438,44.3871958 C247.490349,40.6438052 244.557095,44.024031 245.534846,34.49794 C246.18668,28.1316928 243.644527,14.4987016 241.904156,6.19090059 L240.701961,0.667745935 Z" id="Combined-Shape"></path>
        </g>
        <circle id="Oval" stroke="#000000" stroke-width="30" cx="250" cy="250" r="230"></circle>
    </g>
</svg>