<?xml version="1.0" encoding="UTF-8"?>
<svg width="500px" height="500px" viewBox="0 0 500 500" version="1.1" xmlns="http://www.w3.org/2000/svg" xmlns:xlink="http://www.w3.org/1999/xlink">
    <title>globe</title>
    <g id="globe" stroke="none" stroke-width="1" fill="none" fill-rule="evenodd">
        <g id="world-map-with-a-placeholder-svgrepo-com" transform="translate(53.000000, 16.000000)" fill="#000000" fill-rule="nonzero">
            <path d="M404.523225,348.791697 C405.309161,351.149506 407.031989,353.874658 409.149749,356.624184 C400.078976,372.286534 389.322312,386.850802 377.128972,400.069766 C375.189803,398.100213 373.079286,395.866566 371.503167,394.578392 C368.836573,392.445117 350.170412,398.138469 342.915722,401.248131 L341.109071,402.093109 C335.85715,404.774941 332.644538,404.523519 328.118947,402.735631 C320.241065,399.662699 326.163444,389.549957 326.498673,385.108173 C326.833902,380.666388 323.565419,372.537085 323.565419,367.145485 C323.565419,361.670078 336.499672,359.993933 340.438613,358.625081 C344.26581,357.256229 347.227,350.160549 350.439611,346.417158 C353.652223,342.645832 358.876208,344.042619 360.775839,344.685142 C362.787213,345.3556 364.323679,338.231983 371.810461,336.192673 C379.185499,334.153364 380.88958,336.863131 380.88958,339.572899 C380.88958,342.310603 379.213435,345.383535 382.174624,345.690829 C385.443107,346.026058 394.186997,341.66808 395.499977,335.550151 C396.757086,329.488093 402.260429,342.003309 404.523225,348.791697 Z M271.004039,0.375067768 C332.493529,19.8347923 383.487997,62.898893 413.351622,118.931548 C412.171453,118.798189 410.872668,118.784083 409.439917,118.908405 C403.294052,119.439184 395.192684,125.696792 390.331863,132.485179 C385.498978,139.245631 391.616908,137.569486 395.192684,142.989022 C398.76846,148.408557 394.550162,154.498551 392.287366,161.622167 C390.829628,166.155378 382.595507,175.077964 376.130302,181.665995 L368.374363,189.418239 C365.748403,192.072136 367.061383,202.268685 367.061383,206.347304 C367.061383,210.45386 360.272996,210.45386 354.434424,212.493169 C348.623788,214.504543 353.149379,201.318869 351.864335,197.240249 C350.523419,193.16163 344.377553,199.251623 340.243062,206.040011 C335.940957,212.828398 345.020076,219.952015 344.377553,233.165625 C343.735031,246.435106 319.458864,250.821019 315.911024,251.184184 C312.307312,251.519413 308.424242,257.274178 314.234879,266.772333 C319.561295,275.478975 311.038175,277.659904 304.825267,281.341199 L303.200257,282.388418 C297.082328,286.802266 297.082328,281.047501 294.456367,277.276175 C291.942149,273.532785 289.651418,281.997317 286.7461,286.075937 C283.840782,290.12662 285.461055,276.91301 284.483304,270.823017 C283.505553,264.705087 269.593549,254.536474 266.353002,250.457854 C263.497347,246.857247 262.937253,251.511826 258.982869,255.926057 L257.329754,257.553535 C252.437894,261.824601 244.23513,275.918015 240.863833,282.823089 L239.841974,285.042314 C237.607114,290.517721 234.953218,290.517721 232.718358,287.752082 C230.427626,285.07025 221.404379,257.274178 216.208329,253.195558 L211.418221,249.379709 C205.800516,245.040065 198.022156,239.765446 190.982346,239.283554 C181.595934,238.557225 179.696303,234.534477 173.494567,232.159938 L168.548629,230.141689 C166.769908,229.488582 166.398886,229.820319 166.398886,232.159938 C166.398886,235.875393 171.874293,239.618783 177.070343,239.283554 C182.294328,238.892454 187.127213,246.379235 186.81992,252.776522 C186.512626,259.257616 171.930165,263.950822 161.566001,268.029442 C151.201838,272.163933 142.17859,252.776522 139.580565,246.379235 C137.038412,239.926076 131.842362,239.618783 131.842362,242.66378 C131.842362,245.680841 140.278959,258.559222 143.798864,265.34761 C147.002163,271.381732 157.334942,272.846807 164.810533,273.097884 L167.460444,273.141684 C174.891354,273.141684 172.321265,275.180994 170.365762,283.310297 C168.438196,291.439601 150.335829,311.804763 146.45276,316.190676 C142.569691,320.660396 144.804551,339.936064 144.189964,348.093303 C143.575378,356.222607 136.451761,356.222607 130.613189,362.005307 C124.802553,367.760072 124.132095,378.934372 119.578568,388.767756 C115.080912,398.629076 103.766933,401.310908 93.0675404,402.987053 C82.3960836,404.691134 85.3014017,393.879998 83.6531924,385.359595 L77.4885213,354.052665 C74.1719228,338.091063 70.3557751,321.394175 68.120915,317.252234 L65.5298741,312.377882 C63.5080242,308.298826 63.2461265,306.077934 65.2155969,300.965692 C67.785686,294.20524 53.8736822,292.16593 30.8825593,295.574092 C7.91937228,298.982253 0.823691608,265.040316 0.823691608,252.497164 C0.823691608,241.883728 14.4846043,224.489839 20.4480796,217.324325 L22.8091274,214.532479 C25.7144455,211.180189 26.0217387,210.45386 33.1453551,208.442485 L39.0742154,206.954069 C48.8620085,204.746027 64.9753495,202.162529 72.9537999,205.425424 C82.9827344,209.476108 79.099665,215.230873 87.5362617,219.309492 C95.8890512,223.388112 103.990419,215.901331 111.449264,219.97995 C118.852238,224.086506 124.076224,221.991325 128.601815,216.571789 C133.155343,211.152253 129.607502,207.073634 127.931357,205.732718 C126.366955,204.363866 114.745683,203.050886 110.806742,201.318869 C106.979544,199.642724 105.6945,195.536169 104.381519,200.955704 C103.096475,206.403176 96.6153807,203.050886 95.6376294,201.318869 L94.1373761,199.026068 C92.8192226,197.289913 91.0002948,195.545481 89.4917643,196.234562 C87.2289685,197.240249 83.9884214,199.950017 80.1332878,202.324556 C76.2502184,204.699095 79.4628298,197.575478 80.4405811,194.530482 C81.4183323,191.485485 65.8581192,182.993017 59.4049608,182.657788 C52.9518024,182.350494 50.0185486,189.08301 47.4205237,195.20094 C44.8504347,201.318869 34.8494359,203.972765 29.5975148,206.738405 C24.4573367,209.448172 20.2390383,201.654098 18.9539938,197.575478 C17.6689493,193.496859 20.2390383,190.088697 20.8815606,184.361868 C21.5240829,178.607104 31.2457241,179.584855 37.0563602,179.94802 C41.898557,180.227377 38.4376279,172.475206 34.7245011,166.957249 L32.5307686,163.996706 C28.340406,158.940335 35.7713157,160.337123 41.8892451,158.605106 C47.2668771,157.114036 54.8902816,148.372328 58.6584433,144.619444 L60.0195473,143.352186 C62.9807369,140.977648 64.5451389,138.603109 67.115228,137.597422 C69.7691243,136.563799 78.1498495,141.340812 85.9159882,141.676041 C91.093414,141.899527 93.5269283,137.765036 95.2444596,133.171157 L98.2437294,124.278289 C99.5346666,119.591957 98.3124775,117.092581 94.3525849,115.919279 C89.7990575,114.550427 89.2124068,120.277256 85.2734659,128.434496 C81.3903966,136.563799 73.6242579,130.501741 72.3392134,128.79766 C71.0541688,127.065644 70.1043533,122.28863 69.0986663,117.902717 C68.0929792,113.54474 63.9305524,114.550427 55.8012489,106.756353 C48.2660458,99.4818835 61.8780818,89.2871969 71.0627441,79.1022443 L77.6219208,71.5669177 C88.3253042,59.645275 106.109545,41.6660539 110.778806,39.6546798 C116.282149,37.280141 117.595129,43.0349057 123.070537,48.7896703 C127.787688,53.7223257 129.15939,52.9492466 132.53367,56.4627984 L134.412451,58.6230546 C139.245336,64.7409839 147.011475,66.1098357 147.011475,66.1098357 C149.6095,65.411442 150.894544,63.0369032 155.112843,66.752358 C159.275269,70.5236843 181.316577,60.3271353 184.221895,58.9862193 C186.546149,57.8911379 188.477068,55.9199913 191.974177,54.6604242 L194.921287,53.8739769 C199.763484,52.9055376 210.278363,46.6837975 213.45775,42.9194839 L214.280763,41.6381181 C215.537871,38.2299566 225.34332,36.2185825 227.242951,38.2299566 C229.142582,40.2972021 232.466936,37.2522053 234.394503,31.8047339 C236.294134,26.3851983 240.512432,33.5088147 244.730731,36.5538115 C248.921093,39.6267441 245.345317,24.0106595 245.345317,18.9263528 C245.345317,13.8141105 255.709481,14.5125042 259.257321,13.1436524 C262.542359,11.8761971 265.324437,6.01026425 270.819121,0.557697643 Z M381.168937,310.854947 C383.152375,312.195863 389.270305,310.882883 396.72915,312.195863 C404.187996,313.508844 401.589971,315.911318 407.791708,318.621086 L412.166544,320.570096 C413.429928,321.245301 413.096008,321.550848 412.90395,323.034935 C412.596657,325.381538 413.853765,328.119241 415.809268,330.130615 C417.680963,332.197861 413.155372,333.538777 408.601844,332.868319 C404.877078,332.309604 402.898295,330.082504 399.157362,330.147817 L396.673279,330.49378 C391.169936,331.862632 388.236682,327.420848 384.046319,325.074245 C379.883893,322.727641 385.3593,319.682645 383.096504,318.313793 C380.861644,316.944941 372.14569,315.631961 370.832709,310.854947 C369.547665,306.10587 379.213435,309.486096 381.168937,310.854947 Z M283.341282,293.137527 L289.529826,298.111493 C292.721936,300.542862 300.242171,306.3635 303.284064,309.514031 C307.139198,313.592651 309.737223,307.167428 312.000018,303.424038 C313.885682,300.304546 316.663737,300.250226 321.288009,298.750619 L324.291749,297.641337 C330.716971,294.93157 328.845276,297.976566 330.102385,301.356792 C331.387429,304.764954 328.845276,310.212425 328.845276,312.195863 C328.845276,314.263109 334.655912,308.508344 338.818339,304.764954 C343.064573,300.993627 348.875209,302.02725 349.852961,305.435412 C350.802776,308.787702 350.18819,314.207238 350.802776,318.285857 C351.445298,322.308605 347.869522,321.302918 343.707095,323.705393 C339.432926,326.079932 336.220314,323.98475 332.644538,323.342228 C329.096698,322.67177 330.716971,326.387225 328.482111,328.091306 C326.542572,329.551946 320.765003,327.277178 315.969664,324.732663 L313.676163,323.453971 C308.480114,320.408974 307.837592,321.079432 303.926587,323.453971 C300.043517,325.82851 296.467741,320.744203 293.283065,316.330355 C292.349213,315.069255 291.128022,313.174185 289.755016,310.94356 L278.728539,292.584967 C275.94356,288.184011 279.770592,290.479702 283.341282,293.137527 Z M401.00332,168.410555 L402.414442,172.481356 C403.536352,176.039295 404.191987,179.776414 401.897264,181.931458 L399.477197,184.237827 C397.702911,186.064239 396.545572,188.045397 396.086628,193.133694 L395.857969,199.634447 C395.686216,203.584769 394.885391,206.831524 389.912827,209.755466 L375.474382,218.53742 C368.694097,222.55004 362.972288,225.535673 365.329367,222.298618 L365.606542,221.083413 C366.197121,218.825855 367.8366,213.959796 371.503167,211.152253 C376.391924,207.352991 381.196873,206.738405 384.102191,200.955704 L386.166108,196.875502 C386.442083,196.270628 386.657603,195.71355 386.935323,194.897411 L389.018883,188.440488 C390.471542,183.859025 391.435326,181.400679 392.280382,179.532475 L396.89573,169.736986 C398.34632,167.044807 399.867266,165.449365 401.00332,168.410555 Z M424.111767,141.929404 C425.842497,146.194395 427.456576,150.519176 428.950047,154.89979 C428.306851,156.353205 427.705512,157.775402 427.123247,159.135886 C424.245865,165.924273 424.245865,152.319562 423.854764,146.900027 L423.938247,144.284961 C423.983233,143.634147 424.039134,142.91543 424.095043,142.144611 Z" id="Combined-Shape"></path>
        </g>
        <circle id="Oval" stroke="#000000" stroke-width="30" cx="250" cy="250" r="230"></circle>
    </g>
</svg>