<?xml version="1.0" encoding="UTF-8"?>
<svg width="500px" height="500px" viewBox="0 0 500 500" version="1.1" xmlns="http://www.w3.org/2000/svg" xmlns:xlink="http://www.w3.org/1999/xlink">
    <title>globe-africa</title>
    <g id="globe-africa" stroke="none" stroke-width="1" fill="none" fill-rule="evenodd">
        <path d="M250,5 C310.115456,5 365.174002,26.6512008 407.803124,62.5810862 L407.975872,62.7337516 L407.975872,62.7337516 L408.151247,62.8829548 C409.084398,63.6645466 410.00771,64.4575355 410.92501,65.2572447 L411.148451,65.4588854 L411.148451,65.4588854 L411.374568,65.6576611 C412.884042,66.9726083 414.373431,68.3099201 415.846177,69.6650412 L416.518727,70.2931286 L416.518727,70.2931286 C417.239322,70.954215 417.952484,71.6232876 418.66162,72.2965603 L419.654752,73.2513282 C420.28429,73.8491645 420.907349,74.4537263 421.527191,75.0615563 L422.3856,75.9137412 L422.3856,75.9137412 C422.941452,76.4579111 423.491565,77.0078642 424.039065,77.5604106 L425.330164,78.8791412 C425.713006,79.2653781 426.091782,79.6559909 426.469266,80.047858 L427.691324,81.3313263 C428.188935,81.849678 428.681684,82.3731834 429.172148,82.8988493 L430.187537,83.9991861 C430.725374,84.5772509 431.25801,85.1607149 431.787851,85.7467531 L432.891083,86.9803966 C433.236482,87.3624728 433.578131,87.7479238 433.918581,88.1344566 L434.718753,89.051788 L434.718753,89.051788 L435.516546,89.9717439 C435.825575,90.3247948 436.131279,90.6809239 436.435975,91.0379389 L437.28269,92.0394873 L437.28269,92.0394873 L438.125859,93.0440523 C438.411814,93.3818166 438.694532,93.7221747 438.976345,94.0633088 L440.164581,95.517269 C440.586209,96.0312457 441.004142,96.5493581 441.420002,97.0692015 L442.593368,98.5517026 C442.790787,98.798251 442.985908,99.0470236 443.180558,99.2961823 L443.388857,99.5672688 L444.222079,100.642894 L444.222079,100.642894 L445.049451,101.723257 C445.296631,102.043994 445.541461,102.367213 445.785507,102.691057 L446.613466,103.79946 L446.613466,103.79946 L447.436388,104.911227 C447.64649,105.192972 447.854817,105.477262 448.062544,105.762017 L448.902178,106.923144 L448.902178,106.923144 L449.736417,108.08834 C449.921738,108.345247 450.104881,108.603606 450.287534,108.862335 L450.99997,109.879831 L450.99997,109.879831 L451.708737,110.900479 C451.890511,111.160297 452.070633,111.422081 452.250259,111.684232 L453.047289,112.857403 L453.047289,112.857403 L453.838563,114.034253 C454.038857,114.330862 454.237284,114.629162 454.435073,114.92792 L455.209875,116.108147 L455.209875,116.108147 L455.978994,117.29225 C456.183472,117.606098 456.385797,117.921065 456.587419,118.236525 L457.379248,119.486079 L457.379248,119.486079 L458.492028,121.264957 L458.492028,121.264957 L459.258548,122.514287 L459.258548,122.514287 L460.18748,124.046448 L460.18748,124.046448 L461.129828,125.630866 L461.129828,125.630866 L461.8977,126.941089 C462.04437,127.190755 462.189659,127.441413 462.334515,127.692352 L463.085073,129.003825 L463.085073,129.003825 L464.048966,130.711892 L464.048966,130.711892 L465.000284,132.432995 L465.000284,132.432995 L466.093183,134.447951 L466.093183,134.447951 L466.821661,135.819526 L466.821661,135.819526 L467.738122,137.571711 L467.738122,137.571711 L468.462731,138.98498 L468.462731,138.98498 L469.465842,140.975925 L469.465842,140.975925 L470.170978,142.405731 L470.170978,142.405731 L471.151326,144.430207 L471.151326,144.430207 L471.852941,145.911396 L471.852941,145.911396 L472.821133,147.995555 L472.821133,147.995555 L473.509713,149.51209 L473.509713,149.51209 L474.301884,151.289055 L474.301884,151.289055 L474.940749,152.75272 L474.940749,152.75272 L475.790469,154.738525 L475.790469,154.738525 L476.442732,156.29872 L476.442732,156.29872 L477.2782,158.340617 L477.2782,158.340617 C477.686446,159.352987 478.088614,160.368832 478.484159,161.387982 L478.780554,162.154521 L478.780554,162.154521 L479.342864,163.6332 L479.342864,163.6332 L480.122325,165.730366 L480.122325,165.730366 L480.641935,167.163523 L480.641935,167.163523 L481.291346,168.993628 L481.291346,168.993628 L481.844412,170.591293 L481.844412,170.591293 L482.585281,172.788351 L482.585281,172.788351 L483.087812,174.320467 L483.087812,174.320467 L483.695035,176.217924 L483.695035,176.217924 L484.298667,178.160396 L484.298667,178.160396 L484.898398,180.148525 L484.898398,180.148525 C485.396679,181.827065 485.877546,183.513115 486.340724,185.206478 L486.971067,187.556699 L486.971067,187.556699 L487.394729,189.19227 L487.394729,189.19227 L487.94638,191.394858 L487.94638,191.394858 L488.342174,193.032057 L488.342174,193.032057 L488.842174,195.174344 L488.842174,195.174344 C489.245254,196.937799 489.629323,198.708391 489.994143,200.485976 L490.421522,202.61632 L490.421522,202.61632 L490.74383,204.292342 L490.74383,204.292342 L491.120519,206.336162 L491.120519,206.336162 L491.474752,208.353984 L491.474752,208.353984 L491.848598,210.599873 L491.848598,210.599873 L492.123984,212.343398 L492.123984,212.343398 L492.408962,214.239993 L492.408962,214.239993 C492.676238,216.067689 492.92334,217.90191 493.150031,219.742444 L493.40662,221.904697 L493.40662,221.904697 L493.44296,222.224851 C493.570146,223.352092 493.689647,224.481201 493.801452,225.612573 L493.865573,226.270402 L493.865573,226.270402 L494.029945,228.048383 L494.029945,228.048383 L494.197764,230.028925 L494.197764,230.028925 C494.346397,231.871343 494.474649,233.719543 494.582291,235.57328 L494.700031,237.769363 L494.700031,237.769363 L494.716551,238.110152 C494.770579,239.240861 494.816941,240.373498 494.855588,241.508093 L494.879787,242.251177 L494.879787,242.251177 C494.915429,243.398353 494.943187,244.547634 494.963005,245.698849 L494.971792,246.243911 L494.971792,246.243911 C494.990574,247.49352 495,248.745659 495,250 C495,251.270606 494.990328,252.538953 494.971053,253.804972 L495,250 C495,251.404057 494.988189,252.805355 494.964662,254.203801 L494.927319,256.026941 L494.927319,256.026941 L494.866497,258.165332 L494.866497,258.165332 L494.798089,260.038415 L494.798089,260.038415 L494.696173,262.308864 L494.696173,262.308864 L494.599636,264.124847 L494.599636,264.124847 L494.475479,266.16093 L494.475479,266.16093 L494.34075,268.110939 L494.34075,268.110939 L494.184493,270.134903 L494.184493,270.134903 L494.026414,271.991395 L494.026414,271.991395 L493.818707,274.212237 L493.818707,274.212237 C493.630815,276.127573 493.420857,278.036512 493.189097,279.938741 L492.933597,281.965471 L492.933597,281.965471 C492.685264,283.871306 492.415071,285.769986 492.123243,287.661524 C490.983544,295.047977 489.514786,302.322106 487.731928,309.471941 L488.132715,307.810074 C487.894162,308.806964 487.648682,309.801173 487.396611,310.792767 L486.883602,312.775172 L486.883602,312.775172 C486.576254,313.938033 486.26049,315.097794 485.936453,316.254097 C457.038766,419.375427 362.350916,495 250,495 C188.824539,495 132.885895,472.578524 89.9534946,435.505 L91.1421359,436.518932 L89.7059801,435.285854 L89.7059801,435.285854 L88.2795269,434.041858 C87.9744665,433.777984 87.6717925,433.510488 87.3697861,433.242258 L86.3581184,432.335714 L86.3581184,432.335714 L85.3504609,431.425668 C85.1033213,431.204358 84.8578471,430.980543 84.6128305,430.756236 L83.4912521,429.720989 L83.4912521,429.720989 L82.0937759,428.417352 L82.0937759,428.417352 L80.6994975,427.093337 L80.6994975,427.093337 L79.2620329,425.708917 L79.2620329,425.708917 L78.1213384,424.592248 L78.1213384,424.592248 L76.5872668,423.069421 L76.5872668,423.069421 L75.3807274,421.851611 L75.3807274,421.851611 L74.077639,420.518075 L74.077639,420.518075 L72.8139737,419.204718 L72.8139737,419.204718 L71.4036297,417.716144 L71.4036297,417.716144 L70.2322172,416.460409 L70.2322172,416.460409 L68.826489,414.930218 L68.826489,414.930218 L67.6923442,413.67647 L67.6923442,413.67647 L66.3349463,412.152937 L66.3349463,412.152937 L65.2055695,410.865718 L65.2055695,410.865718 L63.8208624,409.262511 L63.8208624,409.262511 C32.158449,372.283349 11.3218787,325.761821 6.22033784,274.606972 L6.22378287,274.60555 L6.20997103,274.502796 L6.09694111,273.33625 L6.09694111,273.33625 L6.22378287,274.60555 C6.12798813,273.6523 6.03780611,272.697417 5.95323847,271.740938 L5.77929503,269.684627 L5.77929503,269.684627 L5.64607638,267.924304 L5.64607638,267.924304 L5.50780997,265.90222 L5.50780997,265.90222 L5.39722544,264.068955 L5.39722544,264.068955 L5.27888872,261.794015 L5.27888872,261.794015 L5.22192784,260.52332 C5.07447169,257.033932 5,253.525663 5,250 C5,245.334484 5.13040944,240.699427 5.387782,236.098275 L5.4195934,235.639614 L5.4195934,235.639614 L5.44735688,235.179572 C5.48843565,234.382739 5.53964739,233.589067 5.59462934,232.796433 L5.73965688,230.894184 C5.78849374,230.187294 5.84588217,229.482884 5.906244,228.779323 L6.09963421,226.688014 C6.14699822,226.133445 6.20106434,225.580708 6.25696417,225.028513 L6.52072196,222.587673 C6.56740153,222.129359 6.61951571,221.672951 6.67288224,221.216925 L6.98949695,218.660111 C7.03291103,218.290438 7.08083307,217.921811 7.12957355,217.553441 L7.32917587,216.100941 L7.32917587,216.100941 L7.53462208,214.65051 C7.57729344,214.332655 7.62363828,214.016349 7.67058692,213.70024 L7.89528331,212.235242 L7.89528331,212.235242 L8.12643319,210.772045 C8.1824001,210.406866 8.24188606,210.0425 8.30217484,209.678405 L8.54059075,208.277109 L8.54059075,208.277109 L8.78500367,206.878064 C8.8417168,206.545267 8.90138502,206.213236 8.96172149,205.881439 L9.24856493,204.342257 L9.24856493,204.342257 L9.67339305,202.13453 L9.67339305,202.13453 L9.99986916,200.522419 L9.99986916,200.522419 L10.3975504,198.615468 L10.3975504,198.615468 L10.8140334,196.706536 L10.8140334,196.706536 L11.2851679,194.620276 L11.2851679,194.620276 L11.6772237,192.954711 L11.6772237,192.954711 L12.1922901,190.832808 L12.1922901,190.832808 L12.6058409,189.192945 L12.6058409,189.192945 L13.1418642,187.128555 L13.1418642,187.128555 L13.6005952,185.423333 L13.6005952,185.423333 L14.1213456,183.539999 L14.1213456,183.539999 L14.6172841,181.802843 L14.6172841,181.802843 L15.2362675,179.696592 L15.2362675,179.696592 L15.7379692,178.041582 L15.7379692,178.041582 L16.333217,176.128334 L16.333217,176.128334 C16.9020936,174.3279 17.4910946,172.536185 18.1000459,170.753661 L18.7665317,168.828555 L18.7665317,168.828555 L19.384252,167.090274 L19.384252,167.090274 L20.0625394,165.227401 L20.0625394,165.227401 L20.6943776,163.533814 L20.6943776,163.533814 L21.448244,161.561342 L21.448244,161.561342 C22.11963,159.827562 22.8101072,158.103406 23.5194678,156.389075 L24.2928302,154.541572 L24.2928302,154.541572 L25.0017618,152.884541 L25.0017618,152.884541 L25.8141299,151.026237 L25.8141299,151.026237 L26.5466547,149.385809 L26.5466547,149.385809 L27.4043701,147.505199 L27.4043701,147.505199 L28.1654821,145.870891 L28.1654821,145.870891 L28.9902252,144.134724 L28.9902252,144.134724 L29.5983292,142.876762 L29.5983292,142.876762 C47.2348052,106.658755 73.5337903,75.4383216 105.799873,51.9098462 L105.021322,52.4841544 L106.381968,51.4906808 L106.381968,51.4906808 L107.74968,50.5063598 C108.131779,50.2296546 108.516569,49.9564556 108.902181,49.6843418 L109.98072,48.9305254 L109.98072,48.9305254 L111.062256,48.180555 C111.327759,47.9941975 111.595415,47.8103669 111.863453,47.627055 L113.044391,46.8269955 L113.044391,46.8269955 L114.228945,46.0321772 C114.443001,45.8866258 114.658455,45.7434148 114.874148,45.6005361 L116.135076,44.7730437 L116.135076,44.7730437 L117.695241,43.7598333 L117.695241,43.7598333 L119.313813,42.7298624 L119.313813,42.7298624 L121.211186,41.541254 L121.211186,41.541254 L122.590922,40.6948961 L122.590922,40.6948961 L124.167421,39.7399412 L124.167421,39.7399412 L125.808251,38.7656461 L125.808251,38.7656461 L127.677412,37.6741096 L127.677412,37.6741096 L129.158377,36.8270422 L129.158377,36.8270422 L130.856183,35.8703604 L130.856183,35.8703604 L132.370259,35.0340227 L132.370259,35.0340227 L134.237763,34.0195786 L134.237763,34.0195786 L135.742837,33.2186763 L135.742837,33.2186763 L137.510957,32.2933223 L137.510957,32.2933223 L139.066986,31.4953309 L139.066986,31.4953309 L140.902235,30.570851 L140.902235,30.570851 L142.451584,29.8063406 L142.451584,29.8063406 L144.378391,28.8734612 L144.378391,28.8734612 L145.944952,28.1310294 L145.944952,28.1310294 L147.799269,27.2689765 L147.799269,27.2689765 L149.40913,26.5364047 L149.40913,26.5364047 L151.26016,25.7108527 L151.26016,25.7108527 L152.90011,24.9952201 L152.90011,24.9952201 L154.774385,24.1943866 L154.774385,24.1943866 C156.451688,23.4862871 158.138693,22.7961613 159.835029,22.1243884 L161.68889,21.3989082 L161.68889,21.3989082 L163.483017,20.7135291 L163.483017,20.7135291 L165.445231,19.9823218 L165.445231,19.9823218 L167.139782,19.3663644 L167.139782,19.3663644 L168.991635,18.709352 L168.991635,18.709352 L170.740226,18.1044342 L170.740226,18.1044342 L172.6388,17.4643946 L172.6388,17.4643946 L174.359499,16.8993435 L174.359499,16.8993435 L176.380151,16.2538325 L176.380151,16.2538325 L178.093487,15.7216764 L178.093487,15.7216764 L180.052807,15.1300443 L180.052807,15.1300443 C182.516478,14.3974274 184.996395,13.7025144 187.491876,13.0459779 C207.449563,7.79566777 228.3983,5 250,5 Z M250,35 C230.392856,35 211.398724,37.6246174 193.349771,42.541686 C193.744204,45.3246572 194.353602,48.3506185 194.974453,51.6119154 C196.576098,60.2330151 191.570639,62.3390809 187.052503,67.2462163 L186.841099,67.4783253 C182.353732,72.5457721 162.05354,86.4533702 154.338624,91.0406113 L154.05527,91.2082284 C146.693895,95.5119289 146.569126,101.836691 143.796034,110.394442 L143.297574,111.904076 C140.622031,120.136897 139.914911,125.786429 136.498444,128.43434 C132.965532,131.096225 134.186104,123.927735 129.226932,123.061625 L128.982103,123.024702 C124.147347,122.375115 118.460272,109.716428 113.531983,98.6755361 L112.462981,96.2832488 C111.031679,93.1403193 110.062013,90.124077 109.442251,87.3099047 C96.6414027,98.3731469 85.1630773,110.924224 75.2717727,124.692192 C77.9077959,126.690257 81.4934175,121.491393 83.4042442,117.272686 L83.501573,117.055393 C85.7411345,112.026101 88.9646157,118.250937 91.8481859,125.631202 L93.0399249,128.667763 C95.1451121,133.980099 96.3734442,136.464238 101.682337,143.19312 C107.733268,150.862517 111.890991,167.722361 115.112929,173.757749 L115.275954,174.055207 C118.492551,179.813894 115.919274,181.211633 112.031387,180.177306 C108.236893,179.16051 96.9279786,184.681392 94.0745055,186.515386 L93.9345345,186.606908 C91.2773459,188.368059 84.2008332,191.359222 79.641657,194.769706 C75.1104512,198.18019 72.5371739,200.891805 67.6143824,202.904549 C62.7755022,204.973204 62.1321828,209.362106 58.2442964,216.853989 C54.4123508,224.317918 45.9373177,231.474344 44.6506791,236.841663 C43.3640404,242.236937 45.3219688,248.694494 41.7417568,249.728821 C39.0622523,250.496932 37.1385826,246.007987 35.1345294,242.398461 C35.0442122,244.920744 35,247.455209 35,250 C35,258.858942 35.5357979,267.592742 36.576756,276.170761 C37.8073834,277.457566 38.9390117,279.438876 40.3991773,282.687517 C43.6717148,289.788033 52.1187775,287.076419 58.2442964,282.687517 C64.4537265,278.27066 90.2983817,286.768916 94.2142385,288.809616 C98.0072985,290.800542 105.181433,292.126274 109.11345,296.914261 L109.68249,297.632476 C113.995147,302.934875 128.910048,316.356633 130.146986,317.242059 L130.184181,317.267591 C131.163145,317.96646 155.133783,321.712402 161.650887,326.828128 C168.112051,331.97181 158.741965,351.987438 156.140717,362.162982 C153.511499,372.31057 145.428052,378.740171 141.87581,381.451786 L141.690096,381.603976 C138.379714,384.448355 121.638594,404.68129 112.671472,415.434144 C149.918222,446.386821 197.78544,465 250,465 C365.055578,465 459.002731,374.624091 464.723988,260.989743 C462.123412,258.65669 461.473111,264.454384 456.395457,268.84489 C450.981742,273.58105 441.509327,290.382131 439.034528,296.103505 L438.923689,296.363491 C436.729372,301.750333 434.130715,301.843209 431.922455,299.216922 L431.806596,299.076199 C429.517962,296.391457 420.502976,268.565229 415.311684,264.482185 L412.473867,262.196312 C406.922498,257.759385 398.329692,251.343698 390.556326,250.59211 L390.108799,250.555088 C380.904645,249.841435 378.905947,245.948879 372.97691,243.557471 L371.807344,243.100094 C366.409915,240.95481 365.547848,239.851953 365.547848,243.423743 C365.547848,247.0791 370.831234,250.761466 375.940799,250.568826 L376.209534,250.555088 C381.428736,250.163563 386.257195,257.658467 385.950184,264.062694 C385.643172,270.55082 371.074062,275.249117 360.719388,279.332162 C350.468261,283.429749 341.530163,264.448508 338.833873,257.854458 L338.754083,257.658467 C336.214258,251.198307 331.022966,250.890681 331.022966,253.938981 C331.022966,256.959315 339.451837,269.851668 342.968519,276.64742 C346.463037,283.243297 358.450045,284.385721 365.940256,284.447216 L366.608435,284.449951 C374.03254,284.449951 371.464804,286.491473 369.511092,294.629596 C367.585291,302.767719 349.499499,323.154975 345.619985,327.545646 C341.740472,332.020216 343.973285,351.316796 343.359261,359.482885 C342.745238,367.621008 335.628144,367.621008 329.794918,373.409982 C323.989602,379.17099 323.319758,390.357413 318.7704,400.201466 C314.276863,410.073484 302.973243,412.758226 292.283647,414.436189 C281.835195,416.108 284.413939,405.747158 282.971407,397.304019 L281.658165,390.347737 C278.489812,373.74977 270.918411,335.216736 267.359864,328.608357 L265.768437,325.653854 C262.875355,320.233456 262.201868,318.170148 264.457206,312.304145 C267.024942,305.536358 253.125676,303.494836 230.155605,306.906695 C207.213444,310.318554 200.12426,276.339794 200.12426,263.783033 C200.12426,251.226273 219.186908,229.189019 222.089565,225.77716 L222.973885,224.75051 C225.008858,222.400441 225.96705,221.573831 231.29159,220.004912 L232.416329,219.68056 C239.561333,217.639037 262.224392,212.577181 272.188324,216.660225 C282.208075,220.715304 278.328561,226.476312 286.757433,230.559356 C295.102575,234.642401 303.196524,227.147497 310.64854,231.230542 C318.044736,235.341552 323.263938,233.244098 327.785386,227.818682 C332.26366,222.478039 328.898944,218.438146 327.195371,217.032777 L327.115542,216.967852 C325.552572,215.597515 313.941941,214.28311 310.006606,212.549215 C306.239983,210.896295 304.937935,206.882415 303.645993,211.94906 L303.587267,212.185656 C302.303399,217.639037 295.828239,214.28311 294.851383,212.549215 L294.716745,212.309804 C293.66875,210.486825 290.871393,206.470637 288.711145,207.459392 C286.450421,208.46617 283.212841,211.178878 279.361238,213.555993 C275.481724,215.933108 278.691394,208.801763 279.66825,205.753462 C280.645106,202.705162 265.09914,194.20348 258.65189,193.867888 C252.617183,193.579945 249.66351,199.46641 247.181639,205.243415 L246.678427,206.424648 C244.110691,212.549215 234.118849,215.20599 228.871737,217.97463 C223.736266,220.687338 219.52183,212.884807 218.237962,208.801763 C216.954094,204.718718 219.52183,201.306859 220.163764,195.573817 C220.805698,189.812809 230.518437,190.791621 236.323753,191.15518 C242.006852,191.483708 236.242073,180.716648 232.069185,175.514309 L231.802305,175.186561 C227.615779,170.124704 235.039885,171.523007 241.152213,169.789112 C247.292451,168.083182 256.363256,156.896759 259.265914,154.519644 C262.224392,152.142529 263.787362,149.765414 266.355098,148.758636 C269.006564,147.723892 277.379616,152.506087 285.138643,152.84168 C292.794217,153.172798 294.445031,143.947847 296.659187,137.818954 L296.749275,137.572212 C299.037909,131.475612 298.088963,128.399345 293.567515,127.056974 C289.018157,125.686638 288.432044,131.41968 284.496709,139.585769 C280.617196,147.723892 272.858168,141.655257 271.5743,139.949327 C270.290432,138.215432 269.341486,133.433236 268.33672,129.042565 C267.331954,124.679859 263.173338,125.686638 255.051478,117.884107 C247.146759,110.237628 262.535524,99.3681157 271.639068,88.671036 L272.188324,88.0163571 C281.259129,77.1655265 304.536213,53.0587842 309.978696,50.7096353 C315.477,48.3325204 316.788778,54.0935284 322.259172,59.8545364 C327.642928,65.4955234 328.664907,63.682512 333.290481,69.3279678 L333.590701,69.6985889 C338.419161,75.8231557 346.178189,77.1934925 346.178189,77.1934925 L346.461411,77.1092988 C348.82658,76.3416729 350.161826,74.3341865 354.040991,77.6362966 L354.272139,77.8367119 C356.848572,80.1757381 366.281191,77.1476432 373.775954,74.1857251 C338.779662,49.4983358 296.082965,35 250,35 Z M39.5729974,294.293441 L39.7182335,295.00713 C41.1830804,301.884567 42.9767804,308.640305 45.0820896,315.2571 L45.3783268,314.431074 C47.3423965,308.817659 48.0463005,303.850135 45.9093473,300.047441 C44.998151,298.405954 42.6708366,296.434376 39.9191029,294.530982 L39.5729974,294.293441 Z" id="Shape" fill="#000000" fill-rule="nonzero"></path>
    </g>
</svg>