<?xml version="1.0" encoding="UTF-8"?>
<svg width="500px" height="500px" viewBox="0 0 500 500" version="1.1" xmlns="http://www.w3.org/2000/svg" xmlns:xlink="http://www.w3.org/1999/xlink">
    <title>gps</title>
    <g id="gps" stroke="none" stroke-width="1" fill="none" fill-rule="evenodd">
        <path d="M250,10 C258.284271,10 265,16.7157288 265,25 L265.001927,60.5835702 C357.973837,67.8455464 432.155011,142.027027 439.416508,234.999071 L475,235 C483.284271,235 490,241.715729 490,250 C490,258.284271 483.284271,265 475,265 L439.41643,265.001927 C432.15448,357.973504 357.973504,432.15448 265.001927,439.41643 L265,475 C265,483.284271 258.284271,490 250,490 C241.715729,490 235,483.284271 235,475 L234.999071,439.416508 C142.027027,432.155011 67.8455464,357.973837 60.5835702,265.001927 L25,265 C16.7157288,265 10,258.284271 10,250 C10,241.715729 16.7157288,235 25,235 L60.5834922,234.999071 C67.8450151,142.026695 142.026695,67.8450151 234.999071,60.5834922 L235,25 C235,16.7157288 241.715729,10 250,10 Z M250,90 C161.63444,90 90,161.63444 90,250 C90,338.36556 161.63444,410 250,410 C338.36556,410 410,338.36556 410,250 C410,161.63444 338.36556,90 250,90 Z M250,175 C291.421356,175 325,208.578644 325,250 C325,291.421356 291.421356,325 250,325 C208.578644,325 175,291.421356 175,250 C175,208.578644 208.578644,175 250,175 Z" id="Shape" fill="#000000" fill-rule="nonzero"></path>
    </g>
</svg>