<?xml version="1.0" encoding="UTF-8"?>
<svg width="500px" height="500px" viewBox="0 0 500 500" version="1.1" xmlns="http://www.w3.org/2000/svg" xmlns:xlink="http://www.w3.org/1999/xlink">
    <title>handshake</title>
    <g id="handshake" stroke="none" stroke-width="1" fill="none" fill-rule="evenodd">
        <path d="M494.999046,112.352 L494.999046,130.6 L385.919863,203.417796 L281.554,162.339 L206.353,181.536 L173.648,241.848 L173.687153,241.890963 C179.159584,247.825571 187.97061,250.929058 200.712534,251.024593 L201.322266,251.026868 C215.618623,251.026868 223.77843,245.409686 227.509183,233.288208 L227.633263,232.877155 L228.805675,228.916505 L267.913734,217.832344 L268.832025,217.719836 L273.262,234.393 L274.03,236.77 L400.413,340.393 L439.337025,311.561722 L494.999046,302.647 L494.999046,317.869 L445.399,325.737 L411.347,350.96 L411.471627,352.381449 C412.477787,363.915942 410.81935,372.929371 405.97204,379.309813 C401.953051,384.599947 395.736793,387.536423 387.598023,388.465102 L387.13,388.515 L387.074144,388.956506 C386.077763,396.249925 383.026229,402.46546 377.894627,407.353071 L377.524546,407.699925 C370.669831,414.022018 360.830265,415.706021 348.394761,413.425731 L348.111,413.372 L347.973559,413.528277 C341.746631,420.481676 335.748885,425.568592 329.881553,428.770558 L329.378956,429.040396 C321.842217,433.020026 311.550888,433.610108 298.375082,431.289176 L298.137,431.246 L297.993202,431.281196 C290.474943,433.099563 283.625884,435.056614 277.448975,437.149028 L276.47926,437.480534 C266.901138,440.785037 257.848255,439.175878 250.346961,432.796502 L250.034,432.526 L227.048025,416.847836 L224.153056,421.140808 C216.532481,432.438776 201.178054,434.593205 190.006487,427.057888 C184.220584,423.155247 180.42424,417.238671 179.167261,410.871532 C169.409164,414.554341 157.912259,412.31422 150.033537,404.435498 C145.446855,399.848816 142.771157,394.035892 142.062645,388.053593 C133.320035,389.83283 123.830408,387.232369 117.033537,380.435498 C112.446855,375.848816 109.771157,370.035892 109.062645,364.053593 C100.320035,365.83283 90.830408,363.232369 84.0335366,356.435498 C73.7081414,346.110103 73.0671565,329.570408 82.7517623,318.873547 L83.0025707,318.600318 L63.872,305.551 L5,293.367 L5,278.015 L69.9184982,291.517909 L93.782025,307.794836 L94.9936917,306.58447 C105.530471,296.04769 122.541947,296.287345 133.209701,306.621769 L133.531011,306.938023 C138.117693,311.524705 140.793391,317.337629 141.501902,323.319928 C150.24462,321.54072 159.734178,324.14119 166.531011,330.938023 C171.117693,335.524705 173.793391,341.337629 174.501902,347.319928 C183.24462,345.54072 192.734178,348.14119 199.531011,354.938023 C204.529454,359.936466 207.258401,366.3912 207.645116,372.934407 C213.088746,372.604071 218.716256,374.049795 223.558061,377.315633 C232.243153,383.173801 236.445298,393.569838 234.304907,403.215979 L234.220194,403.583505 L259.303076,420.691935 L259.682686,421.034962 C263.231349,424.241645 266.823198,424.944304 271.587147,423.300716 C274.795936,422.193667 278.162603,421.125763 281.687495,420.096615 L283.112,419.685 L222.797504,366.548758 L239.320549,360.509775 L296.742,411.702 L302.495,416.77 L302.655978,416.79668 C311.772034,418.23094 318.301831,417.80475 322.143129,415.894797 L322.374951,415.776011 C325.816658,413.958683 329.619187,410.969118 333.728081,406.797134 L334.077,406.439 L250.827443,338.456322 L264.879875,329.42064 L348.967,398.239 L349.394334,398.333345 C358.307483,400.254802 364.098008,399.509213 367.186192,396.824724 L367.354981,396.673596 C370.388764,393.875543 372.077815,390.17472 372.386754,385.216037 L372.4,384.951 L336.556,354.586 L275.199337,303.038665 L292.342066,297.470008 L346.24,343.13 L382.721,373.778 L382.989353,373.772226 C388.813116,373.596303 392.333281,372.309397 393.918049,370.374997 L394.02796,370.235731 C395.845301,367.843593 396.849673,363.70022 396.747464,357.742931 L396.729,357.042 L261.544425,246.914679 L261.112,245.576 L260.601497,245.157684 L258.86,238.603 L258.086,236.208 L240.647,241.15 L240.506557,241.510472 C234.166964,257.441558 220.870625,265.843127 201.948121,266.023888 L201.322266,266.026868 C181.4691,266.026868 166.929445,259.746508 158.670734,246.896966 L158.403656,246.47563 L156.086046,242.768282 L186.429,186.81 L98.0627988,191.197164 L5,136.176 L5,118.599 L101.937,175.986 L194.798,171.377 L196.291555,168.624274 L282.539701,146.60728 L383.959,186.526 L494.999046,112.352 Z M215.170167,389.751197 C210.674768,386.719011 204.843008,387.470685 202.001797,391.399096 L201.847056,391.620606 L195.136741,401.569057 C192.357237,405.68984 193.815732,411.533987 198.39438,414.622324 C202.88978,417.654509 208.721539,416.902835 211.562751,412.974424 L211.717492,412.752915 L218.427807,402.804464 C221.20731,398.683681 219.748816,392.839534 215.170167,389.751197 Z M188.92441,365.544625 C184.122881,360.743097 176.540116,360.511239 171.833216,364.964503 L171.600293,365.191071 L160.286585,376.50478 C155.600293,381.191071 155.758585,388.947342 160.640138,393.828896 C165.441666,398.630424 173.024432,398.862282 177.731332,394.409017 L177.964254,394.182449 L189.277963,382.868741 C193.964254,378.182449 193.805963,370.426178 188.92441,365.544625 Z M155.92441,341.544625 C151.122881,336.743097 143.540116,336.511239 138.833216,340.964503 L138.600293,341.191071 L127.286585,352.50478 C122.600293,357.191071 122.758585,364.947342 127.640138,369.828896 C132.441666,374.630424 140.024432,374.862282 144.731332,370.409017 L144.964254,370.182449 L156.277963,358.868741 C160.964254,354.182449 160.805963,346.426178 155.92441,341.544625 Z M122.92441,317.544625 C118.122881,312.743097 110.540116,312.511239 105.833216,316.964503 L105.600293,317.191071 L94.2865849,328.50478 C89.6002934,333.191071 89.7585846,340.947342 94.6401383,345.828896 C99.4416665,350.630424 107.024432,350.862282 111.731332,346.409017 L111.964254,346.182449 L123.277963,334.868741 C127.964254,330.182449 127.805963,322.426178 122.92441,317.544625 Z" id="Shape" stroke="#000000" fill="#000000" fill-rule="nonzero"></path>
    </g>
</svg>