<?xml version="1.0" encoding="UTF-8"?>
<svg width="500px" height="500px" viewBox="0 0 500 500" version="1.1" xmlns="http://www.w3.org/2000/svg" xmlns:xlink="http://www.w3.org/1999/xlink">
    <title>hd-filled</title>
    <g id="hd-filled" stroke="none" stroke-width="1" fill="none" fill-rule="evenodd">
        <path d="M395,5 C450.228475,5 495,49.771525 495,105 L495,395 C495,450.228475 450.228475,495 395,495 L105,495 C49.771525,495 5,450.228475 5,395 L5,105 C5,49.771525 49.771525,5 105,5 L395,5 Z M375.410522,154.170832 C351.022539,154.550679 326.54907,154.218421 302.128857,154.329765 C288.457817,218.455864 274.792135,282.583372 261.154513,346.716654 C314.888242,346.372933 375.781819,351.152878 423.758931,330.585093 C475.277389,299.890165 491.797916,231.195305 455.489079,182.301752 C436.825099,160.909604 404.282113,152.675541 375.410522,154.170832 Z M139.747359,154.329765 L69.4496669,154.329765 L68.574372,158.144126 C54.0209302,220.889911 39.5065009,283.643652 25,346.398806 L95.3971336,346.398806 C101.333686,320.813726 107.357279,297.700871 113.217639,272.100737 L169.565252,272.100737 L158.092094,321.630736 C156.181206,329.885992 154.273126,338.141803 152.371087,346.398806 L222.768224,346.398806 C237.601213,282.385574 252.411359,218.367832 267.118443,154.329765 L196.920195,154.329765 C191.781283,176.430559 186.556222,198.514271 181.363217,220.604304 L125.016485,220.604304 C129.940667,199.333832 134.848387,175.60519 139.747359,154.329765 Z M408.841132,227.358905 C412.889015,254.521484 401.577347,288.621927 369.240276,296.891558 C358.959998,298.665796 347.725328,298.441618 336.871861,298.321939 L357.108199,203.042347 L357.108199,203.042347 C364.285382,203.052819 371.460596,203.235343 378.540195,202.56555 C394.840887,201.233223 410.101124,213.145714 408.841132,227.358905 Z" id="Shape" fill="#000000"></path>
    </g>
</svg>