<?xml version="1.0" encoding="UTF-8"?>
<svg width="500px" height="500px" viewBox="0 0 500 500" version="1.1" xmlns="http://www.w3.org/2000/svg" xmlns:xlink="http://www.w3.org/1999/xlink">
    <title>hd-outline</title>
    <g id="hd-outline" stroke="none" stroke-width="1" fill="none" fill-rule="evenodd">
        <path d="M387.167243,135.14518 C423.954403,133.508598 459.693136,145.081761 480.659187,168.529069 L481.548618,169.539663 L481.783163,169.855502 C523.96416,226.656517 506.563833,307.368799 446.165983,344.752817 L444.322601,345.872335 L443.753367,346.211487 L443.144361,346.472568 C412.470426,359.622482 377.679414,364.469635 328.329058,365.053452 L321.99905,365.10803 C315.771799,365.143083 309.53106,365.120828 300.070883,365.043444 L281.075472,364.877916 C274.791288,364.830657 270.362705,364.815459 265.937059,364.828977 L262.209991,364.846818 L249.77912,364.926335 L298.661856,135.395908 L313.56361,135.336746 C317.88198,135.328537 322.491725,135.331107 328.799943,135.342933 L356.988084,135.390063 C367.621248,135.388459 375.13313,135.344682 383.135288,135.235113 L386.239,135.189 L387.167243,135.14518 Z M45.4356908,135.359077 L142.511453,135.359077 L138.798926,151.500582 C138.160508,154.300965 137.533494,157.084687 136.832964,160.231433 L127.487215,202.810033 L126.437,207.524 L167.341,207.524 L181.919157,145.427155 L184.260433,135.359077 L281.197032,135.359077 L263.292101,213.185481 C256.739924,241.600623 249.779649,271.719352 241.94826,305.554344 L228.295401,364.500922 L131.127528,364.500922 L149.836,283.598 L109.011,283.598 L107.038106,291.953058 C106.502888,294.197116 105.940164,296.540389 105.335026,299.046155 L101.283086,315.690658 L97.3906537,331.618441 C95.3633804,339.953628 93.7129496,346.842344 92.1439453,353.550154 L91.3958668,356.761192 L89.6000033,364.500922 L-7.57530173,364.500922 L36.8609597,172.462495 L42.7009177,147.276153 L45.4356908,135.359077 Z M465.718764,181.825258 C449.220218,163.40869 419.29179,153.730128 388.02327,155.126913 L386.89471,155.181987 L378.954458,155.288024 C370.059726,155.384531 360.973178,155.404691 346.74088,155.381227 L318.552614,155.331996 L314.86,155.334 L274.498,344.837 L281.426166,344.879976 L306.259668,345.088469 C313.382575,345.133777 318.573585,345.136055 324.020567,345.094059 L326.628473,345.070849 C373.395184,344.601632 405.951476,340.268146 433.578602,328.801503 L434.628,328.36 L435.630944,327.752389 C485.246066,297.046526 500.198975,231.684956 467.771077,184.636603 L466.773898,183.216555 L465.953,182.09 L465.718764,181.825258 Z M117.427,155.359 L61.356,155.359 L20.8119371,330.501582 L17.575,344.5 L73.726,344.5 L75.0994499,338.728714 C75.6820373,336.29347 76.2901087,333.768129 76.9349397,331.104369 L85.4894007,296.024193 C87.3883307,288.178357 88.8595297,281.984679 90.3280651,275.639483 L91.3113587,271.367111 L93.089724,263.59858 L174.992016,263.59858 L156.262,344.5 L212.399,344.5 L239.553221,227.115061 C245.011304,203.467403 250.137561,181.216099 255.177185,159.295321 L256.081,155.359 L200.14,155.359 L183.18394,227.524687 L101.327336,227.524687 L105.232219,210.627198 C106.549019,204.863133 107.875792,198.9057 109.731018,190.45102 L116.958978,157.468558 L117.427,155.359 Z M433.006,224.5 L433.078328,225.035806 C435.234044,241.643361 432.686977,259.280577 425.585369,274.132228 L425.232438,274.860374 C416.605887,292.41983 402.131393,305.019291 382.951024,310.115947 L382.317,310.281247 L381.931869,310.379738 L381.540134,310.447346 C374.018151,311.745539 366.165525,312.217645 355.70347,312.236233 L352.768974,312.231112 L344.483543,312.149948 L332.275544,312.015334 L358.532267,188.389843 L368.639497,188.407901 L372.866329,188.428176 C380.004824,188.4516 383.803399,188.369607 387.811756,188.035039 L389.151362,187.915724 C412.14203,186.036596 433.560681,202.684331 433.032643,223.804354 L433.006,224.5 Z M391.148264,207.822042 L390.793,207.848 L389.653411,207.951096 C385.366118,208.317392 381.517569,208.431278 375.119415,208.432117 L374.721,208.431 L356.923,292.231 L357.201511,292.229793 C365.304461,292.175459 371.471999,291.800139 377.032026,290.921595 L377.739,290.805 L377.951138,290.750252 C391.06292,287.225074 400.849686,278.79366 407.008361,266.59052 L407.281697,266.041593 C412.944418,254.515053 414.998248,240.306429 413.172978,227.074418 L413.069569,226.353662 L412.894565,225.179329 L412.999407,223.996665 C413.740276,215.639389 403.472981,207.189472 391.51125,207.800736 L391.148264,207.822042 Z" id="Shape" fill="#000000" fill-rule="nonzero"></path>
    </g>
</svg>