<?xml version="1.0" encoding="UTF-8"?>
<svg width="500px" height="500px" viewBox="0 0 500 500" version="1.1" xmlns="http://www.w3.org/2000/svg" xmlns:xlink="http://www.w3.org/1999/xlink">
    <title>heading5</title>
    <g id="heading5" stroke="none" stroke-width="1" fill="none" fill-rule="evenodd">
        <path d="M152.216797,72 L152.216797,114.96875 L114.130859,122.292969 L114.130859,224.832031 L259.150391,224.832031 L259.150391,122.292969 L221.064453,114.96875 L221.064453,72 L368.28125,72 L368.28125,114.96875 L330.195312,122.292969 L330.195312,377.419922 L368.28125,384.744141 L368.28125,427.46875 L221.064453,427.46875 L221.064453,384.744141 L259.150391,377.419922 L259.150391,279.763672 L114.130859,279.763672 L114.130859,377.419922 L152.216797,384.744141 L152.216797,427.46875 L5,427.46875 L5,384.744141 L42.8417969,377.419922 L42.8417969,122.292969 L5,114.96875 L5,72 L152.216797,72 Z M477.128906,159.265625 L477.128906,199.792969 L455.15625,199.792969 L451.982422,187.830078 L404.130859,187.830078 L399.125977,228.845703 L399.658217,228.463768 C402.884119,226.193464 406.694336,224.306615 411.088867,222.803223 C415.727539,221.216309 420.854492,220.382161 426.469727,220.300781 C443.55957,220.056641 456.783854,225.224284 466.142578,235.803711 C475.501302,246.383138 480.180664,261.112956 480.180664,279.993164 C480.180664,297.083008 475.033366,311.283854 464.73877,322.595703 C454.444173,333.907552 439.61263,339.563477 420.244141,339.563477 C403.968099,339.563477 390.011393,335.10791 378.374023,326.196777 C366.887788,317.401374 361.268285,305.335663 361.515514,289.999646 L361.52832,289.392578 L361.772461,288.782227 L395.952148,287.073242 L395.955616,287.608782 C396.05503,295.246436 398.291829,301.232474 402.666016,305.566895 C407.141927,310.002116 413.001302,312.219727 420.244141,312.219727 C428.544922,312.219727 434.689128,309.249349 438.676758,303.308594 C442.664388,297.367839 444.658203,289.677409 444.658203,280.237305 C444.658203,269.983398 442.542318,261.763997 438.310547,255.579102 C434.078776,249.394206 427.77181,246.301758 419.389648,246.301758 C412.635091,246.301758 407.447103,247.563151 403.825684,250.085938 C400.333601,252.518624 397.806325,255.783694 396.243856,259.881146 L396.074219,260.339844 L364.580078,258.264648 L374.833984,159.265625 L477.128906,159.265625 Z" id="Shape" fill="#000000" fill-rule="nonzero"></path>
    </g>
</svg>