<?xml version="1.0" encoding="UTF-8"?>
<svg width="500px" height="500px" viewBox="0 0 500 500" version="1.1" xmlns="http://www.w3.org/2000/svg" xmlns:xlink="http://www.w3.org/1999/xlink">
    <title>headphones</title>
    <g id="headphones" stroke="none" stroke-width="1" fill="none" fill-rule="evenodd">
        <path d="M50,210.009625 C50,99.5473595 139.549882,10 250,10 C360.45695,10 450,99.5496048 450,210.009625 L450,309.990375 L50,309.990375 L50,210.009625 Z M80,230.009625 L80,309.990375 L420,309.990375 L420,230.009625 C420,125.071552 354.933202,40 250,40 C145.070425,40 80,125.072512 80,230.009625 Z M275,439 L217.497355,439 C205.196658,439 195.201683,448.870451 195.003014,461.127841 L195,461.5 C195,473.926407 205.071278,484 217.497355,484 L275,484 L275,439 Z M275,484 L275,309 L450,309 C450,405.649831 371.649831,484 275,484 Z M428.721583,329 L430,309 L275,309 L275,462.720001 L295,462.721583 C364.609478,453.75413 419.75413,398.609478 428.721583,329 Z M10,229.99615 C10,218.952581 18.9518764,210 30,210 L50,210 L50,310 L30,310 C18.954305,310 10,301.037662 10,290.00385 L10,229.99615 Z M490,229.99615 C490,218.952581 481.048124,210 470,210 L450,210 L450,310 L470,310 C481.045695,310 490,301.037662 490,290.00385 L490,229.99615 Z" id="Shape" fill="#000000" fill-rule="nonzero"></path>
    </g>
</svg>