<?xml version="1.0" encoding="UTF-8"?>
<svg width="500px" height="500px" viewBox="0 0 500 500" version="1.1" xmlns="http://www.w3.org/2000/svg" xmlns:xlink="http://www.w3.org/1999/xlink">
    <title>heading2</title>
    <g id="heading2" stroke="none" stroke-width="1" fill="none" fill-rule="evenodd">
        <path d="M93.3300781,188.71875 L93.3300781,214.5 L70.4785156,218.894531 L70.4785156,280.417969 L157.490234,280.417969 L157.490234,218.894531 L134.638672,214.5 L134.638672,188.71875 L222.96875,188.71875 L222.96875,214.5 L200.117188,218.894531 L200.117188,371.970703 L222.96875,376.365234 L222.96875,402 L134.638672,402 L134.638672,376.365234 L157.490234,371.970703 L157.490234,313.376953 L70.4785156,313.376953 L70.4785156,371.970703 L93.3300781,376.365234 L93.3300781,402 L5,402 L5,376.365234 L27.7050781,371.970703 L27.7050781,218.894531 L5,214.5 L5,188.71875 L93.3300781,188.71875 Z M367.234809,39.4042969 C403.855903,39.4042969 432.664497,48.9257812 453.66059,67.96875 C474.656684,87.0117188 485.154731,112.402344 485.154731,144.140625 C485.154731,165.625 479.254666,185.481771 467.454536,203.710938 L467.087105,204.276491 L467.087105,204.276491 L466.337376,205.418183 C466.210769,205.609642 466.083337,205.801688 465.955078,205.994323 L465.175613,207.157189 L465.175613,207.157189 L464.376324,208.334171 L464.376324,208.334171 L463.557212,209.525268 L463.557212,209.525268 L462.718275,210.73048 L462.718275,210.73048 L461.859514,211.949808 L461.859514,211.949808 L460.98093,213.183251 C460.832847,213.390001 460.683938,213.59734 460.534204,213.805266 L459.164289,215.692484 L459.164289,215.692484 L458.226233,216.968274 L458.226233,216.968274 L457.268352,218.25818 L457.268352,218.25818 L456.290648,219.5622 L456.290648,219.5622 L455.29312,220.880336 L455.29312,220.880336 L453.759658,222.884007 L453.759658,222.884007 L452.71257,224.237432 L452.71257,224.237432 L451.104768,226.294036 L451.104768,226.294036 L450.00812,227.68275 L450.00812,227.68275 L448.891649,229.085579 L448.891649,229.085579 L447.755353,230.502523 L447.755353,230.502523 L446.599233,231.933583 L446.599233,231.933583 L445.42329,233.378759 L445.42329,233.378759 L444.227522,234.83805 L444.227522,234.83805 L442.396701,237.053453 L442.396701,237.053453 L441.151374,238.548032 L441.151374,238.548032 L439.246213,240.816368 L439.246213,240.816368 L437.951326,242.346237 L437.951326,242.346237 L436.636614,243.890221 L436.636614,243.890221 L435.302079,245.44832 L435.302079,245.44832 L433.263107,247.811935 L433.263107,247.811935 L431.879012,249.405323 L431.879012,249.405323 L430.475093,251.012827 L430.475093,251.012827 L428.332045,253.450549 L428.332045,253.450549 L426.144393,255.92003 L426.144393,255.92003 L423.912137,258.421271 L423.912137,258.421271 L421.635277,260.954273 L421.635277,260.954273 L419.313813,263.519033 L419.313813,263.519033 L417.741391,265.246518 L417.741391,265.246518 L416.149145,266.988119 L416.149145,266.988119 L414.537075,268.743835 L414.537075,268.743835 L412.90518,270.513666 L412.90518,270.513666 L410.420169,273.19488 L410.420169,273.19488 L408.738715,275 L345.506293,344.091797 L345.994575,345.3125 L438.279731,345.3125 L441.209418,310.15625 L495.408637,310.15625 L495.408637,400 L252.732856,400 L252.732856,353.369141 L367.72309,230.078125 L369.230326,228.342141 L369.230326,228.342141 L370.699333,226.636037 L370.699333,226.636037 L372.141898,224.94629 L372.141898,224.94629 L373.558021,223.272902 C373.791838,222.995367 374.024553,222.718514 374.256167,222.442342 L375.632628,220.79349 L375.632628,220.79349 L376.982647,219.160997 L376.982647,219.160997 L378.306225,217.544861 L378.306225,217.544861 L379.603361,215.945083 C379.817347,215.679817 380.030231,215.415232 380.242013,215.151329 L381.499487,213.576088 L381.499487,213.576088 L382.730518,212.017205 L382.730518,212.017205 L383.935109,210.474681 L383.935109,210.474681 L385.113257,208.948514 C385.307412,208.695516 385.500465,208.443199 385.692416,208.191565 L386.830902,206.689935 C387.018446,206.441026 387.204889,206.192799 387.390229,205.945254 L388.489053,204.468161 L388.489053,204.468161 L389.561435,203.007426 L389.561435,203.007426 L390.607375,201.563049 L390.607375,201.563049 L391.626874,200.13503 C391.794587,199.89839 391.961198,199.662432 392.126707,199.427155 L393.106543,198.023673 C393.267646,197.791123 393.427647,197.559254 393.586546,197.328066 L394.52672,195.949121 L394.52672,195.949121 L395.440452,194.586534 C396.190878,193.457861 396.91376,192.346227 397.609099,191.251633 L398.430286,189.946298 L398.430286,189.946298 L399.22503,188.657322 L399.22503,188.657322 L399.993333,187.384704 C400.622568,186.331004 401.22426,185.294345 401.798408,184.274724 L402.474165,183.059359 C402.695011,182.656963 402.911449,182.257294 403.123481,181.860352 C410.122179,168.758138 413.621528,156.591797 413.621528,145.361328 C413.621528,130.38737 409.593207,118.139648 401.536567,108.618164 C393.479926,99.0966797 382.046007,94.3359375 367.234809,94.3359375 C350.796007,94.3359375 338.304145,99.9104818 329.759223,111.05957 C321.345762,122.037134 317.074312,136.604442 316.944874,154.761493 L316.94184,155.615234 L247.605903,155.615234 L247.117622,154.150391 L247.096613,153.189954 C246.515729,121.544275 257.061469,94.7241211 278.733832,72.7294922 C300.625109,50.5126953 330.125434,39.4042969 367.234809,39.4042969 Z" id="Shape" fill="#000000" fill-rule="nonzero"></path>
    </g>
</svg>