<?xml version="1.0" encoding="UTF-8"?>
<svg width="500px" height="500px" viewBox="0 0 500 500" version="1.1" xmlns="http://www.w3.org/2000/svg" xmlns:xlink="http://www.w3.org/1999/xlink">
    <title>heading3</title>
    <g id="heading3" stroke="none" stroke-width="1" fill="none" fill-rule="evenodd">
        <path d="M368.094184,34.4042969 C404.878038,34.4042969 434.215603,43.1933594 456.106879,60.7714844 C477.998155,78.3496094 488.943793,103.414714 488.943793,135.966797 C488.943793,151.429036 484.060981,166.118164 474.295356,180.03418 C464.529731,193.950195 451.101997,204.814453 434.012153,212.626953 C453.706163,219.625651 468.720812,230.367839 479.056098,244.853516 C489.391385,259.339193 494.559028,276.184896 494.559028,295.390625 C494.559028,327.942708 482.718207,353.536784 459.036567,372.172852 C435.354926,390.808919 405.040799,400.126953 368.094184,400.126953 C335.053819,400.126953 306.692817,391.378581 283.011176,373.881836 C259.566352,356.560059 248.125519,332.179456 248.688679,300.740027 L248.709418,299.785156 L249.1977,298.320312 L318.289497,298.320312 L318.292964,298.949617 C318.440893,312.338424 323.322549,323.399815 332.937934,332.133789 C342.703559,341.004232 355.073351,345.439453 370.047309,345.439453 C386.486111,345.439453 399.466254,340.882161 408.987739,331.767578 C418.509223,322.652995 423.269965,310.283203 423.269965,294.658203 C423.269965,275.940755 418.590603,262.22819 409.231879,253.520508 C400.006851,244.937221 386.472418,240.584268 368.628578,240.46165 L367.850043,240.458984 L327.810981,240.458984 L327.810981,186.992188 L367.850043,186.992188 L368.562657,186.989548 C385.129285,186.866372 397.424299,182.43203 405.4477,173.686523 C413.58572,164.816081 417.654731,152.486979 417.654731,136.699219 C417.654731,122.376302 413.58572,110.901693 405.4477,102.275391 C397.309679,93.6490885 385.509549,89.3359375 370.047309,89.3359375 C356.700955,89.3359375 345.470486,93.2421875 336.355903,101.054688 C327.385995,108.74318 322.829852,118.796188 322.687472,131.213713 L322.684028,131.816406 L253.592231,131.816406 L253.10395,130.351562 L253.078144,129.518066 C252.341767,102.061035 263.011176,79.3896484 285.086372,61.5039062 C307.384549,43.4375 335.053819,34.4042969 368.094184,34.4042969 Z M93.3300781,186.71875 L93.3300781,212.5 L70.4785156,216.894531 L70.4785156,278.417969 L157.490234,278.417969 L157.490234,216.894531 L134.638672,212.5 L134.638672,186.71875 L222.96875,186.71875 L222.96875,212.5 L200.117188,216.894531 L200.117188,369.970703 L222.96875,374.365234 L222.96875,400 L134.638672,400 L134.638672,374.365234 L157.490234,369.970703 L157.490234,311.376953 L70.4785156,311.376953 L70.4785156,369.970703 L93.3300781,374.365234 L93.3300781,400 L5,400 L5,374.365234 L27.7050781,369.970703 L27.7050781,216.894531 L5,212.5 L5,186.71875 L93.3300781,186.71875 Z" id="Shape" fill="#000000" fill-rule="nonzero"></path>
    </g>
</svg>