<?xml version="1.0" encoding="UTF-8"?>
<svg width="500px" height="500px" viewBox="0 0 500 500" version="1.1" xmlns="http://www.w3.org/2000/svg" xmlns:xlink="http://www.w3.org/1999/xlink">
    <title>heading5</title>
    <g id="heading5" stroke="none" stroke-width="1" fill="none" fill-rule="evenodd">
        <path d="M489.234809,39.53125 L489.234809,120.585938 L445.289497,120.585938 L438.94184,96.6601562 L343.238715,96.6601562 L333.22895,178.691406 L333.923923,178.189336 C340.453693,173.531795 348.197296,169.670831 357.154731,166.606445 C366.432075,163.432617 376.685981,161.764323 387.91645,161.601562 C422.096137,161.113281 448.544705,171.448568 467.262153,192.607422 C485.979601,213.766276 495.338325,243.225911 495.338325,280.986328 C495.338325,315.166016 485.043728,343.567708 464.454536,366.191406 C443.865343,388.815104 414.202257,400.126953 375.465278,400.126953 C342.913194,400.126953 314.999783,391.21582 291.725043,373.393555 C268.683051,355.749512 257.445649,331.525208 258.012836,300.720642 L258.033637,299.785156 L258.521918,298.564453 L326.881293,295.146484 L326.884472,295.872694 C327.020073,311.312783 331.494925,323.399815 340.309028,332.133789 C349.260851,341.004232 360.979601,345.439453 375.465278,345.439453 C392.06684,345.439453 404.355252,339.498698 412.330512,327.617188 C420.305773,315.735677 424.293403,300.354818 424.293403,281.474609 C424.293403,260.966797 420.061632,244.527995 411.59809,232.158203 C403.134549,219.788411 390.520616,213.603516 373.756293,213.603516 C360.247179,213.603516 349.871202,216.126302 342.628364,221.171875 C335.553963,226.100109 330.45936,232.736403 327.344553,241.080757 L327.125434,241.679688 L264.137153,237.529297 L284.644965,39.53125 L489.234809,39.53125 Z M93.3300781,186.71875 L93.3300781,212.5 L70.4785156,216.894531 L70.4785156,278.417969 L157.490234,278.417969 L157.490234,216.894531 L134.638672,212.5 L134.638672,186.71875 L222.96875,186.71875 L222.96875,212.5 L200.117188,216.894531 L200.117188,369.970703 L222.96875,374.365234 L222.96875,400 L134.638672,400 L134.638672,374.365234 L157.490234,369.970703 L157.490234,311.376953 L70.4785156,311.376953 L70.4785156,369.970703 L93.3300781,374.365234 L93.3300781,400 L5,400 L5,374.365234 L27.7050781,369.970703 L27.7050781,216.894531 L5,212.5 L5,186.71875 L93.3300781,186.71875 Z" id="Shape" fill="#000000" fill-rule="nonzero"></path>
    </g>
</svg>