<?xml version="1.0" encoding="UTF-8"?>
<svg width="500px" height="500px" viewBox="0 0 500 500" version="1.1" xmlns="http://www.w3.org/2000/svg" xmlns:xlink="http://www.w3.org/1999/xlink">
    <title>heading4</title>
    <g id="heading4" stroke="none" stroke-width="1" fill="none" fill-rule="evenodd">
        <path d="M152.216797,72 L152.216797,114.96875 L114.130859,122.292969 L114.130859,224.832031 L259.150391,224.832031 L259.150391,122.292969 L221.064453,114.96875 L221.064453,72 L368.28125,72 L368.28125,114.96875 L330.195312,122.292969 L330.195312,377.419922 L368.28125,384.744141 L368.28125,427.46875 L221.064453,427.46875 L221.064453,384.744141 L259.150391,377.419922 L259.150391,279.763672 L114.130859,279.763672 L114.130859,377.419922 L152.216797,384.744141 L152.216797,427.46875 L5,427.46875 L5,384.744141 L42.8417969,377.419922 L42.8417969,122.292969 L5,114.96875 L5,72 L152.216797,72 Z M459.701172,161.265625 L459.701172,272.837891 L479.842773,272.837891 L479.842773,296.519531 L459.701172,296.519531 L459.701172,313.975586 L478.62207,317.637695 L478.62207,339 L405.135742,339 L405.135742,317.637695 L424.178711,313.975586 L424.178711,296.519531 L351.668945,296.519531 L349.959961,279.063477 L423.8125,161.265625 L459.701172,161.265625 Z M423.446289,208.506836 L420.516602,213.633789 L383.285156,272.837891 L424.178711,272.837891 L424.178711,208.750977 L423.446289,208.506836 Z" id="Shape" fill="#000000" fill-rule="nonzero"></path>
    </g>
</svg>