<?xml version="1.0" encoding="UTF-8"?>
<svg width="500px" height="500px" viewBox="0 0 500 500" version="1.1" xmlns="http://www.w3.org/2000/svg" xmlns:xlink="http://www.w3.org/1999/xlink">
    <title>heading3</title>
    <g id="heading3" stroke="none" stroke-width="1" fill="none" fill-rule="evenodd">
        <path d="M152.216797,72 L152.216797,114.96875 L114.130859,122.292969 L114.130859,224.832031 L259.150391,224.832031 L259.150391,122.292969 L221.064453,114.96875 L221.064453,72 L368.28125,72 L368.28125,114.96875 L330.195312,122.292969 L330.195312,377.419922 L368.28125,384.744141 L368.28125,427.46875 L221.064453,427.46875 L221.064453,384.744141 L259.150391,377.419922 L259.150391,279.763672 L114.130859,279.763672 L114.130859,377.419922 L152.216797,384.744141 L152.216797,427.46875 L5,427.46875 L5,384.744141 L42.8417969,377.419922 L42.8417969,122.292969 L5,114.96875 L5,72 L152.216797,72 Z M416.779297,158.702148 C435.171224,158.702148 449.840007,163.09668 460.785645,171.885742 C471.731283,180.674805 477.204102,193.207357 477.204102,209.483398 C477.204102,217.214518 474.762695,224.559082 469.879883,231.51709 C464.99707,238.475098 458.283203,243.907227 449.738281,247.813477 C459.585286,251.312826 467.092611,256.683919 472.260254,263.926758 C477.427897,271.169596 480.011719,279.592448 480.011719,289.195312 C480.011719,305.471354 474.091309,318.268392 462.250488,327.586426 C450.409668,336.90446 435.252604,341.563477 416.779297,341.563477 C400.259115,341.563477 386.078613,337.18929 374.237793,328.440918 C362.546856,319.803284 356.825727,307.655166 357.074406,291.996563 L357.086914,291.392578 L357.331055,290.660156 L391.876953,290.660156 L391.880914,291.135135 C391.991827,297.757565 394.431913,303.234818 399.201172,307.566895 C404.083984,312.002116 410.26888,314.219727 417.755859,314.219727 C425.97526,314.219727 432.465332,311.941081 437.226074,307.383789 C441.986816,302.826497 444.367187,296.641602 444.367187,288.829102 C444.367187,279.470378 442.027507,272.614095 437.348145,268.260254 C432.768343,263.999048 426.064294,261.823113 417.235997,261.732449 L416.657227,261.729492 L396.637695,261.729492 L396.637695,234.996094 L416.657227,234.996094 L417.194469,234.993082 C425.386424,234.900723 431.473619,232.684117 435.456055,228.343262 C439.525065,223.90804 441.55957,217.74349 441.55957,209.849609 C441.55957,202.688151 439.525065,196.950846 435.456055,192.637695 C431.387044,188.324544 425.486979,186.167969 417.755859,186.167969 C411.082682,186.167969 405.467448,188.121094 400.910156,192.027344 C396.464018,195.838319 394.186728,200.811178 394.078285,206.945919 L394.074219,207.408203 L359.52832,207.408203 L359.28418,206.675781 L359.267011,206.089234 C358.947205,192.437022 364.283331,181.157928 375.275391,172.251953 C386.424479,163.21875 400.259115,158.702148 416.779297,158.702148 Z" id="Shape" fill="#000000" fill-rule="nonzero"></path>
    </g>
</svg>