<?xml version="1.0" encoding="UTF-8"?>
<svg width="500px" height="500px" viewBox="0 0 500 500" version="1.1" xmlns="http://www.w3.org/2000/svg" xmlns:xlink="http://www.w3.org/1999/xlink">
    <title>heading1</title>
    <g id="heading1" stroke="none" stroke-width="1" fill="none" fill-rule="evenodd">
        <path d="M435.303168,44.53125 L435.303168,349.951172 L495.361762,357.275391 L495.361762,400 L304.199653,400 L304.199653,357.275391 L364.258247,349.951172 L364.258247,109.228516 L303.467231,109.228516 L303.467231,68.4570312 L435.303168,44.53125 Z M93.3300781,186.71875 L93.3300781,212.5 L70.4785156,216.894531 L70.4785156,278.417969 L157.490234,278.417969 L157.490234,216.894531 L134.638672,212.5 L134.638672,186.71875 L222.96875,186.71875 L222.96875,212.5 L200.117188,216.894531 L200.117188,369.970703 L222.96875,374.365234 L222.96875,400 L134.638672,400 L134.638672,374.365234 L157.490234,369.970703 L157.490234,311.376953 L70.4785156,311.376953 L70.4785156,369.970703 L93.3300781,374.365234 L93.3300781,400 L5,400 L5,374.365234 L27.7050781,369.970703 L27.7050781,216.894531 L5,212.5 L5,186.71875 L93.3300781,186.71875 Z" id="Shape" fill="#000000" fill-rule="nonzero"></path>
    </g>
</svg>