<?xml version="1.0" encoding="UTF-8"?>
<svg width="500px" height="500px" viewBox="0 0 500 500" version="1.1" xmlns="http://www.w3.org/2000/svg" xmlns:xlink="http://www.w3.org/1999/xlink">
    <title>heading1</title>
    <g id="heading1" stroke="none" stroke-width="1" fill="none" fill-rule="evenodd">
        <path d="M152.216797,72 L152.216797,114.96875 L114.130859,122.292969 L114.130859,224.832031 L259.150391,224.832031 L259.150391,122.292969 L221.064453,114.96875 L221.064453,72 L368.28125,72 L368.28125,114.96875 L330.195312,122.292969 L330.195312,377.419922 L368.28125,384.744141 L368.28125,427.46875 L221.064453,427.46875 L221.064453,384.744141 L259.150391,377.419922 L259.150391,279.763672 L114.130859,279.763672 L114.130859,377.419922 L152.216797,384.744141 L152.216797,427.46875 L5,427.46875 L5,384.744141 L42.8417969,377.419922 L42.8417969,122.292969 L5,114.96875 L5,72 L152.216797,72 Z M449.917969,161 L449.917969,313.709961 L479.947266,317.37207 L479.947266,338.734375 L384.366211,338.734375 L384.366211,317.37207 L414.395508,313.709961 L414.395508,193.348633 L384,193.348633 L384,172.962891 L449.917969,161 Z" id="Shape" fill="#000000" fill-rule="nonzero"></path>
    </g>
</svg>