<?xml version="1.0" encoding="UTF-8"?>
<svg width="500px" height="500px" viewBox="0 0 500 500" version="1.1" xmlns="http://www.w3.org/2000/svg" xmlns:xlink="http://www.w3.org/1999/xlink">
    <title>heading2</title>
    <g id="heading2" stroke="none" stroke-width="1" fill="none" fill-rule="evenodd">
        <path d="M152.216797,72 L152.216797,114.96875 L114.130859,122.292969 L114.130859,224.832031 L259.150391,224.832031 L259.150391,122.292969 L221.064453,114.96875 L221.064453,72 L368.28125,72 L368.28125,114.96875 L330.195312,122.292969 L330.195312,377.419922 L368.28125,384.744141 L368.28125,427.46875 L221.064453,427.46875 L221.064453,384.744141 L259.150391,377.419922 L259.150391,279.763672 L114.130859,279.763672 L114.130859,377.419922 L152.216797,384.744141 L152.216797,427.46875 L5,427.46875 L5,384.744141 L42.8417969,377.419922 L42.8417969,122.292969 L5,114.96875 L5,72 L152.216797,72 Z M416.070312,159.702148 C434.380859,159.702148 448.785156,164.462891 459.283203,173.984375 C469.78125,183.505859 475.030273,196.201172 475.030273,212.070312 C475.030273,222.8125 472.080241,232.740885 466.180176,241.855469 C460.280111,250.970052 450.494141,262.851562 436.822266,277.5 L436.822266,277.5 L405.206055,312.045898 L405.450195,312.65625 L451.592773,312.65625 L453.057617,295.078125 L480.157227,295.078125 L480.157227,340 L358.819336,340 L358.819336,316.68457 L416.314453,255.039062 L416.876695,254.392172 C424.882179,245.153059 430.59483,237.332394 434.014648,230.930176 C437.513997,224.379069 439.263672,218.295898 439.263672,212.680664 C439.263672,205.193685 437.249512,199.069824 433.221191,194.309082 C429.192871,189.54834 423.475911,187.167969 416.070312,187.167969 C407.850911,187.167969 401.60498,189.955241 397.33252,195.529785 C393.060059,201.104329 390.923828,208.530273 390.923828,217.807617 L390.923828,217.807617 L356.255859,217.807617 L356.011719,217.075195 L355.997755,216.389621 C355.75653,200.656078 361.030552,187.314453 371.819824,176.364746 C382.765462,165.256348 397.515625,159.702148 416.070312,159.702148 Z" id="Combined-Shape" fill="#000000" fill-rule="nonzero"></path>
    </g>
</svg>