<?xml version="1.0" encoding="UTF-8"?>
<svg width="500px" height="500px" viewBox="0 0 500 500" version="1.1" xmlns="http://www.w3.org/2000/svg" xmlns:xlink="http://www.w3.org/1999/xlink">
    <title>heading4</title>
    <g id="heading4" stroke="none" stroke-width="1" fill="none" fill-rule="evenodd">
        <path d="M454.810981,44.53125 L454.810981,267.675781 L495.094184,267.675781 L495.094184,315.039062 L454.810981,315.039062 L454.810981,349.951172 L492.652778,357.275391 L492.652778,400 L345.680122,400 L345.680122,357.275391 L383.766059,349.951172 L383.766059,315.039062 L238.746528,315.039062 L235.328559,280.126953 L383.033637,44.53125 L454.810981,44.53125 Z M93.3300781,186.71875 L93.3300781,212.5 L70.4785156,216.894531 L70.4785156,278.417969 L157.490234,278.417969 L157.490234,216.894531 L134.638672,212.5 L134.638672,186.71875 L222.96875,186.71875 L222.96875,212.5 L200.117188,216.894531 L200.117188,369.970703 L222.96875,374.365234 L222.96875,400 L134.638672,400 L134.638672,374.365234 L157.490234,369.970703 L157.490234,311.376953 L70.4785156,311.376953 L70.4785156,369.970703 L93.3300781,374.365234 L93.3300781,400 L5,400 L5,374.365234 L27.7050781,369.970703 L27.7050781,216.894531 L5,212.5 L5,186.71875 L93.3300781,186.71875 Z M382.301215,139.013672 L376.44184,149.267578 L301.97895,267.675781 L383.766059,267.675781 L383.766059,139.501953 L382.301215,139.013672 Z" id="Shape" fill="#000000" fill-rule="nonzero"></path>
    </g>
</svg>