<?xml version="1.0" encoding="UTF-8"?>
<svg width="500px" height="500px" viewBox="0 0 500 500" version="1.1" xmlns="http://www.w3.org/2000/svg" xmlns:xlink="http://www.w3.org/1999/xlink">
    <title>heading6</title>
    <g id="heading6" stroke="none" stroke-width="1" fill="none" fill-rule="evenodd">
        <path d="M390.775825,34.4042969 C404.122179,34.4042969 416.45128,35.6656901 427.763129,38.1884766 C438.622504,40.6103516 449.519379,44.1197266 460.453754,48.7166016 L461.820747,49.296875 L449.369575,101.298828 L448.143012,100.873242 C438.361762,97.5013672 429.330512,94.9169922 421.049262,93.1201172 C412.42296,91.2483724 402.494575,90.3125 391.264106,90.3125 C370.105252,90.3125 353.137478,98.0436198 340.360786,113.505859 C327.714467,128.810321 321.247058,151.29029 320.958558,180.945767 L320.951606,181.865234 L321.684028,183.085938 L322.231137,182.522749 C330.12094,174.490153 340.070406,168.167466 352.079536,163.554688 C364.367947,158.834635 378.080512,156.474609 393.217231,156.474609 C424.955512,156.474609 449.857856,167.745768 467.924262,190.288086 C485.990668,212.830404 495.023872,241.598307 495.023872,276.591797 C495.023872,312.399089 483.874783,341.940104 461.576606,365.214844 C439.278429,388.489583 410.469835,400.126953 375.150825,400.126953 C337.715929,400.126953 307.198351,387.390951 283.59809,361.918945 C260.233832,336.70166 248.434882,301.873206 248.20124,257.433582 L248.1977,256.083984 L248.1977,193.583984 L248.201691,192.078552 C248.465144,142.510071 261.769477,103.908691 288.114692,76.2744141 C314.72602,48.3610026 348.946398,34.4042969 390.775825,34.4042969 Z M93.3300781,186.71875 L93.3300781,212.5 L70.4785156,216.894531 L70.4785156,278.417969 L157.490234,278.417969 L157.490234,216.894531 L134.638672,212.5 L134.638672,186.71875 L222.96875,186.71875 L222.96875,212.5 L200.117188,216.894531 L200.117188,369.970703 L222.96875,374.365234 L222.96875,400 L134.638672,400 L134.638672,374.365234 L157.490234,369.970703 L157.490234,311.376953 L70.4785156,311.376953 L70.4785156,369.970703 L93.3300781,374.365234 L93.3300781,400 L5,400 L5,374.365234 L27.7050781,369.970703 L27.7050781,216.894531 L5,212.5 L5,186.71875 L93.3300781,186.71875 Z M374.418403,210.429688 C361.234809,210.429688 350.00434,212.545573 340.726997,216.777344 C331.670542,220.908358 324.630416,226.512843 319.606618,233.590799 L319.242622,234.111328 L319.242622,257.792969 L319.244592,258.750363 C319.358875,286.44166 324.444481,307.769664 334.501411,322.734375 C344.673937,337.871094 358.223741,345.439453 375.150825,345.439453 C389.799262,345.439453 401.558702,338.725586 410.429145,325.297852 C419.299588,311.870117 423.734809,295.634766 423.734809,276.591797 C423.734809,256.897786 419.258898,240.947266 410.307075,228.740234 C401.355252,216.533203 389.392361,210.429688 374.418403,210.429688 Z" id="Shape" fill="#000000" fill-rule="nonzero"></path>
    </g>
</svg>