<?xml version="1.0" encoding="UTF-8"?>
<svg width="500px" height="500px" viewBox="0 0 500 500" version="1.1" xmlns="http://www.w3.org/2000/svg" xmlns:xlink="http://www.w3.org/1999/xlink">
    <title>heading6</title>
    <g id="heading6" stroke="none" stroke-width="1" fill="none" fill-rule="evenodd">
        <path d="M152.216797,72 L152.216797,114.96875 L114.130859,122.292969 L114.130859,224.832031 L259.150391,224.832031 L259.150391,122.292969 L221.064453,114.96875 L221.064453,72 L368.28125,72 L368.28125,114.96875 L330.195312,122.292969 L330.195312,377.419922 L368.28125,384.744141 L368.28125,427.46875 L221.064453,427.46875 L221.064453,384.744141 L259.150391,377.419922 L259.150391,279.763672 L114.130859,279.763672 L114.130859,377.419922 L152.216797,384.744141 L152.216797,427.46875 L5,427.46875 L5,384.744141 L42.8417969,377.419922 L42.8417969,122.292969 L5,114.96875 L5,72 L152.216797,72 Z M427.573242,158.702148 C434.246419,158.702148 440.41097,159.332845 446.066895,160.594238 C451.369324,161.776794 456.689634,163.477911 462.027826,165.697588 L463.095703,166.148438 L456.870117,192.149414 L455.913582,191.818727 C451.154747,190.190329 446.75354,188.937439 442.709961,188.060059 C438.39681,187.124186 433.432617,186.65625 427.817383,186.65625 C417.237956,186.65625 408.754069,190.52181 402.365723,198.25293 C396.083849,205.855197 392.851218,216.998522 392.66783,231.682902 L392.661133,232.432617 L393.027344,233.042969 L393.458716,232.601709 C397.378201,228.661205 402.300328,225.553083 408.225098,223.277344 C414.369303,220.917318 421.225586,219.737305 428.793945,219.737305 C444.663086,219.737305 457.114258,225.372884 466.147461,236.644043 C475.180664,247.915202 479.697266,262.299154 479.697266,279.795898 C479.697266,297.699544 474.122721,312.470052 462.973633,324.107422 C451.824544,335.744792 437.420247,341.563477 419.760742,341.563477 C401.043294,341.563477 385.784505,335.195475 373.984375,322.459473 C362.32307,309.873305 356.423821,292.49867 356.28663,270.335567 L356.28418,269.541992 L356.28418,238.291992 L356.28659,237.465014 C356.431199,212.716478 363.083228,193.440542 376.242676,179.637207 C389.54834,165.680501 406.658529,158.702148 427.573242,158.702148 Z M419.394531,246.714844 C412.802734,246.714844 407.1875,247.772786 402.548828,249.888672 C398.081959,251.926191 394.596118,254.680615 392.091304,258.151945 L391.806641,258.555664 L391.806641,270.396484 L391.809073,271.14759 C391.898278,284.860778 394.440598,295.433977 399.436035,302.867188 C404.522298,310.435547 411.297201,314.219727 419.760742,314.219727 C427.084961,314.219727 432.964681,310.862793 437.399902,304.148926 C441.835124,297.435059 444.052734,289.317383 444.052734,279.795898 C444.052734,269.948893 441.814779,261.973633 437.338867,255.870117 C432.862956,249.766602 426.88151,246.714844 419.394531,246.714844 Z" id="Shape" fill="#000000" fill-rule="nonzero"></path>
    </g>
</svg>