<?xml version="1.0" encoding="UTF-8"?>
<svg width="500px" height="500px" viewBox="0 0 500 500" version="1.1" xmlns="http://www.w3.org/2000/svg" xmlns:xlink="http://www.w3.org/1999/xlink">
    <title>heart</title>
    <g id="heart" stroke="none" stroke-width="1" fill="none" fill-rule="evenodd">
        <path d="M227.754858,107.579105 C225.91315,105.457919 224.069761,103.30163 222.337172,101.228189 C222.079606,100.919951 221.825985,100.615313 221.576522,100.314489 C211.673618,89.7237969 200.347317,80.644478 187.543887,73.7852572 C171.605241,65.2463979 154.147492,60.5746457 135.040907,60.5710283 C102.265923,60.5771568 76.5548212,73.445596 58.8067382,96.6797949 C42.2750674,118.321576 33.2692308,148.444171 33.2692308,181.09646 C33.2692308,235.731494 74.3700685,296.416422 143.469554,356.979704 C168.23317,378.684147 194.827674,398.801831 221.425617,416.794198 C230.733972,423.090901 239.37003,428.667088 247.10676,433.458538 C248.126733,434.090219 249.102415,434.69043 250.032271,435.258741 C250.956757,434.698788 251.92652,434.10753 252.940049,433.485375 C260.674265,428.737727 269.307779,423.208106 278.613547,416.958769 C305.204433,399.101519 331.791924,379.098614 356.548505,357.473149 C388.132993,329.883343 414.351993,301.685002 433.379784,273.534719 C455.202998,241.248803 466.730769,210.224782 466.730769,181.09646 C466.730769,148.552344 457.776369,118.680312 441.309442,97.1154406 C423.702409,74.0575004 398.177812,61.0673856 365.710697,60.569602 C346.312021,60.2830405 328.645717,64.834412 312.55611,73.3902016 C299.749303,80.2003335 288.435698,89.2757577 278.655368,99.7801187 C277.917773,100.758642 277.093963,101.796352 276.187447,102.897163 C275.869128,103.283707 275.541691,103.676649 275.205782,104.075493 C273.941474,105.576682 272.606733,107.103882 271.274399,108.589986 C270.744334,109.181228 270.288653,109.683813 269.930512,110.075458 C267.606093,113.097167 265.619053,115.933938 263.972223,118.496432 C263.386308,119.408124 262.894968,120.205644 262.498471,120.875879 C262.155301,121.467017 250.102439,143.465379 250.102439,143.465379 L237.892041,121.552304 C237.148923,120.30604 236.651929,119.511536 236.059607,118.603288 C234.367162,116.008144 232.321083,113.129907 229.924864,110.061681 C228.996278,109.00477 228.398254,108.320135 227.754858,107.579105 Z M250.973649,87.3248818 C252.116042,86.0506407 253.256027,84.7462778 254.301464,83.5049685 C255.87302,81.6074487 256.54047,80.7578111 257.026693,80.0922121 L258.10525,78.7786495 C270.091435,65.770508 284.060644,54.4885522 300.077395,45.9715049 C320.06619,35.3422878 342.117193,29.6612857 366.104312,30.0156307 C406.798349,30.6395464 440.173646,47.6250818 463.111351,77.6639997 C483.976915,104.989269 495,141.762469 495,181.09646 C495,217.538163 481.27687,254.470426 456.205553,291.561683 C435.553356,322.115161 407.663281,352.110729 374.31688,381.239609 C348.571657,403.728677 321.050074,424.43434 293.531886,442.914324 C283.899477,449.383018 274.947543,455.116582 266.899945,460.056599 C264.07034,461.793552 261.551506,463.309666 259.37148,464.597555 C258.042475,465.382688 257.108694,465.924602 256.598199,466.215875 L249.966027,470 L243.34878,466.185468 C242.83926,465.891753 241.906462,465.345011 240.578449,464.552913 C238.399501,463.253271 235.881754,461.723768 233.053246,459.972039 C225.008163,454.989623 216.058771,449.21112 206.42895,442.69696 C178.917819,424.08686 151.403248,403.273181 125.665061,380.714561 C92.3288523,351.49654 64.4480616,321.483623 43.8023593,291.000474 C18.7280917,253.978598 5,217.23486 5,181.09646 C5,141.659806 16.0693477,104.635209 37.0080455,77.2241434 C60.1704271,46.9020301 93.8971008,30.0217868 135.040937,30.0140943 C158.633343,30.0185599 180.360673,35.8328662 200.097529,46.4065527 C215.928916,54.8879499 229.775632,66.0287594 241.693546,78.8303987 C242.3914,79.6344507 242.508449,79.7758988 242.62679,79.918605 C244.914504,82.6594613 246.640384,84.6782946 248.367945,86.6680124 C248.934231,87.3202312 249.462197,87.9249186 249.939466,88.4688904 C250.252681,88.1255005 250.600295,87.7413263 250.973649,87.3248818 Z" fill="#000000" fill-rule="nonzero"></path>
    </g>
</svg>