<?xml version="1.0" encoding="UTF-8"?>
<svg width="500px" height="500px" viewBox="0 0 500 500" version="1.1" xmlns="http://www.w3.org/2000/svg" xmlns:xlink="http://www.w3.org/1999/xlink">
    <title>hearts</title>
    <g id="hearts" stroke="none" stroke-width="1" fill="none" fill-rule="evenodd">
        <path d="M398.797771,289.481551 C422.61663,269.620952 442.538111,249.169428 457.28968,228.337511 C475.197764,203.048018 485,177.866929 485,153.020314 C485,126.201683 477.126368,101.129047 462.222393,82.4981816 C445.838318,62.0171012 421.998821,50.4360544 392.931651,50.0106573 C375.797995,49.7690584 360.047279,53.642469 345.769568,60.8896625 C340.860876,63.3812551 336.221426,66.2198946 332.043956,69.5635305 L309.956762,89.8651526 L290.71663,71.4800399 C285.635852,67.6292247 280.183923,64.1668964 274.355378,61.1862859 C260.257624,53.9769542 244.738102,50.0126545 227.886383,50.0096097 C198.497929,50.0148546 174.407448,61.5241114 157.86289,82.1982796 C146.184973,96.7910661 138.804874,115.379977 136.130615,135.627676 C143.636443,137.903066 150.94116,140.85903 158.014437,144.476174 C160.416327,145.704455 162.779005,147.002095 165.101657,148.367278 C165.924954,129.623848 171.716426,112.901014 181.286067,100.94274 C192.250145,87.2419688 207.819052,80.0131916 227.891737,80.0096093 C239.597201,80.0117261 250.472281,82.6680135 260.696319,87.8963983 C268.501994,91.8880767 275.697177,97.249472 282.213199,103.855553 C283.864391,105.742606 285.190202,107.227912 286.641554,108.823523 C287.066001,109.29016 287.478445,109.741252 287.869568,110.166775 L309.531701,133.734139 L331.646428,110.590943 C331.939849,110.283876 332.247491,109.959108 332.562806,109.623387 C333.61719,108.50077 334.63107,107.390773 335.732063,106.141359 C336.700871,105.024776 337.408272,104.19065 338.197026,103.212277 C338.305525,103.076448 338.411742,102.942086 338.843084,102.386065 L337.762461,103.717472 L338.532858,102.821861 L337.373688,104.093748 C337.49876,103.964181 337.624091,103.83509 338.028548,103.422097 C344.48263,96.8685226 351.6106,91.5682631 359.348118,87.6407928 C369.643183,82.415142 380.624644,79.8401006 392.508668,80.0076753 C412.416234,80.2990261 427.910129,87.6306278 438.795889,101.238483 C449.114576,114.137463 455,132.492862 455,153.020314 C455,170.531333 447.795002,189.833935 432.806523,211.000412 C421.094659,227.539708 405.068803,244.568953 384.995947,261.856335 C384.998648,262.244054 385,262.63205 385,263.020314 C385,277.442686 382.517096,291.829191 377.69233,306.164581 C384.860688,300.784284 391.918023,295.218011 398.797771,289.481551 Z M179.956762,199.865153 L202.043956,179.56353 C206.221426,176.219895 210.860876,173.381255 215.769568,170.889662 C230.047279,163.642469 245.797995,159.769058 262.931651,160.010657 C291.998821,160.436054 315.838318,172.017101 332.222393,192.498182 C347.126368,211.129047 355,236.201683 355,263.020314 C355,287.866929 345.197764,313.048018 327.28968,338.337511 C312.538111,359.169428 292.61663,379.620952 268.797771,399.481551 C250.408327,414.815007 230.750053,428.932504 211.094204,441.532493 C204.213912,445.942967 197.819673,449.852215 192.071389,453.220408 C190.050243,454.404695 188.251076,455.438408 186.693914,456.316515 C185.744625,456.851833 185.077639,457.221319 184.712999,457.419915 L179.975734,460 L175.249129,457.399183 C174.885186,457.198922 174.218901,456.826144 173.27032,456.286077 C171.713929,455.399957 169.915539,454.357114 167.895175,453.162754 C162.148688,449.765652 155.756265,445.825764 148.877822,441.384291 C129.227014,428.695587 109.573748,414.504442 91.1893293,399.123564 C67.3777516,379.202186 47.4629011,358.738834 32.7159709,337.954869 C14.8057798,312.71268 5,287.660132 5,263.020314 C5,236.131686 12.906677,210.887643 27.8628896,192.19828 C44.4074479,171.524111 68.4979291,160.014855 97.8863833,160.00961 C114.738102,160.012654 130.257624,163.976954 144.355378,171.186286 C150.183923,174.166896 155.635852,177.629225 160.71663,181.48004 L179.956762,199.865153 Z M130.696319,197.896398 C120.472281,192.668013 109.597201,190.011726 97.8917374,190.009609 C77.819052,190.013192 62.250145,197.241969 51.2860666,210.94274 C40.9312286,223.8822 35,242.400169 35,263.020314 C35,280.299018 42.1943651,299.470398 57.1828412,320.594792 C69.9370668,338.570288 87.8048383,357.177458 110.439533,376.114226 C127.120258,390.069749 145.588614,403.549831 165.151374,416.181682 C170.297271,419.504434 175.2931,422.620093 180.04575,425.479259 C184.78723,422.650628 189.770885,419.566742 194.904142,416.276169 C214.456443,403.742558 232.914502,390.341114 249.585646,376.440409 C272.205778,357.579329 290.060779,338.999736 302.806523,321.000412 C317.795002,299.833935 325,280.531333 325,263.020314 C325,242.492862 319.114576,224.137463 308.795889,211.238483 C297.910129,197.630628 282.416234,190.299026 262.508668,190.007675 C250.624644,189.840101 239.643183,192.415142 229.348118,197.640793 C221.6106,201.568263 214.48263,206.868523 208.028548,213.422097 C207.624091,213.83509 207.49876,213.964181 207.373688,214.093748 L185.789464,193.25817 L208.532858,212.821861 L207.762461,213.717472 L185.019067,194.153781 L208.843084,212.386065 C208.411742,212.942086 208.305525,213.076448 208.197026,213.212277 C207.408272,214.19065 206.700871,215.024776 205.732063,216.141359 C204.63107,217.390773 203.61719,218.50077 202.562806,219.623387 C202.247491,219.959108 201.939849,220.283876 201.646428,220.590943 L179.531701,243.734139 L157.869568,220.166775 C157.478445,219.741252 157.066001,219.29016 156.641554,218.823523 C155.190202,217.227912 153.864391,215.742606 152.213199,213.855553 C145.697177,207.249472 138.501994,201.888077 130.696319,197.896398 Z" id="Shape" fill="#000000" fill-rule="nonzero"></path>
    </g>
</svg>