<?xml version="1.0" encoding="UTF-8"?>
<svg width="500px" height="500px" viewBox="0 0 500 500" version="1.1" xmlns="http://www.w3.org/2000/svg" xmlns:xlink="http://www.w3.org/1999/xlink">
    <title>heart-filled</title>
    <g id="heart-filled" stroke="none" stroke-width="1" fill="none" fill-rule="evenodd">
        <path d="M250.973649,87.3248818 C252.116042,86.0506407 253.256027,84.7462778 254.301464,83.5049685 C255.87302,81.6074487 256.54047,80.7578111 257.026693,80.0922121 L258.10525,78.7786495 C270.091435,65.770508 284.060644,54.4885522 300.077395,45.9715049 C320.06619,35.3422878 342.117193,29.6612857 366.104312,30.0156307 C406.798349,30.6395464 440.173646,47.6250818 463.111351,77.6639997 C483.976915,104.989269 495,141.762469 495,181.09646 C495,217.538163 481.27687,254.470426 456.205553,291.561683 C435.553356,322.115161 407.663281,352.110729 374.31688,381.239609 C348.571657,403.728677 321.050074,424.43434 293.531886,442.914324 C283.899477,449.383018 274.947543,455.116582 266.899945,460.056599 C264.07034,461.793552 261.551506,463.309666 259.37148,464.597555 C258.042475,465.382688 257.108694,465.924602 256.598199,466.215875 L249.966027,470 L243.34878,466.185468 C242.83926,465.891753 241.906462,465.345011 240.578449,464.552913 C238.399501,463.253271 235.881754,461.723768 233.053246,459.972039 C225.008163,454.989623 216.058771,449.21112 206.42895,442.69696 C178.917819,424.08686 151.403248,403.273181 125.665061,380.714561 C92.3288523,351.49654 64.4480616,321.483623 43.8023593,291.000474 C18.7280917,253.978598 5,217.23486 5,181.09646 C5,141.659806 16.0693477,104.635209 37.0080455,77.2241434 C60.1704271,46.9020301 93.8971008,30.0217868 135.040937,30.0140943 C158.633343,30.0185599 180.360673,35.8328662 200.097529,46.4065527 C215.928916,54.8879499 229.775632,66.0287594 241.693546,78.8303987 C242.3914,79.6344507 242.508449,79.7758988 242.62679,79.918605 C244.914504,82.6594613 246.640384,84.6782946 248.367945,86.6680124 C248.934231,87.3202312 249.462197,87.9249186 249.939466,88.4688904 C250.252681,88.1255005 250.600295,87.7413263 250.973649,87.3248818 Z" id="heart" fill="#000000" fill-rule="nonzero"></path>
    </g>
</svg>