<?xml version="1.0" encoding="UTF-8"?>
<svg width="500px" height="500px" viewBox="0 0 500 500" version="1.1" xmlns="http://www.w3.org/2000/svg" xmlns:xlink="http://www.w3.org/1999/xlink">
    <title>hide</title>
    <g id="hide" stroke="none" stroke-width="1" fill="none" fill-rule="evenodd">
        <path d="M4.39402051,46.0194274 L46.8190205,46.0194274 L454.389021,453.589427 L411.963021,453.589427 L323.614958,365.24091 C299.743367,371.74697 275.205048,375 250,375 C164.88631,375 87.3754097,337.905302 17.4672981,263.715906 C10.2084845,256.012551 10.2084845,243.987449 17.4672981,236.284094 C49.040499,202.7773 82.1644971,176.836986 116.839292,158.463154 L4.39402051,46.0194274 Z M289.397758,341.939893 C292.498394,341.450101 295.587904,340.901368 298.666379,340.293574 L296.779718,338.406193 C294.375603,339.680963 291.913275,340.860537 289.397758,341.939893 Z M47.0666679,248.812064 L45.899,249.999 L47.0666679,251.187936 C98.0658056,302.754731 152.371306,332.74121 210.603244,341.939142 C174.961869,326.646425 150,291.238291 150,250 C150,233.099504 154.192516,217.178222 161.594243,203.219459 L139.143104,180.768442 C107.261323,196.310744 76.6092526,218.940649 47.0666679,248.812064 Z M250,125 C335.11369,125 412.62459,162.094698 482.532702,236.284094 C489.791515,243.987449 489.791515,256.012551 482.532702,263.715906 C455.181038,292.742629 426.665556,316.090976 396.986255,333.760946 L375.033175,311.807968 C401.852607,296.781474 427.794649,276.60643 452.933332,251.187936 L454.1,249.999 L452.933332,248.812064 C401.934486,197.245564 347.629316,167.259133 289.397758,158.061016 L290.354428,158.476552 C325.483113,173.988083 350,209.130929 350,250 C350,261.064644 348.202989,271.709574 344.884899,281.658858 L193.834427,130.606922 C212.173227,126.868974 230.895085,125 250,125 Z" id="Shape" fill="#000000" fill-rule="nonzero"></path>
    </g>
</svg>