<?xml version="1.0" encoding="UTF-8"?>
<svg width="500px" height="500px" viewBox="0 0 500 500" version="1.1" xmlns="http://www.w3.org/2000/svg" xmlns:xlink="http://www.w3.org/1999/xlink">
    <title>highlight-color</title>
    <g id="highlight-color" stroke="none" stroke-width="1" fill="none" fill-rule="evenodd">
        <path d="M495,395 L495,495 L5,495 L5,395 L495,395 Z M465,425 L35,425 L35,465 L465,465 L465,425 Z M122.720779,297.738636 L158.076118,333.093975 L143.261433,347.908661 L73.2233047,347.236111 L122.720779,297.738636 Z M387.885822,25.5025253 L430.312229,67.9289322 C457.64893,95.2656326 457.64893,139.587181 430.312229,166.923882 L274.748737,322.487373 L257.061875,304.800511 L252.691696,304.186493 L250.550715,303.892278 L248.436222,303.608242 L246.347471,303.335701 L244.283713,303.075973 C242.916039,302.907384 241.56453,302.748216 240.228188,302.600224 L238.234925,302.386838 L236.263665,302.191535 L235.471395,302.117882 L233.897115,301.980472 C233.374602,301.936926 232.854314,301.895676 232.336184,301.85684 L230.788206,301.747686 L229.359862,301.65978 C206.117189,300.33426 187.092006,304.487327 166.017811,325.160601 L165.147186,326.022907 L129.791847,290.667568 C151.227299,269.232117 155.477953,249.720706 154.067693,225.745483 L153.974375,224.27198 L153.853376,222.602647 L153.716094,220.918357 L153.563362,219.218649 L153.396013,217.503061 L153.307118,216.639167 L153.119408,214.898892 L152.882591,212.829665 L152.758102,211.785974 L152.497811,209.679967 L152.223569,207.548501 L151.936732,205.390823 L151.485831,202.103511 L151.014229,198.752989 L133.327381,181.066017 L288.890873,25.5025253 C316.227573,-1.83417511 360.549122,-1.83417511 387.885822,25.5025253 Z M310.575598,46.2517859 L310.104076,46.7157288 L175.753788,181.066017 L274.748737,280.060967 L409.099026,145.710678 C424.563788,130.245916 424.718435,105.268669 409.562969,89.6136571 L409.099026,89.1421356 L366.672619,46.7157288 C351.207857,31.2509668 326.230609,31.0963192 310.575598,46.2517859 Z" id="Shape" fill="#000000" fill-rule="nonzero"></path>
    </g>
</svg>