<?xml version="1.0" encoding="UTF-8"?>
<svg width="500px" height="500px" viewBox="0 0 500 500" version="1.1" xmlns="http://www.w3.org/2000/svg" xmlns:xlink="http://www.w3.org/1999/xlink">
    <title>home</title>
    <g id="home" stroke="none" stroke-width="1" fill="none" fill-rule="evenodd">
        <path d="M90,250.417066 L90,450 L160,450 L160,379.999946 C160,335.824631 195.819844,300 240.000163,300 L259.999837,300 C304.175703,300 340,335.819524 340,379.999946 L340,450.096092 L410,450.320665 L410,250.417066 L426.049687,250.417066 L260.904223,77.6938452 C254.236683,70.2221796 244.414403,70.0890965 237.541785,77.3824876 L74.4899708,250.417066 L90,250.417066 Z M495,280.417066 L440,280.417066 L440,460.416938 C440,471.462703 431.038944,480.388317 420.007906,480.352927 L310,480 L310,379.999946 C310,352.385738 287.604833,330 259.999837,330 L240.000163,330 C212.385835,330 190,352.395725 190,379.999946 L190,480 L79.9920941,480 C68.9507654,480 60,471.036607 60,459.995522 L60,280.417066 L5,280.417066 L215.708116,56.8084532 C234.647,36.7100448 264.909606,37.1248148 283.287695,57.7193568 L495,280.417066 Z" fill="#000000" fill-rule="nonzero"></path>
    </g>
</svg>