<?xml version="1.0" encoding="UTF-8"?>
<svg width="500px" height="500px" viewBox="0 0 500 500" version="1.1" xmlns="http://www.w3.org/2000/svg" xmlns:xlink="http://www.w3.org/1999/xlink">
    <title>hospital</title>
    <g id="hospital" stroke="none" stroke-width="1" fill="none" fill-rule="evenodd">
        <path d="M283.287695,57.7193568 L495,280.417066 L440,280.417066 L440,460.416938 C440,471.462703 431.038944,480.388317 420.007906,480.353032 L310,480 L79.9920941,480 C68.9507654,480 60,471.036607 60,459.995522 L60,280.417066 L5,280.417066 L215.708116,56.8084532 C234.647,36.7100448 264.909606,37.1248148 283.287695,57.7193568 Z M237.541785,77.3824876 L74.4899708,250.417066 L90,250.417066 L90,450 L361,450 L361,450.163 L410,450.320665 L410,250.417066 L426.049687,250.417066 L260.904223,77.6938452 C254.236683,70.2221796 244.414403,70.0890965 237.541785,77.3824876 Z M250,180 C258.284271,180 265,186.716836 265,194.990383 L264.999,284.999 L355.009617,285 C363.18378,285 369.829839,291.545011 369.996784,299.686104 L370,300 C370,308.284271 363.283164,315 355.009617,315 L264.999,314.999 L265,405.009617 C265,413.18378 258.454989,419.829839 250.313896,419.996784 L250,420 C241.715729,420 235,413.283164 235,405.009617 L234.999,314.999 L144.990383,315 C136.711423,315 130,308.286093 130,300 C130,291.715729 136.716836,285 144.990383,285 L234.999,284.999 L235,194.990383 C235,186.81622 241.545011,180.170161 249.686104,180.003216 L250,180 Z" id="Shape" fill="#000000" fill-rule="nonzero"></path>
    </g>
</svg>