<?xml version="1.0" encoding="UTF-8"?>
<svg width="500px" height="500px" viewBox="0 0 500 500" version="1.1" xmlns="http://www.w3.org/2000/svg" xmlns:xlink="http://www.w3.org/1999/xlink">
    <title>icon-call-end</title>
    <g id="icon-call-end" stroke="none" stroke-width="1" fill="none" fill-rule="evenodd">
        <path d="M46.8190205,46.0194274 L454.389021,453.589427 L411.963021,453.589427 L247.489021,289.114427 L213.659023,322.94542 C225.143379,335.924186 232.611754,347.590441 236.545651,358.154944 L236.756725,358.730098 C240.991229,370.440975 240.764085,380.626574 237.072718,388.619944 C235.840306,391.288638 234.379493,393.373265 232.914149,394.907028 L232.639399,395.188162 L145.135686,482.691875 L135.909901,480.587966 L135.909901,480.587966 C135.147899,480.39305 134.286853,480.158545 133.334591,479.882308 C130.699043,479.117775 127.797782,478.16137 124.693016,476.994562 C115.85412,473.672799 107.014593,469.289902 98.6791519,463.656348 C80.8235329,451.58853 67.7183589,435.460106 61.9288994,414.799849 C54.9359774,389.844918 59.4458571,360.646076 76.6512627,327.308103 C95.1114361,291.538834 127.96811,248.654611 166.176803,207.801833 L4.39402051,46.0194274 L46.8190205,46.0194274 Z M103.310303,341.066575 C89.3682504,368.081328 86.0369115,389.649806 90.8161539,406.705003 C94.5006569,419.853515 103.097116,430.433102 115.477943,438.800753 C121.709701,443.012521 128.477889,446.368387 136.153241,449.247912 L201.943228,383.274273 C206.815081,378.380687 209.874301,375.300631 209.874712,375.282164 C209.908307,373.775732 209.540915,371.687256 208.544402,368.931316 C205.352521,360.103903 197.194317,348.388915 182.735806,333.836559 L171.539594,322.638443 L226.276021,267.901427 L187.400024,229.02552 C151.360496,267.634968 120.408902,307.935556 103.310303,341.066575 Z M414.286249,61.7558697 C434.777604,67.5126486 451.001611,80.3938539 463.389207,97.9305614 C469.208324,106.168491 473.8041,114.91072 477.347563,123.654759 C478.479724,126.448538 479.434556,129.076088 480.2245,131.490906 L480.613463,132.705789 C480.804454,133.318073 481.000291,133.976793 481.286313,134.990918 L481.542186,135.906229 L483.648951,144.17861 L395.954986,231.872575 C394.398386,233.429175 392.222255,234.996456 389.386768,236.305895 C381.393398,239.997261 371.207799,240.224405 359.496922,235.989901 C348.972413,232.184372 337.349984,224.853118 324.418876,213.514639 L323.712244,212.892199 L289.914213,246.688648 L268.701213,225.475648 L323.405266,170.77277 L334.011868,181.379371 L335.191789,182.55169 C349.471833,196.647078 360.990016,204.628831 369.69814,207.777578 C372.45408,208.774091 374.542556,209.141483 376.303376,209.097778 L415.155018,169.873131 C432.714579,152.124063 449.587432,135.029668 449.543817,134.922042 C446.814248,128.186412 443.272386,121.448972 438.885929,115.239211 C430.192338,102.931984 419.381697,94.3487719 406.172261,90.6377531 C389.169958,85.8611778 368.029289,89.024034 341.833399,102.543479 C308.487224,119.753118 268.26765,150.682441 229.818228,186.593578 L208.59554,165.370104 C249.28192,127.295821 292.0822,94.4599367 328.074927,75.8844388 C360.629068,59.0835612 389.434232,54.7740197 414.286249,61.7558697 Z" id="Shape" fill="#000000" fill-rule="nonzero"></path>
    </g>
</svg>