<?xml version="1.0" encoding="UTF-8"?>
<svg width="500px" height="500px" viewBox="0 0 500 500" version="1.1" xmlns="http://www.w3.org/2000/svg" xmlns:xlink="http://www.w3.org/1999/xlink">
    <title>icon-call</title>
    <g id="icon-call" stroke="none" stroke-width="1" fill="none" fill-rule="evenodd">
        <path d="M376.303376,209.097778 C374.542556,209.141483 372.45408,208.774091 369.69814,207.777578 C360.751438,204.542564 348.838591,196.206094 334.011868,181.379371 L323.405266,170.77277 L171.539594,322.638443 L182.146195,333.245044 C196.972918,348.071767 205.309388,359.984614 208.544402,368.931316 C209.540915,371.687256 209.908307,373.775732 209.874712,375.282164 C209.872691,375.372822 136.153241,449.247912 136.153241,449.247912 C128.477889,446.368387 121.709701,443.012521 115.477943,438.800753 C103.097116,430.433102 94.5006569,419.853515 90.8161539,406.705003 C86.0369115,389.649806 89.3682504,368.081328 103.310303,341.066575 C143.868053,262.48004 262.367591,143.555014 341.833399,102.543479 C368.029289,89.024034 389.169958,85.8611778 406.172261,90.6377531 C419.381697,94.3487719 430.192338,102.931984 438.885929,115.239211 C443.272386,121.448972 446.814248,128.186412 449.543817,134.922042 C449.634681,135.146263 376.303376,209.097778 376.303376,209.097778 Z M323.712244,212.892199 C336.926988,224.585362 348.781058,232.11518 359.496922,235.989901 C371.207799,240.224405 381.393398,239.997261 389.386768,236.305895 C392.222255,234.996456 394.398386,233.429175 395.954986,231.872575 L483.648951,144.17861 L481.542186,135.906229 C481.014319,134.003832 480.75744,133.151552 480.456549,132.208924 C479.623749,129.599936 478.59294,126.727916 477.347563,123.654759 C473.8041,114.91072 469.208324,106.168491 463.389207,97.9305614 C451.001611,80.3938539 434.777604,67.5126486 414.286249,61.7558697 C389.434232,54.7740197 360.629068,59.0835612 328.074927,75.8844388 C243.057152,119.76129 120.057095,243.202995 76.6512627,327.308103 C59.4458571,360.646076 54.9359774,389.844918 61.9288994,414.799849 C67.7183589,435.460106 80.8235329,451.58853 98.6791519,463.656348 C107.014593,469.289902 115.85412,473.672799 124.693016,476.994562 C127.797782,478.16137 130.699043,479.117775 133.334591,479.882308 C134.286853,480.158545 135.147899,480.39305 135.909901,480.587966 C136.415115,480.717197 145.135686,482.691875 145.135686,482.691875 L232.639399,395.188162 C234.195999,393.631562 235.76328,391.455432 237.072718,388.619944 C240.764085,380.626574 240.991229,370.440975 236.756725,358.730098 C232.882004,348.014234 225.352186,336.160164 213.659023,322.94542 L323.712244,212.892199 Z" fill="#000000" fill-rule="nonzero"></path>
    </g>
</svg>