<?xml version="1.0" encoding="UTF-8"?>
<svg width="500px" height="500px" viewBox="0 0 500 500" version="1.1" xmlns="http://www.w3.org/2000/svg" xmlns:xlink="http://www.w3.org/1999/xlink">
    <title>identity-card-filled</title>
    <g id="identity-card-filled" stroke="none" stroke-width="1" fill="none" fill-rule="evenodd">
        <path d="M435,85 C467.805714,85 494.462114,111.328343 494.991962,144.00779 L495,145 L495,355 C495,387.805714 468.671657,414.462114 435.99221,414.991962 L435,415 L65,415 C32.1942859,415 5.53788572,388.671657 5.00803829,355.99221 L5,355 L5,145 C5,112.194286 31.328343,85.5378857 64.0077903,85.0080383 L65,85 L435,85 Z M117.727273,253.409091 C92.0921791,253.409091 71.1775217,270.251249 70.0480166,291.381634 L70.0198607,292.023249 L70,325 L165.454545,325 L165.4402,292.235066 L165.414287,291.533198 C164.376959,270.331843 143.423628,253.409091 117.727273,253.409091 Z M290,290 L220,290 C211.715729,290 205,296.715729 205,305 C205,313.179407 211.546786,319.82973 219.686172,319.996782 L220,320 L290,320 C298.284271,320 305,313.284271 305,305 C305,296.820593 298.453214,290.17027 290.313828,290.003218 L290,290 Z M340,240 L220,240 C211.715729,240 205,246.715729 205,255 C205,263.179407 211.546786,269.82973 219.686172,269.996782 L220,270 L340,270 C348.284271,270 355,263.284271 355,255 C355,246.820593 348.453214,240.17027 340.313828,240.003218 L340,240 Z M117.727273,175 C97.9579891,175 81.9318182,191.026171 81.9318182,210.795455 C81.9318182,230.564738 97.9579891,246.590909 117.727273,246.590909 C137.496556,246.590909 153.522727,230.564738 153.522727,210.795455 C153.522727,191.026171 137.496556,175 117.727273,175 Z M410,190 L220,190 C211.715729,190 205,196.715729 205,205 C205,213.179407 211.546786,219.82973 219.686172,219.996782 L220,220 L410,220 C418.284271,220 425,213.284271 425,205 C425,196.820593 418.453214,190.17027 410.313828,190.003218 L410,190 Z" id="Shape" fill="#000000" fill-rule="nonzero"></path>
    </g>
</svg>