<?xml version="1.0" encoding="UTF-8"?>
<svg width="500px" height="500px" viewBox="0 0 500 500" version="1.1" xmlns="http://www.w3.org/2000/svg" xmlns:xlink="http://www.w3.org/1999/xlink">
    <title>image</title>
    <g id="image" stroke="none" stroke-width="1" fill="none" fill-rule="evenodd">
        <path d="M445,5 C472.614237,5 495,27.3857625 495,55 L495,445 C495,472.614237 472.614237,495 445,495 L55,495 C27.3857625,495 5,472.614237 5,445 L5,55 C5,27.3857625 27.3857625,5 55,5 L445,5 Z M339.479,270.679 L233.542135,398.725486 C229.871019,403.162751 223.991977,405.098639 218.418265,403.733523 L218.07742,403.645813 L132.103,380.449 L59.7961966,455.413556 C54.1283,461.289716 44.8234769,461.541262 38.8478911,456.042519 L38.5864444,455.796197 C38.1648896,455.389583 37.7722824,454.964251 37.4086693,454.522773 C40.742109,460.668801 47.2024756,464.872135 54.6555106,465 L445,465 C452.595289,465 459.201711,460.766161 462.58892,454.529805 C461.3941,455.983854 459.90344,457.236126 458.146318,458.188258 C450.961072,462.081725 442.004269,459.501887 437.974556,452.439089 L437.811742,452.146318 L339.479,270.679 Z M445.344489,35 L55,35 C44.0693643,35 35.186775,43.7687286 35,54.6555106 L35,439.60362 C35.6591445,437.891763 36.644348,436.274897 37.9574807,434.847891 L38.2038034,434.586444 L116.661395,353.245968 C120.372978,349.398004 125.844526,347.822665 131.020384,349.088763 L131.36498,349.177386 L216.577,372.168 L330.526852,234.43819 C337.23195,226.333762 349.943495,227.484277 355.113348,236.567258 L355.272436,236.853682 L464.188258,437.853682 C464.5004,438.429728 464.770935,439.01716 465.000891,439.612527 L465.000891,55 C465.000891,44.0693643 456.231271,35.186775 445.344489,35 Z M160.5,100 C193.913227,100 221,127.086773 221,160.5 C221,193.913227 193.913227,221 160.5,221 C127.086773,221 100,193.913227 100,160.5 C100,127.086773 127.086773,100 160.5,100 Z" id="Shape" fill="#000000"></path>
    </g>
</svg>