<?xml version="1.0" encoding="UTF-8"?>
<svg width="500px" height="500px" viewBox="0 0 500 500" version="1.1" xmlns="http://www.w3.org/2000/svg" xmlns:xlink="http://www.w3.org/1999/xlink">
    <title>indent-increase</title>
    <g id="indent-increase" stroke="none" stroke-width="1" fill="none" fill-rule="evenodd">
        <path d="M473,400 C486.807119,400 498,411.192881 498,425 C498,438.807119 486.807119,450 473,450 L223,450 C209.192881,450 198,438.807119 198,425 C198,411.192881 209.192881,400 223,400 L473,400 Z M11.4289322,175.571068 C15.2631707,171.736829 21.4363852,171.667116 25.3556774,175.361928 L25.5710678,175.571068 L151.428932,301.428932 C155.263171,305.263171 155.332884,311.436385 151.638072,315.355677 L151.428932,315.571068 L25.5710678,441.428932 C23.695704,443.304296 21.1521649,444.357864 18.5,444.357864 C13.0707601,444.357864 8.65206828,440.031194 8.5038418,434.637769 L8.5,434.357864 L8.5,182.642136 C8.5,179.989971 9.5535684,177.446432 11.4289322,175.571068 Z M473,283 C486.807119,283 498,294.192881 498,308 C498,321.807119 486.807119,333 473,333 L223,333 C209.192881,333 198,321.807119 198,308 C198,294.192881 209.192881,283 223,283 L473,283 Z M473,167 C486.807119,167 498,178.192881 498,192 C498,205.807119 486.807119,217 473,217 L223,217 C209.192881,217 198,205.807119 198,192 C198,178.192881 209.192881,167 223,167 L473,167 Z M473,50 C486.807119,50 498,61.1928813 498,75 C498,88.8071187 486.807119,100 473,100 L33,100 C19.1928813,100 8,88.8071187 8,75 C8,61.1928813 19.1928813,50 33,50 L473,50 Z" id="Shape" fill="#000000"></path>
    </g>
</svg>