<?xml version="1.0" encoding="UTF-8"?>
<svg width="500px" height="500px" viewBox="0 0 500 500" version="1.1" xmlns="http://www.w3.org/2000/svg" xmlns:xlink="http://www.w3.org/1999/xlink">
    <title>info</title>
    <g id="info" stroke="none" stroke-width="1" fill="none" fill-rule="evenodd">
        <path d="M250,5 C385.309764,5 495,114.690236 495,250 C495,385.309764 385.309764,495 250,495 C114.690236,495 5,385.309764 5,250 C5,114.690236 114.690236,5 250,5 Z M250,35 C131.258779,35 35,131.258779 35,250 C35,368.741221 131.258779,465 250,465 C368.741221,465 465,368.741221 465,250 C465,131.258779 368.741221,35 250,35 Z M269.168659,198.373174 L269.168659,375 L231.320053,375 L231.320053,198.373174 L269.168659,198.373174 Z M250.244356,125 C262.860558,125 272.488712,134.628154 272.488712,147.908367 C272.488712,160.856574 262.860558,170.484728 250.244356,170.484728 C237.628154,170.484728 228,160.856574 228,147.908367 C228,134.628154 237.628154,125 250.244356,125 Z" id="Shape" fill="#000000" fill-rule="nonzero"></path>
    </g>
</svg>