<?xml version="1.0" encoding="UTF-8"?>
<svg width="500px" height="500px" viewBox="0 0 500 500" version="1.1" xmlns="http://www.w3.org/2000/svg" xmlns:xlink="http://www.w3.org/1999/xlink">
    <title>instagram</title>
    <g id="instagram" stroke="none" stroke-width="1" fill="none" fill-rule="evenodd">
        <path d="M349.026358,5 L150.973642,5 C70.4834366,5 5,70.4834366 5,150.973642 L5,349.026358 C5,429.516563 70.4834366,495 150.973642,495 L349.026358,495 C429.516563,495 495,429.516563 495,349.026358 L495,150.973642 C494.999111,70.4834366 429.515674,5 349.026358,5 Z M349.026358,445.706018 L150.973642,445.706018 C97.5793871,445.706018 54.2939819,402.420613 54.2939819,349.026358 L54.2939819,150.973642 C54.2939819,97.5784979 97.5793871,54.2939819 150.973642,54.2939819 L349.026358,54.2939819 C402.420613,54.2939819 445.706018,97.5784979 445.706018,150.973642 L445.706018,349.026358 C445.706018,402.420613 402.420613,445.706018 349.026358,445.706018 Z M250,123.268564 C180.120174,123.268564 123.268564,180.120174 123.268564,249.999111 C123.268564,319.878047 180.120174,376.730547 250,376.730547 C319.879826,376.730547 376.731436,319.878937 376.731436,249.999111 C376.731436,180.119285 319.879826,123.268564 250,123.268564 Z M250,327.437454 C207.232131,327.437454 172.562546,292.767869 172.562546,250 C172.562546,207.232131 207.23302,172.562546 250,172.562546 C292.767869,172.562546 327.437454,207.232131 327.437454,250 C327.437454,292.76698 292.76698,327.437454 250,327.437454 Z M376.973308,154.588392 C393.744299,154.588392 407.339874,140.992818 407.339874,124.221827 C407.339874,107.450836 393.744299,93.8552612 376.973308,93.8552612 C360.202317,93.8552612 346.606743,107.450836 346.606743,124.221827 C346.606743,140.992818 360.202317,154.588392 376.973308,154.588392 Z" id="Shape" fill="#000000"></path>
    </g>
</svg>