<?xml version="1.0" encoding="UTF-8"?>
<svg width="500px" height="500px" viewBox="0 0 500 500" version="1.1" xmlns="http://www.w3.org/2000/svg" xmlns:xlink="http://www.w3.org/1999/xlink">
    <title>join</title>
    <g id="join" stroke="none" stroke-width="1" fill="none" fill-rule="evenodd">
        <path d="M410,25 C445.539524,25 474.41729,53.5223716 474.991292,88.9251061 L475,90 L475,410 C475,445.539524 446.477628,474.41729 411.074894,474.991292 L410,475 L90,475 C54.4604763,475 25.5827095,446.477628 25.0087081,411.074894 L25,410 L25,320 L55,320 L55,410 C55,429.136667 70.3582001,444.686233 89.421211,444.995311 L90,445 L410,445 C429.136667,445 444.686233,429.6418 444.995311,410.578789 L445,410 L445,90 C445,70.8633334 429.6418,55.3137667 410.578789,55.004689 L410,55 L90,55 C70.8633334,55 55.3137667,70.3582001 55.004689,89.421211 L55,90 L55,180 L25,180 L25,90 C25,54.4604763 53.5223716,25.5827095 88.9251061,25.0087081 L90,25 L410,25 Z M181.793545,122.872822 L182.147186,123.220779 L288.213203,229.286797 C299.811775,240.885368 299.927761,259.618304 288.561161,271.359562 L288.213203,271.713203 L182.147186,377.779221 C170.431458,389.494949 151.436508,389.494949 139.720779,377.779221 C128.122208,366.180649 128.006222,347.447714 139.372822,335.706455 L139.720779,335.352814 L194.507,280.566017 L35,280.566017 C18.4314575,280.566017 5,267.13456 5,250.566017 C5,234.16316 18.1641715,220.83496 34.5038951,220.570036 L35,220.566017 L194.639,220.566017 L139.720779,165.647186 C128.122208,154.048615 128.006222,135.315679 139.372822,123.57442 L139.720779,123.220779 C151.319351,111.622208 170.052286,111.506222 181.793545,122.872822 Z" fill="#000000" fill-rule="nonzero"></path>
    </g>
</svg>