<?xml version="1.0" encoding="UTF-8"?>
<svg width="500px" height="500px" viewBox="0 0 500 500" version="1.1" xmlns="http://www.w3.org/2000/svg" xmlns:xlink="http://www.w3.org/1999/xlink">
    <title>laptop</title>
    <g id="laptop" stroke="none" stroke-width="1" fill="none" fill-rule="evenodd">
        <path d="M50,170.002163 C50,142.386731 72.3880408,120 99.9933326,120 L400.006667,120 C427.617223,120 450,142.395442 450,170.002163 L450,349.997837 C450,377.613269 427.611959,400 400.006667,400 L99.9933326,400 C72.3827774,400 50,377.604558 50,349.997837 L50,170.002163 Z M80,170.002163 L80,349.997837 C80,361.041018 88.9563222,370 99.9933326,370 L400.006667,370 C411.044537,370 420,361.043606 420,349.997837 L420,170.002163 C420,158.958982 411.043678,150 400.006667,150 L99.9933326,150 C88.9554632,150 80,158.956394 80,170.002163 Z M5,429 C5,420.715729 11.7171807,414 19.9995093,414 L480.000491,414 C488.284491,414 495,420.713907 495,429 L495,429 C495,437.284271 488.282819,444 480.000491,444 L19.9995093,444 C11.715509,444 5,437.286093 5,429 L5,429 Z" fill="#000000" fill-rule="nonzero"></path>
    </g>
</svg>