<?xml version="1.0" encoding="UTF-8"?>
<svg width="500px" height="500px" viewBox="0 0 500 500" version="1.1" xmlns="http://www.w3.org/2000/svg" xmlns:xlink="http://www.w3.org/1999/xlink">
    <title>layers</title>
    <g id="layers" stroke="none" stroke-width="1" fill="none" fill-rule="evenodd">
        <path d="M393.659,324.811 L445.697525,346.493112 C455.893551,350.741456 460.7151,362.450932 456.466756,372.646958 C454.43778,377.516501 450.567068,381.387213 445.697525,383.416189 L288.466756,448.929009 C263.851371,459.18542 236.159064,459.18542 211.543679,448.929009 L54.3129097,383.416189 C44.1168836,379.167845 39.2953347,367.458369 43.543679,357.262343 C45.5726552,352.3928 49.4433667,348.522088 54.3129097,346.493112 L106.35,324.811 L145.349,341.06 L88.0049325,364.953943 L223.08214,421.236702 C240.112552,428.332707 259.247011,428.415218 276.326354,421.484237 L276.928294,421.236702 L412.005502,364.953943 L354.661,341.06 L393.659,324.811 Z M387.659,207.311 L445.697525,231.493112 C455.893551,235.741456 460.7151,247.450932 456.466756,257.646958 C454.43778,262.516501 450.567068,266.387213 445.697525,268.416189 L288.466756,333.929009 C263.851371,344.18542 236.159064,344.18542 211.543679,333.929009 L54.3129097,268.416189 C44.1168836,264.167845 39.2953347,252.458369 43.543679,242.262343 C45.5726552,237.3928 49.4433667,233.522088 54.3129097,231.493112 L112.35,207.311 L151.349,223.56 L88.0049325,249.953943 L223.08214,306.236702 C240.112552,313.332707 259.247011,313.415218 276.326354,306.484237 L276.928294,306.236702 L412.005502,249.953943 L348.66,223.56 L387.659,207.311 Z M288.466756,50.6923077 L445.697525,116.205128 C455.893551,120.453472 460.7151,132.162948 456.466756,142.358974 C454.43778,147.228517 450.567068,151.099229 445.697525,153.128205 L288.466756,218.641026 C263.851371,228.897436 236.159064,228.897436 211.543679,218.641026 L54.3129097,153.128205 C44.1168836,148.879861 39.2953347,137.170385 43.543679,126.974359 C45.5726552,122.104816 49.4433667,118.234104 54.3129097,116.205128 L211.543679,50.6923077 C236.159064,40.4358974 263.851371,40.4358974 288.466756,50.6923077 Z" id="Shape" fill="#000000" fill-rule="nonzero"></path>
    </g>
</svg>