<?xml version="1.0" encoding="UTF-8"?>
<svg width="500px" height="500px" viewBox="0 0 500 500" version="1.1" xmlns="http://www.w3.org/2000/svg" xmlns:xlink="http://www.w3.org/1999/xlink">
    <title>leaderboard</title>
    <g id="leaderboard" stroke="none" stroke-width="1" fill="none" fill-rule="evenodd">
        <path d="M440,290 C467.614237,290 490,312.385763 490,340 L490,490 L10,490 L10,390 C10,362.385763 32.3857625,340 60,340 L130,340 L130,370 L60,370 C49.0693643,370 40.186775,378.768729 40.0029071,389.655511 L40,390 L40,460 L460,460 L460,340 C460,329.069364 451.231271,320.186775 440.344489,320.002907 L440,320 L370,320 L370,290 L440,290 Z M290,190 C317.614237,190 340,212.385763 340,240 L340,430 L310,430 L310,240 C310,229.069364 301.231271,220.186775 290.344489,220.002907 L290,220 L210,220 C199.069364,220 190.186775,228.768729 190.002907,239.655511 L190,240 L190,430 L160,430 L160,240 C160,212.385763 182.385763,190 210,190 L290,190 Z M80.200766,238.628568 L90.6308201,255.75446 C92.0456773,258.07762 95.0691245,260.281042 97.713839,260.91646 L117.691054,265.71618 L104.033457,281.324863 C102.206387,283.412942 101.110704,287.016661 101.465642,289.767425 L104.029422,309.636726 L84.5431799,301.842229 C82.0210246,300.833367 78.2810367,300.879166 75.7849144,301.948932 L57.8446223,309.637629 L59.1360891,289.619893 C59.3122376,286.889591 58.0698254,283.35187 56.2257369,281.332154 L42.6910537,266.508453 L62.9019701,261.16234 C65.5194512,260.469974 68.5026301,258.222946 69.8907544,255.897838 L80.200766,238.628568 Z M419.704003,165.628568 L433.610742,188.46309 C435.497218,191.560638 439.528481,194.498533 443.054767,195.345757 L469.691054,201.745384 L451.480924,222.556961 C449.044832,225.341067 447.583921,230.146025 448.057171,233.813711 L451.475545,260.306112 L425.493889,249.91345 C422.131015,248.5683 417.144364,248.629365 413.816201,250.05572 L389.895812,260.307316 L391.617768,233.617001 C391.852632,229.976599 390.196083,225.259637 387.737298,222.566682 L369.691054,202.801748 L396.638942,195.673597 C400.128917,194.750442 404.106489,191.754405 405.957321,188.654261 L419.704003,165.628568 Z M249.710478,17.6285685 L270.570586,51.8803511 C273.400301,56.5266723 279.447195,60.9335146 284.736624,62.2043514 L324.691054,71.8037923 L297.375859,103.021157 C293.721721,107.197316 291.530355,114.404753 292.240229,119.906282 L297.367791,159.644884 L258.395306,144.055891 C253.350995,142.038166 245.87102,142.129763 240.878775,144.269296 L204.998191,159.64669 L207.581124,119.611218 C207.933421,114.150614 205.448597,107.075171 201.76042,103.035739 L174.691054,73.3883377 L215.112886,62.696111 C220.347849,61.311379 226.314206,56.8173237 229.090455,52.1671072 L249.710478,17.6285685 Z" id="Shape" fill="#000000"></path>
    </g>
</svg>