<?xml version="1.0" encoding="UTF-8"?>
<svg width="500px" height="500px" viewBox="0 0 500 500" version="1.1" xmlns="http://www.w3.org/2000/svg" xmlns:xlink="http://www.w3.org/1999/xlink">
    <title>letter-spacing</title>
    <g id="letter-spacing" stroke="none" stroke-width="1" fill="none" fill-rule="evenodd">
        <path d="M457.369173,411.307715 L493.67191,447.60809 C495.120735,449.056915 495.147078,451.389558 493.750937,452.870522 L457.450562,489.173259 C456.741927,489.881893 455.780812,490.28 454.778652,490.28 C452.727131,490.28 451.057461,488.645102 451.001452,486.607115 L451,486.501348 L451,414.058652 C451,413.056491 451.398107,412.095376 452.106741,411.386741 C453.555567,409.937916 455.888209,409.911574 457.369173,411.307715 Z M47.6719102,411.386741 C48.3260345,412.040866 48.7155671,412.910121 48.7716246,413.828209 L48.7786517,414.058652 L48.7772,486.607115 C48.7211904,488.645102 47.0515207,490.28 45,490.28 C44.0749285,490.28 43.1848311,489.940785 42.4960065,489.331237 L42.3280898,489.173259 L6.02771463,452.870522 C4.68143616,451.442449 4.65784908,449.222446 5.95695337,447.766624 L6.10674146,447.60809 L42.4094783,411.307715 C43.8904423,409.911574 46.2230851,409.937916 47.6719102,411.386741 Z M438,435 L438,465 L63,465 L63,435 L438,435 Z M96.0932617,137.171875 L96.0932617,167.25 L77.1235352,170.667969 L121.215332,319.862305 L124.291504,333.53418 L125.316895,333.53418 L128.222168,320.204102 L172.484863,170.667969 L153.686035,167.25 L153.686035,137.171875 L244.604004,137.171875 L244.604004,167.25 L223.754395,169.984375 L150.438965,386 L99.1694336,386 L25.6831055,169.984375 L5.17529297,167.25 L5.17529297,137.171875 L96.0932617,137.171875 Z M401.830566,137.171875 L477.025879,353.529297 L494.799316,356.092773 L494.799316,386 L410.033691,386 L410.033691,356.092773 L427.294434,353.016602 L416.356934,318.836914 L335.692871,318.836914 L324.755371,353.016602 L342.016113,356.092773 L342.016113,386 L257.250488,386 L257.250488,356.092773 L275.023926,353.529297 L350.731934,137.171875 L401.830566,137.171875 Z M376.537598,194.422852 L375.512207,194.422852 L347.484863,282.09375 L404.564941,282.09375 L376.537598,194.422852 Z" id="Shape" fill="#000000" fill-rule="nonzero"></path>
    </g>
</svg>