<?xml version="1.0" encoding="UTF-8"?>
<svg width="500px" height="500px" viewBox="0 0 500 500" version="1.1" xmlns="http://www.w3.org/2000/svg" xmlns:xlink="http://www.w3.org/1999/xlink">
    <title>lightbulb</title>
    <g id="lightbulb" stroke="none" stroke-width="1" fill="none" fill-rule="evenodd">
        <path d="M280,460 C280,476.568542 266.568542,490 250,490 C233.597143,490 220.268943,476.835828 220.004019,460.496105 L220,460 L280,460 Z M310,420 C318.284271,420 325,426.715729 325,435 C325,443.284271 318.284271,450 310,450 L190,450 C181.715729,450 175,443.284271 175,435 C175,426.715729 181.715729,420 190,420 L310,420 Z M310,380 C318.284271,380 325,386.715729 325,395 C325,403.284271 318.284271,410 310,410 L190,410 C181.715729,410 175,403.284271 175,395 C175,386.715729 181.715729,380 190,380 L310,380 Z M250,90 C332.842712,90 400,157.157288 400,240 C400,290.271771 375.2695,327.402475 337.310663,360.001805 L162.689337,360.001805 C124.7305,327.402475 100,290.271771 100,240 C100,157.157288 167.157288,90 250,90 Z M250,120 C183.72583,120 130,173.72583 130,240 C130,273.603617 143.688518,301.205444 173.129664,329.049277 L174.142,330.001 L232.326,330.001 L216.111704,269.486691 C215.396995,266.819361 216.979908,264.077676 219.647238,263.362967 C222.314569,262.648258 225.056253,264.23117 225.770963,266.898501 L242.679,330.001 L257.32,330.001 L274.229037,266.898501 C274.92443,264.30326 277.538713,262.734613 280.13637,263.310029 L280.352762,263.362967 C282.948002,264.05836 284.51665,266.672642 283.941234,269.2703 L283.888296,269.486691 L267.673,330.001 L325.857,330.001 L325.973356,329.89311 C355.706808,302.068212 369.69448,274.547854 369.995047,241.104676 L370,240 C370,173.72583 316.27417,120 250,120 Z M270,236 C275.606195,236 280.048729,240.245825 284.038635,247.913881 L284.472136,248.763932 C285.707082,251.233825 284.70596,254.23719 282.236068,255.472136 C279.766175,256.707082 276.76281,255.70596 275.527864,253.236068 C274.08196,250.34426 272.699496,248.270564 271.464466,247.035534 C271.144233,246.715301 270.876909,246.485569 270.658989,246.325174 L270.536,246.238 L270.408731,246.451417 L270.264082,246.70682 L270.101378,247.007185 L269.816293,247.554728 L269.136107,248.90319 L268.830837,249.496439 L268.549273,250.02619 C268.458586,250.193344 268.370674,250.351644 268.284362,250.50282 L268.029052,250.936704 L267.776289,251.33822 C267.480142,251.791808 267.174797,252.200493 266.809856,252.638422 C265.069918,254.726349 262.79554,256 260,256 C257.20446,256 254.930082,254.726349 253.190144,252.638422 C252.825203,252.200493 252.519858,251.791808 252.223711,251.33822 L251.970948,250.936704 L251.715638,250.50282 C251.629326,250.351644 251.541414,250.193344 251.450727,250.02619 L251.169163,249.496439 L250.863893,248.90319 L250.183707,247.554728 L250,247.2 L249.708684,247.766008 L249.136107,248.90319 L248.830837,249.496439 L248.549273,250.02619 C248.458586,250.193344 248.370674,250.351644 248.284362,250.50282 L248.029052,250.936704 L247.776289,251.33822 C247.480142,251.791808 247.174797,252.200493 246.809856,252.638422 C245.069918,254.726349 242.79554,256 240,256 C237.20446,256 234.930082,254.726349 233.190144,252.638422 C232.825203,252.200493 232.519858,251.791808 232.223711,251.33822 L231.970948,250.936704 L231.715638,250.50282 C231.629326,250.351644 231.541414,250.193344 231.450727,250.02619 L231.169163,249.496439 L230.863893,248.90319 L230.183707,247.554728 L229.898622,247.007185 L229.661541,246.573861 L229.463,246.238 L229.44587,246.250657 C229.244321,246.388527 228.993952,246.592207 228.691258,246.882861 L228.535534,247.035534 C227.300504,248.270564 225.91804,250.34426 224.472136,253.236068 C223.23719,255.70596 220.233825,256.707082 217.763932,255.472136 C215.29404,254.23719 214.292918,251.233825 215.527864,248.763932 L215.961365,247.913881 C219.951271,240.245825 224.393805,236 230,236 C232.79554,236 235.069918,237.273651 236.809856,239.361578 C237.174797,239.799507 237.480142,240.208192 237.776289,240.66178 L238.029052,241.063296 L238.284362,241.49718 C238.370674,241.648356 238.458586,241.806656 238.549273,241.97381 L238.830837,242.503561 L239.136107,243.09681 L239.816293,244.445272 L240,244.799 L240.405898,244.00712 L240.863893,243.09681 L241.169163,242.503561 L241.450727,241.97381 C241.541414,241.806656 241.629326,241.648356 241.715638,241.49718 L241.970948,241.063296 L242.223711,240.66178 C242.519858,240.208192 242.825203,239.799507 243.190144,239.361578 C244.930082,237.273651 247.20446,236 250,236 C252.79554,236 255.069918,237.273651 256.809856,239.361578 C257.174797,239.799507 257.480142,240.208192 257.776289,240.66178 L258.029052,241.063296 L258.284362,241.49718 C258.370674,241.648356 258.458586,241.806656 258.549273,241.97381 L258.830837,242.503561 L259.136107,243.09681 L259.816293,244.445272 L260,244.799 L260.405898,244.00712 L260.863893,243.09681 L261.169163,242.503561 L261.450727,241.97381 C261.541414,241.806656 261.629326,241.648356 261.715638,241.49718 L261.970948,241.063296 L262.223711,240.66178 C262.519858,240.208192 262.825203,239.799507 263.190144,239.361578 C264.930082,237.273651 267.20446,236 270,236 Z" id="Shape" fill="#000000" fill-rule="nonzero"></path>
    </g>
</svg>