<?xml version="1.0" encoding="UTF-8"?>
<svg width="500px" height="500px" viewBox="0 0 500 500" version="1.1" xmlns="http://www.w3.org/2000/svg" xmlns:xlink="http://www.w3.org/1999/xlink">
    <title>line-break</title>
    <g id="line-break" stroke="none" stroke-width="1" fill="none" fill-rule="evenodd">
        <path d="M280.818957,307.055429 C283.780885,304.263148 288.44617,304.315833 291.34382,307.213483 C292.690226,308.559889 293.476129,310.362021 293.551354,312.257324 L293.557303,312.557303 L293.557,370 L293.559,370 L293.559,400 L293.557,400 L293.557303,457.442697 L293.5544,457.654229 C293.442381,461.730204 290.103041,465 286,465 C284.095895,465 282.265877,464.281417 280.872504,462.994428 L280.65618,462.786517 L208.055429,390.181043 C205.325199,387.284936 205.314896,382.760335 208.024521,379.851937 L208.213483,379.65618 L280.818957,307.055429 Z M445,235 C472.614237,235 495,257.385763 495,285 L495,350 C495,377.614237 472.614237,400 445,400 L323.559,400 L323.559,370 L445,370 C455.930636,370 464.813225,361.231271 465,350.344489 L465,285 C465,274.069364 456.231271,265.186775 445.344489,265.002907 L445,265 L20,265 C11.7157288,265 5,258.284271 5,250 C5,241.715729 11.7157288,235 20,235 L445,235 Z M480,120 C488.284271,120 495,126.715729 495,135 C495,143.284271 488.284271,150 480,150 L20,150 C11.7157288,150 5,143.284271 5,135 C5,126.715729 11.7157288,120 20,120 L480,120 Z M480,5 C488.284271,5 495,11.7157288 495,20 C495,28.2842712 488.284271,35 480,35 L20,35 C11.7157288,35 5,28.2842712 5,20 C5,11.7157288 11.7157288,5 20,5 L480,5 Z" id="Shape" fill="#000000"></path>
    </g>
</svg>