<?xml version="1.0" encoding="UTF-8"?>
<svg width="500px" height="500px" viewBox="0 0 500 500" version="1.1" xmlns="http://www.w3.org/2000/svg" xmlns:xlink="http://www.w3.org/1999/xlink">
    <title>line-height</title>
    <g id="line-height" stroke="none" stroke-width="1" fill="none" fill-rule="evenodd">
        <path d="M77.6032274,41.7854369 C83.3862354,36.1869622 92.5615073,36.1596776 98.3775803,41.7035829 L98.6396103,41.9594155 L151.672619,94.992424 L151.846597,95.1692446 C157.445072,100.952253 157.472357,110.127524 151.928451,115.943598 L151.672619,116.205627 L151.495798,116.379606 C145.71279,121.978081 136.537518,122.005365 130.721445,116.46146 L130.459415,116.205627 L103,88.7465172 L103.001087,263.161067 C103.029731,263.469431 103.049041,263.780502 103.058731,264.093995 L103.066017,264.566017 L103.066017,410.819517 L130.459415,383.426407 L130.636236,383.252428 C136.506865,377.569128 145.873333,377.627121 151.672619,383.426407 C157.444338,389.198126 157.529216,398.503196 151.927254,404.378837 L151.672619,404.63961 L98.6396103,457.672619 L98.4627898,457.846597 C92.6797817,463.445072 83.5045099,463.472357 77.6884368,457.928451 L77.4264069,457.672619 L24.3933983,404.63961 L24.2194197,404.46279 C18.6209451,398.679782 18.5936604,389.50451 24.1375657,383.688437 L24.3933983,383.426407 L24.5702188,383.252428 C30.3532269,377.653954 39.5284987,377.626669 45.3445717,383.170574 L45.6066017,383.426407 L73.0660172,410.885517 L73.066,299.566017 L73,299.566017 L73,88.8125172 L45.6066017,116.205627 L45.4297812,116.379606 C39.5591518,122.062906 30.192684,122.004913 24.3933983,116.205627 C18.621679,110.433908 18.5368007,101.128839 24.1387636,95.2531974 L24.3933983,94.992424 L77.4264069,41.9594155 L77.6032274,41.7854369 Z M473,400 C486.807119,400 498,411.192881 498,425 C498,438.807119 486.807119,450 473,450 L225,450 C211.192881,450 200,438.807119 200,425 C200,411.192881 211.192881,400 225,400 L473,400 Z M473,283 C486.807119,283 498,294.192881 498,308 C498,321.807119 486.807119,333 473,333 L225,333 C211.192881,333 200,321.807119 200,308 C200,294.192881 211.192881,283 225,283 L473,283 Z M473,167 C486.807119,167 498,178.192881 498,192 C498,205.807119 486.807119,217 473,217 L226,217 C212.192881,217 201,205.807119 201,192 C201,178.192881 212.192881,167 226,167 L473,167 Z M473,50 C486.807119,50 498,61.1928813 498,75 C498,88.8071187 486.807119,100 473,100 L225,100 C211.192881,100 200,88.8071187 200,75 C200,61.1928813 211.192881,50 225,50 L473,50 Z" id="Shape" fill="#000000" fill-rule="nonzero"></path>
    </g>
</svg>