<?xml version="1.0" encoding="UTF-8"?>
<svg width="500px" height="500px" viewBox="0 0 500 500" version="1.1" xmlns="http://www.w3.org/2000/svg" xmlns:xlink="http://www.w3.org/1999/xlink">
    <title>linkedin</title>
    <g id="linkedin" stroke="none" stroke-width="1" fill="none" fill-rule="evenodd">
        <path d="M450.675524,5 L49.3244764,5 C24.845,5 5,24.845 5,49.3244764 L5,450.674241 C5,475.155 24.845,495 49.3244764,495 L450.674241,495 C475.155,495 495,475.155 495,450.674241 L495,49.3244764 C495,24.845 475.155,5 450.675524,5 Z M156.62678,428.098325 C156.62678,435.222565 150.851963,440.997382 143.727723,440.997382 L88.8195026,440.997382 C81.6952618,440.997382 75.920445,435.222565 75.920445,428.098325 L75.920445,197.925314 C75.920445,190.801073 81.6952618,185.026257 88.8195026,185.026257 L143.727723,185.026257 C150.851963,185.026257 156.62678,190.801073 156.62678,197.925314 L156.62678,428.098325 Z M116.273613,163.329005 C87.4649476,163.329005 64.1104188,139.974476 64.1104188,111.165812 C64.1104188,82.3571466 87.4649476,59.0026178 116.273613,59.0026178 C145.082277,59.0026178 168.436806,82.3571466 168.436806,111.165812 C168.436806,139.974476 145.08356,163.329005 116.273613,163.329005 Z M431.715602,440.997382 L372.795026,440.997382 C366.245445,440.997382 360.934974,435.686911 360.934974,429.13733 L360.934974,321.173141 C360.934974,305.067277 365.659241,250.596466 318.845,250.596466 C282.532408,250.596466 275.167016,287.880079 273.688037,304.611911 L273.688037,429.13733 C273.688037,435.686911 268.378848,440.997382 261.827984,440.997382 L204.841754,440.997382 C198.292173,440.997382 192.981702,435.686911 192.981702,429.13733 L192.981702,196.886309 C192.981702,190.336728 198.292173,185.026257 204.841754,185.026257 L261.827984,185.026257 C268.377565,185.026257 273.688037,190.336728 273.688037,196.886309 L273.688037,216.96733 C287.152775,196.760602 307.163246,181.163979 349.768874,181.163979 C444.115681,181.163979 443.575654,269.307539 443.575654,317.73801 L443.575654,429.13733 C443.575654,435.686911 438.265183,440.997382 431.715602,440.997382 Z" id="Shape" fill="#000000"></path>
    </g>
</svg>