<?xml version="1.0" encoding="UTF-8"?>
<svg width="500px" height="500px" viewBox="0 0 500 500" version="1.1" xmlns="http://www.w3.org/2000/svg" xmlns:xlink="http://www.w3.org/1999/xlink">
    <title>link</title>
    <g id="link" stroke="none" stroke-width="1" fill="none" fill-rule="evenodd">
        <path d="M168.68272,211.109127 C174.540585,216.966991 174.540585,226.464466 168.68272,232.32233 L59.0811691,341.923882 L59.0811691,341.923882 C31.7444687,369.260582 31.7444687,413.58213 59.0811691,440.918831 C86.1445025,467.982164 129.854686,468.252798 157.250956,441.730731 L158.076118,440.918831 L267.67767,331.31728 C273.535534,325.459415 283.033009,325.459415 288.890873,331.31728 C294.748737,337.175144 294.748737,346.672619 288.890873,352.530483 L179.289322,462.132034 L179.289322,462.132034 C140.236893,501.184464 76.9203948,501.184464 37.8679656,462.132034 C-1.18446353,423.079605 -1.18446353,359.763107 37.8679656,320.710678 L147.469517,211.109127 C153.327381,205.251263 162.824856,205.251263 168.68272,211.109127 Z M320.710678,37.8679656 C359.763107,-1.18446353 423.079605,-1.18446353 462.132034,37.8679656 C501.184464,76.9203948 501.184464,140.236893 462.132034,179.289322 L352.530483,288.890873 C346.672619,294.748737 337.175144,294.748737 331.31728,288.890873 C325.459415,283.033009 325.459415,273.535534 331.31728,267.67767 L440.918831,158.076118 L440.918831,158.076118 C468.255531,130.739418 468.255531,86.4178695 440.918831,59.0811691 C413.855498,32.0178357 370.145314,31.7472023 342.749044,58.2692691 L341.923882,59.0811691 L232.32233,168.68272 C226.464466,174.540585 216.966991,174.540585 211.109127,168.68272 C205.251263,162.824856 205.251263,153.327381 211.109127,147.469517 L320.710678,37.8679656 L320.710678,37.8679656 Z M334.852814,143.933983 C340.710678,138.076118 350.208153,138.076118 356.066017,143.933983 C361.923882,149.791847 361.923882,159.289322 356.066017,165.147186 L165.147186,356.066017 C159.289322,361.923882 149.791847,361.923882 143.933983,356.066017 C138.076118,350.208153 138.076118,340.710678 143.933983,334.852814 L334.852814,143.933983 Z" id="Shape" fill="#000000" fill-rule="nonzero"></path>
    </g>
</svg>