<?xml version="1.0" encoding="UTF-8"?>
<svg width="500px" height="500px" viewBox="0 0 500 500" version="1.1" xmlns="http://www.w3.org/2000/svg" xmlns:xlink="http://www.w3.org/1999/xlink">
    <title>link-remove</title>
    <g id="link-remove" stroke="none" stroke-width="1" fill="none" fill-rule="evenodd">
        <path d="M284.597892,213.90616 L285.776695,215.066017 L289.312229,218.601551 C295.170094,224.459415 295.170094,233.95689 289.312229,239.814755 C283.454365,245.672619 273.95689,245.672619 268.099026,239.814755 L264.563492,236.279221 C237.500158,209.215887 193.789975,208.945254 166.393705,235.467321 L165.568542,236.279221 L59.5025253,342.345238 C32.1658249,369.681938 32.1658249,414.003487 59.5025253,441.340187 C86.5658587,468.403521 130.276042,468.674154 157.672312,442.152087 L158.497475,441.340187 L218.601551,381.236111 C224.459415,375.378246 233.95689,375.378246 239.814755,381.236111 C245.672619,387.093975 245.672619,396.59145 239.814755,402.449314 L179.710678,462.553391 C140.658249,501.60582 77.3417511,501.60582 38.2893219,462.553391 C-0.763107294,423.500961 -0.763107294,360.184464 38.2893219,321.132034 L144.355339,215.066017 C183.017244,176.404112 245.460363,176.017493 284.597892,213.90616 Z M462.553391,38.2893219 C501.60582,77.3417511 501.60582,140.658249 462.553391,179.710678 L356.487373,285.776695 C317.434944,324.829124 254.118446,324.829124 215.066017,285.776695 L211.530483,282.241161 C205.672619,276.383297 205.672619,266.885822 211.530483,261.027958 C217.302203,255.256239 226.607272,255.17136 232.482913,260.773323 L232.743687,261.027958 L236.279221,264.563492 C263.342554,291.626825 307.052737,291.897459 334.449007,265.375392 L335.27417,264.563492 L441.340187,158.497475 C468.676888,131.160774 468.676888,86.8392257 441.340187,59.5025253 C414.276854,32.4391919 370.566671,32.1685586 343.1704,58.6906253 L342.345238,59.5025253 L282.241161,119.606602 C276.383297,125.464466 266.885822,125.464466 261.027958,119.606602 C255.170094,113.748737 255.170094,104.251263 261.027958,98.3933983 L321.132034,38.2893219 C360.184464,-0.763107294 423.500961,-0.763107294 462.553391,38.2893219 Z M107.107418,182.228713 C109.251545,190.230704 104.502808,198.455759 96.5008164,200.599886 L28.8860086,218.717219 C20.884017,220.861346 12.6589627,216.112609 10.5148355,208.110617 C8.37070834,200.108626 13.1194457,191.883572 21.1214372,189.739444 L88.7362451,171.622111 C96.7382366,169.477984 104.963291,174.226721 107.107418,182.228713 Z M88.0335263,66.8203228 L137.531001,116.317798 C143.388865,122.175662 143.388865,131.673137 137.531001,137.531001 C131.673137,143.388865 122.175662,143.388865 116.317798,137.531001 L66.8203228,88.0335263 C60.9624584,82.1756619 60.9624584,72.6781872 66.8203228,66.8203228 C72.6781872,60.9624584 82.1756619,60.9624584 88.0335263,66.8203228 Z M208.110617,10.5148355 C216.112609,12.6589627 220.861346,20.884017 218.717219,28.8860086 L200.599886,96.5008164 C198.455759,104.502808 190.230704,109.251545 182.228713,107.107418 C174.226721,104.963291 169.477984,96.7382366 171.622111,88.7362451 L189.739444,21.1214372 C191.883572,13.1194457 200.108626,8.37070834 208.110617,10.5148355 Z" id="Shape" fill="#000000" fill-rule="nonzero"></path>
    </g>
</svg>