<?xml version="1.0" encoding="UTF-8"?>
<svg width="500px" height="500px" viewBox="0 0 500 500" version="1.1" xmlns="http://www.w3.org/2000/svg" xmlns:xlink="http://www.w3.org/1999/xlink">
    <title>link</title>
    <g id="link" stroke="none" stroke-width="1" fill="none" fill-rule="evenodd">
        <path d="M158.076118,200.502525 L179.289322,221.715729 L59.0811691,341.923882 C31.7444687,369.260582 31.7444687,413.58213 59.0811691,440.918831 C86.1445025,467.982164 129.854686,468.252798 157.250956,441.730731 L158.076118,440.918831 L278.284271,320.710678 L299.497475,341.923882 L179.289322,462.132034 C140.236893,501.184464 76.9203948,501.184464 37.8679656,462.132034 C-1.18446353,423.079605 -1.18446353,359.763107 37.8679656,320.710678 L158.076118,200.502525 Z M320.710678,37.8679656 C359.763107,-1.18446353 423.079605,-1.18446353 462.132034,37.8679656 C501.184464,76.9203948 501.184464,140.236893 462.132034,179.289322 L341.923882,299.497475 L320.710678,278.284271 L440.918831,158.076118 C468.255531,130.739418 468.255531,86.4178695 440.918831,59.0811691 C413.855498,32.0178357 370.145314,31.7472023 342.749044,58.2692691 L341.923882,59.0811691 L221.715729,179.289322 L200.502525,158.076118 L320.710678,37.8679656 Z M334.852814,143.933983 C340.710678,138.076118 350.208153,138.076118 356.066017,143.933983 C361.923882,149.791847 361.923882,159.289322 356.066017,165.147186 L165.147186,356.066017 C159.289322,361.923882 149.791847,361.923882 143.933983,356.066017 C138.076118,350.208153 138.076118,340.710678 143.933983,334.852814 L334.852814,143.933983 Z" id="Shape" fill="#000000" fill-rule="nonzero"></path>
    </g>
</svg>