<?xml version="1.0" encoding="UTF-8"?>
<svg width="500px" height="500px" viewBox="0 0 500 500" version="1.1" xmlns="http://www.w3.org/2000/svg" xmlns:xlink="http://www.w3.org/1999/xlink">
    <title>list-numbered</title>
    <g id="list-numbered" stroke="none" stroke-width="1" fill="none" fill-rule="evenodd">
        <path d="M44.5452509,350.359375 C56.3160842,350.359375 65.7041051,353.171875 72.7093134,358.796875 C79.7145217,364.421875 83.2171259,372.442708 83.2171259,382.859375 C83.2171259,387.807292 81.6546259,392.507812 78.5296259,396.960938 C75.4046259,401.414062 71.1077509,404.890625 65.6390009,407.390625 C71.9410842,409.630208 76.7457717,413.067708 80.0530634,417.703125 C83.3603551,422.338542 85.0140009,427.729167 85.0140009,433.875 C85.0140009,444.291667 81.2249384,452.481771 73.6468134,458.445312 C66.0686884,464.408854 56.3681676,467.390625 44.5452509,467.390625 C33.9723342,467.390625 24.8968134,464.591146 17.3186884,458.992188 C9.87122072,453.489763 6.20904168,445.761438 6.33215126,435.807212 L6.3421259,435.28125 L6.4983759,434.8125 L28.6077509,434.8125 L28.6126286,435.233489 C28.7101833,439.419395 30.2710573,442.885837 33.2952509,445.632812 C36.4202509,448.471354 40.3785842,449.890625 45.1702509,449.890625 C50.4306676,449.890625 54.5843134,448.432292 57.6311884,445.515625 C60.6780634,442.598958 62.2015009,438.640625 62.2015009,433.640625 C62.2015009,427.651042 60.7041051,423.263021 57.7093134,420.476562 C54.805273,417.774542 50.5666749,416.382592 44.9935191,416.300713 L44.4671259,416.296875 L31.6546259,416.296875 L31.6546259,399.1875 L44.4671259,399.1875 L44.9556762,399.18359 C50.1255568,399.10018 53.9731234,397.682213 56.4983759,394.929688 C59.1025426,392.091146 60.4046259,388.145833 60.4046259,383.09375 C60.4046259,378.510417 59.1025426,374.838542 56.4983759,372.078125 C53.8942092,369.317708 50.1181676,367.9375 45.1702509,367.9375 C40.8994176,367.9375 37.3056676,369.1875 34.3890009,371.6875 C31.5695565,374.104167 30.1128435,377.250868 30.018862,381.127604 L30.0140009,381.53125 L7.9046259,381.53125 L7.7483759,381.0625 L7.73502362,380.578254 C7.56115999,371.889721 10.9770691,364.707386 17.9827509,359.03125 C25.1181676,353.25 33.9723342,350.359375 44.5452509,350.359375 Z M460,384 C473.807119,384 485,395.192881 485,409 C485,422.807119 473.807119,434 460,434 L160,434 C146.192881,434 135,422.807119 135,409 C135,395.192881 146.192881,384 160,384 L460,384 Z M43.4515009,190.359375 C55.1702509,190.359375 64.3890009,193.40625 71.1077509,199.5 C77.8265009,205.59375 81.1858759,213.71875 81.1858759,223.875 C81.1858759,230.75 79.2978551,237.104167 75.5218134,242.9375 C75.0292862,243.69837 74.4944475,244.489367 73.9172972,245.310491 L73.3260431,246.141659 L73.3260431,246.141659 L72.7065812,246.992911 C72.600987,247.13646 72.4942174,247.280846 72.3862724,247.426069 L71.724499,248.307449 C71.6118528,248.45602 71.4980313,248.605427 71.3830344,248.755671 L70.6789495,249.667179 C70.5592514,249.82077 70.4383779,249.975199 70.3163291,250.130464 L69.5699326,251.072099 C69.4431826,251.230712 69.3152572,251.390162 69.1861565,251.550449 L68.3974484,252.522212 L68.3974484,252.522212 L67.5805327,253.51406 L67.5805327,253.51406 L66.7354092,254.525992 L66.7354092,254.525992 L65.862078,255.55801 L65.862078,255.55801 L64.9605392,256.610113 L64.9605392,256.610113 L64.0307926,257.682302 L64.0307926,257.682302 L63.0728383,258.774575 C62.9108286,258.958294 62.7476436,259.14285 62.5832833,259.328243 L61.5830175,260.450644 L61.5830175,260.450644 L60.5545439,261.59313 L60.5545439,261.59313 L59.4978627,262.755701 L59.4978627,262.755701 L58.4129738,263.938357 L58.4129738,263.938357 L57.2998771,265.141098 L57.2998771,265.141098 L56.7327509,265.75 L36.4983759,287.859375 L36.6546259,288.25 L66.1858759,288.25 L67.1233759,277 L84.4671259,277 L84.4671259,305.75 L6.8108759,305.75 L6.8108759,290.828125 L43.6077509,251.375 L44.1012964,250.806496 L45.0613794,249.686195 L45.0613794,249.686195 L45.9854517,248.588173 L45.9854517,248.588173 L46.8735132,247.512428 C47.0185226,247.334994 47.1620315,247.158488 47.30404,246.98291 L48.1380854,245.940582 L48.1380854,245.940582 L48.93612,244.920532 L48.93612,244.920532 L49.698144,243.92276 C49.9461501,243.593882 50.1881545,243.268717 50.4241571,242.947266 L51.1141596,241.994049 L51.1141596,241.994049 L51.7681513,241.06311 L51.7681513,241.06311 L52.3861322,240.154449 C53.3860916,238.65858 54.2360061,237.255534 54.9358759,235.945312 C57.1754592,231.752604 58.2952509,227.859375 58.2952509,224.265625 C58.2952509,219.473958 57.0061884,215.554688 54.4280634,212.507812 C51.8499384,209.460938 48.1910842,207.9375 43.4515009,207.9375 C38.1910842,207.9375 34.1936884,209.721354 31.4593134,213.289062 C28.8103876,216.74528 27.4445353,221.313494 27.3617563,226.993706 L27.3577509,227.546875 L5.1702509,227.546875 L5.0140009,227.078125 L5.00339914,226.520028 C4.87741773,216.502415 8.25334749,208.003551 15.1311884,201.023438 C22.1363967,193.914062 31.5765009,190.359375 43.4515009,190.359375 Z M460,224 C473.807119,224 485,235.192881 485,249 C485,262.807119 473.807119,274 460,274 L161,274 C147.192881,274 136,262.807119 136,249 C136,235.192881 147.192881,224 161,224 L460,224 Z M57.0061884,32 L57.0061884,129.734375 L76.2249384,132.078125 L76.2249384,145.75 L15.0530634,145.75 L15.0530634,132.078125 L34.2718134,129.734375 L34.2718134,52.703125 L14.8186884,52.703125 L14.8186884,39.65625 L57.0061884,32 Z M460,64 C473.807119,64 485,75.1928813 485,89 C485,102.807119 473.807119,114 460,114 L160,114 C146.192881,114 135,102.807119 135,89 C135,75.1928813 146.192881,64 160,64 L460,64 Z" id="Shape" fill="#000000"></path>
    </g>
</svg>