<?xml version="1.0" encoding="UTF-8"?>
<svg width="500px" height="500px" viewBox="0 0 500 500" version="1.1" xmlns="http://www.w3.org/2000/svg" xmlns:xlink="http://www.w3.org/1999/xlink">
    <title>list-bulleted</title>
    <g id="list-bulleted" stroke="none" stroke-width="1" fill="none" fill-rule="evenodd">
        <path d="M50,364 C74.8528137,364 95,384.147186 95,409 C95,433.852814 74.8528137,454 50,454 C25.1471863,454 5,433.852814 5,409 C5,384.147186 25.1471863,364 50,364 Z M460,384 C473.807119,384 485,395.192881 485,409 C485,422.807119 473.807119,434 460,434 L160,434 C146.192881,434 135,422.807119 135,409 C135,395.192881 146.192881,384 160,384 L460,384 Z M50,204.333333 C74.8528137,204.333333 95,224.48052 95,249.333333 C95,274.186147 74.8528137,294.333333 50,294.333333 C25.1471863,294.333333 5,274.186147 5,249.333333 C5,224.48052 25.1471863,204.333333 50,204.333333 Z M460,224 C473.807119,224 485,235.192881 485,249 C485,262.807119 473.807119,274 460,274 L161,274 C147.192881,274 136,262.807119 136,249 C136,235.192881 147.192881,224 161,224 L460,224 Z M50,44 C74.8528137,44 95,64.1471863 95,89 C95,113.852814 74.8528137,134 50,134 C25.1471863,134 5,113.852814 5,89 C5,64.1471863 25.1471863,44 50,44 Z M460,64 C473.807119,64 485,75.1928813 485,89 C485,102.807119 473.807119,114 460,114 L160,114 C146.192881,114 135,102.807119 135,89 C135,75.1928813 146.192881,64 160,64 L460,64 Z" id="Combined-Shape" fill="#000000"></path>
    </g>
</svg>