<?xml version="1.0" encoding="UTF-8"?>
<svg width="500px" height="500px" viewBox="0 0 500 500" version="1.1" xmlns="http://www.w3.org/2000/svg" xmlns:xlink="http://www.w3.org/1999/xlink">
    <title>list-bulleted</title>
    <g id="list-bulleted" stroke="none" stroke-width="1" fill="none" fill-rule="evenodd">
        <path d="M50,390 C69.3299662,390 85,405.670034 85,425 C85,444.329966 69.3299662,460 50,460 C30.6700338,460 15,444.329966 15,425 C15,405.670034 30.6700338,390 50,390 Z M473,400 C486.807119,400 498,411.192881 498,425 C498,438.807119 486.807119,450 473,450 L125,450 C111.192881,450 100,438.807119 100,425 C100,411.192881 111.192881,400 125,400 L473,400 Z M50,273.333333 C69.3299662,273.333333 85,289.003367 85,308.333333 C85,327.6633 69.3299662,343.333333 50,343.333333 C30.6700338,343.333333 15,327.6633 15,308.333333 C15,289.003367 30.6700338,273.333333 50,273.333333 Z M473,283 C486.807119,283 498,294.192881 498,308 C498,321.807119 486.807119,333 473,333 L125,333 C111.192881,333 100,321.807119 100,308 C100,294.192881 111.192881,283 125,283 L473,283 Z M50,156.666667 C69.3299662,156.666667 85,172.3367 85,191.666667 C85,210.996633 69.3299662,226.666667 50,226.666667 C30.6700338,226.666667 15,210.996633 15,191.666667 C15,172.3367 30.6700338,156.666667 50,156.666667 Z M473,167 C486.807119,167 498,178.192881 498,192 C498,205.807119 486.807119,217 473,217 L126,217 C112.192881,217 101,205.807119 101,192 C101,178.192881 112.192881,167 126,167 L473,167 Z M50,40 C69.3299662,40 85,55.6700338 85,75 C85,94.3299662 69.3299662,110 50,110 C30.6700338,110 15,94.3299662 15,75 C15,55.6700338 30.6700338,40 50,40 Z M473,50 C486.807119,50 498,61.1928813 498,75 C498,88.8071187 486.807119,100 473,100 L125,100 C111.192881,100 100,88.8071187 100,75 C100,61.1928813 111.192881,50 125,50 L473,50 Z" id="Shape" fill="#000000"></path>
    </g>
</svg>