<?xml version="1.0" encoding="UTF-8"?>
<svg width="500px" height="500px" viewBox="0 0 500 500" version="1.1" xmlns="http://www.w3.org/2000/svg" xmlns:xlink="http://www.w3.org/1999/xlink">
    <title>list-numbered</title>
    <g id="list-numbered" stroke="none" stroke-width="1" fill="none" fill-rule="evenodd">
        <path d="M68.2861328,385 L68.2861328,434.091797 L77.1484375,434.091797 L77.1484375,444.511719 L68.2861328,444.511719 L68.2861328,452.192383 L76.6113281,453.803711 L76.6113281,463.203125 L44.2773438,463.203125 L44.2773438,453.803711 L52.65625,452.192383 L52.65625,444.511719 L20.7519531,444.511719 L20,436.831055 L52.4951172,385 L68.2861328,385 Z M473,400 C486.807119,400 498,411.192881 498,425 C498,438.807119 486.807119,450 473,450 L125,450 C111.192881,450 100,438.807119 100,425 C100,411.192881 111.192881,400 125,400 L473,400 Z M52.3339844,405.786133 L51.0449219,408.041992 L34.6630859,434.091797 L52.65625,434.091797 L52.65625,405.893555 L52.3339844,405.786133 Z M48.5205078,267.87207 C56.6129557,267.87207 63.0672201,269.805664 67.8833008,273.672852 C72.6993815,277.540039 75.1074219,283.054362 75.1074219,290.21582 C75.1074219,293.617513 74.0332031,296.849121 71.8847656,299.910645 C69.7363281,302.972168 66.7822266,305.362305 63.0224609,307.081055 C67.3551432,308.620768 70.6583659,310.984049 72.9321289,314.170898 C75.2058919,317.357747 76.3427734,321.063802 76.3427734,325.289062 C76.3427734,332.450521 73.737793,338.081217 68.527832,342.181152 C63.3178711,346.281087 56.648763,348.331055 48.5205078,348.331055 C41.2516276,348.331055 35.012207,346.406413 29.8022461,342.557129 C24.7031354,338.789745 22.1850836,333.504595 22.2480909,326.70168 L22.2558594,326.255859 L22.3632812,325.933594 L37.5634766,325.933594 L37.5686328,326.291996 C37.6511328,329.138934 38.7236328,331.499121 40.7861328,333.372559 C42.9345703,335.324056 45.6559245,336.299805 48.9501953,336.299805 C52.5667318,336.299805 55.4223633,335.297201 57.5170898,333.291992 C59.6118164,331.286784 60.6591797,328.56543 60.6591797,325.12793 C60.6591797,321.010091 59.6297201,317.993327 57.5708008,316.077637 C55.5854143,314.230364 52.692731,313.273741 48.8927506,313.207767 L48.4667969,313.204102 L39.6582031,313.204102 L39.6582031,301.441406 L48.4667969,301.441406 L48.8620929,301.437673 C52.3864622,301.370465 55.0118583,300.395961 56.7382812,298.51416 C58.5286458,296.562663 59.4238281,293.85026 59.4238281,290.376953 C59.4238281,287.225911 58.5286458,284.701497 56.7382812,282.803711 C54.9479167,280.905924 52.351888,279.957031 48.9501953,279.957031 C46.0139974,279.957031 43.5432943,280.816406 41.5380859,282.535156 C39.6130859,284.185156 38.6120859,286.330156 38.5350859,288.970156 L38.5302734,289.302734 L23.3300781,289.302734 L23.2226562,288.980469 L23.2119751,288.564653 C23.115743,282.628485 25.464681,277.718262 30.2587891,273.833984 C35.164388,269.859375 41.2516276,267.87207 48.5205078,267.87207 Z M473,283 C486.807119,283 498,294.192881 498,308 C498,321.807119 486.807119,333 473,333 L125,333 C111.192881,333 100,321.807119 100,308 C100,294.192881 111.192881,283 125,283 L473,283 Z M47.7685547,151.87207 C55.8251953,151.87207 62.1630859,153.966797 66.7822266,158.15625 C71.4013672,162.345703 73.7109375,167.931641 73.7109375,174.914062 C73.7109375,179.640625 72.4129232,184.009115 69.8168945,188.019531 C69.5202055,188.477865 69.2011845,188.952099 68.8598314,189.442235 L68.3310527,190.189365 C68.2401314,190.315875 68.1478144,190.443378 68.0541016,190.571875 L67.4750757,191.354783 C67.3757799,191.487256 67.2750884,191.620722 67.173001,191.755182 L66.5437281,192.573868 C66.4360577,192.712303 66.3269917,192.851733 66.2165298,192.992156 L65.5370097,193.84662 L65.5370097,193.84662 L64.8239915,194.724936 C64.5807358,195.021684 64.3318971,195.322406 64.0774753,195.627105 L63.2974609,196.553125 L63.2974609,196.553125 L62.4839485,197.502997 C62.3455716,197.663297 62.2057989,197.824591 62.0646305,197.986878 L61.2008709,198.972529 L61.2008709,198.972529 L60.3036133,199.982031 L60.3036133,199.982031 L59.3728575,201.015386 L59.3728575,201.015386 L58.4086037,202.072592 L58.4086037,202.072592 L57.4108518,203.153651 L57.4108518,203.153651 L56.8994141,203.703125 L42.9882812,218.90332 L43.0957031,219.171875 L63.3984375,219.171875 L64.0429688,211.4375 L75.9667969,211.4375 L75.9667969,231.203125 L22.578125,231.203125 L22.578125,220.944336 L47.8759766,193.820312 L48.2927131,193.339814 C48.7047618,192.862216 49.1027471,192.393318 49.4866691,191.93312 L50.2357618,191.024324 C52.6702339,188.033674 54.4796675,185.4297 55.6640625,183.212402 C57.203776,180.329915 57.9736328,177.65332 57.9736328,175.182617 C57.9736328,171.888346 57.0874023,169.193848 55.3149414,167.099121 C53.5424805,165.004395 51.0270182,163.957031 47.7685547,163.957031 C44.1520182,163.957031 41.4038086,165.183431 39.5239258,167.63623 C37.7163462,169.994692 36.7777952,173.106311 36.7082729,176.971088 L36.7041016,177.438477 L21.4501953,177.438477 L21.3427734,177.116211 L21.3343348,176.625826 C21.272926,169.785046 23.594261,163.977641 28.2983398,159.203613 C33.1144206,154.315918 39.6044922,151.87207 47.7685547,151.87207 Z M473,167 C486.807119,167 498,178.192881 498,192 C498,205.807119 486.807119,217 473,217 L126,217 C112.192881,217 101,205.807119 101,192 C101,178.192881 112.192881,167 126,167 L473,167 Z M57.0874023,37 L57.0874023,104.192383 L70.300293,105.803711 L70.300293,115.203125 L28.2446289,115.203125 L28.2446289,105.803711 L41.4575195,104.192383 L41.4575195,51.2333984 L28.0834961,51.2333984 L28.0834961,42.2636719 L57.0874023,37 Z M473,50 C486.807119,50 498,61.1928813 498,75 C498,88.8071187 486.807119,100 473,100 L125,100 C111.192881,100 100,88.8071187 100,75 C100,61.1928813 111.192881,50 125,50 L473,50 Z" id="Shape" fill="#000000"></path>
    </g>
</svg>