<?xml version="1.0" encoding="UTF-8"?>
<svg width="500px" height="500px" viewBox="0 0 500 500" version="1.1" xmlns="http://www.w3.org/2000/svg" xmlns:xlink="http://www.w3.org/1999/xlink">
    <title>list</title>
    <g id="list" stroke="none" stroke-width="1" fill="none" fill-rule="evenodd">
        <path d="M70,385 C70,393.284271 63.2842712,400 55,400 L47.5,400 C35.0735931,400 25,393.284271 25,385 C25,376.715729 35.0735931,370 47.5,370 L55,370 C63.2842712,370 70,376.715729 70,385 Z M452.5,370 C464.926407,370 475,376.715729 475,385 C475,393.284271 464.926407,400 452.5,400 L115,400 C106.715729,400 100,393.284271 100,385 C100,376.715729 106.715729,370 115,370 L452.5,370 Z M70,295 C70,303.284271 63.2842712,310 55,310 L40,310 C31.7157288,310 25,303.284271 25,295 C25,286.715729 31.7157288,280 40,280 L55,280 C63.2842712,280 70,286.715729 70,295 Z M460,280 C468.284271,280 475,286.715729 475,295 C475,303.284271 468.284271,310 460,310 L115,310 C106.715729,310 100,303.284271 100,295 C100,286.715729 106.715729,280 115,280 L460,280 Z M70,205 C70,213.284271 63.2842712,220 55,220 L40,220 C31.7157288,220 25,213.284271 25,205 C25,196.715729 31.7157288,190 40,190 L55,190 C63.2842712,190 70,196.715729 70,205 Z M460,190 C468.284271,190 475,196.715729 475,205 C475,213.284271 468.284271,220 460,220 L115,220 C106.715729,220 100,213.284271 100,205 C100,196.715729 106.715729,190 115,190 L460,190 Z M70,115 C70,123.284271 63.2842712,130 55,130 L40,130 C31.7157288,130 25,123.284271 25,115 C25,106.715729 31.7157288,100 40,100 L55,100 C63.2842712,100 70,106.715729 70,115 Z M460,100 C468.284271,100 475,106.715729 475,115 C475,123.284271 468.284271,130 460,130 L115,130 C106.715729,130 100,123.284271 100,115 C100,106.715729 106.715729,100 115,100 L460,100 Z" id="Shape" fill="#000000"></path>
    </g>
</svg>