<?xml version="1.0" encoding="UTF-8"?>
<svg width="500px" height="500px" viewBox="0 0 500 500" version="1.1" xmlns="http://www.w3.org/2000/svg" xmlns:xlink="http://www.w3.org/1999/xlink">
    <title>live-now</title>
    <g id="live-now" stroke="none" stroke-width="1" fill="none" fill-rule="evenodd">
        <path d="M20.6,297 L63,297 L63,284.5 L34.8,284.5 L34.8,230.3 L20.6,230.3 L20.6,297 Z M72.9,297 L87.1,297 L87.1,230.3 L72.9,230.3 L72.9,297 Z M119,297 L136.8,297 L162.5,230.3 L146.3,230.3 L127.9,281.6 L109.4,230.3 L93.2,230.3 L119,297 Z M168.7,297 L215.9,297 L215.9,284.7 L182.9,284.7 L182.9,269.2 L215.2,269.2 L215.2,257 L182.9,257 L182.9,242.5 L215.9,242.5 L215.9,230.3 L168.7,230.3 L168.7,297 Z M298.6,297 L312.3,297 L312.3,230.3 L298.1,230.3 L298.1,273.5 L267.2,230.3 L252.6,230.3 L252.6,297 L266.8,297 L266.8,252.2 L298.6,297 Z M322.3,263.7 C322.3,283.8 337,298.2 357.1,298.2 C377.3,298.2 392,283.8 392,263.7 C392,243.6 377.3,229.2 357.1,229.2 C337,229.2 322.3,243.6 322.3,263.7 Z M377.4,263.7 C377.4,276.1 369.4,285.6 357.1,285.6 C344.8,285.6 336.9,276.1 336.9,263.7 C336.9,251.2 344.8,241.8 357.1,241.8 C369.4,241.8 377.4,251.2 377.4,263.7 Z M451,297 L466.1,297 L485.1,230.3 L469.1,230.3 L457.5,278.5 L444.9,230.3 L433.8,230.3 L421.1,278.5 L409.4,230.3 L393.5,230.3 L412.6,297 L427.7,297 L439.3,251.2 L451,297 Z" id="Shape" fill="#000000"></path>
    </g>
</svg>