<?xml version="1.0" encoding="UTF-8"?>
<svg width="500px" height="500px" viewBox="0 0 500 500" version="1.1" xmlns="http://www.w3.org/2000/svg" xmlns:xlink="http://www.w3.org/1999/xlink">
    <title>live</title>
    <g id="live" stroke="none" stroke-width="1" fill="none" fill-rule="evenodd">
        <path d="M421.433789,109.012433 C499.411349,186.989993 499.386484,313.877585 421.421356,391.842712 L421.421356,391.842712 L399.664225,370.085581 C465.631848,304.117957 465.656713,196.74962 399.676657,130.769564 L399.676657,130.769564 Z M78.4089236,109.012433 L100.166055,130.769564 C34.1859993,196.74962 34.2108646,304.117957 100.178488,370.085581 L78.4213562,391.842712 C0.456228768,313.877585 0.431363475,186.989993 78.4089236,109.012433 Z M377.907093,152.514263 C431.91451,206.521681 431.902077,294.333464 377.907093,348.328449 L377.907093,348.328449 L356.149961,326.571317 C398.135009,284.586269 398.135009,216.256443 356.149961,174.271395 L356.149961,174.271395 Z M121.93562,152.514263 L143.692751,174.271395 C101.707704,216.256443 101.707704,284.586269 143.692751,326.571317 L121.93562,348.328449 C67.9406351,294.333464 67.9282024,206.521681 121.93562,152.514263 Z M334.405262,196.04096 C364.380373,226.016071 364.392806,274.814209 334.392829,304.814186 L334.392829,304.814186 L312.635698,283.057054 C330.625737,265.067014 330.650603,235.800564 312.64813,217.798091 L312.64813,217.798091 Z M165.437451,196.04096 L187.194582,217.798091 C169.19211,235.800564 169.216975,265.067014 187.207015,283.057054 L165.449883,304.814186 C135.449907,274.814209 135.462339,226.016071 165.437451,196.04096 Z M250,200 C277.614237,200 300,222.385763 300,250 C300,277.614237 277.614237,300 250,300 C222.385763,300 200,277.614237 200,250 C200,222.385763 222.385763,200 250,200 Z" id="Shape" fill="#000000"></path>
    </g>
</svg>