<?xml version="1.0" encoding="UTF-8"?>
<svg width="500px" height="500px" viewBox="0 0 500 500" version="1.1" xmlns="http://www.w3.org/2000/svg" xmlns:xlink="http://www.w3.org/1999/xlink">
    <title>location-filled</title>
    <g id="location-filled" stroke="none" stroke-width="1" fill="none" fill-rule="evenodd">
        <path d="M335,460 C343.284271,460 350,466.715729 350,475 C350,483.284271 343.284271,490 335,490 L165,490 C156.715729,490 150,483.284271 150,475 C150,466.715729 156.715729,460 165,460 L335,460 Z M250,15 C341.126984,15 415,88.8730163 415,180 C415,208.571902 407.811144,234.2972 393.230171,261.158737 L392.525052,262.449962 L391.814388,263.73571 L391.097501,265.017005 L390.009018,266.932834 L389.273605,268.207467 L388.529594,269.481227 L387.776307,270.755133 L387.013065,272.03021 L386.23919,273.30748 L385.454002,274.587965 L384.656823,275.872689 L383.642455,277.48611 L382.606965,279.109748 L381.762476,280.417356 L380.467322,282.395662 L379.136028,284.397307 L378.227291,285.746409 L377.300795,287.108439 L376.355862,288.484422 L375.391813,289.87538 L373.908414,291.992131 L372.378189,294.148327 L370.798846,296.347418 L369.717532,297.839015 L368.051239,300.117269 L366.329721,302.447623 L365.150231,304.03184 L363.331584,306.456694 L362.085221,308.107107 L360.163082,310.636049 L358.175796,313.232044 L356.121072,315.898545 L353.996619,318.639001 L351.800147,321.456865 L348.755532,325.340393 L346.382111,328.352294 L343.09325,332.507065 L339.657357,336.828081 L323.792941,356.733742 L313.531662,369.678642 L309.928633,374.248944 L304.732803,380.873869 L302.057624,384.304883 L298.24567,389.223613 L295.231421,393.142736 L293.484889,395.427552 L290.663685,399.142755 L289.017829,401.325459 L287.401913,403.480309 L285.286567,406.319951 L283.723939,408.431945 L281.152424,411.935016 L279.978773,413.545404 L278.56464,415.495428 L277.151725,417.454247 L275.736638,419.426386 L274.315993,421.416372 L272.167191,424.444714 L269.986823,427.53867 L267.763456,430.713514 L265.485655,433.984522 L263.141985,437.366969 L250,456.402701 L236.858015,437.366969 L233.748324,432.882558 L231.489938,429.645302 L230.013177,427.53867 L228.555527,425.467988 L226.397473,422.419472 L224.263362,419.426386 L222.848275,417.454247 L221.43536,415.495428 L220.021227,413.545404 L217.308807,409.834657 L215.236321,407.025287 L214.188324,405.612996 L212.062512,402.764769 L209.888523,399.873769 L207.656256,396.926502 L204.768579,393.142736 L202.368253,390.019531 L198.593779,385.142775 L195.267197,380.873869 L192.473131,377.305623 L187.518298,371.008785 L180.379256,361.986933 L168.461366,347.005695 L160.342643,336.828081 L156.070962,331.453107 L153.617889,328.352294 L150.470633,324.355587 L148.199853,321.456865 L146.003381,318.639001 L143.878928,315.898545 L141.824204,313.232044 L139.836918,310.636049 L137.914779,308.107107 L136.055499,305.641769 L134.256786,303.236581 L132.516352,300.888095 L130.831904,298.592857 L129.738913,297.090578 L128.142688,294.876421 L126.596345,292.706309 L125.592029,291.282335 L124.608187,289.87538 L123.644138,288.484422 L122.699205,287.108439 L121.772709,285.746409 L120.863972,284.397307 L119.972314,283.060113 L118.665368,281.074411 L117.813441,279.762511 L116.562911,277.809956 L115.746474,276.516959 L114.943046,275.229733 L114.151948,273.947257 L113.372501,272.668507 L112.986935,272.03021 L112.223693,270.755133 L111.470406,269.481227 L110.726395,268.207467 L109.990982,266.932834 L109.263488,265.656302 L108.543236,264.376851 L107.829545,263.093457 L106.769829,261.158737 C92.1888565,234.2972 85,208.571902 85,180 C85,88.8730163 158.873016,15 250,15 Z M250,95 C214.101491,95 185,124.101491 185,160 C185,195.898509 214.101491,225 250,225 C285.898509,225 315,195.898509 315,160 C315,124.101491 285.898509,95 250,95 Z" id="Shape" fill="#000000" fill-rule="nonzero"></path>
    </g>
</svg>