<?xml version="1.0" encoding="UTF-8"?>
<svg width="500px" height="500px" viewBox="0 0 500 500" version="1.1" xmlns="http://www.w3.org/2000/svg" xmlns:xlink="http://www.w3.org/1999/xlink">
    <title>location</title>
    <g id="location" stroke="none" stroke-width="1" fill="none" fill-rule="evenodd">
        <path d="M335,460 C343.284271,460 350,466.715729 350,475 C350,483.284271 343.284271,490 335,490 L165,490 C156.715729,490 150,483.284271 150,475 C150,466.715729 156.715729,460 165,460 L335,460 Z M250,15 C341.126984,15 415,88.8730163 415,180 C415,208.571902 407.811144,234.2972 393.230171,261.158737 L392.525052,262.449962 L391.814388,263.73571 L391.097501,265.017005 L390.009018,266.932834 L389.273605,268.207467 L388.529594,269.481227 L387.776307,270.755133 L387.013065,272.03021 L386.23919,273.30748 L385.454002,274.587965 L384.656823,275.872689 L383.642455,277.48611 L383.642455,277.48611 L382.606965,279.109748 L381.762476,280.417356 L380.467322,282.395662 L379.136028,284.397307 L378.227291,285.746409 L377.300795,287.108439 L376.355862,288.484422 L375.391813,289.87538 L373.908414,291.992131 L372.378189,294.148327 L370.798846,296.347418 L369.717532,297.839015 L368.051239,300.117269 L366.329721,302.447623 L365.150231,304.03184 L363.331584,306.456694 L362.085221,308.107107 L360.163082,310.636049 L358.175796,313.232044 L356.121072,315.898545 L353.996619,318.639001 L351.800147,321.456865 L348.755532,325.340393 L346.382111,328.352294 L343.09325,332.507065 L339.657357,336.828081 L323.792941,356.733742 L313.531662,369.678642 L309.928633,374.248944 L304.732803,380.873869 L302.057624,384.304883 L298.24567,389.223613 L295.231421,393.142736 L293.484889,395.427552 L290.663685,399.142755 L289.017829,401.325459 L287.401913,403.480309 L285.286567,406.319951 L283.723939,408.431945 L281.152424,411.935016 L279.978773,413.545404 L278.56464,415.495428 L277.151725,417.454247 L275.736638,419.426386 L274.315993,421.416372 L272.167191,424.444714 L269.986823,427.53867 L267.763456,430.713514 L265.485655,433.984522 L263.141985,437.366969 L250,456.402701 L236.858015,437.366969 L233.748324,432.882558 L231.489938,429.645302 L230.013177,427.53867 L228.555527,425.467988 L226.397473,422.419472 L224.263362,419.426386 L222.848275,417.454247 L221.43536,415.495428 L220.021227,413.545404 L217.308807,409.834657 L215.236321,407.025287 L214.188324,405.612996 L212.062512,402.764769 L209.888523,399.873769 L207.656256,396.926502 L204.768579,393.142736 L202.368253,390.019531 L198.593779,385.142775 L195.267197,380.873869 L192.473131,377.305623 L187.518298,371.008785 L180.379256,361.986933 L168.461366,347.005695 L160.342643,336.828081 L156.070962,331.453107 L153.617889,328.352294 L150.470633,324.355587 L148.199853,321.456865 L146.003381,318.639001 L143.878928,315.898545 L141.824204,313.232044 L139.836918,310.636049 L137.914779,308.107107 L136.055499,305.641769 L134.256786,303.236581 L132.516352,300.888095 L130.831904,298.592857 L129.738913,297.090578 L128.142688,294.876421 L126.596345,292.706309 L125.592029,291.282335 L124.608187,289.87538 L123.644138,288.484422 L122.699205,287.108439 L121.772709,285.746409 L120.863972,284.397307 L119.972314,283.060113 L118.665368,281.074411 L117.813441,279.762511 L116.562911,277.809956 L116.562911,277.809956 L115.746474,276.516959 L114.943046,275.229733 L114.151948,273.947257 L113.372501,272.668507 L112.986935,272.03021 L112.223693,270.755133 L111.470406,269.481227 L110.726395,268.207467 L109.990982,266.932834 L109.263488,265.656302 L108.543236,264.376851 L107.829545,263.093457 L106.769829,261.158737 L106.769829,261.158737 C92.1888565,234.2972 85,208.571902 85,180 C85,88.8730163 158.873016,15 250,15 Z M250,45 C175.441559,45 115,105.441559 115,180 C115,203.305977 120.834554,224.184907 133.135845,246.846743 L134.095683,248.598349 L134.743988,249.762864 L135.399771,250.925908 L136.06367,252.088431 L136.736324,253.251383 L137.418373,254.415714 L138.110456,255.582373 L138.813212,256.752309 L139.888756,258.515437 L139.888756,258.515437 L140.991911,260.29128 L140.991911,260.29128 L142.124833,262.083045 L142.897717,263.287983 L143.685429,264.50237 L144.488608,265.727158 L145.307893,266.963294 L146.143925,268.21173 L146.997341,269.473414 L147.868781,270.749297 L148.758885,272.040327 L150.130432,274.007351 L151.06999,275.340405 L152.518716,277.374916 L154.016626,279.454193 L155.565876,281.58144 L157.168625,283.759862 L158.267911,285.242157 L159.964618,287.512994 L161.720576,289.843552 L163.537943,292.237037 L165.418876,294.696653 L167.365532,297.225606 L169.380069,299.827101 L171.464644,302.504341 L174.356754,306.197363 L177.382325,310.038339 L181.359759,315.059193 L197.153022,334.874941 L205.875353,345.856376 L212.401656,354.114347 L216.61729,359.476942 L221.663384,365.936609 L224.821657,370.008509 L228.32651,374.559712 L229.776095,376.453573 L232.130552,379.5458 L234.867446,383.167976 L236.205046,384.949999 L238.396591,387.887553 L240.550079,390.796776 L242.676104,393.691831 L243.942944,395.427955 L244.900028,396.745071 C246.09544,398.393117 247.288093,400.048394 248.48673,401.72259 L250,403.841 L250.312314,403.403526 C251.421631,401.847652 252.523388,400.311161 253.624431,398.7849 L255.512512,396.176764 L257.620703,393.286272 L260.175627,389.813819 L262.77515,386.314126 L264.541946,383.953826 L266.797944,380.960184 L269.58874,377.285733 L272.982981,372.854888 L276.031736,368.905728 L279.776864,364.087627 L284.340705,358.255914 L289.248578,352.02182 L295.234977,344.45554 L304.085622,333.318994 L316.986403,317.138912 L321.053243,312.016684 L324.899565,307.143439 L327.824561,303.414142 L329.23813,301.603314 L331.299119,298.951678 L333.939648,295.531775 L335.842249,293.049403 L337.680565,290.63423 L339.456753,288.283052 L340.607428,286.749571 L341.732089,285.242157 L343.371702,283.027837 L344.434124,281.58144 L345.983374,279.454193 L347.481284,277.374916 L348.93001,275.340405 L349.869568,274.007351 L351.241115,272.040327 L352.131219,270.749297 L353.002659,269.473414 L353.856075,268.21173 L354.692107,266.963294 L355.511392,265.727158 L356.314571,264.50237 L357.102283,263.287983 L357.875167,262.083045 L359.008089,260.29128 L360.111244,258.515437 L360.831208,257.338803 L361.53954,256.166872 L362.236879,254.998693 L362.923865,253.833317 L363.601137,252.669794 L364.269334,251.507175 L364.929095,250.34451 L365.581059,249.18085 L366.225866,248.015244 L366.864155,246.846743 C379.165446,224.184907 385,203.305977 385,180 C385,105.441559 324.558441,45 250,45 Z M250,95 C285.898509,95 315,124.101491 315,160 C315,195.898509 285.898509,225 250,225 C214.101491,225 185,195.898509 185,160 C185,124.101491 214.101491,95 250,95 Z M250,125 C230.670034,125 215,140.670034 215,160 C215,179.329966 230.670034,195 250,195 C269.329966,195 285,179.329966 285,160 C285,140.670034 269.329966,125 250,125 Z" id="Shape" fill="#000000" fill-rule="nonzero"></path>
    </g>
</svg>