<?xml version="1.0" encoding="UTF-8"?>
<svg width="500px" height="500px" viewBox="0 0 500 500" version="1.1" xmlns="http://www.w3.org/2000/svg" xmlns:xlink="http://www.w3.org/1999/xlink">
    <title>lock</title>
    <g id="lock" stroke="none" stroke-width="1" fill="none" fill-rule="evenodd">
        <path d="M300,50 C355.228475,50 400,94.771525 400,150 L400,245 L410,245 C432.09139,245 450,262.90861 450,285 L450,455 C450,477.09139 432.09139,495 410,495 L90,495 C67.90861,495 50,477.09139 50,455 L50,285 C50,262.90861 67.90861,245 90,245 L100,245 L100,150 C100,94.771525 144.771525,50 200,50 L300,50 Z M410,275 L90,275 C84.5707601,275 80.1520683,279.326671 80.0038418,284.720095 L80,285 L80,455 C80,460.42924 84.3266708,464.847932 89.7200952,464.996158 L90,465 L410,465 C415.42924,465 419.847932,460.673329 419.996158,455.279905 L420,455 L420,285 C420,279.57076 415.673329,275.152068 410.279905,275.003842 L410,275 Z M250,340 C258.284271,340 265,346.715729 265,355 L265,400 C265,408.284271 258.284271,415 250,415 C241.715729,415 235,408.284271 235,400 L235,355 C235,346.715729 241.715729,340 250,340 Z M300,80 L200,80 C161.726667,80 130.627533,110.7164 130.009378,148.842422 L130,150 L130,245 L160,245 L160,155 C160,127.385763 182.385763,105 210,105 L290,105 C317.614237,105 340,127.385763 340,155 L340,245 L370,245 L370,150 C370,111.726667 339.2836,80.6275333 301.157578,80.009378 L300,80 Z M290,135 L210,135 C199.069364,135 190.186775,143.768729 190.002907,154.655511 L190,155 L190,240 L310,240 L310,155 C310,144.069364 301.231271,135.186775 290.344489,135.002907 L290,135 Z" id="Shape" fill="#000000" fill-rule="nonzero"></path>
    </g>
</svg>