<?xml version="1.0" encoding="UTF-8"?>
<svg width="500px" height="500px" viewBox="0 0 500 500" version="1.1" xmlns="http://www.w3.org/2000/svg" xmlns:xlink="http://www.w3.org/1999/xlink">
    <title>lounge-cushion</title>
    <g id="lounge-cushion" stroke="none" stroke-width="1" fill="none" fill-rule="evenodd">
        <path d="M83.75,392.416961 L50,438 L16.25,438 L50,392.416961 L83.75,392.416961 Z M450,392.416961 L483.75,438 L450,438 L416.25,392.416961 L450,392.416961 Z M404.990659,62 C435.751123,62 457.482865,85.0585372 453.931765,113.66571 L440,218.325088 L406.25,218.325088 L420.406575,110.000986 C421.619119,100.351823 415.667122,93.9472594 405.344264,93.8045548 L404.990659,93.8021201 L95.0093411,93.8021201 L94.6556555,93.8045537 C84.3304748,93.9471953 78.3804229,100.34897 79.5934106,110.00089 L93.4939128,216.366007 C93.7412418,216.02429 94.0175881,215.699882 94.321673,215.395865 C95.6663123,214.051226 97.4276347,213.245682 99.318288,213.102343 L99.8747413,213.076208 C100.252652,213.027103 102.671776,212.34489 111.037269,203.936466 L111.35377,203.617515 C115.400206,199.529493 119.716037,194.787956 123.632109,190.405168 L130.710958,182.442833 C132.482407,180.460299 133.912292,178.891412 134.902072,177.902072 L135.413379,177.400784 C136.643,176.215347 138.485517,174.559246 140.747982,172.547853 L145.55141,168.28445 C150.419559,163.955212 155.945154,158.978657 160.617179,154.354442 L161.546115,153.427913 C169.122086,145.811076 169.977605,143.399449 170.070361,142.891466 L170.076208,142.855257 L170.085278,142.619428 L170.085278,142.619428 C170.161536,140.614881 170.979883,138.737319 172.396537,137.321337 C173.892136,135.82473 175.88291,135 178.000332,135 C180.117754,135 182.108192,135.824394 183.604799,137.322681 C184.946256,138.663501 185.751331,140.4201 185.897199,142.306553 L185.924792,142.874741 C185.974175,143.256032 186.670912,145.730557 195.383149,154.354106 C200.054891,158.978321 205.58068,163.954637 210.448897,168.284002 L216.867293,173.987732 C218.601676,175.540352 219.997896,176.815419 220.937254,177.741877 L221.098256,177.901736 C222.348227,179.151428 224.300874,181.325599 226.757024,184.09045 L230.716349,188.55141 C235.045788,193.419559 240.022343,198.945154 244.646558,203.617179 L245.583998,204.556938 C253.186593,212.117073 255.597889,212.976606 256.108547,213.070238 L256.145407,213.076208 L256.367127,213.08427 L256.367127,213.08427 C258.376713,213.158177 260.25965,213.976524 261.678991,215.395865 C263.175934,216.892472 264.001,218.883246 264.001,221.001004 C264.001,223.11809 263.17627,225.108528 261.678991,226.605471 C260.33467,227.95011 258.573063,228.755353 256.682379,228.898945 L256.31451,228.919375 L256.31451,228.919375 L256.126259,228.925128 C255.744968,228.974511 253.270443,229.671584 244.64723,238.383485 C239.733701,243.347511 234.422951,249.275139 229.913309,254.353959 L225.861022,258.918547 C224.018756,260.986326 222.507682,262.657922 221.426341,263.767434 L221.099264,264.098928 C220.213868,264.984324 218.864975,266.221931 217.171079,267.741236 L209.51335,274.549832 C208.519552,275.435487 207.5031,276.344697 206.476248,277.269362 C219.215312,276.498198 233.733928,276.001975 250,276.002541 C323,276.005081 360.502967,286.001701 360.502967,286.001701 L360.555842,285.277485 C360.702891,283.492235 361.128637,278.927427 361.474887,276.967743 L361.504363,276.806276 C362.731458,270.313743 364.947337,263.800666 368.461044,257.604102 C379.072019,238.891216 398.920108,227.524489 427.865842,228.015276 C456.005092,228.492387 475.438421,239.438093 486.15168,257.057894 C489.917267,263.251051 492.297152,269.774603 493.615811,276.280893 C494.077927,278.560979 494.377401,280.695304 494.546676,282.644114 L494.553145,282.774068 C494.657394,285.774229 494.692582,331.178661 494.692582,331.178661 C494.114457,355.439443 480.973264,372.040233 460.244175,381.008146 C453.103695,384.097293 445.602645,386.044376 438.126457,387.122503 L437.481872,387.208509 C434.614024,387.566308 429.254688,387.964758 428.648502,387.982241 L72.0977402,388 L72.0977402,388 L70.7652327,387.967403 C69.947449,387.943358 69.4295769,387.918019 68.8767117,387.884875 C66.6653587,387.752306 64.2367294,387.517114 61.6377329,387.153562 C54.1945094,386.112389 46.7255112,384.231789 39.6106615,381.246072 C18.3325433,372.316799 5,355.531962 5,330.909557 L5.09193979,287.744392 C5.10673616,285.069519 5.1235654,283.341189 5.14259962,283.113017 C5.30508987,281.165172 5.59277593,279.030309 6.03692188,276.748518 C7.30581801,270.229587 9.5966121,263.691302 13.2257983,257.476342 C23.8814017,239.228685 43.5293773,228.013005 72.0977402,228.013005 C87.0258957,228.013005 99.5183356,231.075531 109.564794,236.603621 L108.636522,235.703902 C102.243325,229.569389 100.2408,228.977681 99.8542491,228.924456 L99.6332013,228.916394 L99.6332013,228.916394 C97.6239514,228.842487 95.7406785,228.023804 94.321673,226.604799 C92.8247297,225.108192 92,223.117418 92,221.000332 C92,220.074107 92.1578584,219.172059 92.4608035,218.324992 L60,218.325088 L46.1835998,114.534274 C42.078136,85.5203957 63.9393018,62 95.0093411,62 L404.990659,62 Z M393.658576,269.029169 C391.545073,272.756419 390.143513,276.875987 389.361,281.016244 L389.307256,281.322273 C389.044768,282.915819 388.750354,286.05903 388.754646,286.001174 L388.755372,316 L359,316 L357.468827,315.728578 C348.2744,314.128826 299.1372,306 250,306 C195.5,306 141,316 141,316 L110.9438,316 L110.9438,286.003272 C110.9438,285.95291 110.60542,282.520937 110.325335,281.081952 C109.525001,276.970099 108.091181,272.877603 105.926525,269.170506 C100.028355,259.069555 89.8796597,253.276149 72.0977402,253.276149 C54.3156904,253.276149 44.1669722,259.069355 38.2688568,269.169842 C36.1042414,272.876733 34.6704488,276.969002 33.8701301,281.080625 C33.6250607,282.339664 33.4582321,283.50772 33.3559334,284.552303 L33.3160019,284.992327 C33.2653945,285.598982 33.277498,331.616071 33.2599926,331.784724 C33.5231702,345.526237 40.0273965,353.514251 51.6129187,358.376067 C55.822569,360.142629 60.451685,361.349749 65.126964,362.065495 L66.0040286,362.193956 C67.6990199,362.431054 71.883384,362.719338 72.0900867,362.736857 L427.598048,362.736857 L428.507479,362.684682 C430.676349,362.552233 432.097969,362.402314 433.628494,362.1816 C438.571449,361.468785 443.48954,360.192173 447.94026,358.266683 C459.131926,353.424893 465.658918,345.49159 466.391953,332.05984 L466.382767,331.873541 C466.291658,328.627786 466.416783,285.949554 466.381004,284.628204 L466.379833,284.600466 C466.282373,283.478444 466.101726,282.190985 465.816985,280.786072 C465.001772,276.763795 463.540685,272.758779 461.331427,269.125274 C455.390343,259.354136 445.131136,253.575699 427.330254,253.273879 C409.544178,252.972309 399.502612,258.722975 393.658576,269.029169 Z M133.790053,262.945357 L133.948849,263.296225 C135.911882,267.714288 137.280118,272.236782 138.158573,276.749999 C138.602714,279.031845 139.19548,285.344904 139.19548,286.003272 L140.190797,285.75584 C142.220704,285.267514 147.348815,284.108833 155.51332,282.753827 L153.793929,281.157519 C151.202405,278.766972 148.569337,276.403542 146.089414,274.195527 L139.131975,268.012316 C137.295828,266.368722 135.838669,265.036197 134.9014,264.098928 L134.489749,263.680348 C134.272794,263.456495 134.039312,263.211078 133.790053,262.945357 Z" id="Shape" fill="#000000"></path>
    </g>
</svg>