<?xml version="1.0" encoding="UTF-8"?>
<svg width="500px" height="500px" viewBox="0 0 500 500" version="1.1" xmlns="http://www.w3.org/2000/svg" xmlns:xlink="http://www.w3.org/1999/xlink">
    <title>lounge</title>
    <g id="lounge" stroke="none" stroke-width="1" fill="none" fill-rule="evenodd">
        <path d="M46.1835998,114.534274 C42.078136,85.5203957 63.9393018,62 95.0093411,62 L404.990659,62 C436.061835,62 457.920969,85.5267189 453.8164,114.534274 L440,218.325088 L60,218.325088 L46.1835998,114.534274 Z M83.75,392.416961 L50,438 L16.25,438 L50,392.416961 L83.75,392.416961 Z M450,392.416961 L483.75,438 L450,438 L416.25,392.416961 L450,392.416961 Z M404.990659,93.8021201 C415.649355,93.8021201 421.769461,100.387707 420.362459,110.331188 L420.362459,110.331188 L406.25,218.325088 L93.75,218.325088 L79.6375414,110.331188 C78.2301215,100.384757 84.3481708,93.8021201 95.0093411,93.8021201 L95.0093411,93.8021201 Z M51.6129187,358.376067 C56.0856722,360.253039 61.0319631,361.498453 66.0040286,362.193956 C67.7503833,362.438239 72.1392678,362.736857 72.0977402,362.736857 L427.598048,362.736857 C430.299187,362.590953 431.893899,362.431743 433.628494,362.1816 C438.571449,361.468785 443.48954,360.192173 447.94026,358.266683 C459.131926,353.424893 465.658918,345.49159 466.391953,332.05984 C466.282587,331.328247 466.420637,285.070238 466.379833,284.600466 C466.282373,283.478444 466.101726,282.190985 465.816985,280.786072 C465.001772,276.763795 463.540685,272.758779 461.331427,269.125274 C455.390343,259.354136 445.131136,253.575699 427.330254,253.273879 C409.544178,252.972309 399.502612,258.722975 393.658576,269.029169 C391.545073,272.756419 390.143513,276.875987 389.361,281.016244 C389.086797,282.467047 388.750058,286.06302 388.754646,286.001174 L388.755372,316 L359,316 C359,316 304.5,306 250,306 C195.5,306 141,316 141,316 L110.9438,316 L110.9438,286.003272 C110.9438,285.95291 110.60542,282.520937 110.325335,281.081952 C109.525001,276.970099 108.091181,272.877603 105.926525,269.170506 C100.028355,259.069555 89.8796597,253.276149 72.0977402,253.276149 C54.3156904,253.276149 44.1669722,259.069355 38.2688568,269.169842 C36.1042414,272.876733 34.6704488,276.969002 33.8701301,281.080625 C33.5900508,282.519527 33.4121635,283.839594 33.3160019,284.992327 C33.2653945,285.598982 33.277498,331.616071 33.2599926,331.784724 C33.5231702,345.526237 40.0273965,353.514251 51.6129187,358.376067 Z M494.692582,331.178661 C494.114457,355.439443 480.973264,372.040233 460.244175,381.008146 C453.103695,384.097293 445.602645,386.044376 438.126457,387.122503 C435.514353,387.49919 429.303838,387.963341 428.648502,387.982241 C428.203184,387.995085 72.0977402,388 72.0977402,388 C70.4110119,387.964781 69.6808792,387.933085 68.8767117,387.884875 C66.6653587,387.752306 64.2367294,387.517114 61.6377329,387.153562 C54.1945094,386.112389 46.7255112,384.231789 39.6106615,381.246072 C18.3325433,372.316799 5,355.531962 5,330.909557 C5,330.909557 5.03801597,284.366709 5.14259962,283.113017 C5.30508987,281.165172 5.59277593,279.030309 6.03692188,276.748518 C7.30581801,270.229587 9.5966121,263.691302 13.2257983,257.476342 C23.8814017,239.228685 43.5293773,228.013005 72.0977402,228.013005 C100.666233,228.013005 120.314232,239.22911 130.96978,257.477343 C134.598926,263.692461 136.889693,270.230908 138.158573,276.749999 C138.602714,279.031845 139.19548,285.344904 139.19548,286.003272 C139.19548,286.003272 177,276 250,276.002541 C323,276.005081 360.502967,286.001701 360.502967,286.001701 C360.504138,285.708444 361.075155,279.077208 361.504363,276.806276 C362.731458,270.313743 364.947337,263.800666 368.461044,257.604102 C379.072019,238.891216 398.920108,227.524489 427.865842,228.015276 C456.005092,228.492387 475.438421,239.438093 486.15168,257.057894 C489.917267,263.251051 492.297152,269.774603 493.615811,276.280893 C494.077927,278.560979 494.377401,280.695304 494.546676,282.644114 C494.655943,283.902076 494.692582,331.178661 494.692582,331.178661 Z" id="Shape" fill="#000000"></path>
    </g>
</svg>