<?xml version="1.0" encoding="UTF-8"?>
<svg width="500px" height="500px" viewBox="0 0 500 500" version="1.1" xmlns="http://www.w3.org/2000/svg" xmlns:xlink="http://www.w3.org/1999/xlink">
    <title>ltr</title>
    <g id="ltr" stroke="none" stroke-width="1" fill="none" fill-rule="evenodd">
        <path d="M470,5 C483.807119,5 495,16.1928813 495,30 C495,43.8071187 483.807119,55 470,55 L351,55 L351,470 C351,483.807119 339.807119,495 326,495 C312.192881,495 301,483.807119 301,470 L301,55 L251,55 L251,470 C251,483.807119 239.807119,495 226,495 C212.192881,495 201,483.807119 201,470 L201,55 L130,55 C88.5786438,55 55,88.5786438 55,130 C55,171.421356 88.5786438,205 130,205 L155,205 C168.807119,205 180,216.192881 180,230 C180,243.807119 168.807119,255 155,255 L130,255 C60.9644063,255 5,199.035594 5,130 C5,60.9644063 60.9644063,5 130,5 L470,5 Z M7.92893219,286.208932 C11.7631707,282.374694 17.9363852,282.30498 21.8556774,285.999792 L22.0710678,286.208932 L117.928932,382.066797 C121.763171,385.901035 121.832884,392.07425 118.138072,395.993542 L117.928932,396.208932 L22.0710678,492.066797 C20.195704,493.94216 17.6521649,494.995729 15,494.995729 C9.57076009,494.995729 5.15206828,490.669058 5.0038418,485.275634 L5,484.995729 L5,293.28 C5,290.627835 6.0535684,288.084296 7.92893219,286.208932 Z" id="Shape" fill="#000000" fill-rule="nonzero"></path>
    </g>
</svg>