<?xml version="1.0" encoding="UTF-8"?>
<svg width="500px" height="500px" viewBox="0 0 500 500" version="1.1" xmlns="http://www.w3.org/2000/svg" xmlns:xlink="http://www.w3.org/1999/xlink">
    <title>mailer</title>
    <g id="mailer" stroke="none" stroke-width="1" fill="none" fill-rule="evenodd">
        <path d="M365.305791,240 C369.535995,240 373.644014,243.355666 374.488795,247.495089 L379.044185,269.816489 C385.226823,271.700666 391.154056,274.170713 396.761214,277.161956 L415.77073,264.596344 C419.296412,262.265809 424.576683,262.799988 427.565519,265.788823 L449.211177,287.434481 C452.202382,290.425687 452.733904,295.704024 450.403657,299.229272 L437.838047,318.238792 C440.829287,323.845944 443.299334,329.773177 445.183513,335.955819 L467.504911,340.511206 C471.644846,341.356091 475,345.467357 475,349.694209 L475,380.305791 C475,384.535995 471.644334,388.644014 467.504911,389.488795 L445.183511,394.044185 C443.299334,400.226823 440.829287,406.154056 437.838044,411.761214 L450.403656,430.77073 C452.734191,434.296412 452.200012,439.576683 449.211177,442.565519 L427.565519,464.211177 C424.574313,467.202382 419.295976,467.733904 415.770728,465.403657 L396.761208,452.838047 C391.154056,455.829287 385.226823,458.299334 379.044181,460.183513 L374.488794,482.504911 C373.643909,486.644846 369.532643,490 365.305791,490 L334.694209,490 C330.464005,490 326.355986,486.644334 325.511205,482.504911 L320.955815,460.183511 C314.773177,458.299334 308.845944,455.829287 303.238786,452.838044 L284.22927,465.403656 C280.703588,467.734191 275.423317,467.200012 272.434481,464.211177 L250.788823,442.565519 C247.797618,439.574313 247.266096,434.295976 249.596343,430.770728 L262.161953,411.761208 C259.170713,406.154056 256.700666,400.226823 254.816487,394.044181 L232.495089,389.488794 C228.355154,388.643909 225,384.532643 225,380.305791 L225,349.694209 C225,345.464005 228.355666,341.355986 232.495089,340.511205 L254.816489,335.955815 C256.700666,329.773177 259.170713,323.845944 262.161956,318.238786 L249.596344,299.22927 C247.265809,295.703588 247.799988,290.423317 250.788823,287.434481 L272.434481,265.788823 C275.425687,262.797618 280.704024,262.266096 284.229272,264.596343 L303.238792,277.161953 C308.845944,274.170713 314.773177,271.700666 320.955819,269.816487 L325.511206,247.495089 C326.356091,243.355154 330.467357,240 334.694209,240 L365.305791,240 Z M350,326.734694 C328.866655,326.734694 311.734694,343.866655 311.734694,365 C311.734694,386.133345 328.866655,403.265306 350,403.265306 C371.133345,403.265306 388.265306,386.133345 388.265306,365 C388.265306,343.866655 371.133345,326.734694 350,326.734694 Z M450,35 C474.604286,35 494.596586,54.7462573 494.993971,79.2558427 L495.001037,80 L495.001037,323.635358 C490.556261,318.613228 484.855337,314.692952 478.36583,312.448154 L477.755143,312.242631 L477.536,312.172 L477.640517,311.970397 L477.864563,311.521186 C485.082918,296.808381 482.385187,278.496871 470.778814,266.580415 L470.42438,266.221278 L465,260.797 L465,110.96 L281.172026,228.531557 C278.474599,230.593194 275.602187,232.310092 272.613311,233.682249 C268.902005,234.292292 265.272296,235.423098 261.854168,237.060431 C249.888693,239.221275 237.233286,236.499891 227.005739,228.897732 L226.519934,228.531557 L35,105.082 L35,350 C35,358.179407 41.5467864,364.82973 49.6861718,364.996782 L50,365 L194.999,364.999 L195,380.305791 L195.004007,380.859571 L195.014589,381.362371 C195.14608,386.122744 196.16272,390.730272 197.914469,395.000884 L50,395.000884 C25.3957144,395.000884 5.40341429,375.253743 5.00602871,350.744157 L5,350 L5,80 C5,55.3957144 24.7462573,35.4034143 49.2558427,35.0060287 L50,35 L450,35 Z M456.923093,68.3381234 L50.7709889,68.3381234 L50.655764,68.4403521 C50.4954932,68.5866476 50.3417253,68.7403002 50.1947282,68.9006671 L49.9793441,69.1461727 L49.7747976,69.4017479 C47.3730471,72.5441758 47.9082197,77.0092287 50.9399088,79.5003379 L51.1457151,79.6634514 L244.737298,204.696128 C250.01839,208.732455 257.311675,208.804532 262.664631,204.91236 L262.954662,204.696128 L456.546245,79.6634514 C457.461912,78.9636092 458.198212,78.0584049 458.696853,77.0226363 L458.82691,76.7369731 L458.933564,76.4751684 C460.013463,73.6731337 459.251256,70.5830951 457.200296,68.5920857 L457.00426,68.4086907 L456.923093,68.3381234 Z" id="Shape" fill="#000000" fill-rule="nonzero"></path>
    </g>
</svg>