<?xml version="1.0" encoding="UTF-8"?>
<svg width="500px" height="500px" viewBox="0 0 500 500" version="1.1" xmlns="http://www.w3.org/2000/svg" xmlns:xlink="http://www.w3.org/1999/xlink">
    <title>mail</title>
    <g id="mail" stroke="none" stroke-width="1" fill="none" fill-rule="evenodd">
        <path d="M445,130 C469.189506,130 489.366994,147.177493 493.999777,169.999794 L495,170 C495,171.383836 494.886819,172.767671 494.660458,174.144248 C494.884811,176.06519 495,178.019143 495,180 L495,440 C495,467.614237 472.614237,490 445,490 L55,490 C27.3857625,490 5,467.614237 5,440 L5,180 C5,178.019143 5.11518924,176.06519 5.33923472,174.144475 C5.11318064,172.767671 5,171.383836 5,170 L6.00042613,169.998793 C10.6335958,147.176991 30.8108473,130 55,130 L445,130 Z M465,205.871 L287.041441,329.35379 C266.584018,343.548737 233.415982,343.548737 212.958559,329.35379 L35,205.871 L35,440 C35,450.930636 43.7687286,459.813225 54.6555106,460 L445,460 C455.930636,460 464.813225,451.231271 465,440.344489 L465,205.871 Z M445.344489,160 L55,160 C47.2402912,160 40.5127252,164.419129 37.1956526,170.877995 L37.4455136,171.054581 L230.061006,304.706147 C240.113832,311.681577 259.308188,311.763641 269.576109,304.952338 L269.938994,304.706147 L462.554486,171.054581 L462.803794,170.878865 C459.537098,164.515072 452.958847,160.130633 445.344489,160 Z" id="Shape" fill="#000000" fill-rule="nonzero"></path>
    </g>
</svg>