<?xml version="1.0" encoding="UTF-8"?>
<svg width="500px" height="500px" viewBox="0 0 500 500" version="1.1" xmlns="http://www.w3.org/2000/svg" xmlns:xlink="http://www.w3.org/1999/xlink">
    <title>mail-reply-all</title>
    <g id="mail-reply-all" stroke="none" stroke-width="1" fill="none" fill-rule="evenodd">
        <path d="M306,125.208153 L320.994949,140.208153 L306,155.208153 L180,155.208153 C99.9187113,155.208153 35,220.126864 35,300.208153 C35,380.289442 99.9187113,445.208153 180,445.208153 L385,445.208153 C393.284271,445.208153 400,451.923882 400,460.208153 C400,468.492424 393.284271,475.208153 385,475.208153 L180,475.208153 C83.3501688,475.208153 5,396.857984 5,300.208153 C5,203.558322 83.3501688,125.208153 180,125.208153 L306,125.208153 Z M364.606602,9.39339828 L495.421356,140.208153 L364.606602,271.022907 C358.748737,276.880772 349.251263,276.880772 343.393398,271.022907 C337.535534,265.165043 337.535534,255.667568 343.393398,249.809704 L452.994949,140.208153 L343.393398,30.6066017 C337.535534,24.7487373 337.535534,15.2512627 343.393398,9.39339828 C349.251263,3.53553391 358.748737,3.53553391 364.606602,9.39339828 Z M262.606602,9.39339828 L393.421356,140.208153 L262.606602,271.022907 C256.748737,276.880772 247.251263,276.880772 241.393398,271.022907 C235.535534,265.165043 235.535534,255.667568 241.393398,249.809704 L350.994949,140.208153 L241.393398,30.6066017 C235.535534,24.7487373 235.535534,15.2512627 241.393398,9.39339828 C247.251263,3.53553391 256.748737,3.53553391 262.606602,9.39339828 Z" id="Shape" fill="#000000" transform="translate(250.210678, 240.104076) scale(-1, 1) translate(-250.210678, -240.104076) "></path>
    </g>
</svg>