<?xml version="1.0" encoding="UTF-8"?>
<svg width="500px" height="500px" viewBox="0 0 500 500" version="1.1" xmlns="http://www.w3.org/2000/svg" xmlns:xlink="http://www.w3.org/1999/xlink">
    <title>mail-open</title>
    <g id="mail-open" stroke="none" stroke-width="1" fill="none" fill-rule="evenodd">
        <path d="M287.041441,15.6462099 L340.873,52.999 L465,53 L465,139.128 L479.656933,149.297776 C491.406337,157.450424 496.407653,168.512309 494.66088,179.141681 C494.884696,181.063246 495,183.018158 495,185 L495,445 C495,472.614237 472.614237,495 445,495 L55,495 C27.3857625,495 5,472.614237 5,445 L5,185 C5,183.018158 5.1153039,181.063246 5.33956927,179.141607 C3.59234704,168.512309 8.59366275,157.450424 20.3430671,149.297776 L34.999,139.127 L34.999,53 L159.126,52.999 L212.958559,15.6462099 C233.415982,1.45126338 266.584018,1.45126338 287.041441,15.6462099 Z M465,210.871 L287.041441,334.35379 C266.584018,348.548737 233.415982,348.548737 212.958559,334.35379 L35,210.871 L35,445 C35,455.930636 43.7687286,464.813225 54.6555106,465 L445,465 C455.930636,465 464.813225,456.231271 465,445.344489 L465,210.871 Z M436.5,83 L63.499,83 L63.499,194.132 L230.061006,309.706147 C240.113832,316.681577 259.308188,316.763641 269.576109,309.952338 L269.938994,309.706147 L436.5,194.133 L436.5,83 Z M335,180 C343.284271,180 350,186.715729 350,195 C350,203.284271 343.284271,210 335,210 L165,210 C156.715729,210 150,203.284271 150,195 C150,186.715729 156.715729,180 165,180 L335,180 Z M195,120 C203.284271,120 210,126.715729 210,135 C210,143.284271 203.284271,150 195,150 L125,150 C116.715729,150 110,143.284271 110,135 C110,126.715729 116.715729,120 125,120 L195,120 Z" id="Shape" fill="#000000" fill-rule="nonzero"></path>
    </g>
</svg>