<?xml version="1.0" encoding="UTF-8"?>
<svg width="500px" height="500px" viewBox="0 0 500 500" version="1.1" xmlns="http://www.w3.org/2000/svg" xmlns:xlink="http://www.w3.org/1999/xlink">
    <title>mail</title>
    <g id="mail" stroke="none" stroke-width="1" fill="none" fill-rule="evenodd">
        <path d="M450,85 C474.604286,85 494.596586,104.746257 494.993971,129.255843 L495,130 L495,400 C495,424.604286 475.253743,444.596586 450.744157,444.993971 L450,445 L50,445 C25.3957144,445 5.40341429,425.253743 5.00602871,400.744157 L5,400 L5,130 C5,105.395714 24.7462573,85.4034143 49.2558427,85.0060287 L50,85 L450,85 Z M35,155.082 L35,400 C35,408.179407 41.5467864,414.82973 49.6861718,414.996782 L50,415 L450,415 C458.179407,415 464.82973,408.453214 465,400.313828 L465,400 L465,160.96 L281.172026,278.531557 C265.202004,290.737409 243.098432,290.859467 227.005739,278.897732 L226.519934,278.531557 L35,155.082 Z M456.923093,118.338123 L50.7709889,118.338123 L50.655764,118.440352 C50.4954932,118.586648 50.3417253,118.7403 50.1947282,118.900667 L49.9793441,119.146173 L49.7747976,119.401748 C47.3730471,122.544176 47.9082197,127.009229 50.9399088,129.500338 L51.1457151,129.663451 L244.737298,254.696128 C250.01839,258.732455 257.311675,258.804532 262.664631,254.91236 L262.954662,254.696128 L456.546245,129.663451 C457.461912,128.963609 458.198212,128.058405 458.696853,127.022636 L458.82691,126.736973 L458.933564,126.475168 C460.013463,123.673134 459.251256,120.583095 457.200296,118.592086 L457.00426,118.408691 L456.923093,118.338123 Z" id="Shape" fill="#000000" fill-rule="nonzero"></path>
    </g>
</svg>