<?xml version="1.0" encoding="UTF-8"?>
<svg width="500px" height="500px" viewBox="0 0 500 500" version="1.1" xmlns="http://www.w3.org/2000/svg" xmlns:xlink="http://www.w3.org/1999/xlink">
    <title>map</title>
    <g id="map" stroke="none" stroke-width="1" fill="none" fill-rule="evenodd">
        <path d="M179.769,290 L183.242483,294.430098 L186.849791,299.070653 L189.473748,302.476532 L191.650999,305.326577 L194.282,308.806 L196.504786,311.777197 L198.494463,314.466607 L200.038296,316.573078 L201.16198,318.117389 L202.522,320 L116.283,320 L47.284,460 L452.715,460 L383.716,320 L298.476,320 L299.824681,318.135702 L301.544287,315.776077 L303.382161,313.278207 L306.206224,309.486263 L308.145705,306.912418 L310.345047,304.01979 L312.89753,300.693026 L315.525746,297.296017 L319.63607,292.028736 L321.232,290 L405,290 L495,490 L5,490 L95,290 L179.769,290 Z M302.937976,431.129248 L303.154904,431.131389 C306.430848,431.233514 309.751988,431.324418 313.118319,431.404101 C315.878969,431.469446 318.063946,433.760369 317.9986,436.52102 C317.933254,439.28167 315.642331,441.466646 312.881681,441.4013 C309.490529,441.32103 306.144409,441.229442 302.843314,441.126533 C300.083231,441.04049 297.915494,438.733249 298.001537,435.973166 C298.085316,433.285717 300.274926,431.159847 302.937976,431.129248 Z M273.101284,429.811422 L273.318078,429.819368 L275.281105,429.931247 L279.245962,430.145395 C280.576203,430.214642 281.915067,430.281754 283.262553,430.34673 C286.020772,430.479732 288.14893,432.82353 288.015928,435.581749 C287.882927,438.339968 285.539129,440.468127 282.78091,440.335125 L280.74679,440.235107 L276.717175,440.025338 C275.382552,439.953252 274.056512,439.879003 272.739053,439.802591 C269.982263,439.642698 267.877061,437.278258 268.036954,434.521467 C268.19264,431.837224 270.438369,429.770726 273.101284,429.811422 Z M243.598801,427.587259 C246.829106,427.891681 250.125789,428.179746 253.488827,428.451442 C256.241283,428.673809 258.292325,431.08538 258.069957,433.837836 C257.84759,436.590292 255.436019,438.641334 252.683563,438.418967 C249.276595,438.143722 245.935602,437.851785 242.660561,437.543147 C239.911318,437.284059 237.892649,434.845325 238.151737,432.096083 C238.410824,429.34684 240.849558,427.328171 243.598801,427.587259 Z M214.056074,424.078888 C217.239389,424.547059 220.509179,424.994116 223.865391,425.420029 C226.604845,425.767673 228.543789,428.27026 228.196145,431.009714 C227.848501,433.749167 225.345913,435.688111 222.60646,435.340467 C219.185576,434.906347 215.850448,434.450357 212.601024,433.972463 C209.868989,433.570662 207.97996,431.030186 208.381761,428.298151 C208.783562,425.566115 211.324039,423.677087 214.056074,424.078888 Z M194.984446,418.665713 C198.06572,419.386824 191.26943,420.078705 194.595434,420.741232 C197.30365,421.280698 199.06177,423.913465 198.522304,426.621682 C197.982838,429.329898 195.350071,431.088018 192.641854,430.548552 C189.208856,429.864712 195.896859,429.149445 192.705719,428.402623 C190.016945,427.773369 188.347375,425.083577 188.976628,422.394804 C189.605881,419.706031 192.295673,418.03646 194.984446,418.665713 Z M167.138872,410.024812 C169.950747,411.194851 172.964319,412.320205 176.179156,413.400042 C178.796857,414.279306 180.206138,417.114156 179.326874,419.731857 C178.44761,422.349557 175.61276,423.758839 172.99506,422.879574 C169.563538,421.726955 166.331038,420.519847 163.297128,419.257418 C160.747614,418.196549 159.540829,415.269756 160.601697,412.720243 C161.662565,410.170729 164.589358,408.963944 167.138872,410.024812 Z M144.098636,395.050994 C145.871706,397.114877 148.056211,399.113381 150.659108,401.040446 C152.87848,402.683567 153.345625,405.814736 151.702504,408.034109 C150.059383,410.253482 146.928213,410.720626 144.708841,409.077505 C141.526284,406.721288 138.792147,404.219951 136.513387,401.567434 C134.713922,399.472826 134.953182,396.316055 137.047791,394.51659 C139.1424,392.717124 142.29917,392.956385 144.098636,395.050994 Z M250.5,365.161146 C253.188755,365.161146 255.381818,367.283453 255.49538,369.944257 L255.5,370.161146 L255.5,380.161146 C255.5,382.92257 253.261424,385.161146 250.5,385.161146 C247.811245,385.161146 245.618182,383.038839 245.50462,380.378036 L245.5,380.161146 L245.5,370.161146 C245.5,367.399722 247.738576,365.161146 250.5,365.161146 Z M136.228297,365.42874 C138.776539,366.280391 140.183598,368.985074 139.451557,371.543012 L139.243767,372.198205 C138.602695,374.285316 138.252144,376.68776 138.208253,379.413051 L138.199501,380.271693 C138.092177,382.932755 135.904096,385.060198 133.215348,385.066585 C130.526601,385.072807 128.328568,382.955647 128.208768,380.295117 L128.20364,380.078238 L128.209342,379.265714 C128.271176,375.358259 128.828318,371.796357 129.901247,368.586023 C130.776554,365.966997 133.609271,364.553433 136.228297,365.42874 Z M227.533371,368.505824 C230.589811,369.69097 233.712989,370.932771 236.902958,372.231229 C239.460616,373.272309 240.690045,376.189663 239.648965,378.747321 C238.607885,381.304978 235.690531,382.534408 233.132874,381.493328 C229.993712,380.21555 226.922105,378.994254 223.918103,377.829441 C221.343458,376.831112 220.0656,373.934644 221.063929,371.359998 C222.062258,368.785352 224.958726,367.507495 227.533371,368.505824 Z M199.029207,358.492524 C202.150404,359.455633 205.365947,360.499481 208.676006,361.62405 C211.290652,362.512358 212.690126,365.352062 211.801818,367.966708 C210.913511,370.581353 208.073807,371.980827 205.459161,371.09252 C202.236642,369.997691 199.110426,368.982842 196.080684,368.047952 C193.442025,367.23374 191.963019,364.434635 192.777231,361.795977 C193.591444,359.157318 196.390549,357.678312 199.029207,358.492524 Z M179.121061,351.25182 C182.339674,351.75828 185.715544,352.403197 189.249548,353.1862 C191.94559,353.783542 193.646922,356.453358 193.04958,359.1494 C192.452238,361.845442 189.782422,363.546775 187.08638,362.949432 C183.748827,362.209955 180.575291,361.603692 177.566651,361.130272 C174.838792,360.701033 172.975392,358.1417 173.40463,355.413841 C173.833868,352.685982 176.393201,350.822581 179.121061,351.25182 Z M163.437804,354.659316 C163.640242,357.413309 161.571797,359.80997 158.817804,360.012408 C155.527941,360.254236 152.650186,360.789145 150.184483,361.602051 C147.56191,362.466674 144.734979,361.041574 143.870356,358.419002 C143.005732,355.796429 144.430832,352.969498 147.053404,352.104875 C150.33816,351.02194 154.01528,350.338448 158.084711,350.039316 C160.838705,349.836878 163.235366,351.905322 163.437804,354.659316 Z M250.5,-5 C320.916306,-5 378,52.0836944 378,122.5 C378,144.587168 372.43907,164.486936 361.218381,185.158052 L360.411109,186.631981 L359.594176,188.096816 L359.043332,189.069613 L358.206445,190.525111 L357.355274,191.978499 L356.779034,192.947545 L355.900201,194.403236 L355.002459,195.863802 L354.084073,197.33186 L353.45949,198.316022 L352.824449,199.305455 L351.85115,200.801183 L350.851428,202.313136 L350.16941,203.33141 L349.121793,204.876222 L348.043127,206.444242 L346.931679,208.038089 L345.785713,209.660383 L345.001704,210.759008 L344.201068,211.872217 L342.967818,213.57107 L341.694271,215.3071 L339.930524,217.684164 L338.556203,219.517124 L336.162416,222.675367 L334.661366,224.636567 L332.046085,228.024062 L329.847059,230.847989 L326.95803,234.530497 L324.5296,237.606149 L320.681976,242.450253 L307.372759,259.154892 L300.917927,267.303221 L295.985019,273.572631 L291.874695,278.839912 L289.094911,282.432814 L286.463939,285.862348 L284.264597,288.754976 L282.143918,291.569638 L279.218198,295.498926 L277.380323,297.996795 L275.581597,300.464458 L274.293649,302.245423 L273.004771,304.039217 L271.710361,305.851985 L270.405819,307.689872 L268.419945,310.507244 L267.069947,312.434813 L264.286648,316.435974 L251.311824,335.226718 C253.615179,335.602799 255.389614,337.552735 255.495041,339.936438 L255.5,340.161146 L255.5,350.161146 C255.5,352.92257 253.261424,355.161146 250.5,355.161146 C247.811245,355.161146 245.618182,353.038839 245.50462,350.378036 L245.5,350.161146 L245.5,340.161146 C245.5,337.675795 247.313348,335.613974 249.689173,335.226555 L236.713352,316.435974 L233.930053,312.434813 L232.580055,310.507244 L230.594181,307.689872 L229.289639,305.851985 L227.995229,304.039217 L226.706351,302.245423 L225.418403,300.464458 L224.235444,298.838986 L222.691612,296.732515 L220.623676,293.936817 L218.257241,290.772122 L215.489324,287.113002 L213.237641,284.165951 L210.535335,280.658835 L206.928026,276.01828 L203.02101,271.032718 L197.869405,264.504383 L187.945528,252.013834 L178.362791,239.992588 L175.242862,236.053465 L172.289468,232.300064 L169.494579,228.720259 L167.367396,225.973256 L165.832736,223.977086 L163.385502,220.76444 L161.980656,218.901166 L160.178005,216.4864 L159.305729,215.3071 L158.032182,213.57107 L156.798932,211.872217 L155.998296,210.759008 L154.828356,209.116296 L154.068321,208.038089 L152.956873,206.444242 L151.878207,204.876222 L150.83059,203.33141 L150.148572,202.313136 L149.14885,200.801183 L148.175551,199.305455 L147.54051,198.316022 L146.915927,197.33186 L146.301291,196.352192 L145.39686,194.88942 L144.511916,193.432396 L143.644726,191.978499 L142.793555,190.525111 L141.956668,189.069613 L141.405824,188.096816 L140.588891,186.631981 L139.781619,185.158052 C128.56093,164.486936 123,144.587168 123,122.5 C123,52.0836944 180.083694,-5 250.5,-5 Z M250.5,25 C196.652237,25 153,68.6522369 153,122.5 C153,139.321242 157.206628,154.374644 166.147636,170.846058 L166.617999,171.707093 L167.333085,172.995399 L167.816864,173.853132 L168.306838,174.710773 L168.803484,175.569027 L169.562,176.859094 L170.338194,178.154494 L171.133668,179.4576 L171.675487,180.33179 L172.506654,181.653011 L173.073751,182.541476 L173.651789,183.43688 L174.5404,184.794538 L175.147867,185.710369 L175.767938,186.6356 L176.72271,188.042613 L177.708507,189.474733 L178.726929,190.934333 L179.779578,192.423785 L180.868056,193.945464 L181.993964,195.501741 L183.158902,197.09499 L184.364474,198.727583 L185.191553,199.839009 L186.903921,202.120296 L188.240999,203.88516 L190.574782,206.936298 L192.540868,209.482263 L195.128527,212.805266 L197.867608,216.294685 L200.172877,219.213422 L203.829687,223.816714 L214.205226,236.831542 L222.068833,246.739907 L227.275304,253.342904 L231.608338,258.880176 L234.888049,263.107092 L237.298536,266.238959 L239.926568,269.682959 L242.443479,273.014947 L244.874461,276.268608 L246.361384,278.277339 L247.907696,280.381996 L248.811086,281.619126 L250.5,283.947 L251.288319,282.857996 L252.188914,281.619126 L253.708951,279.540744 L256.125539,276.268608 L258.865919,272.603423 L261.073432,269.682959 L263.701464,266.238959 L266.822192,262.188626 L270.535637,257.413646 L275.400653,251.212367 L283.21399,241.336261 L288.400954,234.813836 L299.029176,221.480367 L302.565753,217.013505 L305.336008,213.489485 L307.953358,210.134077 L310.425218,206.936298 L312.759001,203.88516 L314.096079,202.120296 L315.808447,199.839009 L317.443834,197.634699 L318.622139,196.028599 L319.760879,194.460261 L320.861656,192.927314 L321.92607,191.427383 L322.955723,189.958096 L323.952217,188.51708 L324.917153,187.101961 L325.852133,185.710369 L326.758757,184.339928 L327.348211,183.43688 L328.211135,182.09642 L328.772939,181.211162 L329.596612,179.894091 L330.133731,179.022229 L330.922601,177.721955 L331.438,176.859094 L332.196516,175.569027 L332.693162,174.710773 L333.183136,173.853132 L333.906628,172.56628 L334.382001,171.707093 L334.852364,170.846058 C343.793372,154.374644 348,139.321242 348,122.5 C348,68.6522369 304.347763,25 250.5,25 Z M250.5,70 C279.494949,70 303,93.5050506 303,122.5 C303,151.494949 279.494949,175 250.5,175 C221.505051,175 198,151.494949 198,122.5 C198,93.5050506 221.505051,70 250.5,70 Z M250.5,100 C238.073593,100 228,110.073593 228,122.5 C228,134.926407 238.073593,145 250.5,145 C262.926407,145 273,134.926407 273,122.5 C273,110.073593 262.926407,100 250.5,100 Z" id="Shape" fill="#000000" fill-rule="nonzero"></path>
    </g>
</svg>