<?xml version="1.0" encoding="UTF-8"?>
<svg width="500px" height="500px" viewBox="0 0 500 500" version="1.1" xmlns="http://www.w3.org/2000/svg" xmlns:xlink="http://www.w3.org/1999/xlink">
    <title>medal-filled</title>
    <g id="medal-filled" stroke="none" stroke-width="1" fill="none" fill-rule="evenodd">
        <path d="M250,175 C332.842712,175 400,242.157288 400,325 C400,407.842712 332.842712,475 250,475 C167.157288,475 100,407.842712 100,325 C100,242.157288 167.157288,175 250,175 Z M257.375853,249.435174 C253.582829,243.542994 246.289679,243.573853 242.546583,249.49789 L242.386098,249.75917 L222.939165,282.332783 L222.808272,282.541397 C221.565948,284.431989 218.618552,286.652077 216.45909,287.324187 L216.222519,287.3924 L178.197453,297.450644 L177.928759,297.52502 C171.18447,299.475946 169.116957,306.491701 173.729411,311.786035 L173.917477,311.996874 L199.424084,339.932681 L199.587692,340.120665 C200.995633,341.81403 202.185617,345.199102 202.149308,347.406315 L202.139,347.665344 L199.712301,385.279184 L199.698141,385.543291 C199.399299,392.55049 205.370868,396.775737 211.874884,394.156839 L212.122116,394.054089 L245.873184,379.589345 L246.148026,379.480241 C248.233485,378.712996 251.812841,378.669186 253.917149,379.385628 L254.194679,379.48804 L291.091839,394.246905 L291.335326,394.341299 C297.979777,396.835424 303.793388,392.329499 303.038169,385.275021 L303.007184,385.012588 L298.142121,347.308353 L298.117281,347.068824 C297.948078,344.948438 298.955753,341.630311 300.276583,339.95756 L300.436531,339.764909 L326.15215,310.375631 L326.333405,310.163629 C330.836641,304.771731 328.617588,297.800028 321.825133,296.001931 L321.55464,295.933656 L283.927512,286.893372 L283.692059,286.83116 C281.542143,286.213614 278.590496,284.062516 277.344144,282.204852 L277.212805,281.999745 L257.53628,249.691376 L257.375853,249.435174 Z M334,135 C342.284271,135 349,141.715729 349,150 C349,158.284271 342.284271,165 334,165 L164,165 C155.715729,165 149,158.284271 149,150 C149,141.715729 155.715729,135 164,135 L334,135 Z M463.622,15 L353.622,125 L311.195,125 L421.196,15 L463.622,15 Z M191.561,15 L249.811,73.249 L308.059,15 L350.486,15 L271.024,94.462 L301.561,125 L259.136,125 L149.136,15 L191.561,15 Z M78.426,15 L188.426,125 L146,125 L36,15 L78.426,15 Z" id="Shape" fill="#000000" fill-rule="nonzero"></path>
    </g>
</svg>