<?xml version="1.0" encoding="UTF-8"?>
<svg width="500px" height="500px" viewBox="0 0 500 500" version="1.1" xmlns="http://www.w3.org/2000/svg" xmlns:xlink="http://www.w3.org/1999/xlink">
    <title>medal</title>
    <g id="medal" stroke="none" stroke-width="1" fill="none" fill-rule="evenodd">
        <path d="M250,175 C332.842712,175 400,242.157288 400,325 C400,407.842712 332.842712,475 250,475 C167.157288,475 100,407.842712 100,325 C100,242.157288 167.157288,175 250,175 Z M250,205 C183.72583,205 130,258.72583 130,325 C130,391.27417 183.72583,445 250,445 C316.27417,445 370,391.27417 370,325 C370,258.72583 316.27417,205 250,205 Z M257.375853,249.435174 L257.53628,249.691376 L277.212805,281.999745 C278.370756,283.901072 281.462517,286.190742 283.692059,286.83116 L283.927512,286.893372 L321.55464,295.933656 C328.558028,297.616288 330.895894,304.700785 326.333405,310.163629 L326.15215,310.375631 L300.436531,339.764909 C299.03825,341.362945 297.94131,344.863623 298.117281,347.068824 L298.142121,347.308353 L303.007184,385.012588 C303.936808,392.217175 298.061807,396.866216 291.335326,394.341299 L291.091839,394.246905 L254.194679,379.48804 C252.141324,378.666698 248.328279,378.678121 246.148026,379.480241 L245.873184,379.589345 L212.122116,394.054089 C205.523052,396.882259 199.395516,392.639189 199.698141,385.543291 L199.712301,385.279184 L202.139,347.665344 C202.280467,345.472615 201.051951,341.881764 199.587692,340.120665 L199.424084,339.932681 L173.917477,311.996874 C169.062655,306.679688 171.094546,299.501958 177.928759,297.52502 L178.197453,297.450644 L216.222519,287.3924 C218.397887,286.81698 221.519936,284.502011 222.808272,282.541397 L222.939165,282.332783 L242.386098,249.75917 C246.077548,243.575992 253.527857,243.4576 257.375853,249.435174 Z M250.076,275.893 L240.111597,292.584981 C236.312664,298.948194 228.932516,304.574812 221.758666,306.611754 L221.336941,306.727412 L201.08,312.085 L214.193794,326.447294 C219.294848,332.034163 222.470353,340.905958 222.12207,348.507348 L222.097507,348.952989 L220.832,368.561 L237.994798,361.206445 C244.83857,358.2734 254.140492,358.097993 261.158089,360.738313 L261.622492,360.918507 L280.717,368.556 L278.306564,349.86778 C277.309945,342.143982 280.054504,332.915696 285.097121,326.930128 L285.384997,326.594817 L298.964,311.075 L279.255277,306.339972 C271.978499,304.591655 264.390879,299.128965 260.359898,292.770563 L260.131315,292.402758 L250.076,275.893 Z M334,135 C342.284271,135 349,141.715729 349,150 C349,158.284271 342.284271,165 334,165 L164,165 C155.715729,165 149,158.284271 149,150 C149,141.715729 155.715729,135 164,135 L334,135 Z M463.622,15 L353.622,125 L311.195,125 L421.196,15 L463.622,15 Z M191.561,15 L249.811,73.249 L308.059,15 L350.486,15 L271.024,94.462 L301.561,125 L259.136,125 L149.136,15 L191.561,15 Z M78.426,15 L188.426,125 L146,125 L36,15 L78.426,15 Z" id="Shape" fill="#000000" fill-rule="nonzero"></path>
    </g>
</svg>