<?xml version="1.0" encoding="UTF-8"?>
<svg width="500px" height="500px" viewBox="0 0 500 500" version="1.1" xmlns="http://www.w3.org/2000/svg" xmlns:xlink="http://www.w3.org/1999/xlink">
    <title>menu</title>
    <g id="menu" stroke="none" stroke-width="1" fill="none" fill-rule="evenodd">
        <path d="M310,350 C318.284271,350 325,356.715729 325,365 C325,373.284271 318.284271,380 310,380 L40,380 C31.7157288,380 25,373.284271 25,365 C25,356.715729 31.7157288,350 40,350 L310,350 Z M460,235 C468.284271,235 475,241.715729 475,250 C475,258.284271 468.284271,265 460,265 L40,265 C31.7157288,265 25,258.284271 25,250 C25,241.715729 31.7157288,235 40,235 L460,235 Z M460,120 C468.284271,120 475,126.715729 475,135 C475,143.284271 468.284271,150 460,150 L40,150 C31.7157288,150 25,143.284271 25,135 C25,126.715729 31.7157288,120 40,120 L460,120 Z" id="Shape" fill="#000000"></path>
    </g>
</svg>