<?xml version="1.0" encoding="UTF-8"?>
<svg width="500px" height="500px" viewBox="0 0 500 500" version="1.1" xmlns="http://www.w3.org/2000/svg" xmlns:xlink="http://www.w3.org/1999/xlink">
    <title>message</title>
    <g id="message" stroke="none" stroke-width="1" fill="none" fill-rule="evenodd">
        <path d="M388.809,335 L444.996149,335 C456.040888,335 465,326.04192 465,314.997837 L465,115.002163 C465,103.958982 456.043678,95 445.006667,95 L54.9933326,95 C43.9554632,95 35,103.956394 35,115.002163 L35,314.997837 C35,326.039572 43.9596957,335 55.0040961,335 L280,335 L280,429.301134 L388.809,335 Z M5,115.002163 C5,87.3867309 27.3880408,65 54.9933326,65 L445.006667,65 C472.617223,65 495,87.3954421 495,115.002163 L495,314.997837 C495,342.613269 472.606624,365 444.996149,365 L400,365 L250,495 L250,365 L55.0040961,365 C27.3875964,365 5,342.604558 5,314.997837 L5,115.002163 Z M130,221 C130,204.431458 143.427815,191 160,191 L160,191 C176.568542,191 190,204.427815 190,221 L190,221 C190,237.568542 176.572185,251 160,251 L160,251 C143.431458,251 130,237.572185 130,221 L130,221 Z M220,221 C220,204.431458 233.427815,191 250,191 L250,191 C266.568542,191 280,204.427815 280,221 L280,221 C280,237.568542 266.572185,251 250,251 L250,251 C233.431458,251 220,237.572185 220,221 L220,221 Z M310,221 C310,204.431458 323.427815,191 340,191 L340,191 C356.568542,191 370,204.427815 370,221 L370,221 C370,237.568542 356.572185,251 340,251 L340,251 C323.431458,251 310,237.572185 310,221 L310,221 Z" id="Shape" fill="#000000" fill-rule="nonzero"></path>
    </g>
</svg>