<?xml version="1.0" encoding="UTF-8"?>
<svg width="500px" height="500px" viewBox="0 0 500 500" version="1.1" xmlns="http://www.w3.org/2000/svg" xmlns:xlink="http://www.w3.org/1999/xlink">
    <title>microphone-muted</title>
    <g id="microphone-muted" stroke="none" stroke-width="1" fill="none" fill-rule="evenodd">
        <path d="M46.8190205,46.0194274 L454.389021,453.589427 L411.963021,453.589427 L344.703363,386.329382 C322.519108,404.411104 295.065227,416.273839 265.000968,419.259216 L265,465 L335.008414,465 C343.183233,465 349.829826,471.545011 349.996784,479.686104 L350,480 C350,488.284271 343.288453,495 335.008414,495 L164.991586,495 C156.711962,495 150,488.286093 150,480 C150,471.715729 156.711547,465 164.991586,465 L235,465 L235.000208,419.259402 C159.200268,411.73374 100,347.781402 100,270.00469 L130,270.00469 C130,336.275297 183.72608,390 250,390 C277.624328,390 303.069373,380.664934 323.352121,364.977514 L299.996853,341.622303 C285.734553,349.872503 269.245956,354.701343 251.653582,354.986602 L250,355 C194.771525,355 150,310.227704 150,254.996864 L149.999021,191.624 L4.39402051,46.0194274 L46.8190205,46.0194274 Z M400,270.00469 C400,295.145386 393.81415,318.841454 382.88161,339.654209 L360.381253,317.15365 C366.572555,302.679852 370,286.742358 370,270.00469 L400,270.00469 Z M179.999021,221.624 L180,255.007087 C180,293.268394 210.7164,324.372367 248.842422,324.990621 L250,325 L251.157828,324.990623 C260.570331,324.838061 269.530417,322.828687 277.687981,319.312939 L179.999021,221.624 Z M250,5 C305.228475,5 350,49.7722961 350,105.003136 L350,254.996864 C350,270.145975 346.631349,284.508331 340.602384,297.375785 L317.356358,274.128925 C318.979032,268.401875 319.890938,262.376111 319.990811,256.152995 L320,255.007087 L320,104.992913 C320,66.3451277 288.659932,35 250,35 L248.842172,35.0093771 C211.08941,35.6212889 180.614904,66.1045829 180.009189,103.847005 L180,104.992913 L180,136.774 L150,106.774 L150,105.003136 C150,50.3252311 193.88392,5.89650431 248.346418,5.01339756 L250,5 Z" fill="#000000"></path>
    </g>
</svg>