<?xml version="1.0" encoding="UTF-8"?>
<svg width="500px" height="500px" viewBox="0 0 500 500" version="1.1" xmlns="http://www.w3.org/2000/svg" xmlns:xlink="http://www.w3.org/1999/xlink">
    <title>microphone</title>
    <g id="microphone" stroke="none" stroke-width="1" fill="none" fill-rule="evenodd">
        <path d="M164.991586,495 C156.711962,495 150,488.286093 150,480 C150,471.715729 156.711547,465 164.991586,465 L235,465 L235,420 L265,420 L265,465 L335.008414,465 C343.183233,465 349.829826,471.545011 349.996784,479.686104 L350,480 C350,488.284271 343.288453,495 335.008414,495 L164.991586,495 Z M400,270.00469 C400,352.844812 332.837589,420 250,420 C167.157288,420 100,352.843589 100,270.00469 L400,270.00469 Z M130,270.00469 C130,336.275297 183.72608,390 250,390 C316.271184,390 370,336.274132 370,270.00469 C370,270.00469 316.27392,270 250,270 C183.728816,270 130,270.00469 130,270.00469 Z M180,105.003136 L180,254.996864 C180,293.659124 211.34003,325 250,325 C288.657644,325 320,293.657401 320,254.996864 L320,105.003136 C320,66.340876 288.65997,35 250,35 C211.342356,35 180,66.3425992 180,105.003136 Z M150,105.003136 C150,49.7729291 194.774941,5 250,5 C305.228475,5 350,49.7722961 350,105.003136 L350,254.996864 C350,310.227071 305.225059,355 250,355 C194.771525,355 150,310.227704 150,254.996864 L150,105.003136 Z" fill="#000000"></path>
    </g>
</svg>