<?xml version="1.0" encoding="UTF-8"?>
<svg width="500px" height="500px" viewBox="0 0 500 500" version="1.1" xmlns="http://www.w3.org/2000/svg" xmlns:xlink="http://www.w3.org/1999/xlink">
    <title>mobile-landscape</title>
    <g id="mobile-landscape" stroke="none" stroke-width="1" fill="none" fill-rule="evenodd">
        <path d="M75.9990362,345 L426.000964,345 C437.043267,345 446,336.045704 446,325.009625 L446,174.990375 C446,163.949385 437.048674,155 426.000964,155 L75.9990362,155 C64.9567335,155 56,163.954296 56,174.990375 L56,325.009625 C56,336.050615 64.9513259,345 75.9990362,345 Z M75.9990362,375 C48.385331,375 26,352.621705 26,325.009625 L26,174.990375 C26,147.381453 48.3924916,125 75.9990362,125 L426.000964,125 C453.614669,125 476,147.378295 476,174.990375 L476,325.009625 C476,352.618547 453.607508,375 426.000964,375 L75.9990362,375 Z M421,250 C421,238.954305 412.045695,230 401,230 C389.954305,230 381,238.954305 381,250 C381,261.045695 389.954305,270 401,270 C412.045695,270 421,261.045695 421,250 Z" fill="#000000" fill-rule="nonzero"></path>
    </g>
</svg>