<?xml version="1.0" encoding="UTF-8"?>
<svg width="500px" height="500px" viewBox="0 0 500 500" version="1.1" xmlns="http://www.w3.org/2000/svg" xmlns:xlink="http://www.w3.org/1999/xlink">
    <title>mobile</title>
    <g id="mobile" stroke="none" stroke-width="1" fill="none" fill-rule="evenodd">
        <path d="M156,74.9990362 L156,425.000964 C156,436.043267 164.954296,445 175.990375,445 L326.009625,445 C337.050615,445 346,436.048674 346,425.000964 L346,74.9990362 C346,63.9567335 337.045704,55 326.009625,55 L175.990375,55 C164.949385,55 156,63.9513259 156,74.9990362 Z M126,74.9990362 C126,47.385331 148.378295,25 175.990375,25 L326.009625,25 C353.618547,25 376,47.3924916 376,74.9990362 L376,425.000964 C376,452.614669 353.621705,475 326.009625,475 L175.990375,475 C148.381453,475 126,452.607508 126,425.000964 L126,74.9990362 Z M251,420 C262.045695,420 271,411.045695 271,400 C271,388.954305 262.045695,380 251,380 C239.954305,380 231,388.954305 231,400 C231,411.045695 239.954305,420 251,420 Z" fill="#000000" fill-rule="nonzero"></path>
    </g>
</svg>