<?xml version="1.0" encoding="UTF-8"?>
<svg width="500px" height="500px" viewBox="0 0 500 500" version="1.1" xmlns="http://www.w3.org/2000/svg" xmlns:xlink="http://www.w3.org/1999/xlink">
    <title>modules</title>
    <g id="modules" stroke="none" stroke-width="1" fill="none" fill-rule="evenodd">
        <path d="M190,260 C217.614237,260 240,282.385763 240,310 L240,410 C240,437.614237 217.614237,460 190,460 L90,460 C62.3857625,460 40,437.614237 40,410 L40,310 C40,282.385763 62.3857625,260 90,260 L190,260 Z M410,260 C437.614237,260 460,282.385763 460,310 L460,410 C460,437.614237 437.614237,460 410,460 L310,460 C282.385763,460 260,437.614237 260,410 L260,310 C260,282.385763 282.385763,260 310,260 L410,260 Z M190,290 L90,290 C79.0693643,290 70.186775,298.768729 70.0029071,309.655511 L70,310 L70,410 C70,420.930636 78.7687286,429.813225 89.6555106,429.997093 L90,430 L190,430 C200.930636,430 209.813225,421.231271 209.997093,410.344489 L210,410 L210,310 C210,299.069364 201.231271,290.186775 190.344489,290.002907 L190,290 Z M410,290 L310,290 C299.069364,290 290.186775,298.768729 290.002907,309.655511 L290,310 L290,410 C290,420.930636 298.768729,429.813225 309.655511,429.997093 L310,430 L410,430 C420.930636,430 429.813225,421.231271 429.997093,410.344489 L430,410 L430,310 C430,299.069364 421.231271,290.186775 410.344489,290.002907 L410,290 Z M190,40 C217.614237,40 240,62.3857625 240,90 L240,190 C240,217.614237 217.614237,240 190,240 L90,240 C62.3857625,240 40,217.614237 40,190 L40,90 C40,62.3857625 62.3857625,40 90,40 L190,40 Z M453.30127,78.3974596 C477.215901,92.2045784 485.409659,122.784099 471.60254,146.69873 L421.60254,233.30127 C407.795422,257.215901 377.215901,265.409659 353.30127,251.60254 L266.69873,201.60254 C242.784099,187.795422 234.590341,157.215901 248.39746,133.30127 L298.39746,46.6987298 C312.204578,22.7840986 342.784099,14.5903409 366.69873,28.3974596 L453.30127,78.3974596 Z M190,70 L90,70 C79.0693643,70 70.186775,78.7687286 70.0029071,89.6555106 L70,90 L70,190 C70,200.930636 78.7687286,209.813225 89.6555106,209.997093 L90,210 L190,210 C200.930636,210 209.813225,201.231271 209.997093,190.344489 L210,190 L210,90 C210,79.0693643 201.231271,70.186775 190.344489,70.0029071 L190,70 Z M438.30127,104.378222 L351.69873,54.3782217 C342.232522,48.9129039 330.155609,52.0655509 324.552984,61.4018467 L324.378222,61.6987298 L274.378222,148.30127 C268.912904,157.767478 272.065551,169.844391 281.401847,175.447016 L281.69873,175.621778 L368.30127,225.621778 C377.767478,231.087096 389.844391,227.934449 395.447016,218.598153 L395.621778,218.30127 L445.621778,131.69873 C451.087096,122.232522 447.934449,110.155609 438.598153,104.552984 L438.30127,104.378222 Z" id="Shape" fill="#000000" fill-rule="nonzero"></path>
    </g>
</svg>