<?xml version="1.0" encoding="UTF-8"?>
<svg width="500px" height="500px" viewBox="0 0 500 500" version="1.1" xmlns="http://www.w3.org/2000/svg" xmlns:xlink="http://www.w3.org/1999/xlink">
    <title>networking</title>
    <g id="networking" stroke="none" stroke-width="1" fill="none" fill-rule="evenodd">
        <path d="M96.10473,309.557994 C99.1290044,317.35961 102.791981,325.028387 107.10573,332.500021 C111.4107,339.956447 116.20977,346.949749 121.437705,353.462448 C141.590177,338.694214 169.369284,336.298772 192.395426,349.592921 C223.484447,367.542176 234.136332,407.295552 216.187077,438.384573 C198.237823,469.473593 158.484447,480.125478 127.395426,462.176224 C97.421356,444.870687 86.4448265,407.296913 101.782605,376.76145 L101.808243,376.790464 C94.1618469,367.840644 87.2238471,358.063589 81.1249682,347.500021 C75.2017143,337.240644 70.3166817,326.666751 66.4372716,315.900003 L66.1003382,314.942558 C67.3607167,315.015389 68.630726,315.052308 69.9093583,315.052308 C79.229397,315.052308 88.0912928,313.090765 96.10473,309.557994 Z M403.857882,309.621222 C411.833461,313.114162 420.64507,315.052308 429.909358,315.052308 C431.241004,315.052308 432.563297,315.012264 433.875099,314.933314 C425.953681,337.398837 413.915903,358.48186 398.09501,376.939272 C413.303531,407.442057 402.311572,444.904129 372.395426,462.176224 C341.306406,480.125478 301.553029,469.473593 283.603775,438.384573 C281.07804,434.009871 279.11863,429.463608 277.702799,424.830678 L277.197298,423.089432 C278.63745,428.342525 280.766815,433.498991 283.617707,438.436881 C284.27348,439.572713 284.958357,440.681266 285.670853,441.762141 C261.811316,446.201965 237.573561,446.066461 214.193557,441.688016 C214.891052,440.631548 215.559938,439.547249 216.20101,438.436881 C220.856556,430.373238 223.587984,421.726707 224.537747,413.028936 C241.206656,415.643231 258.32605,415.72065 275.280558,413.096717 C272.517033,388.221832 284.332997,362.908021 307.395426,349.592921 C330.477781,336.266318 358.336335,338.706003 378.500987,353.570624 L378.480058,353.597251 C388.726299,340.884871 396.929482,326.816715 402.947253,311.923754 L403.857882,309.621222 Z M129.584537,388.384573 C119.919554,405.124815 125.655184,426.530479 142.395426,436.195462 C159.135668,445.860445 180.541332,440.124815 190.206315,423.384573 C199.871298,406.644331 194.135668,385.238667 177.395426,375.573684 C160.655184,365.9087 139.24952,371.644331 129.584537,388.384573 Z M322.395426,375.573684 C305.655184,385.238667 299.919554,406.644331 309.584537,423.384573 C319.24952,440.124815 340.655184,445.860445 357.395426,436.195462 C374.135668,426.530479 379.871298,405.124815 370.206315,388.384573 C360.541332,371.644331 339.135668,365.9087 322.395426,375.573684 Z M101.764675,123.227339 C102.344448,124.38471 102.961993,125.532004 103.617707,126.667735 C108.261546,134.7111 114.364871,141.386479 121.400036,146.552491 C110.656833,159.912472 102.167543,174.765611 96.0966058,190.496717 C118.946016,200.573003 134.895426,223.423909 134.895426,250 C134.895426,285.898509 105.793935,315 69.8954261,315 C33.9969173,315 4.89542607,285.898509 4.89542607,250 C4.89542607,215.372812 31.972197,187.069743 66.1080276,185.108504 L66.0899549,185.162659 C73.7093386,163.520595 85.1473157,143.158941 100.106868,125.189181 L101.764675,123.227339 Z M398.110462,123.114439 C405.78919,132.090642 412.754549,141.899304 418.874876,152.500021 C424.98585,163.084539 429.991753,174.003824 433.928383,185.124278 C467.949072,187.206268 494.895426,215.456305 494.895426,250 C494.895426,285.898509 465.793935,315 429.895426,315 C393.996917,315 364.895426,285.898509 364.895426,250 C364.895426,223.350182 380.933452,200.446246 403.884239,190.413457 L403.903723,190.463338 C400.877927,182.655272 397.212037,174.978884 392.894114,167.500021 C388.57619,160.021158 383.761188,153.00821 378.514933,146.478815 C385.50788,141.327322 391.577738,134.675476 396.20101,126.667735 C396.878039,125.495085 397.514377,124.310108 398.110462,123.114439 Z M69.8954261,215 C50.5654598,215 34.8954261,230.670034 34.8954261,250 C34.8954261,269.329966 50.5654598,285 69.8954261,285 C89.2253923,285 104.895426,269.329966 104.895426,250 C104.895426,230.670034 89.2253923,215 69.8954261,215 Z M429.895426,215 C410.56546,215 394.895426,230.670034 394.895426,250 C394.895426,269.329966 410.56546,285 429.895426,285 C449.225392,285 464.895426,269.329966 464.895426,250 C464.895426,230.670034 449.225392,215 429.895426,215 Z M372.395426,37.8237761 C403.484447,55.7730304 414.136332,95.5264068 396.187077,126.615427 C378.237823,157.704448 338.484447,168.356333 307.395426,150.407079 C284.344696,137.098733 272.529024,111.803847 275.276048,86.9413348 L275.295427,86.9445179 C258.615043,84.3462056 241.484303,84.2875693 224.521047,86.9341291 C224.229558,84.3151289 223.776329,81.7010168 223.157498,79.1063174 L222.917667,78.1342435 C229.906463,105.635326 218.179961,135.520371 192.395426,150.407079 C161.306406,168.356333 121.553029,157.704448 103.603775,126.615427 C85.6545205,95.5264068 96.3064055,55.7730304 127.395426,37.8237761 C157.342886,20.5336022 195.330089,29.7827142 214.123149,58.2738145 L214.105563,58.2783849 C237.987926,53.8064653 262.253435,53.9194142 285.66191,58.2850437 C304.451902,29.7848722 342.444473,20.5315854 372.395426,37.8237761 Z M142.395426,63.8045382 C125.655184,73.4695213 119.919554,94.8751855 129.584537,111.615427 C139.24952,128.355669 160.655184,134.0913 177.395426,124.426316 C194.135668,114.761333 199.871298,93.3556691 190.206315,76.6154273 C180.541332,59.8751855 159.135668,54.1395551 142.395426,63.8045382 Z M309.584537,76.6154273 C299.919554,93.3556691 305.655184,114.761333 322.395426,124.426316 C339.135668,134.0913 360.541332,128.355669 370.206315,111.615427 C379.871298,94.8751855 374.135668,73.4695213 357.395426,63.8045382 C340.655184,54.1395551 319.24952,59.8751855 309.584537,76.6154273 Z" id="Shape" fill="#000000" fill-rule="nonzero"></path>
    </g>
</svg>