<?xml version="1.0" encoding="UTF-8"?>
<svg width="500px" height="500px" viewBox="0 0 500 500" version="1.1" xmlns="http://www.w3.org/2000/svg" xmlns:xlink="http://www.w3.org/1999/xlink">
    <title>network-50</title>
    <g id="network-50" stroke="none" stroke-width="1" fill="none" fill-rule="evenodd">
        <path d="M85,361.697248 C107.09139,361.697248 125,378.127165 125,398.394495 L125,437.844037 C125,458.111367 107.09139,474.541284 85,474.541284 C62.90861,474.541284 45,458.111367 45,437.844037 L45,398.394495 C45,378.127165 62.90861,361.697248 85,361.697248 Z M305,137.844037 C327.09139,137.844037 345,154.273954 345,174.541284 L345,438.302752 C345,458.570083 327.09139,475 305,475 C282.90861,475 265,458.570083 265,438.302752 L265,174.541284 C265,154.273954 282.90861,137.844037 305,137.844037 Z M195,249.770642 C217.09139,249.770642 235,266.20056 235,286.46789 L235,437.844037 C235,458.111367 217.09139,474.541284 195,474.541284 C172.90861,474.541284 155,458.111367 155,437.844037 L155,286.46789 C155,266.20056 172.90861,249.770642 195,249.770642 Z M415,25 C437.09139,25 455,41.4299174 455,61.6972477 L455,437.844037 C455,458.111367 437.09139,474.541284 415,474.541284 C392.90861,474.541284 375,458.111367 375,437.844037 L375,61.6972477 C375,41.4299174 392.90861,25 415,25 Z M305,157.844037 C293.713292,157.844037 285.189086,165.55062 285.003104,174.250916 L285,174.541284 L285,438.302752 C285,447.121207 293.587884,455 305,455 C316.286708,455 324.810914,447.293416 324.996896,438.593121 L325,438.302752 L325,174.541284 C325,165.722829 316.412116,157.844037 305,157.844037 Z M415,45 C403.713292,45 395.189086,52.7065837 395.003104,61.406879 L395,61.6972477 L395,437.844037 C395,446.662492 403.587884,454.541284 415,454.541284 C426.286708,454.541284 434.810914,446.834701 434.996896,438.134405 L435,437.844037 L435,61.6972477 C435,52.8787925 426.412116,45 415,45 Z" id="Shape" fill="#000000"></path>
    </g>
</svg>