<?xml version="1.0" encoding="UTF-8"?>
<svg width="500px" height="500px" viewBox="0 0 500 500" version="1.1" xmlns="http://www.w3.org/2000/svg" xmlns:xlink="http://www.w3.org/1999/xlink">
    <title>notification-muted</title>
    <g id="notification-muted" stroke="none" stroke-width="1" fill="none" fill-rule="evenodd">
        <path d="M24.3940205,66.0194274 L66.8190205,66.0194274 L474.389021,473.589427 L431.963021,473.589427 L382.873021,424.499 L324.656617,424.499814 C322.694836,463.786213 290.14988,495 250.337972,495 C210.526064,495 177.981108,463.786213 176.019327,424.499814 L102,424.499528 C74.3857625,424.499528 52,402.113765 52,374.499528 C52,367.648407 53.4079592,360.873045 56.1335216,354.593091 L56.4305839,353.922154 L77.6945323,306.83 L87.694917,191.900381 C87.694917,173.307063 91.9574695,156.322944 99.392041,141.0172 L24.3940205,66.0194274 Z M294.750241,420.741265 L291.597988,420.799127 L286.042007,420.875411 C263.144524,421.140862 223.01913,421.096147 205.925703,420.741265 C205.925703,421.963437 205.975413,423.174037 206.072928,424.37117 L206.083571,424.499525 C207.978516,446.957081 226.700083,464.643192 249.641499,464.994668 L250.337972,465 L251.07241,464.994071 C275.261883,464.603231 294.750241,444.940255 294.750241,420.741265 Z M250.689776,5 C282.024711,5 307.643058,29.5992311 309.142085,60.5532919 L309.180109,61.4932201 L309.182532,61.624 L310.751841,62.2949368 C363.86348,85.4277966 410.540609,127.720848 412.113476,187.870186 L412.150374,189.695276 L412.166123,191.900381 L422.165532,306.83 L443.430456,353.922154 C450.143882,368.789305 448.98678,385.208526 441.727035,398.500731 L417.865392,374.638553 C417.88577,371.949526 417.361376,369.215145 416.232321,366.593923 L416.088806,366.268578 L392.166123,313.29084 L382.166123,191.900381 C382.166123,132.100042 329.223818,92.3294165 272.493707,81.7471926 C276.685103,76.799323 279.211417,70.405188 279.211417,63.4230406 C279.211417,47.7254287 266.441843,35 250.689776,35 C234.937709,35 222.168135,47.7254287 222.168135,63.4230406 C222.168135,70.2933001 224.61413,76.594242 228.685368,81.504505 C202.280495,86.1319286 176.63155,97.0733015 156.654123,113.429891 L137.176867,93.9526666 C152.451563,81.1340373 170.174512,70.6013698 188.731481,62.4570614 L190.374776,61.7474227 L192.219532,60.978 L192.238397,60.5341499 C193.716571,30.2143719 218.33601,5.99629852 248.79784,5.02996801 L249.722696,5.0078201 L250.689776,5 Z M352.873021,394.499528 L121.848676,163.474255 C119.288433,171.818644 117.843892,180.704179 117.70797,190.095589 L117.694917,191.900381 L107.694917,313.29084 L83.7722335,366.268578 C82.6041294,368.855392 82,371.661206 82,374.499528 C82,385.430164 90.7687286,394.312753 101.655511,394.499528 L352.873021,394.499528 Z" id="Shape" fill="#000000" fill-rule="nonzero"></path>
    </g>
</svg>