<?xml version="1.0" encoding="UTF-8"?>
<svg width="500px" height="500px" viewBox="0 0 500 500" version="1.1" xmlns="http://www.w3.org/2000/svg" xmlns:xlink="http://www.w3.org/1999/xlink">
    <title>notification</title>
    <g id="notification" stroke="none" stroke-width="1" fill="none" fill-rule="evenodd">
        <path d="M250.689776,5 C282.024711,5 307.643058,29.5992311 309.142085,60.5532919 L309.180109,61.4932201 L309.182532,61.624 L310.751841,62.2949368 C363.86348,85.4277966 410.540609,127.720848 412.113476,187.870186 L412.150374,189.695276 L412.166123,191.900381 L422.165532,306.83 L443.430456,353.922154 C454.568871,378.588619 444.04211,407.527461 419.924227,419.368976 L419.18923,419.722554 L418.438414,420.068944 C412.194382,422.888506 405.439954,424.393691 398.594779,424.494144 L397.86104,424.499528 L324.656617,424.499814 C322.694836,463.786213 290.14988,495 250.337972,495 C210.526064,495 177.981108,463.786213 176.019327,424.499814 L102,424.499528 C74.3857625,424.499528 52,402.113765 52,374.499528 C52,367.648407 53.4079592,360.873045 56.1335216,354.593091 L56.4305839,353.922154 L77.6945323,306.83 L87.694917,191.900381 C87.694917,130.173128 134.674577,86.181631 188.731481,62.4570614 L190.374776,61.7474227 L192.219532,60.978 L192.238397,60.5341499 C193.716571,30.2143719 218.33601,5.99629852 248.79784,5.02996801 L249.722696,5.0078201 L250.689776,5 Z M294.750241,420.741265 L291.597988,420.799127 C270.297009,421.146294 224.505514,421.127007 205.925703,420.741265 C205.925703,421.963437 205.975413,423.174037 206.072928,424.37117 L206.083571,424.499525 C207.978516,446.957081 226.700083,464.643192 249.641499,464.994668 L250.337972,465 L251.07241,464.994071 C275.261883,464.603231 294.750241,444.940255 294.750241,420.741265 Z M397.86104,394.499528 L398.392799,394.492458 C401.049233,394.421809 403.666852,393.822392 406.091989,392.727294 C416.05066,388.230346 420.537735,376.589404 416.232321,366.593923 L416.088806,366.268578 L392.166123,313.29084 L382.166123,191.900381 C382.166123,132.100042 329.223818,92.3294165 272.493707,81.7471926 C276.685103,76.799323 279.211417,70.405188 279.211417,63.4230406 C279.211417,47.7254287 266.441843,35 250.689776,35 C234.937709,35 222.168135,47.7254287 222.168135,63.4230406 C222.168135,70.2933001 224.61413,76.594242 228.685368,81.504505 C171.877474,91.4600229 118.568469,130.640257 117.70797,190.095589 L117.694917,191.900381 L107.694917,313.29084 L83.7722335,366.268578 C82.6041294,368.855392 82,371.661206 82,374.499528 C82,385.430164 90.7687286,394.312753 101.655511,394.499528 L102,394.499528 L397.86104,394.499528 Z" fill="#000000" fill-rule="nonzero"></path>
    </g>
</svg>