<?xml version="1.0" encoding="UTF-8"?>
<svg width="500px" height="500px" viewBox="0 0 500 500" version="1.1" xmlns="http://www.w3.org/2000/svg" xmlns:xlink="http://www.w3.org/1999/xlink">
    <title>nunify-circle-filled</title>
    <g id="nunify-circle-filled" stroke="none" stroke-width="1" fill="none" fill-rule="evenodd">
        <path d="M250,5 C385.309764,5 495,114.690236 495,250 C495,385.309764 385.309764,495 250,495 C114.690236,495 5,385.309764 5,250 C5,114.690236 114.690236,5 250,5 Z M129.076641,139.000102 L75,139.000102 L75,259.749003 C75,315.300263 120.036175,360.333456 175.591113,360.333456 C192.279044,360.325566 208.016273,356.254597 221.867358,349.056371 L221.867781,360.428571 L324.408887,360.428571 L324.408887,320.337463 C298.719654,320.337463 277.894415,299.513603 277.894415,273.826071 L277.894415,242.675803 C277.894415,216.98827 298.719654,196.16441 324.408887,196.16441 C350.098121,196.16441 370.923359,216.98827 370.923359,242.675803 L370.923359,360.333456 L425,360.333456 L425,239.346766 C424.895043,183.877506 379.881913,138.973763 324.408887,139.000102 C308.520385,138.977529 293.014464,142.717782 279.083037,149.72917 L279.083435,139.000102 L175.591113,139.000102 L175.591113,178.948537 C201.280346,178.948537 222.105585,199.772397 222.105585,225.459929 L222.105585,256.610197 C222.105584,282.29773 201.280346,303.121588 175.591113,303.121588 C149.90188,303.121588 129.076642,282.29773 129.076641,256.610197 L129.076641,139.000102 Z" id="Shape" fill="#000000"></path>
    </g>
</svg>