<?xml version="1.0" encoding="UTF-8"?>
<svg width="500px" height="500px" viewBox="0 0 500 500" version="1.1" xmlns="http://www.w3.org/2000/svg" xmlns:xlink="http://www.w3.org/1999/xlink">
    <title>nunify</title>
    <g id="nunify" stroke="none" stroke-width="1" fill="none" fill-rule="evenodd">
        <path d="M80.7072972,95.0001422 L80.7072972,259.654276 C80.7072983,295.616821 109.862632,324.770224 145.827558,324.770224 C181.792484,324.770224 210.947818,295.616821 210.947819,259.654276 L210.947819,259.654276 L210.947819,216.043901 C210.947819,180.081355 181.792485,150.927952 145.827558,150.927952 L145.827558,150.927952 L145.827558,95.0001422 L290.716809,95.0001422 L290.716219,110.020855 C310.220225,100.204901 331.928526,94.9685404 354.172442,95.0001422 L354.172442,95.0001422 L356.497868,95.0178585 C433.088759,96.2220525 494.85453,158.605078 495,235.485473 L495,235.485473 L495,404.866839 L419.292703,404.866839 L419.292703,240.146124 C419.292703,204.183578 390.137369,175.030174 354.172442,175.030174 C318.207515,175.030174 289.052181,204.183578 289.052181,240.146124 L289.052181,240.146124 L289.052181,283.756499 C289.052181,319.719045 318.207515,348.872448 354.172442,348.872448 L354.172442,348.872448 L354.172442,405 L210.614893,405 L210.614492,389.07882 C191.222927,399.156398 169.190738,404.855793 145.827558,404.866839 L145.827558,404.866839 L143.498717,404.847973 C66.7959376,403.604437 5,341.04265 5,264.048604 L5,264.048604 L5,95.0001422 L80.7072972,95.0001422 Z" id="Shape" fill="#000000"></path>
    </g>
</svg>