<?xml version="1.0" encoding="UTF-8"?>
<svg width="500px" height="500px" viewBox="0 0 500 500" version="1.1" xmlns="http://www.w3.org/2000/svg" xmlns:xlink="http://www.w3.org/1999/xlink">
    <title>nunify-filled</title>
    <g id="nunify-filled" stroke="none" stroke-width="1" fill="none" fill-rule="evenodd">
        <path d="M495,5 L495,495 L5,495 L5,5 L495,5 Z M129.076641,139 L75,139 L75,259.749003 L75.0134763,261.412351 C75.9017754,316.196423 120.591725,360.333456 175.591113,360.333456 C191.975627,360.32571 207.443696,356.401289 221.109979,349.445895 L221.867358,349.056371 L221.867781,360.428571 L324.408887,360.428571 L324.408887,320.337463 L323.639685,320.331232 C298.558576,319.924607 278.303124,299.667978 277.900523,274.587545 L277.894415,273.826071 L277.894415,242.675803 L277.900647,241.906652 C278.311406,216.573875 298.976546,196.16441 324.408887,196.16441 C349.841228,196.16441 370.506368,216.573875 370.917128,241.906652 L370.923359,242.675803 L370.923359,360.333456 L425,360.333456 L425,239.346766 L424.983413,237.685893 C423.993735,182.983924 379.327183,138.974027 324.408887,139 C308.820168,138.977955 293.599729,142.57798 279.873282,149.335796 L279.083037,149.72917 L279.083435,139 L175.591113,139 L175.591113,178.948537 L176.360315,178.954768 C201.441424,179.361393 221.696876,199.618022 222.099477,224.698455 L222.105585,225.459929 L222.105585,256.610197 L222.099353,257.379348 C221.688593,282.712124 201.023454,303.121588 175.591113,303.121588 C150.158772,303.121588 129.493633,282.712124 129.082872,257.379348 L129.076641,256.610197 L129.076641,139 Z" id="Shape" fill="#000000"></path>
    </g>
</svg>