<?xml version="1.0" encoding="UTF-8"?>
<svg width="500px" height="500px" viewBox="0 0 500 500" version="1.1" xmlns="http://www.w3.org/2000/svg" xmlns:xlink="http://www.w3.org/1999/xlink">
    <title>nunify-tm</title>
    <g id="nunify-tm" stroke="none" stroke-width="1" fill="none" fill-rule="evenodd">
        <path d="M95.0766408,138.69 L95.0766408,256.300197 C95.0766416,281.98773 115.90188,302.811588 141.591113,302.811588 C167.023454,302.811588 187.688593,282.402124 188.099353,257.069348 L188.105585,256.300197 L188.105585,225.149929 C188.105585,199.719272 167.694769,179.0555 142.360315,178.644768 L141.591113,178.638537 L141.591113,138.69 L245.083435,138.69 L245.083037,149.41917 C259.014464,142.407782 274.520385,138.667529 290.408887,138.69 C345.327183,138.664027 389.993735,182.673924 390.983413,237.375893 L391,239.036766 L391,360.023456 L336.923359,360.023456 L336.923359,242.365803 C336.923359,216.67827 316.098121,195.85441 290.408887,195.85441 C264.976546,195.85441 244.311406,216.263875 243.900647,241.596652 L243.894415,242.365803 L243.894415,273.516071 C243.894415,298.946728 264.305231,319.6105 289.639685,320.021232 L290.408887,320.027463 L290.408887,360.118571 L187.867781,360.118571 L187.867358,348.746371 C174.016273,355.944597 158.279044,360.015566 141.591113,360.023456 C86.5917247,360.023456 41.9017754,315.886423 41.0134763,261.102351 L41,259.439003 L41,138.69 L95.0766408,138.69 Z M401.99,117 L401.99,125.75 L388.41,125.75 L388.41,163.69 L378.4,163.69 L378.4,125.75 L364.75,125.75 L364.75,117 L401.99,117 Z M422.29,117 L433.63,146.12 L444.97,117 L458.97,117 L458.97,163.69 L448.96,163.69 L448.96,130.09 L435.8,163.69 L431.46,163.69 L418.3,130.09 L418.3,163.69 L408.36,163.69 L408.36,117 L422.29,117 Z" id="Shape" fill="#000000"></path>
    </g>
</svg>