<?xml version="1.0" encoding="UTF-8"?>
<svg width="500px" height="500px" viewBox="0 0 500 500" version="1.1" xmlns="http://www.w3.org/2000/svg" xmlns:xlink="http://www.w3.org/1999/xlink">
    <title>nunify-circle</title>
    <g id="nunify-circle" stroke="none" stroke-width="1" fill="none" fill-rule="evenodd">
        <path d="M250,5 C385.309764,5 495,114.690236 495,250 C495,385.309764 385.309764,495 250,495 C114.690236,495 5,385.309764 5,250 C5,114.690236 114.690236,5 250,5 Z M250,35 C131.258779,35 35,131.258779 35,250 C35,368.741221 131.258779,465 250,465 C368.741221,465 465,368.741221 465,250 C465,131.258779 368.741221,35 250,35 Z M146.351406,155 L146.351406,255.808741 C146.351407,277.826625 164.201611,295.675647 186.220954,295.675647 C208.020103,295.675647 225.73308,278.181821 226.08516,256.468013 L226.090501,255.808741 L226.090501,229.108511 C226.090501,207.310804 208.595516,189.599 186.88027,189.246944 L186.220954,189.241603 L186.220954,155 L274.928659,155 L274.928508,164.196336 C286.869681,158.186637 300.160402,154.980739 313.779046,155 C360.851871,154.977737 399.137487,192.700506 399.985783,239.587908 L400,241.011514 L400,344.714391 L353.648594,344.714391 L353.648594,243.864974 C353.648594,221.847088 335.798389,203.998066 313.779046,203.998066 C291.979896,203.998066 274.26692,221.491893 273.91484,243.205701 L273.909499,243.864974 L273.909499,270.565203 C273.909499,292.36291 291.404484,310.074714 313.11973,310.42677 L313.779046,310.432111 L313.779046,344.795918 L225.886669,344.795918 L225.886845,335.048038 C214.014357,341.21812 200.525111,344.707628 186.220954,344.714391 C139.078621,344.714391 100.77295,306.882648 100.011551,259.924872 L100,258.499145 L100,155 L146.351406,155 Z" id="Shape" fill="#000000"></path>
    </g>
</svg>