<?xml version="1.0" encoding="UTF-8"?>
<svg width="500px" height="500px" viewBox="0 0 500 500" version="1.1" xmlns="http://www.w3.org/2000/svg" xmlns:xlink="http://www.w3.org/1999/xlink">
    <title>paint-brush</title>
    <g id="paint-brush" stroke="none" stroke-width="1" fill="none" fill-rule="evenodd">
        <path d="M141.043493,362.940306 C153.125338,375.022152 151.573065,392.862535 141.355755,406.715911 L139.427039,409.288917 L138.496581,410.500438 L137.805613,411.377152 L137.24852,412.068806 L136.451913,413.034101 L135.591519,414.045903 L135.136625,414.568309 L134.422538,415.371499 L133.669422,416.197064 L133.145145,416.759249 L132.32465,417.619303 L131.754482,418.203312 L131.165412,418.795397 L130.557131,419.395184 L129.929328,420.002299 L129.281691,420.616368 L128.613909,421.237018 L127.925672,421.863875 L127.216668,422.496565 L126.486587,423.134714 L125.735118,423.777949 L124.961949,424.425896 L124.16677,425.07818 L123.760829,425.405833 L122.932052,426.063923 L122.080487,426.725418 L121.205823,427.389942 L120.307749,428.057123 L119.849836,428.391592 L118.916065,429.062055 L118.440129,429.397956 L117.958107,429.734241 L116.975651,430.407774 L116.475139,430.744929 L115.968386,431.082281 L114.936,431.757388 L114.410291,432.09505 L113.339643,432.770357 C112.526984,433.276759 111.692474,433.782879 110.835523,434.288007 L109.97107,434.792779 L109.256488,435.199946 L108.118428,435.825815 L107.315597,436.253141 L106.477467,436.688529 L105.154084,437.356732 L104.227705,437.812279 L103.266026,438.27589 L102.269047,438.747565 L101.236769,439.227303 L100.169191,439.715104 L99.0663137,440.210969 L97.9281368,440.714897 L96.7546603,441.226889 L95.5458843,441.746944 L94.3018088,442.275063 L93.0224337,442.811245 L91.707759,443.35549 L89.6695603,444.186977 L88.2666367,444.751382 L86.0960646,445.613107 L83.8460685,446.492975 L81.5166484,447.390985 L79.1078043,448.307139 L77.4577837,448.927987 L75.7724637,449.556899 L74.051844,450.193874 L72.2959248,450.838913 L70.504706,451.492015 L68.6781877,452.15318 L65.8722235,453.160047 L62.9868352,454.185058 L59.0161025,455.57996 L54.9041715,457.007116 L51.7275619,458.098649 L48.4715283,459.208325 L44.0066017,460.716116 L39.4004768,462.25616 L35.8532218,463.43236 L31,465.028848 L32.1546934,463.909909 L33.2825368,462.807879 L34.9239583,461.186538 L35.9846769,460.126779 L37.0185455,459.083929 L38.0255641,458.057988 L39.0057328,457.048955 L40.6564203,455.323833 L41.7851391,454.123307 L42.6579079,453.181908 L43.5038268,452.257417 L44.3228957,451.349836 L45.1151147,450.459162 L46.2530995,449.154856 L46.9781935,448.306454 L47.8468034,447.269729 L48.6734601,446.259423 L49.3045794,445.470201 L49.9088486,444.697888 L50.2009145,444.318072 L50.9017121,443.387025 L51.0368373,443.203986 L51.5605566,442.482398 L52.0574261,441.777718 L52.5274455,441.089947 L52.970615,440.419085 C53.4290092,439.712516 53.8415795,439.034805 54.2083258,438.38595 L54.4747935,437.90472 L54.5224299,437.813067 C54.6496377,437.555305 54.5992906,437.519876 54.4047582,437.665067 L54.2772466,437.768164 L54.0966052,437.930435 L53.8791895,438.138782 L53.6270361,438.390662 L53.1881274,438.844534 L52.5003406,439.5783 L51.7102591,440.440373 L51.0603675,441.158877 L49.1430846,443.306394 L44.1684514,448.940128 L42.2173131,451.135879 L40.9273493,452.567105 L40.180487,453.380412 L39.5431226,454.057284 L39.1467579,454.463152 L38.9252181,454.680489 L38.7402168,454.852262 L38.5937907,454.975926 C38.4021849,455.125563 38.3504259,455.10077 38.4703893,454.8617 L38.8188775,454.19692 L39.2465217,453.34247 L40.2527919,451.273088 L42.1618755,447.267075 L54.5213701,420.97051 L56.405268,417.019392 L57.3889131,414.999325 L57.8017816,414.177081 L58.0321613,413.736821 L58.6118278,412.695748 L59.0720435,411.877402 L59.0720435,411.877402 L59.9895658,410.263783 L59.9895658,410.263783 L60.675037,409.073652 L61.6986947,407.320521 L62.2083785,406.458302 L63.2232294,404.762369 C64.8462438,402.072174 66.444848,399.527715 68.0123148,397.123387 L68.6821603,396.101523 L69.649433,394.645605 L70.6080281,393.225481 L71.0839583,392.528747 L72.0288578,391.161746 L73.1964638,389.502234 L74.3483891,387.89688 L75.258164,386.651195 L76.1570885,385.439492 L76.6023687,384.84629 L77.0448005,384.26147 L77.9209379,383.116827 L78.7851386,382.00526 L79.6370404,380.926469 L80.4762812,379.880151 L81.3024989,378.866004 L82.1153313,377.883727 L82.9144165,376.933017 L83.6993922,376.013573 L84.4698963,375.125093 L85.2255667,374.267276 L85.9660413,373.439819 L86.690958,372.64242 L87.3999546,371.874778 L88.092669,371.13659 L88.7687391,370.427556 L89.7508442,369.418006 L90.3837193,368.780533 L90.9986827,368.171158 L91.5953723,367.589576 L92.4553512,366.768659 L93.2721769,366.008582 L93.79215,365.535161 L94.5343382,364.874221 L95.2301142,364.271405 L95.878256,363.725693 L96.2832835,363.393107 L96.849319,362.940306 C110.510197,352.193416 128.839609,350.736422 141.043493,362.940306 Z M468.795171,35.9111051 C476.452864,43.5687983 434.783335,99.2901208 383.503694,161.551127 L379.085688,166.902832 C377.605791,168.691426 376.118977,170.48439 374.626169,172.280756 L370.130697,177.679091 L370.130697,177.679091 L365.60483,183.092023 L365.60483,183.092023 L361.054124,188.513743 C359.533701,190.321802 358.010064,192.130357 356.48414,193.938439 L351.900433,199.360301 L351.900433,199.360301 L347.308564,204.773517 L347.308564,204.773517 L342.714089,210.172277 L342.714089,210.172277 L338.122566,215.55077 C337.357868,216.445174 336.593523,217.338491 335.82965,218.2306 L331.252978,223.567796 L331.252978,223.567796 L326.693154,228.870198 L326.693154,228.870198 L322.155737,234.131994 L322.155737,234.131994 L317.646283,239.347374 C316.897347,240.212413 316.149807,241.075276 315.40378,241.935842 L309.470027,248.769065 L303.613984,255.4905 L297.848825,262.086373 L297.848825,262.086373 L292.187727,268.54291 L285.277759,276.396656 L285.277759,276.396656 L278.576701,283.984265 L273.383563,289.844654 L268.35377,295.503724 L263.500498,300.947701 L258.836921,306.16281 L254.376214,311.135278 L250.131552,315.85133 L244.861493,321.682892 L238.784814,328.367936 L233.825874,333.782873 L230.805807,337.055949 L227.07855,341.056373 L224.544382,343.734969 L223.076808,345.256807 L222.191681,346.154205 C200.22469,368.121197 168.170713,371.68275 150.597119,354.109157 C133.023526,336.535563 136.585079,304.481586 158.552071,282.514595 L159.449469,281.629468 L161.187135,279.95587 L163.926098,277.368628 L166.977956,274.523673 L170.923403,270.880402 L175.454181,266.72858 L183.023383,259.844783 L188.854946,254.574724 L193.570998,250.330062 L198.543466,245.869355 L203.758575,241.205778 L209.202552,236.352506 L214.861622,231.322713 L220.722011,226.129575 L226.769946,220.786265 L229.859939,218.062413 L229.859939,218.062413 L236.163366,212.518549 L242.619903,206.85745 L247.00252,203.024761 C247.73789,202.382342 248.47567,201.738159 249.215776,201.092292 L255.937211,195.236249 L262.770434,189.302496 L267.960427,184.809109 L267.960427,184.809109 L273.199741,180.284978 L273.199741,180.284978 L278.482566,175.735663 C279.36634,174.975654 280.251685,174.214827 281.13848,173.453298 L286.475676,168.876626 C287.367785,168.112753 288.261102,167.348408 289.155506,166.583709 L294.533999,161.992187 C295.432265,161.226533 296.331375,160.460756 297.231209,159.694972 L302.637923,155.101104 L302.637923,155.101104 L308.056189,150.512622 C310.76724,148.220653 313.480445,145.932787 316.192533,143.652152 L321.614253,139.101446 C322.517302,138.344911 323.419985,137.58941 324.322181,136.83506 L329.72854,132.323696 C397.210744,76.1274008 460.5905,27.7064338 468.795171,35.9111051 Z M415.394476,89.3107996 L413.05772,91.0835716 L411.109271,92.5687336 L407.137339,95.6155667 L404.09338,97.9670644 L400.99431,100.374908 L397.840681,102.838606 L394.633044,105.357669 L391.371951,107.931604 L388.057953,110.559922 L384.691601,113.242131 L381.273447,115.977741 L376.636279,119.707441 L373.099397,122.565744 L368.305927,126.457252 L364.653319,129.435575 L360.858105,132.54166 L356.053074,136.490312 L356.053074,136.490312 L351.184573,140.508467 L347.247182,143.770239 L343.274502,147.071703 L339.268901,150.410729 L335.232751,153.785188 L329.126428,158.908657 L329.126428,158.908657 L325.02427,162.362383 L318.830044,167.594772 L314.676691,171.114459 L310.507006,174.656804 L306.323361,178.219678 L302.128123,181.800951 L297.923665,185.398495 L293.712354,189.01018 L287.387725,194.449565 L281.06101,199.90879 L274.740207,205.380671 L268.433315,210.858021 L262.14833,216.333654 L257.974462,219.979573 L253.816255,223.619406 L249.67608,227.251024 L245.556306,230.872298 L241.459303,234.481098 L237.387442,238.075295 L233.343091,241.65276 L227.333331,246.982927 L223.368126,250.509247 L217.488192,255.752716 L213.616943,259.214583 L207.889054,264.351392 L202.263054,269.414624 L195.986026,275.088383 L190.030416,280.502899 L184.384092,285.673271 L181.221126,288.591613 L177.627249,291.937417 L175.009337,294.409459 L173.541265,295.822247 L172.694206,296.656731 C157.930862,311.420075 155.757006,330.984772 164.739255,339.967021 C173.721504,348.94927 193.286201,346.775414 208.049545,332.01207 L208.884021,331.165019 L209.727744,330.291844 L211.346517,328.590837 L213.021959,326.808814 L215.21649,324.453981 L219.029549,320.326005 L223.413768,315.541111 L230.483246,307.765096 L235.277472,302.458932 L238.645467,298.718833 L243.760008,293.022402 L248.943223,287.229536 L252.433306,283.317999 L255.948591,279.369523 L259.48695,275.386477 L264.833099,269.352269 L268.419835,265.293159 L273.828575,259.155957 L281.082509,250.894852 L284.722809,246.736128 L290.193941,240.469489 L295.671507,234.17569 L301.148326,227.862725 L304.795577,223.647381 L310.255192,217.320234 L313.884324,213.102838 L317.502485,208.888764 L321.107546,204.680383 L324.69738,200.480062 L328.26986,196.290169 L331.822857,192.113073 L335.354243,187.951143 L338.86189,183.806746 L342.343671,179.682252 L345.797458,175.580027 L349.221123,171.502442 L352.612537,167.451864 L357.634536,161.431815 L360.936016,157.459116 L364.197799,153.521714 L367.417757,149.621976 L370.593761,145.762271 L373.723685,141.944968 L377.261904,137.612442 L381.176237,132.79697 L384.998835,128.069997 L388.728535,123.432829 L392.364172,118.886775 L395.904584,114.43314 L398.496702,111.15435 L401.03411,107.928834 L403.516317,104.757141 L405.942833,101.639823 L409.090709,97.5689372 L410.626829,95.5705203 L412.137542,93.5970054 L414.355658,90.6837817 L415.394476,89.3107996 Z M201.848681,288.408492 C210.132952,288.408492 216.848681,295.12422 216.848681,303.408492 C216.848681,311.692763 210.132952,318.408492 201.848681,318.408492 C193.56441,318.408492 186.848681,311.692763 186.848681,303.408492 C186.848681,295.12422 193.56441,288.408492 201.848681,288.408492 Z" id="Shape" fill="#000000"></path>
    </g>
</svg>