<?xml version="1.0" encoding="UTF-8"?>
<svg width="500px" height="500px" viewBox="0 0 500 500" version="1.1" xmlns="http://www.w3.org/2000/svg" xmlns:xlink="http://www.w3.org/1999/xlink">
    <title>palette</title>
    <g id="palette" stroke="none" stroke-width="1" fill="none" fill-rule="evenodd">
        <path d="M250,5 C281.563912,5 311.733722,10.9688593 339.442269,21.8394173 C312.64194,39.7834594 295,70.3314817 295,105 C295,160.228475 339.771525,205 395,205 C429.668518,205 460.216541,187.35806 478.156264,160.561983 C489.031141,188.266278 495,218.436088 495,250 C495,385.309764 385.309764,495 250,495 C114.690236,495 5,385.309764 5,250 C5,114.690236 114.690236,5 250,5 Z M251.317133,35 L250,35 C131.258779,35 35,131.258779 35,250 C35,368.741221 131.258779,465 250,465 C368.741221,465 465,368.741221 465,250 C465,239.018125 464.178721,228.158409 462.561353,217.484768 L462.363,216.206 L462.006626,216.423874 C442.540482,228.139887 419.983105,234.756682 396.31597,234.99342 L395,235 C323.202983,235 265,176.797017 265,105 C265,80.8531606 271.643221,57.8198768 283.576772,37.9927447 L283.793,37.636 L282.514795,37.4382642 C272.26745,35.8858331 261.849462,35.0669654 251.317133,35 Z M250,359 C272.09139,359 290,376.90861 290,399 C290,421.09139 272.09139,439 250,439 C227.90861,439 210,421.09139 210,399 C210,376.90861 227.90861,359 250,359 Z M385.764502,326.195959 C401.385474,341.816931 401.385474,367.14353 385.764502,382.764502 C370.14353,398.385474 344.816931,398.385474 329.195959,382.764502 C313.574988,367.14353 313.574988,341.816931 329.195959,326.195959 C344.816931,310.574988 370.14353,310.574988 385.764502,326.195959 Z M170.804041,326.195959 C186.425012,341.816931 186.425012,367.14353 170.804041,382.764502 C155.183069,398.385474 129.85647,398.385474 114.235498,382.764502 C98.6145263,367.14353 98.6145263,341.816931 114.235498,326.195959 C129.85647,310.574988 155.183069,310.574988 170.804041,326.195959 Z M98,207 C120.09139,207 138,224.90861 138,247 C138,269.09139 120.09139,287 98,287 C75.90861,287 58,269.09139 58,247 C58,224.90861 75.90861,207 98,207 Z M170.804041,111.235498 C186.425012,126.85647 186.425012,152.183069 170.804041,167.804041 C155.183069,183.425012 129.85647,183.425012 114.235498,167.804041 C98.6145263,152.183069 98.6145263,126.85647 114.235498,111.235498 C129.85647,95.6145263 155.183069,95.6145263 170.804041,111.235498 Z" id="Shape" fill="#000000" fill-rule="nonzero"></path>
    </g>
</svg>