<?xml version="1.0" encoding="UTF-8"?>
<svg width="500px" height="500px" viewBox="0 0 500 500" version="1.1" xmlns="http://www.w3.org/2000/svg" xmlns:xlink="http://www.w3.org/1999/xlink">
    <title>palette-filled</title>
    <g id="palette-filled" stroke="none" stroke-width="1" fill="none" fill-rule="evenodd">
        <path d="M250,5 C281.563912,5 311.733722,10.9688593 339.442269,21.8394173 C312.64194,39.7834594 295,70.3314817 295,105 C295,160.228475 339.771525,205 395,205 C429.668518,205 460.216541,187.35806 478.156264,160.561983 C489.031141,188.266278 495,218.436088 495,250 C495,385.309764 385.309764,495 250,495 C114.690236,495 5,385.309764 5,250 C5,114.690236 114.690236,5 250,5 Z M250,359 C227.90861,359 210,376.90861 210,399 C210,421.09139 227.90861,439 250,439 C272.09139,439 290,421.09139 290,399 C290,376.90861 272.09139,359 250,359 Z M385.764502,326.195959 C370.14353,310.574988 344.816931,310.574988 329.195959,326.195959 C313.574988,341.816931 313.574988,367.14353 329.195959,382.764502 C344.816931,398.385474 370.14353,398.385474 385.764502,382.764502 C401.385474,367.14353 401.385474,341.816931 385.764502,326.195959 Z M170.804041,326.195959 C155.183069,310.574988 129.85647,310.574988 114.235498,326.195959 C98.6145263,341.816931 98.6145263,367.14353 114.235498,382.764502 C129.85647,398.385474 155.183069,398.385474 170.804041,382.764502 C186.425012,367.14353 186.425012,341.816931 170.804041,326.195959 Z M98,207 C75.90861,207 58,224.90861 58,247 C58,269.09139 75.90861,287 98,287 C120.09139,287 138,269.09139 138,247 C138,224.90861 120.09139,207 98,207 Z M170.804041,111.235498 C155.183069,95.6145263 129.85647,95.6145263 114.235498,111.235498 C98.6145263,126.85647 98.6145263,152.183069 114.235498,167.804041 C129.85647,183.425012 155.183069,183.425012 170.804041,167.804041 C186.425012,152.183069 186.425012,126.85647 170.804041,111.235498 Z" id="Shape" fill="#000000" fill-rule="nonzero"></path>
    </g>
</svg>