<?xml version="1.0" encoding="UTF-8"?>
<svg width="500px" height="500px" viewBox="0 0 500 500" version="1.1" xmlns="http://www.w3.org/2000/svg" xmlns:xlink="http://www.w3.org/1999/xlink">
    <title>paragraph</title>
    <g id="paragraph" stroke="none" stroke-width="1" fill="none" fill-rule="evenodd">
        <path d="M5,130 C5,60.9644063 60.9644063,5 130,5 L470,5 C483.807119,5 495,16.1928813 495,30 C495,43.8071187 483.807119,55 470,55 L401,55 L401,470 C401,483.807119 389.807119,495 376,495 C362.192881,495 351,483.807119 351,470 L351,55 L251,55 L251,470 C251,483.807119 239.807119,495 226,495 C212.192881,495 201,483.807119 201,470 L201,55 L130,55 C88.5786438,55 55,88.5786438 55,130 C55,171.421356 88.5786438,205 130,205 L155,205 C168.807119,205 180,216.192881 180,230 C180,243.807119 168.807119,255 155,255 L130,255 C60.9644063,255 5,199.035594 5,130 Z" id="Path" fill="#000000" fill-rule="nonzero"></path>
    </g>
</svg>