<?xml version="1.0" encoding="UTF-8"?>
<svg width="500px" height="500px" viewBox="0 0 500 500" version="1.1" xmlns="http://www.w3.org/2000/svg" xmlns:xlink="http://www.w3.org/1999/xlink">
    <title>parking</title>
    <g id="parking" stroke="none" stroke-width="1" fill="none" fill-rule="evenodd">
        <path d="M250,25 C374.264069,25 475,125.735931 475,250 C475,374.264069 374.264069,475 250,475 C125.735931,475 25,374.264069 25,250 C25,125.735931 125.735931,25 250,25 Z M250,52.5510204 C140.95194,52.5510204 52.5510204,140.95194 52.5510204,250 C52.5510204,359.04806 140.95194,447.44898 250,447.44898 C359.04806,447.44898 447.44898,359.04806 447.44898,250 C447.44898,140.95194 359.04806,52.5510204 250,52.5510204 Z M265.269231,110 L266.22874,110.002471 C297.825606,110.165567 322.794231,118.401923 341.134615,134.711538 C359.660256,151.185897 368.923077,172.75641 368.923077,199.423077 C368.923077,226.217949 359.660256,247.75641 341.134615,264.038462 C322.608974,280.320513 297.320513,288.461538 265.269231,288.461538 L265.269231,288.461538 L217.961538,288.461538 L217.961538,350.576923 L247.961538,356.346154 L247.961538,390 L132,390 L132,356.346154 L161.807692,350.576923 L161.807692,149.615385 L132,143.846154 L132,110 L265.269231,110 Z M265.269231,153.269231 L217.961538,153.269231 L217.961538,245.192308 L265.269231,245.192308 C280.910256,245.192308 292.737179,240.929487 300.75,232.403846 C308.762821,223.878205 312.769231,213.012821 312.769231,199.807692 C312.769231,186.346154 308.762821,175.224359 300.75,166.442308 C292.737179,157.660256 280.910256,153.269231 265.269231,153.269231 L265.269231,153.269231 Z" id="Combined-Shape" fill="#000000" fill-rule="nonzero"></path>
    </g>
</svg>