<?xml version="1.0" encoding="UTF-8"?>
<svg width="500px" height="500px" viewBox="0 0 500 500" version="1.1" xmlns="http://www.w3.org/2000/svg" xmlns:xlink="http://www.w3.org/1999/xlink">
    <title>paste</title>
    <g id="paste" stroke="none" stroke-width="1" fill="none" fill-rule="evenodd">
        <path d="M445.009625,180 C472.345585,180 494.551911,201.939863 494.993304,229.172211 L495,229.999036 L495,395 L395,495 L254.990375,495 C227.654415,495 205.448089,473.060137 205.006696,445.827789 L205,445.000964 L205,229.999036 C205,202.668557 226.936062,180.448371 254.163692,180.006701 L254.990375,180 L445.009625,180 Z M73.1091881,74.9999205 C70.1759991,86.4076232 63.9422858,96.6653591 55.1971732,104.551292 L54.69,105.002 L54.6051829,105.003819 C46.2020054,105.166526 39.0683405,110.511904 36.2667961,117.976006 L35,118.824336 L35,430 C35,440.930636 43.7687286,449.813225 54.6555106,450 L175.153695,450.001155 C175.813828,460.70745 178.579358,470.844002 183.041393,480.001702 L55,480.001702 C27.3857625,480.001702 5,457.614237 5,430 L5,125 C5,97.3857625 27.3857625,74.9999205 55,74.9999205 L73.1091881,74.9999205 Z M445.009625,210 L254.646183,210 C243.884438,210.184837 235.186807,218.883701 235.002969,229.650995 L235,229.999036 L235,445.345515 C235.093336,450.789852 237.359435,455.703473 240.967947,459.25601 L241.435837,459.702068 C244.919566,462.917996 249.548839,464.910083 254.642377,464.997032 L254.990375,465 L382.573,465 L465,382.573 L465,229.654485 C464.906664,224.210148 462.640565,219.296527 459.032053,215.74399 L458.564163,215.297932 C455.080434,212.082004 450.451161,210.089917 445.357623,210.002968 L445.009625,210 Z M459,365 L369,455 L369,365 L459,365 Z M335,74.999965 C362.614237,74.999965 385,97.3857625 385,125 L385,149.999516 L355,149.999516 L355,118.824511 L353.730958,117.973727 C350.924617,110.495787 343.76866,105.144526 335.344489,105 L335.307174,105.001127 C326.297311,97.057286 319.880098,86.6257993 316.89082,74.999965 L335,74.999965 Z M165,35 C165,18.4314575 178.431458,5 195,5 C211.568542,5 225,18.4314575 225,35 C225,40.4635179 223.539508,45.5859195 220.98764,49.9980879 L285.549452,49.9985162 C285.186389,53.2823333 285,56.6193999 285,60 C285,91.2038 300.879918,118.698646 325,134.843949 L325,150 L65,150 L65,134.843799 C89.1201805,118.698476 105,91.2037035 105,60 C105,56.6193999 104.813611,53.2823333 104.450548,49.9985162 L169.01236,49.9980879 C166.460492,45.5859195 165,40.4635179 165,35 Z M256.667,79.998 L133.332,79.998 L133.279018,80.3175725 C130.934081,94.0282523 126.24562,107.076435 119.539206,118.95848 L118.944,119.999 L271.055,119.999 L270.967563,119.847512 C263.990278,107.728485 259.124548,94.3710539 256.720984,80.3175913 L256.667,79.998 Z" id="Shape" fill="#000000" fill-rule="nonzero"></path>
    </g>
</svg>