<?xml version="1.0" encoding="UTF-8"?>
<svg width="500px" height="500px" viewBox="0 0 500 500" version="1.1" xmlns="http://www.w3.org/2000/svg" xmlns:xlink="http://www.w3.org/1999/xlink">
    <title>pause-filled</title>
    <g id="pause-filled" stroke="none" stroke-width="1" fill="none" fill-rule="evenodd">
        <path d="M195,125 C211.568542,125 225,138.431458 225,155 L225,345 C225,361.568542 211.568542,375 195,375 L155,375 C138.431458,375 125,361.568542 125,345 L125,155 C125,138.431458 138.431458,125 155,125 L195,125 Z M345,125 C361.568542,125 375,138.431458 375,155 L375,345 C375,361.568542 361.568542,375 345,375 L305,375 C288.431458,375 275,361.568542 275,345 L275,155 C275,138.431458 288.431458,125 305,125 L345,125 Z" id="Shape" fill="#000000" fill-rule="nonzero"></path>
    </g>
</svg>