<?xml version="1.0" encoding="UTF-8"?>
<svg width="500px" height="500px" viewBox="0 0 500 500" version="1.1" xmlns="http://www.w3.org/2000/svg" xmlns:xlink="http://www.w3.org/1999/xlink">
    <title>pause</title>
    <g id="pause" stroke="none" stroke-width="1" fill="none" fill-rule="evenodd">
        <path d="M195,125 C211.568542,125 225,138.431458 225,155 L225,345 C225,361.568542 211.568542,375 195,375 L155,375 C138.431458,375 125,361.568542 125,345 L125,155 C125,138.431458 138.431458,125 155,125 L195,125 Z M185,155 L165,155 C159.477153,155 155,159.477153 155,165 L155,335 C155,340.522847 159.477153,345 165,345 L185,345 C190.522847,345 195,340.522847 195,335 L195,165 C195,159.477153 190.522847,155 185,155 Z M345,125 C361.568542,125 375,138.431458 375,155 L375,345 C375,361.568542 361.568542,375 345,375 L305,375 C288.431458,375 275,361.568542 275,345 L275,155 C275,138.431458 288.431458,125 305,125 L345,125 Z M335,155 L315,155 C309.477153,155 305,159.477153 305,165 L305,335 C305,340.522847 309.477153,345 315,345 L335,345 C340.522847,345 345,340.522847 345,335 L345,165 C345,159.477153 340.522847,155 335,155 Z" id="Shape" fill="#000000" fill-rule="nonzero"></path>
    </g>
</svg>