<?xml version="1.0" encoding="UTF-8"?>
<svg width="500px" height="500px" viewBox="0 0 500 500" version="1.1" xmlns="http://www.w3.org/2000/svg" xmlns:xlink="http://www.w3.org/1999/xlink">
    <title>percent</title>
    <g id="percent" stroke="none" stroke-width="1" fill="none" fill-rule="evenodd">
        <path d="M5,250 C5,241.715729 13.2227832,235 23.369613,235 L476.630387,235 C486.647223,235 494.791481,241.545011 495,249.686104 L495,250 C495,258.284271 486.777217,265 476.630387,265 L23.369613,265 C13.3527768,265 5.20851933,258.454989 5,250.313896 L5,250 Z" id="minus" fill="#000000" transform="translate(250.000000, 250.000000) rotate(-45.000000) translate(-250.000000, -250.000000) "></path>
        <path d="M350,300 C377.614237,300 400,322.385763 400,350 C400,377.614237 377.614237,400 350,400 C322.385763,400 300,377.614237 300,350 C300,322.385763 322.385763,300 350,300 Z M350,330 C338.954305,330 330,338.954305 330,350 C330,361.045695 338.954305,370 350,370 C361.045695,370 370,361.045695 370,350 C370,338.954305 361.045695,330 350,330 Z M150,100 C177.614237,100 200,122.385763 200,150 C200,177.614237 177.614237,200 150,200 C122.385763,200 100,177.614237 100,150 C100,122.385763 122.385763,100 150,100 Z M150,130 C138.954305,130 130,138.954305 130,150 C130,161.045695 138.954305,170 150,170 C161.045695,170 170,161.045695 170,150 C170,138.954305 161.045695,130 150,130 Z" id="Shape" fill="#000000" fill-rule="nonzero"></path>
    </g>
</svg>