<?xml version="1.0" encoding="UTF-8"?>
<svg width="500px" height="500px" viewBox="0 0 500 500" version="1.1" xmlns="http://www.w3.org/2000/svg" xmlns:xlink="http://www.w3.org/1999/xlink">
    <title>person-business</title>
    <g id="person-business" stroke="none" stroke-width="1" fill="none" fill-rule="evenodd">
        <path d="M250,236 C325.375976,236 386.839081,285.640072 389.88191,347.830714 L389.957059,349.776577 L389.957059,349.776577 L389.989026,398.226883 L389.989026,398.226883 L390,446 L390,446 L359.993876,446 L359.969463,350.611418 C358.775397,310.48509 321.789849,275.596922 271.621679,267.679767 L259.834464,288.762563 C256.943618,287.624869 253.794782,287 250.5,287 C246.893719,287 243.462285,287.748608 240.35262,289.098903 L228.378859,267.680057 C178.350943,275.576262 141.413694,310.296714 140.040599,350.297394 L140.008113,446 L110,446 L110.058258,349.268197 C112.216089,286.406758 174.044167,236 250,236 Z M250.5,297 C254.164662,297 257.532283,298.27178 260.185585,300.398059 L284.129839,405.615016 C284.892547,408.966442 283.88063,412.474709 281.450221,414.905118 L257.071068,439.284271 C253.165825,443.189514 246.834175,443.189514 242.928932,439.284271 L218.549779,414.905118 C216.11937,412.474709 215.107453,408.966442 215.870161,405.615016 L239.559093,301.52063 C242.362507,298.726976 246.229575,297 250.5,297 Z M338,369 C340.761424,369 343,371.238576 343,374 C343,376.761424 340.761424,379 338,379 L298,379 C295.238576,379 293,376.761424 293,374 C293,371.238576 295.238576,369 298,369 L338,369 Z M250,6 C307.989899,6 355,53.0101013 355,111 C355,168.989899 307.989899,216 250,216 C192.010101,216 145,168.989899 145,111 C145,53.0101013 192.010101,6 250,6 Z M250,36 C208.578644,36 175,69.5786438 175,111 C175,152.421356 208.578644,186 250,186 C291.421356,186 325,152.421356 325,111 C325,69.5786438 291.421356,36 250,36 Z" id="Shape" fill="#000000"></path>
    </g>
</svg>