<?xml version="1.0" encoding="UTF-8"?>
<svg width="500px" height="500px" viewBox="0 0 500 500" version="1.1" xmlns="http://www.w3.org/2000/svg" xmlns:xlink="http://www.w3.org/1999/xlink">
    <title>person</title>
    <g id="person" stroke="none" stroke-width="1" fill="none" fill-rule="evenodd">
        <path d="M250,210 C291.421356,210 325,176.421356 325,135 C325,93.5786438 291.421356,60 250,60 C208.578644,60 175,93.5786438 175,135 C175,176.421356 208.578644,210 250,210 Z M250,240 C192.010101,240 145,192.989899 145,135 C145,77.0101013 192.010101,30 250,30 C307.989899,30 355,77.0101013 355,135 C355,192.989899 307.989899,240 250,240 Z M359.988914,421.864942 C359.981972,399.235938 359.966989,374.528273 359.969463,374.611418 C358.609436,328.90799 310.8173,290 250,290 C189.338674,290 141.605079,328.721321 140.040599,374.297394 C140.043853,374.202603 140.024003,398.93529 140.014769,421.641261 C140.012358,427.567892 140.01014,433.73177 140.008113,440 L359.993876,440 C359.992364,433.808574 359.99071,427.720436 359.988914,421.864942 Z M390,470 L110,470 C110,470 110.019507,374.397077 110.058258,373.268197 C112.216089,310.406758 174.044167,260 250,260 C326.13735,260 388.07934,310.647967 389.956189,373.719083 C389.985339,374.698662 390,470 390,470 Z" fill="#000000" fill-rule="nonzero"></path>
    </g>
</svg>