<?xml version="1.0" encoding="UTF-8"?>
<svg width="500px" height="500px" viewBox="0 0 500 500" version="1.1" xmlns="http://www.w3.org/2000/svg" xmlns:xlink="http://www.w3.org/1999/xlink">
    <title>person-speaker</title>
    <g id="person-speaker" stroke="none" stroke-width="1" fill="none" fill-rule="evenodd">
        <path d="M250,186 C291.421356,186 325,152.421356 325,111 C325,69.5786438 291.421356,36 250,36 C208.578644,36 175,69.5786438 175,111 C175,152.421356 208.578644,186 250,186 Z M250,216 C192.010101,216 145,168.989899 145,111 C145,53.0101013 192.010101,6 250,6 C307.989899,6 355,53.0101013 355,111 C355,168.989899 307.989899,216 250,216 Z M359.988914,397.864942 C359.981972,375.235938 359.966989,350.528273 359.969463,350.611418 C358.609436,304.90799 310.8173,266 250,266 C189.338674,266 141.605079,304.721321 140.040599,350.297394 C140.043853,350.202603 140.024003,374.93529 140.014769,397.641261 C140.012358,403.567892 140.01014,439.73177 140.008113,446 L359.993876,446 C359.992364,439.808574 359.99071,403.720436 359.988914,397.864942 Z M390,446 L110,446 C110,446 110.019507,350.397077 110.058258,349.268197 C112.216089,286.406758 174.044167,236 250,236 C326.13735,236 388.07934,286.647967 389.956189,349.719083 C389.985339,350.698662 390,446 390,446 Z M257.763077,330.501339 C253.475648,314.500437 262.970273,298.053769 278.977775,293.764571 L278.977775,293.764571 C294.981758,289.476317 311.430707,298.969464 315.718626,314.972196 L339.01533,401.916678 C343.302759,417.91758 333.808133,434.364248 317.800632,438.653445 L317.800632,438.653445 C301.796648,442.9417 285.347699,433.448553 281.05978,417.44582 L257.763077,330.501339 Z M309.469543,446.330084 L328.788059,441.153703 L341.729011,489.449994 L322.410495,494.626375 L309.469543,446.330084 Z" id="Shape" fill="#000000" fill-rule="nonzero"></path>
    </g>
</svg>