<?xml version="1.0" encoding="UTF-8"?>
<svg width="500px" height="500px" viewBox="0 0 500 500" version="1.1" xmlns="http://www.w3.org/2000/svg" xmlns:xlink="http://www.w3.org/1999/xlink">
    <title>person-host</title>
    <g id="person-host" stroke="none" stroke-width="1" fill="none" fill-rule="evenodd">
        <path d="M250,186 C291.421356,186 325,152.421356 325,111 C325,69.5786438 291.421356,36 250,36 C208.578644,36 175,69.5786438 175,111 C175,152.421356 208.578644,186 250,186 Z M250,216 C192.010101,216 145,168.989899 145,111 C145,53.0101013 192.010101,6 250,6 C307.989899,6 355,53.0101013 355,111 C355,168.989899 307.989899,216 250,216 Z M359.988914,397.864942 C359.981972,375.235938 359.966989,350.528273 359.969463,350.611418 C358.609436,304.90799 310.8173,266 250,266 C189.338674,266 141.605079,304.721321 140.040599,350.297394 C140.043853,350.202603 140.024003,374.93529 140.014769,397.641261 C140.012358,403.567892 140.01014,439.73177 140.008113,446 L359.993876,446 C359.992364,439.808574 359.99071,403.720436 359.988914,397.864942 Z M390,446 L110,446 C110,446 110.019507,350.397077 110.058258,349.268197 C112.216089,286.406758 174.044167,236 250,236 C326.13735,236 388.07934,286.647967 389.956189,349.719083 C389.985339,350.698662 390,446 390,446 Z M270.879533,353.251783 C273.709247,357.898104 279.756142,362.304946 285.04557,363.575783 L325,373.175224 L297.684806,404.392589 C294.030667,408.568747 291.839301,415.776185 292.549176,421.277714 L297.676737,461.016316 L258.704252,445.427322 C253.659942,443.409598 246.179966,443.501194 241.187721,445.640728 L205.307137,461.018121 L207.890071,420.982649 C208.242368,415.522045 205.757543,408.446602 202.069366,404.40717 L175,374.759769 L215.421833,364.067543 C220.656795,362.682811 226.623153,358.188755 229.399401,353.538539 L250.019424,319 L270.879533,353.251783 Z M328,238 C343,188 399,153 429,209 C459,265 495,165 495,165 L495,279 C495,279 408,382.200381 400,317 C392,251.799619 319.784783,242.179672 328,238 Z" id="Shape" fill="#000000"></path>
    </g>
</svg>