<?xml version="1.0" encoding="UTF-8"?>
<svg width="500px" height="500px" viewBox="0 0 500 500" version="1.1" xmlns="http://www.w3.org/2000/svg" xmlns:xlink="http://www.w3.org/1999/xlink">
    <title>person-banned</title>
    <g id="person-banned" stroke="none" stroke-width="1" fill="none" fill-rule="evenodd">
        <path d="M390,300 C434.18278,300 470,335.81722 470,380 C470,424.18278 434.18278,460 390,460 C345.81722,460 310,424.18278 310,380 C310,335.81722 345.81722,300 390,300 Z M250,236 C296.360232,236 337.457358,254.778362 362.9359,283.70552 C352.553144,286.617991 342.856569,291.162644 334.137552,297.045682 C314.118287,278.237237 284.107463,266 250,266 C189.338674,266 141.605079,304.721321 140.040599,350.297394 L140.008113,446 L110,446 L110.058258,349.268197 C112.216089,286.406758 174.044167,236 250,236 Z M438.171917,393.443853 L437.974248,393.548964 C436.185475,394.476173 434.153911,395 432,395 L348,395 C345.766539,395 343.664629,394.436766 341.828557,393.444585 C347.699962,414.528666 367.043219,430 390,430 C412.956781,430 432.300038,414.528666 438.171917,393.443853 Z M390,330 C367.043219,330 347.699962,345.471334 341.828083,366.556147 C343.664629,365.563234 345.766539,365 348,365 L432,365 C434.233461,365 436.335371,365.563234 438.171443,366.555415 C432.300038,345.471334 412.956781,330 390,330 Z M250,6 C307.989899,6 355,53.0101013 355,111 C355,168.989899 307.989899,216 250,216 C192.010101,216 145,168.989899 145,111 C145,53.0101013 192.010101,6 250,6 Z M250,36 C208.578644,36 175,69.5786438 175,111 C175,152.421356 208.578644,186 250,186 C291.421356,186 325,152.421356 325,111 C325,69.5786438 291.421356,36 250,36 Z" id="Shape" fill="#000000"></path>
    </g>
</svg>