<?xml version="1.0" encoding="UTF-8"?>
<svg width="500px" height="500px" viewBox="0 0 500 500" version="1.1" xmlns="http://www.w3.org/2000/svg" xmlns:xlink="http://www.w3.org/1999/xlink">
    <title>person-plus</title>
    <g id="person-plus" stroke="none" stroke-width="1" fill="none" fill-rule="evenodd">
        <path d="M370,280 C378.284271,280 385,286.714163 385,294.998586 L385,355 L445.001414,355 C453.18005,355 459.829746,361.545011 459.996783,369.686104 L460,370 C460,378.284271 453.285837,385 445.001414,385 L385,385 L385,445.001414 C385,453.18005 378.454989,459.829746 370.313896,459.996783 L370,460 C361.715729,460 355,453.285837 355,445.001414 L355,385 L294.998586,385 C286.715096,385 280,378.286093 280,370 C280,361.715729 286.714163,355 294.998586,355 L355,355 L355,294.998586 C355,286.81995 361.545011,280.170254 369.686104,280.003217 L370,280 Z M250,236 C279.707356,236 307.253592,243.710712 329.913966,256.861519 C318.103216,261.043517 307.143644,267.024451 297.362498,274.473374 C283.092313,269.061029 267.058524,266 250,266 C189.338674,266 141.605079,304.721321 140.040599,350.297394 L140.008113,446 L110,446 L110.058258,349.268197 C112.216089,286.406758 174.044167,236 250,236 Z M250,6 C307.989899,6 355,53.0101013 355,111 C355,168.989899 307.989899,216 250,216 C192.010101,216 145,168.989899 145,111 C145,53.0101013 192.010101,6 250,6 Z M250,36 C208.578644,36 175,69.5786438 175,111 C175,152.421356 208.578644,186 250,186 C291.421356,186 325,152.421356 325,111 C325,69.5786438 291.421356,36 250,36 Z" id="Shape" fill="#000000"></path>
    </g>
</svg>