<?xml version="1.0" encoding="UTF-8"?>
<svg width="500px" height="500px" viewBox="0 0 500 500" version="1.1" xmlns="http://www.w3.org/2000/svg" xmlns:xlink="http://www.w3.org/1999/xlink">
    <title>person-banned</title>
    <g id="person-banned" stroke="none" stroke-width="1" fill="none" fill-rule="evenodd">
        <path d="M370,270 C425.228475,270 470,314.771525 470,370 C470,425.228475 425.228475,470 370,470 C314.771525,470 270,425.228475 270,370 C270,314.771525 314.771525,270 370,270 Z M250,236 C279.707356,236 307.253592,243.710712 329.913966,256.861519 C318.103216,261.043517 307.143644,267.024451 297.362498,274.473374 C283.092313,269.061029 267.058524,266 250,266 C189.338674,266 141.605079,304.721321 140.040599,350.297394 L140.008113,446 L110,446 L110.058258,349.268197 C112.216089,286.406758 174.044167,236 250,236 Z M420,350 L320,350 C308.954305,350 300,358.954305 300,370 C300,380.930636 308.768729,389.813225 319.655511,389.997093 L320,390 L420,390 C431.045695,390 440,381.045695 440,370 C440,358.954305 431.045695,350 420,350 Z M250,6 C307.989899,6 355,53.0101013 355,111 C355,168.989899 307.989899,216 250,216 C192.010101,216 145,168.989899 145,111 C145,53.0101013 192.010101,6 250,6 Z M250,36 C208.578644,36 175,69.5786438 175,111 C175,152.421356 208.578644,186 250,186 C291.421356,186 325,152.421356 325,111 C325,69.5786438 291.421356,36 250,36 Z" id="Shape" fill="#000000"></path>
    </g>
</svg>