<?xml version="1.0" encoding="UTF-8"?>
<svg width="500px" height="500px" viewBox="0 0 500 500" version="1.1" xmlns="http://www.w3.org/2000/svg" xmlns:xlink="http://www.w3.org/1999/xlink">
    <title>pin</title>
    <g id="pin" stroke="none" stroke-width="1" fill="none" fill-rule="evenodd">
        <path d="M193.710678,263.862915 L236.137085,306.289322 L31.0761184,468.923882 L193.710678,263.862915 Z M388.236847,49.0149327 C390.395714,50.6556716 392.440872,52.4408724 394.358257,54.3582575 L445.641743,105.641743 C469.0732,129.0732 469.0732,167.063099 445.641743,190.494556 C443.724357,192.411941 441.679199,194.197142 439.520332,195.837881 L344.619231,267.965135 C351.217613,299.408534 342.554327,333.414823 318.629374,358.128375 L317.469517,359.307179 L140.692821,182.530483 C165.496866,157.726439 200.089329,148.676616 232.036035,155.381015 L304.162119,60.4796683 C324.212815,34.097174 361.854352,28.964237 388.236847,49.0149327 Z M328.350245,78.2397825 L328.046856,78.6323355 L244.441371,188.637935 L225.8744,184.741434 C213.207096,182.083049 200.24687,182.973593 188.329883,187.131317 L187.880059,187.290726 L312.709154,312.119822 L312.849681,311.723528 C316.949018,300.001074 317.886283,287.268292 315.397868,274.80591 L315.258738,274.12642 L311.362549,255.559834 L421.367834,171.953015 C422.447267,171.132646 423.469847,170.240045 424.428539,169.281353 C436.027111,157.682781 436.143096,138.949846 424.776496,127.208587 L424.428539,126.854946 L373.145054,75.5714609 C372.186361,74.6127684 371.163782,73.720168 370.084349,72.8997985 C357.025014,62.9747042 338.448185,65.390849 328.350245,78.2397825 Z" id="Shape" fill="#000000" fill-rule="nonzero"></path>
    </g>
</svg>