<?xml version="1.0" encoding="UTF-8"?>
<svg width="500px" height="500px" viewBox="0 0 500 500" version="1.1" xmlns="http://www.w3.org/2000/svg" xmlns:xlink="http://www.w3.org/1999/xlink">
    <title>play</title>
    <g id="play" stroke="none" stroke-width="1" fill="none" fill-rule="evenodd">
        <path d="M368.248613,235.53598 C376.255257,249.403894 371.63134,267.098079 357.946118,275.297887 L357.528644,275.543447 L191.753964,371.253503 C187.301701,373.824018 182.251244,375.177284 177.110215,375.177284 C161.096926,375.177284 148.085272,362.325762 147.82664,346.374108 L147.822716,345.889785 L147.822716,154.469672 C147.822716,149.328643 149.175982,144.278186 151.746497,139.825923 C159.753141,125.958009 177.388713,121.115346 191.332566,128.867192 L191.753964,129.105955 L357.528644,224.816011 C361.980907,227.386526 365.678098,231.083717 368.248613,235.53598 Z M327.884895,241.519475 L192.110215,163.129926 C187.327288,160.368503 181.211384,162.007254 178.44996,166.790181 C177.572277,168.310373 177.110215,170.034814 177.110215,171.790181 L177.110215,328.569277 C177.110215,334.092125 181.587367,338.569277 187.110215,338.569277 C188.865581,338.569277 190.590022,338.107215 192.110215,337.229531 L327.884895,258.839983 C332.667821,256.078559 334.306573,249.962655 331.545149,245.179729 C330.667466,243.659537 329.405087,242.397158 327.884895,241.519475 Z" id="Shape" fill="#000000" fill-rule="nonzero"></path>
    </g>
</svg>