<?xml version="1.0" encoding="UTF-8"?>
<svg width="500px" height="500px" viewBox="0 0 500 500" version="1.1" xmlns="http://www.w3.org/2000/svg" xmlns:xlink="http://www.w3.org/1999/xlink">
    <title>plus</title>
    <g id="plus" stroke="none" stroke-width="1" fill="none" fill-rule="evenodd">
        <path d="M250,50 C258.284271,50 265,56.7124761 265,64.9956024 L265,235 L435.004398,235 C443.181407,235 449.82978,241.545011 449.996783,249.686104 L450,250 C450,258.284271 443.287524,265 435.004398,265 L265,265 L265,435.004398 C265,443.181407 258.454989,449.82978 250.313896,449.996783 L250,450 C241.715729,450 235,443.287524 235,435.004398 L235,265 L64.9956024,265 C56.7137599,265 50,258.286093 50,250 C50,241.715729 56.7124761,235 64.9956024,235 L235,235 L235,64.9956024 C235,56.8185933 241.545011,50.1702199 249.686104,50.0032168 L250,50 Z" fill="#000000"></path>
    </g>
</svg>