<?xml version="1.0" encoding="UTF-8"?>
<svg width="500px" height="500px" viewBox="0 0 500 500" version="1.1" xmlns="http://www.w3.org/2000/svg" xmlns:xlink="http://www.w3.org/1999/xlink">
    <title>poll</title>
    <g id="poll" stroke="none" stroke-width="1" fill="none" fill-rule="evenodd">
        <path d="M35,54.9933326 L35,445.006667 C35,456.045723 43.953626,465 54.9933326,465 L445.006667,465 C456.045723,465 465,456.046374 465,445.006667 L465,54.9933326 C465,43.9542771 456.046374,35 445.006667,35 L54.9933326,35 C43.9542771,35 35,43.953626 35,54.9933326 Z M5,54.9933326 C5,27.3827774 27.3880408,5 54.9933326,5 L445.006667,5 C472.617223,5 495,27.3880408 495,54.9933326 L495,445.006667 C495,472.617223 472.611959,495 445.006667,495 L54.9933326,495 C27.3827774,495 5,472.611959 5,445.006667 L5,54.9933326 Z M120,165.008537 L120,374.991463 C120,383.288502 126.711491,390 135,390 C143.286011,390 150,383.284174 150,374.991463 L150,165.008537 C150,156.711498 143.288509,150 135,150 C126.713989,150 120,156.715826 120,165.008537 Z M90,165.008537 C90,140.151008 110.141722,120 135,120 C159.852814,120 180,140.138718 180,165.008537 L180,374.991463 C180,399.848992 159.858278,420 135,420 C110.147186,420 90,399.861282 90,374.991463 L90,165.008537 Z M235,264.994154 L235,375.005846 C235,383.283197 241.717148,390 250,390 C258.288158,390 265,383.288467 265,375.005846 L265,264.994154 C265,256.716803 258.282852,250 250,250 C241.711842,250 235,256.711533 235,264.994154 Z M205,264.994154 C205,240.144569 225.141722,220 250,220 C274.852814,220 295,240.149679 295,264.994154 L295,375.005846 C295,399.855431 274.858278,420 250,420 C225.147186,420 205,399.850321 205,375.005846 L205,264.994154 Z M350,124.995819 L350,375.004181 C350,383.279624 356.719898,390 365,390 C373.287909,390 380,383.28797 380,375.004181 L380,124.995819 C380,116.720376 373.280102,110 365,110 C356.712091,110 350,116.71203 350,124.995819 Z M320,124.995819 C320,100.145315 340.141722,80 365,80 C389.852814,80 410,100.156003 410,124.995819 L410,375.004181 C410,399.854685 389.858278,420 365,420 C340.147186,420 320,399.843997 320,375.004181 L320,124.995819 Z" id="Shape" fill="#000000" fill-rule="nonzero"></path>
    </g>
</svg>