<?xml version="1.0" encoding="UTF-8"?>
<svg width="500px" height="500px" viewBox="0 0 500 500" version="1.1" xmlns="http://www.w3.org/2000/svg" xmlns:xlink="http://www.w3.org/1999/xlink">
    <title>power-off</title>
    <g id="power-off" stroke="none" stroke-width="1" fill="none" fill-rule="evenodd">
        <path d="M50,235 C50,124.54305 139.54305,35 250,35 C360.45695,35 450,124.54305 450,235 C450,324.55267 391.142358,400.3584 310.000452,425.843812 L310.001351,394.108418 C374.281207,369.855628 420,307.766912 420,235 C420,141.111593 343.888407,65 250,65 C156.111593,65 80,141.111593 80,235 C80,307.766535 125.718319,369.854984 189.997649,394.10804 L189.998551,425.843812 C108.85716,400.357779 50,324.552303 50,235 Z M250,465 C241.715729,465 235,458.288453 235,450.008414 L235,279.991586 C235,271.816767 241.545011,265.170174 249.686104,265.003216 L250,265 C258.284271,265 265,271.711547 265,279.991586 L265,450.008414 C265,458.183233 258.454989,464.829826 250.313896,464.996784 L250,465 Z" id="Shape" fill="#000000" fill-rule="nonzero"></path>
    </g>
</svg>