<?xml version="1.0" encoding="UTF-8"?>
<svg width="499px" height="500px" viewBox="0 0 499 500" version="1.1" xmlns="http://www.w3.org/2000/svg" xmlns:xlink="http://www.w3.org/1999/xlink">
    <title>power</title>
    <g id="power" stroke="none" stroke-width="1" fill="none" fill-rule="evenodd">
        <path d="M450,265 C450,375.45695 360.45695,465 250,465 C139.54305,465 50,375.45695 50,265 C50,175.44733 108.857642,99.6415999 189.999548,74.1561876 L189.998649,105.891582 C125.718793,130.144372 80,192.233088 80,265 C80,358.888407 156.111593,435 250,435 C343.888407,435 420,358.888407 420,265 C420,192.233465 374.281681,130.145016 310.002351,105.89196 L310.001449,74.1565008 C391.14284,99.642221 450,175.447697 450,265 Z M250,35 C258.284271,35 265,41.711547 265,49.9915858 L265,220.008414 C265,228.183233 258.454989,234.829826 250.313896,234.996784 L250,235 C241.715729,235 235,228.288453 235,220.008414 L235,49.9915858 C235,41.816767 241.545011,35.1701743 249.686104,35.003216 L250,35 Z" id="Shape" fill="#000000" fill-rule="nonzero"></path>
    </g>
</svg>