<?xml version="1.0" encoding="UTF-8"?>
<svg width="500px" height="500px" viewBox="0 0 500 500" version="1.1" xmlns="http://www.w3.org/2000/svg" xmlns:xlink="http://www.w3.org/1999/xlink">
    <title>print</title>
    <g id="print" stroke="none" stroke-width="1" fill="none" fill-rule="evenodd">
        <path d="M400,330 L400,495 L100,495 L100,330 L400,330 Z M370,360 L130,360 L130,465 L370,465 L370,360 Z M445,200 C472.614237,200 495,222.385763 495,250 L495,400 L430,400 L430,370 L465,370 L465,250 C465,239.069364 456.231271,230.186775 445.344489,230.002907 L445,230 L55,230 C44.0693643,230 35.186775,238.768729 35,249.655511 L35,370 L70,370 L70,400 L5,400 L5,250 C5,222.385763 27.3857625,200 55,200 L445,200 Z M430,250 C438.284271,250 445,256.715729 445,265 C445,273.284271 438.284271,280 430,280 C421.715729,280 415,273.284271 415,265 C415,256.715729 421.715729,250 430,250 Z M400,15 L400,180 L100,180 L100,15 L400,15 Z M370,45 L130,45 L130,150 L370,150 L370,45 Z" id="Shape" fill="#000000" fill-rule="nonzero"></path>
    </g>
</svg>