<?xml version="1.0" encoding="UTF-8"?>
<svg width="500px" height="500px" viewBox="0 0 500 500" version="1.1" xmlns="http://www.w3.org/2000/svg" xmlns:xlink="http://www.w3.org/1999/xlink">
    <title>promotion</title>
    <g id="promotion" stroke="none" stroke-width="1" fill="none" fill-rule="evenodd">
        <path d="M146.540106,292.485158 L185.362962,437.374032 C191.080635,458.712676 178.417335,480.646154 157.078691,486.363827 C135.740047,492.081499 113.806569,479.4182 108.088896,458.079555 L69.2660395,313.190682 L146.540106,292.485158 Z M125.326902,329.227504 L106.008386,334.403885 L137.066671,450.314984 C138.471862,455.559227 143.794746,458.707531 149.042758,457.454786 L149.31412,457.386052 C154.558363,455.980861 157.706667,450.657977 156.453921,445.409965 L156.385188,445.138603 L125.326902,329.227504 Z M323.991722,12 L370.581794,185.864923 L417.166324,359.732348 C347.789008,323.207316 271.200284,305.669992 196.805413,310.074895 L177.396883,237.629681 L157.982302,165.185072 C224.61274,131.802909 281.723153,78.8925973 323.991722,12 Z M311.244938,80.3355892 L310.912549,80.7354848 C277.408829,120.683043 238.155468,154.069182 194.612831,179.451375 L193.098225,180.32838 L206.374968,229.866269 L219.647106,279.410154 L221.375193,279.413448 C271.247972,279.647703 321.639504,288.812326 370.130015,306.270512 L371.962074,306.935027 L341.604148,193.629977 L311.244938,80.3355892 Z M436.619244,248.319081 L467.705082,273.491897 C471.997141,276.967537 472.658978,283.264502 469.183338,287.55656 C465.707697,291.848619 459.410733,292.510457 455.118674,289.034816 L424.032836,263.862 C419.740777,260.38636 419.07894,254.089396 422.55458,249.797337 C426.030221,245.505278 432.327185,244.843441 436.619244,248.319081 Z M148.323298,167.774211 L187.146155,312.663085 L80.8943142,341.13318 C54.221009,348.280271 26.8041612,332.451146 19.6570706,305.777841 L6.71611837,257.48155 C-0.430972207,230.808245 15.3981523,203.391397 42.0714574,196.244306 L148.323298,167.774211 Z M363.817146,121.986827 C387.569898,129.376841 407.131496,148.415212 414.045812,174.219792 C420.960129,200.024372 413.538473,226.292884 396.662994,244.569199 L363.817146,121.986827 Z M446.090637,189.99774 L486.035818,192.091178 C491.551097,192.380222 495.787797,197.085555 495.498754,202.600833 C495.20971,208.116112 490.504377,212.352813 484.989099,212.063769 L445.043917,209.970331 C439.528639,209.681287 435.291938,204.975955 435.580982,199.460676 C435.870025,193.945397 440.575358,189.708697 446.090637,189.99774 Z M127.110095,204.516557 L49.8360288,225.222081 C39.2778455,228.051138 32.967437,238.820062 35.6075407,249.383475 L35.6938932,249.716978 L48.6348454,298.01327 C51.4639021,308.571453 62.2328268,314.881862 72.7962392,312.241758 L73.1297428,312.155405 L150.403809,291.449882 L127.110095,204.516557 Z M469.447728,105.377081 C472.455686,110.00893 471.139262,116.202218 466.507412,119.210177 L432.96059,140.995738 C428.32874,144.003696 422.135452,142.687272 419.127494,138.055423 C416.119535,133.423573 417.435959,127.230285 422.067809,124.222327 L455.614632,102.436765 C460.246481,99.4288068 466.439769,100.745231 469.447728,105.377081 Z M404.180046,44.9609707 C409.336068,46.9401822 411.911382,52.7244321 409.93217,57.8804544 L395.597452,95.2236715 C393.618241,100.379694 387.833991,102.955008 382.677969,100.975796 C377.521946,98.9965847 374.946632,93.2123348 376.925844,88.0563125 L391.260562,50.7130954 C393.239773,45.5570731 399.024023,42.9817591 404.180046,44.9609707 Z" id="Shape" fill="#000000" fill-rule="nonzero"></path>
    </g>
</svg>