<?xml version="1.0" encoding="UTF-8"?>
<svg width="500px" height="500px" viewBox="0 0 500 500" version="1.1" xmlns="http://www.w3.org/2000/svg" xmlns:xlink="http://www.w3.org/1999/xlink">
    <title>puzzle</title>
    <g id="puzzle" stroke="none" stroke-width="1" fill="none" fill-rule="evenodd">
        <path d="M232.218135,20 C249.266925,20 264.701708,26.9103876 275.874293,38.0829726 C287.046878,49.2555577 293.957265,64.6903403 293.957265,81.7391304 C293.957265,86.2143656 293.480808,90.578212 292.576071,94.7829113 L292.576071,94.7829113 L342.435526,94.7826087 C354.861933,94.7826087 366.111933,99.8194053 374.255331,107.962804 C382.39873,116.106202 387.435526,127.356202 387.435526,139.782893 L387.435526,139.782893 L387.434758,180.294338 C391.639601,179.389536 396.003604,178.913043 400.479005,178.913043 C417.527795,178.913043 432.962577,185.823431 444.135162,196.996016 C455.307747,208.168601 462.218135,223.603384 462.218135,240.652174 C462.218135,257.700964 455.307747,273.135747 444.135162,284.308332 C432.962577,295.480917 417.527795,302.391304 400.479005,302.391304 C396.003569,302.391304 391.639533,301.914804 387.434659,301.009988 L387.434659,301.009988 L387.435526,360.217391 C387.435526,372.643798 382.39873,383.893798 374.255331,392.037196 C366.111933,400.180595 354.861933,405.217391 342.435435,405.217391 L342.435435,405.217391 L292.576071,405.217089 C293.480808,409.421788 293.957265,413.785634 293.957265,418.26087 C293.957265,435.30966 287.046878,450.744442 275.874293,461.917027 C264.701708,473.089612 249.266925,480 232.218135,480 C215.169345,480 199.734562,473.089612 188.561977,461.917027 C177.389392,450.744442 170.479005,435.30966 170.479005,418.26087 C170.479005,413.785634 170.955462,409.421788 171.860199,405.217089 L171.860199,405.217089 L122.000744,405.217391 C109.574412,405.217391 98.3241907,400.18062 90.1805937,392.037227 C82.0369566,383.893794 76.9999924,372.64377 76.9999924,360.217391 L76.9999924,360.217391 L76.9999924,300.160979 C91.7499621,296.073682 104.276637,286.647952 112.383057,274.10107 C118.600111,264.478494 122.206901,253.014457 122.218109,240.7097 L122.218109,240.7097 L122.208865,239.568748 C122.00163,227.470341 118.316444,216.218562 112.103885,206.775186 C103.99048,194.442434 91.5818703,185.184339 76.9999924,181.143645 L76.9999924,181.143645 L76.9999924,139.782609 C76.9999924,127.35623 82.0369566,116.106206 90.1805937,107.962773 C98.3241907,99.8193796 109.574412,94.7826087 122.000835,94.7826087 L122.000835,94.7826087 L171.860199,94.7829113 C170.955462,90.578212 170.479005,86.2143656 170.479005,81.7391304 C170.479005,64.6903403 177.389392,49.2555577 188.561977,38.0829726 C199.734562,26.9103876 215.169345,20 232.218135,20 Z" id="Path" stroke="#000000" stroke-width="30"></path>
    </g>
</svg>