<?xml version="1.0" encoding="UTF-8"?>
<svg width="500px" height="500px" viewBox="0 0 500 500" version="1.1" xmlns="http://www.w3.org/2000/svg" xmlns:xlink="http://www.w3.org/1999/xlink">
    <title>q-n-a</title>
    <g id="q-n-a" stroke="none" stroke-width="1" fill="none" fill-rule="evenodd">
        <path d="M140.3,244 C145.137222,244 149.847831,244.29744 154.420147,244.876037 C152.688222,251.80249 151.8,259.113001 151.8,266.8 L151.800189,266.999783 L151.800189,266.999783 C148.098767,266.471017 144.261835,266.2 140.3,266.2 C95.3,266.2 66.8,300.7 66.8,347.5 C66.8,394 95.3,428.8 140.3,428.8 C154.727778,428.8 167.132613,425.332099 177.798146,418.963576 L178.4,418.6 L149.9,387.7 L167.3,373 L195.5,403.3 C206.999711,389.441374 213.572538,370.366049 213.794205,348.637721 C221.856827,350.882458 230.475026,352.199331 239.501567,352.521839 C238.45142,379.544979 228.908024,403.258275 212.819748,420.739844 L212.3,421.3 L231.2,441.7 L213.8,456.7 L194.6,436 C179.3,445.6 161,451 140.3,451 C80.9,451 41,406.6 41,347.5 C41,288.4 80.9,244 140.3,244 Z M261,115.9 C286.8,115.9 306.3,130 306.3,155.2 C306.3,185.2 280.5,198.4 255.3,211.6 C263.1,222.7 271.8,232.6 278.4,240.1 C286.5,249.4 294.3,258.1 302.1,266.8 C312.9,250.3 320.1,232.3 323.7,221.2 L323.7,221.2 L342.9,229.6 C336.3,245.5 327.9,264.4 315.9,281.2 C327.6,293.5 340.2,305.5 354.6,319 L354.6,319 L323.7,319 C317.7,313.6 309.9,306.1 301.8,298 C287.1,312.4 268.2,322.6 243.9,322.6 C209.7,322.6 181.8,304 181.8,266.8 C181.8,235.6 202.8,219.7 225.9,207.1 C216.9,191.8 210.6,176.5 210.6,162.4 C210.6,135.7 232.5,115.9 261,115.9 Z M235.8,222.1 C219,232.3 206.1,244.6 206.1,265.3 C206.1,290.2 225.3,304 246.3,304 C262.8,304 276.9,295.6 288.3,284.2 C276.9,272.2 266.1,260.8 260.4,253.9 C252.3,244.3 243.6,233.5 235.8,222.1 Z M406.300003,90 L487.000006,290.100006 L459.400005,290.100006 L441.700004,245.700005 L368.679108,245.701486 C369.104069,244.698506 369.531253,243.682947 369.961049,242.654265 L370.60775,241.10133 L377.913,223.5 L434.200004,223.500004 L391.000003,112.200001 L355.722,202.463 L334.026,192.972 L375.400002,90 L406.300003,90 Z M261.9,133.6 C246.3,133.6 233.7,145.6 233.7,162.7 C233.7,173.2 238.8,185.2 245.7,197.2 C267,186.4 285.3,175.9 285.3,156.1 C285.3,141.4 275.1,133.6 261.9,133.6 Z" id="Shape" fill="#000000"></path>
    </g>
</svg>