<?xml version="1.0" encoding="UTF-8"?>
<svg width="500px" height="500px" viewBox="0 0 500 500" version="1.1" xmlns="http://www.w3.org/2000/svg" xmlns:xlink="http://www.w3.org/1999/xlink">
    <title>qr-code</title>
    <g id="qr-code" stroke="none" stroke-width="1" fill="none" fill-rule="evenodd">
        <path d="M490,460 L490,490 L460,490 L460,460 L490,460 Z M310,460 L310,490 L250,490 L250,460 L310,460 Z M370,460 L370,490 L340,490 L340,460 L370,460 Z M40,310 L40,340 L115,340 L115,310 L145,310 L145,340 L150,340 C155.522847,340 160,344.477153 160,350 L160,370 L220,370 L220,400 L280,400 L280,430 L250,430 L250,460 L220,460 L220,430 L190,430 L190,400 L160,400 L160,460 L220,460 L220,490 L160,490 L160,480 C160,485.522847 155.522847,490 150,490 L20,490 C14.4771525,490 10,485.522847 10,480 L10,350 C10,344.477153 14.4771525,340 20,340 L10,340 L10,310 L40,310 Z M340,430 L340,460 L310,460 L310,430 L340,430 Z M130,370 L40,370 L40,460 L130,460 L130,370 Z M490,400 L490,430 L460,430 L460,460 L370,460 L370,430 L430,430 L430,400 L490,400 Z M115,385 L115,445 L55,445 L55,385 L115,385 Z M370,400 L370,430 L340,430 L340,400 L370,400 Z M340,370 L340,400 L310,400 L310,370 L340,370 Z M400,370 L400,400 L370,400 L370,370 L400,370 Z M250,340 L250,370 L220,370 L220,340 L250,340 Z M310,340 L310,370 L280,370 L280,340 L310,340 Z M430,340 L430,370 L400,370 L400,340 L430,340 Z M490,340 L490,370 L460,370 L460,340 L490,340 Z M190,280 L190,310 L220,310 L220,340 L160,340 L160,280 L190,280 Z M280,250 L280,340 L250,340 L250,250 L280,250 Z M460,250 L460,340 L430,340 L430,250 L460,250 Z M100,280 L100,310 L40,310 L40,280 L100,280 Z M160,190 L160,280 L130,280 L130,220 L100,220 L100,190 L160,190 Z M40,250 L40,280 L10,280 L10,250 L40,250 Z M370,250 L370,280 L340,280 L340,250 L370,250 Z M340,10 L340,20 C340,14.4771525 344.477153,10 350,10 L480,10 C485.522847,10 490,14.4771525 490,20 L490,150 C490,155.522847 485.522847,160 480,160 L490,160 L490,250 L460,250 L460,220 L430,220 L430,250 L370,250 L370,220 L430,220 L430,190 L460,190 L460,160 L350,160 C344.477153,160 340,155.522847 340,150 L340,130 L310,130 L310,190 L250,190 L250,160 L280,160 L280,130 L310,130 L310,100 L340,100 L340,40 L310,40 L310,70 L280,70 L280,40 L310,40 L310,10 L340,10 Z M340,190 L340,250 L280,250 L280,220 L310,220 L310,190 L340,190 Z M70,190 L70,220 L100,220 L100,250 L40,250 L40,190 L70,190 Z M250,190 L250,220 L220,220 L220,190 L250,190 Z M220,160 L220,190 L160,190 L160,160 L220,160 Z M150,10 C155.522847,10 160,14.4771525 160,20 L160,10 L190,10 L190,40 L160,40 L160,150 C160,155.522847 155.522847,160 150,160 L40,160 L40,190 L10,190 L10,160 L20,160 C14.4771525,160 10,155.522847 10,150 L10,20 C10,14.4771525 14.4771525,10 20,10 L150,10 Z M130,40 L40,40 L40,130 L130,130 L130,40 Z M460,40 L370,40 L370,130 L460,130 L460,40 Z M280,100 L280,130 L250,130 L250,100 L280,100 Z M220,100 L220,130 L190,130 L190,100 L220,100 Z M445,55 L445,115 L385,115 L385,55 L445,55 Z M115,55 L115,115 L55,115 L55,55 L115,55 Z M250,40 L250,100 L220,100 L220,70 L190,70 L190,40 L250,40 Z M280,10 L280,40 L250,40 L250,10 L280,10 Z" id="Shape" fill="#000000" fill-rule="nonzero"></path>
    </g>
</svg>