<?xml version="1.0" encoding="UTF-8"?>
<svg width="500px" height="500px" viewBox="0 0 500 500" version="1.1" xmlns="http://www.w3.org/2000/svg" xmlns:xlink="http://www.w3.org/1999/xlink">
    <title>question</title>
    <g id="question" stroke="none" stroke-width="1" fill="none" fill-rule="evenodd">
        <path d="M322.14099,452.60649 C343.994363,444.824652 364.4157,433.531237 382.649404,419.214875 C401.407206,404.487013 417.628881,386.731384 430.591123,366.72353 C452.939002,332.228487 465,292.046164 465,250 C465,131.258779 368.741221,35 250,35 C131.258779,35 35,131.258779 35,250 C35,368.741221 131.258779,465 250,465 C274.912,465 299.203487,460.774379 322.14099,452.60649 Z M250,495 C114.690236,495 5,385.309764 5,250 C5,114.690236 114.690236,5 250,5 C385.309764,5 495,114.690236 495,250 C495,299.045634 480.58846,344.725272 455.76905,383.035243 C440.983041,405.85817 422.503169,426.065524 401.175953,442.810786 C380.585619,458.977477 357.3413,471.917182 332.204769,480.868131 C306.509244,490.018133 278.836411,495 250,495 Z M263.344684,284.038068 C269.841955,285.894431 274.405445,289.06567 277.035292,293.55188 C279.66514,298.03809 280.51596,302.446886 279.587778,306.778399 C278.659597,311.109913 276.107136,314.822583 271.93032,317.916521 C267.753503,321.010459 262.261846,322.093321 255.455182,321.16514 C246.173367,319.308777 238.438638,315.673454 232.250762,310.259062 C226.062886,304.844671 221.576743,298.57954 218.792198,291.463482 C216.007654,284.347425 215.234181,276.612695 216.471756,268.259062 C217.709332,259.90543 221.267307,251.861311 227.145789,244.126466 C230.858515,239.176165 235.886089,234.148591 242.228662,229.043593 C248.571236,223.938595 254.991061,218.833674 261.488331,213.728676 C267.985601,208.623678 274.01869,203.441409 279.587778,198.181714 C285.156867,192.92202 289.101579,187.430362 291.422033,181.706576 C293.742486,175.982791 293.897181,170.104396 291.886121,164.071217 C289.875061,158.038038 284.383403,151.772907 275.410983,145.275637 L272.626452,144.34746 C271.698271,144.038066 270.615409,143.728677 269.377834,143.419283 C256.0739,144.038071 243.853027,148.06013 232.71485,155.485582 C221.576673,162.911033 211.985609,171.883319 203.94137,182.402709 C199.609856,187.662404 194.891671,190.601601 189.786673,191.220388 C184.681676,191.839176 180.27288,190.833661 176.560154,188.203814 C172.847428,185.573966 170.449662,181.706602 169.366784,176.601604 C168.283906,171.496606 169.59881,166.004948 173.311535,160.126466 C179.499412,152.082227 186.847404,144.347497 195.355734,136.922046 C203.864064,129.496594 212.991045,123.308811 222.73695,118.35851 C232.482855,113.408209 242.460656,109.850233 252.670651,107.684477 C262.880647,105.51872 272.626406,105.441373 281.90822,107.452433 C291.190035,109.463492 299.775584,113.872288 307.665126,120.678952 C315.554669,127.485616 322.129189,137.386069 327.388883,150.380609 C330.792215,158.734242 332.184467,166.778361 331.565679,174.513206 C330.946891,182.248051 329.090556,189.673392 325.996618,196.789449 C322.90268,203.905507 318.725926,210.480027 313.466231,216.513206 C308.206537,222.546385 302.328142,228.192738 295.830872,233.452433 C293.665116,235.308795 289.875098,238.015951 284.460707,241.57398 C279.046315,245.132008 273.864046,249.154068 268.913745,253.640278 C263.963444,258.126488 260.018732,262.767326 257.079491,267.56293 C254.14025,272.358534 253.753513,277.076719 255.91927,281.717626 C256.538058,282.336414 257.002142,282.645803 257.311535,282.645803 C258.239717,283.26459 259.245232,283.57398 260.32811,283.57398 C261.410988,283.57398 262.416503,283.728674 263.344684,284.038068 Z M224.361259,378.502156 C224.361259,371.386099 226.836372,365.35301 231.786673,360.402709 C236.736974,355.452408 242.770063,352.977294 249.886121,352.977294 C257.002179,352.977294 263.112615,355.452408 268.217613,360.402709 C273.322611,365.35301 275.875071,371.386099 275.875071,378.502156 C275.875071,385.618214 273.322611,391.72865 268.217613,396.833648 C263.112615,401.938646 257.002179,404.491107 249.886121,404.491107 C242.770063,404.491107 236.736974,401.938646 231.786673,396.833648 C226.836372,391.72865 224.361259,385.618214 224.361259,378.502156 Z" fill="#000000" fill-rule="nonzero"></path>
    </g>
</svg>