<?xml version="1.0" encoding="UTF-8"?>
<svg width="500px" height="500px" viewBox="0 0 500 500" version="1.1" xmlns="http://www.w3.org/2000/svg" xmlns:xlink="http://www.w3.org/1999/xlink">
    <title>raise-hand</title>
    <g id="raise-hand" stroke="none" stroke-width="1" fill="none" fill-rule="evenodd">
        <path d="M291.636971,51.2472871 L310.59863,51.7984276 C338.128445,52.5986106 360.445769,75.6289974 360.445769,99.7472871 L380.390974,99.8901487 C407.928345,100.087391 430.138735,122.638825 429.999347,150.244403 L429.507015,247.750171 C429.367592,275.362816 422.957684,319.232582 415.196729,345.713368 L390.861252,428.747287 L390.737519,445.24956 C390.530478,472.862542 368.043563,495.247287 340.493789,495.247287 L192.420092,495.247287 C164.878287,495.247287 142.551243,472.851712 142.551243,445.249154 L142.551243,428.200311 L41.4891593,307.535427 C23.8487792,286.47338 27.1228685,253.461483 47.1916628,237.104385 C67.2604571,220.747287 85.7091927,222.747287 101.664856,234.435225 L121.609435,251.247287 L121.609435,102.238613 C121.609435,74.6291663 143.926703,52.0885688 171.460995,51.8927475 L191.914076,51.7472871 C191.914076,29.9271877 213.694401,12.2980742 240.770715,12.0028003 C267.847029,11.7075264 291.217106,34.8270373 291.636971,51.2472871 Z M220.833716,51.7472871 L220.833716,81.5352756 L171.673166,81.891993 C160.579181,81.9708924 151.526304,91.11379 151.526304,102.238613 L151.526304,338.053558 L92.4689224,262.607006 C85.976267,254.312557 74.72372,253.131493 66.6744585,259.870839 C58.3412245,267.07908 57.3100025,279.778434 64.398109,288.241405 L172.468112,417.273519 L172.468112,445.249154 C172.468112,456.286587 181.404326,465.247287 192.420092,465.247287 L340.493789,465.247287 C351.606321,465.247287 360.738004,456.159319 360.821496,445.024003 L360.976735,424.319795 L386.493773,337.254326 C393.464953,313.468295 399.465326,272.394805 399.59053,247.598275 L400.082862,150.092506 C400.138729,139.028194 391.21404,129.968436 380.177287,129.889383 L330.528901,129.533767 L330.528901,99.7472871 C330.528901,91.6489671 320.829008,82.108384 309.731838,81.7858331 L260.722874,80.4117113 L260.722874,53.6301294 C260.722874,53.6301294 259.227031,42.2472871 240.778295,41.9972871 C222.329559,41.7472871 220.833716,51.7472871 220.833716,51.7472871 Z M190.916847,80.2472871 L220.833716,80.2472871 L220.833716,230.247287 L190.916847,230.247287 L190.916847,80.2472871 Z M260.722874,80.2472871 L290.639743,80.2472871 L290.639743,230.247287 L260.722874,230.247287 L260.722874,80.2472871 Z M330.528901,128.247287 L360.445769,128.247287 L360.445769,228.247287 L330.528901,228.247287 L330.528901,128.247287 Z" id="Shape" fill="#000000" fill-rule="nonzero"></path>
    </g>
</svg>