<?xml version="1.0" encoding="UTF-8"?>
<svg width="500px" height="500px" viewBox="0 0 500 500" version="1.1" xmlns="http://www.w3.org/2000/svg" xmlns:xlink="http://www.w3.org/1999/xlink">
    <title>reaction-filled</title>
    <g id="reaction-filled" stroke="none" stroke-width="1" fill="none" fill-rule="evenodd">
        <path d="M250,5 C385.309764,5 495,114.690236 495,250 C495,299.045634 480.58846,344.725272 455.76905,383.035243 C440.983041,405.85817 422.503169,426.065524 401.175953,442.810786 C380.585619,458.977477 357.3413,471.917182 332.204769,480.868131 C306.509244,490.018133 278.836411,495 250,495 C114.690236,495 5,385.309764 5,250 C5,114.690236 114.690236,5 250,5 Z M375,320 L125,320 C125,320 154.411765,400 249.509804,400 C344.607843,400 375,320 375,320 L375,320 Z M249.764706,348 C295.411765,348 310,368 310,368 C310,368 288,391 250,391 C212,391 190,368 190,368 C190,368 204.117647,348 249.764706,348 Z M174.72973,180 C166.4414,180 159.414443,182.882854 153.648649,188.648649 C147.882854,194.414443 145,201.4414 145,209.72973 C145,218.018059 147.882854,225.135105 153.648649,231.081081 C159.414443,237.027057 166.4414,240 174.72973,240 C183.018059,240 190.135105,237.027057 196.081081,231.081081 C202.027057,225.135105 205,218.018059 205,209.72973 C205,201.4414 202.027057,194.414443 196.081081,188.648649 C190.135105,182.882854 183.018059,180 174.72973,180 Z M324.72973,180 C316.4414,180 309.414443,182.882854 303.648649,188.648649 C297.882854,194.414443 295,201.4414 295,209.72973 C295,218.018059 297.882854,225.135105 303.648649,231.081081 C309.414443,237.027057 316.4414,240 324.72973,240 C333.018059,240 340.135105,237.027057 346.081081,231.081081 C352.027057,225.135105 355,218.018059 355,209.72973 C355,201.4414 352.027057,194.414443 346.081081,188.648649 C340.135105,182.882854 333.018059,180 324.72973,180 Z" id="Shape" fill="#000000" fill-rule="nonzero"></path>
    </g>
</svg>