<?xml version="1.0" encoding="UTF-8"?>
<svg width="500px" height="500px" viewBox="0 0 500 500" version="1.1" xmlns="http://www.w3.org/2000/svg" xmlns:xlink="http://www.w3.org/1999/xlink">
    <title>reaction</title>
    <g id="reaction" stroke="none" stroke-width="1" fill="none" fill-rule="evenodd">
        <path d="M322.14099,452.60649 C343.994363,444.824652 364.4157,433.531237 382.649404,419.214875 C401.407206,404.487013 417.628881,386.731384 430.591123,366.72353 C452.939002,332.228487 465,292.046164 465,250 C465,131.258779 368.741221,35 250,35 C131.258779,35 35,131.258779 35,250 C35,368.741221 131.258779,465 250,465 C274.912,465 299.203487,460.774379 322.14099,452.60649 Z M250,495 C114.690236,495 5,385.309764 5,250 C5,114.690236 114.690236,5 250,5 C385.309764,5 495,114.690236 495,250 C495,299.045634 480.58846,344.725272 455.76905,383.035243 C440.983041,405.85817 422.503169,426.065524 401.175953,442.810786 C380.585619,458.977477 357.3413,471.917182 332.204769,480.868131 C306.509244,490.018133 278.836411,495 250,495 Z M145,209.72973 C145,201.4414 147.882854,194.414443 153.648649,188.648649 C159.414443,182.882854 166.4414,180 174.72973,180 C183.018059,180 190.135105,182.882854 196.081081,188.648649 C202.027057,194.414443 205,201.4414 205,209.72973 C205,218.018059 202.027057,225.135105 196.081081,231.081081 C190.135105,237.027057 183.018059,240 174.72973,240 C166.4414,240 159.414443,237.027057 153.648649,231.081081 C147.882854,225.135105 145,218.018059 145,209.72973 Z M375,320 C375,320 344.607843,400 249.509804,400 C154.411765,400 125,320 125,320 L375,320 Z M249.764706,348 C204.117647,348 190,368 190,368 C190,368 212,391 250,391 C288,391 310,368 310,368 C310,368 295.411765,348 249.764706,348 Z M324.72973,180 C333.018059,180 340.135105,182.882854 346.081081,188.648649 C352.027057,194.414443 355,201.4414 355,209.72973 C355,218.018059 352.027057,225.135105 346.081081,231.081081 C340.135105,237.027057 333.018059,240 324.72973,240 C316.4414,240 309.414443,237.027057 303.648649,231.081081 C297.882854,225.135105 295,218.018059 295,209.72973 C295,201.4414 297.882854,194.414443 303.648649,188.648649 C309.414443,182.882854 316.4414,180 324.72973,180 Z" id="Shape" fill="#000000" fill-rule="nonzero"></path>
    </g>
</svg>