<?xml version="1.0" encoding="UTF-8"?>
<svg width="500px" height="500px" viewBox="0 0 500 500" version="1.1" xmlns="http://www.w3.org/2000/svg" xmlns:xlink="http://www.w3.org/1999/xlink">
    <title>redo</title>
    <g id="redo" stroke="none" stroke-width="1" fill="none" fill-rule="evenodd">
        <path d="M408,125.208153 L422.994949,140.208153 L408,155.208153 L155,155.208153 C89.3885717,155.208153 36.0757714,207.864839 35.0160766,273.223733 L35,275.208153 L35,495 L5,495 L5,275.208153 C5,192.36544 72.1572875,125.208153 155,125.208153 L408,125.208153 Z M364.606602,9.39339828 L495.421356,140.208153 L364.606602,271.022907 C358.748737,276.880772 349.251263,276.880772 343.393398,271.022907 C337.535534,265.165043 337.535534,255.667568 343.393398,249.809704 L452.994949,140.208153 L343.393398,30.6066017 C337.535534,24.7487373 337.535534,15.2512627 343.393398,9.39339828 C349.251263,3.53553391 358.748737,3.53553391 364.606602,9.39339828 Z" id="Shape" fill="#000000"></path>
    </g>
</svg>