<?xml version="1.0" encoding="UTF-8"?>
<svg width="500px" height="500px" viewBox="0 0 500 500" version="1.1" xmlns="http://www.w3.org/2000/svg" xmlns:xlink="http://www.w3.org/1999/xlink">
    <title>refresh</title>
    <g id="refresh" stroke="none" stroke-width="1" fill="none" fill-rule="evenodd">
        <path d="M449.704523,121.943843 L450.816862,123.465577 C451.225847,124.024351 451.631503,124.588546 452.034794,125.155212 C465.982081,144.666016 476.746345,166.606476 483.571771,190.218615 L483.620267,190.402978 L483.672383,190.585778 C483.913136,191.406256 484.144505,192.230696 484.371065,193.057124 L484.704467,194.288129 L485.097473,195.777098 C485.305445,196.565608 485.506743,197.354269 485.70339,198.143507 L485.752387,198.359555 L485.804843,198.575208 C491.708096,222.456909 493.351626,246.861655 491.01896,270.75093 L490.862109,272.315334 L490.72421,273.576937 C487.405807,304.085684 477.701189,332.676279 462.977621,357.986932 C448.460067,383.053212 428.713518,405.451452 404.221925,423.379867 L402.622004,424.539541 L401.932671,425.032753 C382.414695,438.993449 360.462892,449.76844 336.837183,456.599977 L336.63092,456.654809 L336.426586,456.713129 C335.648544,456.941557 334.866212,457.161263 334.082087,457.37664 L332.651022,457.764387 L331.25719,458.131782 C330.463043,458.341214 329.669384,458.543738 328.87514,458.741552 L328.470055,458.836399 C304.620873,464.732404 280.25049,466.380269 256.392636,464.062485 C225.414479,461.114639 196.352105,451.595058 170.616396,436.912516 L169.46701,436.252111 C168.794679,435.862975 168.124168,435.470061 167.455989,435.073631 C136.649988,416.879104 109.971247,390.729151 90.8070428,357.535776 C86.6649072,350.361387 89.1230345,341.187531 96.2974238,337.045395 C103.380999,332.955691 112.413741,335.300213 116.628105,342.265602 L116.787805,342.535776 C130.280635,365.906042 148.102523,385.218656 168.655738,400.045505 C168.668971,400.040482 168.686427,400.040483 168.70389,400.040483 C173.210572,403.299848 177.869951,406.361105 182.669256,409.211481 C183.25713,409.563719 183.84865,409.909112 184.441898,410.251108 L182.669256,409.211481 L183.607802,409.765162 L184.441898,410.251108 C207.477212,423.530521 233.116774,431.687788 259.478348,434.218566 C265.246558,434.758617 271.092165,435.035776 277.002505,435.035776 C292.275121,435.035776 307.115488,433.185098 321.311581,429.695766 C321.41109,429.675982 321.509735,429.651518 321.608368,429.626969 L321.311581,429.695766 L323.228183,429.215975 L324.846017,428.789763 L326.49361,428.339447 L326.121565,428.444239 C326.910358,428.22756 327.697044,428.00579 328.481585,427.778966 L328.138937,427.873251 C342.288685,423.792731 356.175307,417.944937 369.502505,410.250476 C374.704768,407.246948 379.705968,404.028908 384.501383,400.61398 L385.491164,399.904232 L385.671764,399.771725 C406.532299,384.606257 424.101407,365.18784 437.10534,342.790221 C449.795869,320.838876 457.82975,296.515004 460.770377,271.450345 L460.963581,269.754163 L460.963581,269.754163 L461.018609,269.232034 C461.669136,262.921951 462.002505,256.517794 462.002505,250.035776 C462.002505,234.741345 460.146536,219.880399 456.647533,205.665872 C456.634687,205.594866 456.617075,205.523883 456.599419,205.452905 L456.647533,205.665872 L456.18231,203.808572 L455.749518,202.166282 L455.417827,200.941692 C455.20095,200.151743 454.978967,199.363906 454.751917,198.57822 L454.824125,198.844397 C450.744318,184.713645 444.901706,170.845722 437.217205,157.535776 C434.220846,152.345931 431.010999,147.35619 427.605161,142.571242 L426.913379,141.605887 L426.789383,141.436605 C411.628679,120.562144 392.210927,102.979753 369.811075,89.9643782 C369.303115,89.6697671 368.793832,89.3783534 368.283298,89.0894394 L369.811075,89.9643782 C369.128081,89.5675264 368.442315,89.1749205 367.753812,88.7865967 L368.283298,89.0894394 C346.159101,76.5692406 321.684236,68.7435525 296.505719,66.0536913 L295.520632,65.9510189 C289.429996,65.3457006 283.252444,65.0357763 277.002505,65.0357763 C260.962693,65.0357763 245.399647,67.0770565 230.558976,70.9140081 L228.089962,71.5720972 C214.112721,75.4130871 200.376187,80.9679853 187.16434,88.3128842 L184.502505,89.8210766 C184.245341,89.9695504 183.985608,90.1095439 183.723629,90.2411438 C135.152367,118.65293 100.697871,168.577416 93.4299359,226.941767 L151.105045,193.647935 C158.18862,189.558232 167.221362,191.902754 171.435726,198.868142 L171.595426,199.138316 C175.68513,206.221891 173.340608,215.254633 166.37522,219.468997 L166.105045,219.628697 L66.5121235,277.128697 L9.01212357,177.535776 C4.86998795,170.361387 7.32811528,161.187531 14.5025046,157.045395 C21.5860789,152.955691 30.6188209,155.300213 34.8331849,162.265602 L34.9928857,162.535776 L64.9399537,214.413068 C78.7752477,131.439835 140.12825,64.546538 220.08042,42.6517166 L221.047178,42.3898095 L222.4516,42.0170112 C247.30863,35.4820379 272.781098,33.5872366 297.693406,36.0169549 L299.474198,36.1960405 L300.456677,36.3044367 C330.242401,39.5321096 358.201406,48.8465439 383.067003,62.9759198 L384.54302,63.8223342 C409.476785,78.1908259 431.786253,97.7224755 449.704523,121.943843 Z" id="Path" fill="#000000" fill-rule="nonzero"></path>
    </g>
</svg>