<?xml version="1.0" encoding="UTF-8"?>
<svg width="500px" height="500px" viewBox="0 0 500 500" version="1.1" xmlns="http://www.w3.org/2000/svg" xmlns:xlink="http://www.w3.org/1999/xlink">
    <title>refresh</title>
    <g id="refresh" stroke="none" stroke-width="1" fill="none" fill-rule="evenodd">
        <path d="M447.702018,121.908067 L448.814357,123.429801 C449.223342,123.988575 449.628998,124.55277 450.032289,125.119436 C463.979576,144.63024 474.74384,166.5707 481.569266,190.182839 L481.617762,190.367202 L481.669878,190.550002 C481.910631,191.37048 482.142,192.19492 482.36856,193.021348 L482.701962,194.252353 L482.899682,194.995833 L483.094968,195.741322 C483.30294,196.529832 483.504238,197.318493 483.700885,198.107731 L483.749882,198.323779 L483.802338,198.539432 C489.705591,222.421133 491.349121,246.825879 489.016455,270.715154 L488.859604,272.279558 L488.721705,273.541161 C485.403302,304.049908 475.698684,332.640503 460.975116,357.951156 C446.457562,383.017436 426.711013,405.415676 402.21942,423.344091 L401.30511,424.007415 C400.84956,424.339537 400.390679,424.669038 399.930166,424.996977 C380.41219,438.957673 358.460387,449.732664 334.834678,456.564201 L334.628415,456.619033 L334.424081,456.677353 C333.646039,456.905781 332.863707,457.125487 332.079582,457.340864 L330.648517,457.728611 L329.254685,458.096006 C328.460538,458.305438 327.666879,458.507962 326.872635,458.705776 L326.46755,458.800623 C302.618368,464.696628 278.247985,466.344493 254.390131,464.026709 C223.411974,461.078863 194.3496,451.559282 168.613891,436.87674 L167.464505,436.216335 C166.792174,435.827199 166.121663,435.434285 165.453484,435.037855 C134.647483,416.843328 107.968742,390.693375 88.8045382,357.5 C84.6624026,350.325611 87.1205299,341.151755 94.2949192,337.009619 C101.378494,332.919915 110.411236,335.264437 114.6256,342.229826 L114.7853,342.5 C128.27813,365.870266 146.100018,385.18288 166.653233,400.009729 C166.666466,400.004706 166.683922,400.004707 166.701385,400.004707 C171.208067,403.264072 175.867446,406.325329 180.666751,409.175705 C181.254625,409.527943 181.846145,409.873336 182.439393,410.215332 L180.666751,409.175705 L181.605297,409.729386 L182.439393,410.215332 C205.474707,423.494745 231.114269,431.652012 257.475843,434.18279 C263.244053,434.722841 269.08966,435 275,435 C290.272616,435 305.112983,433.149322 319.309076,429.65999 C319.408585,429.640206 319.50723,429.615742 319.605863,429.591193 L319.309076,429.65999 L321.225678,429.180199 L322.843512,428.753987 L324.491105,428.303671 L324.11906,428.408463 C324.907853,428.191784 325.694539,427.970014 326.47908,427.74319 L326.136432,427.837475 C340.28618,423.756955 354.172802,417.909161 367.5,410.2147 C372.702263,407.211172 377.703463,403.993132 382.498878,400.578204 C382.890464,400.299819 383.280433,400.018623 383.669259,399.735949 L382.498878,400.578204 L383.488659,399.868456 L383.669259,399.735949 C404.529794,384.570481 422.098902,365.152064 435.102835,342.754445 C447.793364,320.8031 455.827245,296.479228 458.767872,271.414569 L458.901982,270.239126 C458.943316,269.892643 458.980193,269.544594 459.016104,269.196258 L458.901982,270.239126 L459.031372,269.036268 L459.016104,269.196258 C459.666631,262.886175 460,256.482018 460,250 C460,234.705569 458.144031,219.844623 454.645028,205.630096 C454.632182,205.55909 454.61457,205.488107 454.596914,205.417129 L454.645028,205.630096 C454.452312,204.847197 454.254612,204.06626 454.051963,203.287319 L454.596914,205.417129 L454.179805,203.772796 L453.747013,202.130506 L453.415322,200.905916 C453.198445,200.115967 452.976462,199.32813 452.749412,198.542444 L452.82162,198.808621 C448.741813,184.677869 442.899201,170.809946 435.2147,157.5 C432.218341,152.310155 429.008494,147.320414 425.602656,142.535466 C425.332852,142.155553 425.060559,141.777654 424.786878,141.400829 L425.602656,142.535466 L424.910874,141.570111 L424.786878,141.400829 C409.626174,120.526368 390.208422,102.943977 367.80857,89.9286019 C367.30061,89.6339908 366.791327,89.3425771 366.280793,89.0536631 L367.80857,89.9286019 C367.125576,89.5317501 366.43981,89.1391442 365.751307,88.7508204 L366.280793,89.0536631 C344.156596,76.5334643 319.681731,68.7077762 294.503214,66.017915 L293.518127,65.9152426 C287.427491,65.3099243 281.249939,65 275,65 C258.960188,65 243.397142,67.0412802 228.556471,70.8782318 L226.087457,71.5363209 C212.110216,75.3773108 198.373682,80.932209 185.161835,88.2771079 L182.5,89.7853003 C182.242836,89.9337741 181.983103,90.0737676 181.721124,90.2053675 C133.149862,118.617154 98.6953665,168.54164 91.4274313,226.905991 L149.10254,193.612159 C156.186115,189.522456 165.218857,191.866978 169.433221,198.832366 L169.592921,199.10254 C173.682625,206.186115 171.338103,215.218857 164.372715,219.433221 L164.10254,219.592921 L64.5096189,277.092921 L7.00961894,177.5 C2.86748332,170.325611 5.32561065,161.151755 12.5,157.009619 C19.5835743,152.919915 28.6163163,155.264437 32.8306803,162.229826 L32.9903811,162.5 L62.9374491,214.377292 C76.7727431,131.404059 138.125745,64.5107617 218.077915,42.6159403 L219.044673,42.3540332 C219.511497,42.228144 219.979984,42.103917 220.449095,41.9812349 C245.306117,35.4457591 270.778593,33.5514603 295.690901,35.9811786 C296.285015,36.0395018 296.878712,36.0986779 297.471693,36.1602642 L298.454172,36.2686604 C328.239896,39.4963333 356.198901,48.8107676 381.064498,62.9401435 L382.540515,63.7865579 C407.47428,78.1550496 429.783748,97.6866992 447.702018,121.908067 Z" id="Path" fill="#000000" fill-rule="nonzero"></path>
    </g>
</svg>