<?xml version="1.0" encoding="UTF-8"?>
<svg width="500px" height="500px" viewBox="0 0 500 500" version="1.1" xmlns="http://www.w3.org/2000/svg" xmlns:xlink="http://www.w3.org/1999/xlink">
    <title>rename</title>
    <g id="rename" stroke="none" stroke-width="1" fill="none" fill-rule="evenodd">
        <path d="M269.983116,37.2396977 C269.99437,37.4704604 270,37.701463 270,37.9325 C270,46.3034822 263.44755,53.2098461 255.088137,53.6497901 L235,54.707 L234.655511,54.7099071 C223.884545,54.8918189 215.186808,63.5883575 215.002969,74.3588533 L215,74.707 L215,124.99922 L445,125 C472.614237,125 495,147.385763 495,175 L495,325 C495,352.614237 472.614237,375 445,375 L215,374.99922 L215,425.051489 C215.184788,435.822455 223.881357,444.520192 234.651853,444.704031 L235,444.707 L255.088137,445.76421 C263.44755,446.204154 270,453.110518 270,461.4815 C270,469.336077 263.632607,475.70347 255.77803,475.70347 C255.546993,475.70347 255.315991,475.69784 255.085228,475.686585 L235,474.707 C221.372601,474.707 209.018514,469.255303 199.999738,460.413907 C190.982401,469.254899 178.627904,474.707 165,474.707 L145,474.707 C136.715729,474.707 130,467.991271 130,459.707 C130,451.422729 136.715729,444.707 145,444.707 L165,444.707 C175.930636,444.707 184.813225,435.938271 185,425.051489 L185,74.707 C185,63.7763643 176.231271,54.893775 165.344489,54.707 L145,54.707 C136.715729,54.707 130,47.9912712 130,39.707 C130,31.4227288 136.715729,24.707 145,24.707 L165,24.707 C178.627904,24.707 190.982401,30.1591011 200.001264,39.0010756 C208.879787,30.2947338 220.993265,24.8755471 234.371955,24.7108635 L235,24.707 L255.085228,23.7274147 C262.93048,23.3447906 269.600491,29.3944457 269.983116,37.2396977 Z M130,125 L130,155 L55,155 C44.0693643,155 35.186775,163.768729 35,174.655511 L35,325 C35,335.930636 43.7687286,344.813225 54.6555106,344.997093 L55,345 L130,345 L130,375 L55,375 C27.3857625,375 5,352.614237 5,325 L5,175 C5,147.385763 27.3857625,125 55,125 L130,125 Z M215,345 L445,345 C455.930636,345 464.813225,336.231271 465,325.344489 L465,175 C465,164.069364 456.231271,155.186775 445.344489,155.002907 L445,154.99922 L215,154.99922 L215,345 Z M135,220 C146.045695,220 155,228.954305 155,240 L155,260 C155,271.045695 146.045695,280 135,280 L95,280 C83.954305,280 75,271.045695 75,260 L75,240 C75,228.954305 83.954305,220 95,220 L135,220 Z" id="Shape" fill="#000000" fill-rule="nonzero"></path>
    </g>
</svg>