<?xml version="1.0" encoding="UTF-8"?>
<svg width="500px" height="500px" viewBox="0 0 500 500" version="1.1" xmlns="http://www.w3.org/2000/svg" xmlns:xlink="http://www.w3.org/1999/xlink">
    <title>rewind-filled</title>
    <g id="rewind-filled" stroke="none" stroke-width="1" fill="none" fill-rule="evenodd">
        <path d="M373.748043,122 C362.354227,122 351.510445,126.858355 343.92815,135.339644 L343.563822,135.752851 L266.815779,224.013101 C253.858951,238.913453 253.729382,261.009419 266.427074,276.053684 L266.815779,276.507398 L343.563822,364.767647 C358.059722,381.437932 383.324907,383.200619 399.995192,368.70472 C408.593028,361.22834 413.587857,350.44674 413.744256,339.071372 L413.748043,338.520499 L413.748043,162 C413.748043,139.90861 395.839433,122 373.748043,122 Z M203.748043,122 C192.354227,122 181.510445,126.858355 173.92815,135.339644 L173.563822,135.752851 L96.8157791,224.013101 C83.8589507,238.913453 83.7293824,261.009419 96.4270743,276.053684 L96.8157791,276.507398 L173.563822,364.767647 C188.059722,381.437932 213.324907,383.200619 229.995192,368.70472 C238.593028,361.22834 243.587857,350.44674 243.744256,339.071372 L243.748043,338.520499 L243.748043,162 C243.748043,139.90861 225.839433,122 203.748043,122 Z" id="Shape" fill="#000000" fill-rule="nonzero"></path>
    </g>
</svg>