<?xml version="1.0" encoding="UTF-8"?>
<svg width="500px" height="500px" viewBox="0 0 500 500" version="1.1" xmlns="http://www.w3.org/2000/svg" xmlns:xlink="http://www.w3.org/1999/xlink">
    <title>rewind-end</title>
    <g id="rewind-end" stroke="none" stroke-width="1" fill="none" fill-rule="evenodd">
        <path d="M373.667434,128.867192 L373.246036,129.105955 L207.471356,224.816011 C203.019093,227.386526 199.321902,231.083717 196.751387,235.53598 C188.744743,249.403894 193.36866,267.098079 207.053882,275.297887 L207.471356,275.543447 L373.246036,371.253503 C377.698299,373.824018 382.748756,375.177284 387.889785,375.177284 C403.903074,375.177284 416.914728,362.325762 417.17336,346.374108 L417.177284,345.889785 L417.177284,154.469672 C417.177284,149.328643 415.824018,144.278186 413.253503,139.825923 C405.246859,125.958009 387.611287,121.115346 373.667434,128.867192 Z M112,125 C95.4314575,125 82,138.431458 82,155 L82,345 C82,361.568542 95.4314575,375 112,375 L152,375 C168.568542,375 182,361.568542 182,345 L182,155 C182,138.431458 168.568542,125 152,125 L112,125 Z M122,155 L142,155 C147.522847,155 152,159.477153 152,165 L152,335 C152,340.522847 147.522847,345 142,345 L122,345 C116.477153,345 112,340.522847 112,335 L112,165 C112,159.477153 116.477153,155 122,155 Z M386.55004,166.790181 C387.427723,168.310373 387.889785,170.034814 387.889785,171.790181 L387.889785,328.569277 C387.889785,334.092125 383.412633,338.569277 377.889785,338.569277 C376.134419,338.569277 374.409978,338.107215 372.889785,337.229531 L237.115105,258.839983 C232.332179,256.078559 230.693427,249.962655 233.454851,245.179729 C234.332534,243.659537 235.594913,242.397158 237.115105,241.519475 L372.889785,163.129926 C377.672712,160.368503 383.788616,162.007254 386.55004,166.790181 Z" id="Shape" fill="#000000" fill-rule="nonzero"></path>
    </g>
</svg>