<?xml version="1.0" encoding="UTF-8"?>
<svg width="500px" height="500px" viewBox="0 0 500 500" version="1.1" xmlns="http://www.w3.org/2000/svg" xmlns:xlink="http://www.w3.org/1999/xlink">
    <title>rotate-right</title>
    <g id="rotate-right" stroke="none" stroke-width="1" fill="none" fill-rule="evenodd">
        <path d="M81.626423,416.681317 L82.8084106,418.149608 C83.2422917,418.689278 83.6822708,419.227136 84.1252487,419.763349 C99.3614147,438.285162 117.768275,454.361251 138.8093,467.065378 L138.974829,467.159938 L139.137912,467.25759 C139.868121,467.702495 140.604586,468.139361 141.344216,468.572097 L142.446985,469.212746 L143.783501,469.977734 C144.491316,470.382701 145.201005,470.78126 145.912454,471.175477 L146.108459,471.278721 L146.303187,471.385205 C167.843265,483.268349 190.991062,491.17229 214.670068,495.102107 L216.221763,495.355498 L217.476068,495.548825 C247.804121,500.239738 277.932255,498.265587 306.191208,490.594592 C334.160795,483.059342 360.906616,469.782732 384.563026,450.765885 L386.097275,449.520625 L386.752094,448.982434 C405.288715,433.74281 421.378101,415.32777 434.091643,394.275219 L434.30721,393.907899 C434.729226,393.21549 435.143928,392.516679 435.554913,391.815016 L436.299835,390.53307 L437.015461,389.28182 C437.423297,388.568938 437.824335,387.854739 438.220974,387.138757 L438.417433,386.772023 C450.285159,365.26148 458.184393,342.147997 462.120453,318.503193 C467.290789,287.817632 465.617476,257.281686 458.096121,228.622778 L457.755702,227.341631 C457.553838,226.591494 457.347853,225.842136 457.137868,225.094121 C447.536484,190.628719 429.182536,158.090928 402.080259,130.988651 C396.222394,125.130787 386.72492,125.130787 380.867055,130.988651 C375.08334,136.772366 375.010129,146.104132 380.647421,151.97767 L380.867055,152.201854 C399.948797,171.283597 413.990706,193.496692 422.992779,217.187044 C422.984502,217.198526 422.979985,217.215387 422.975465,217.232255 C424.957355,222.428961 426.708366,227.721887 428.219466,233.095392 C428.407549,233.7544 428.588077,234.415159 428.764875,235.076708 L428.219466,233.095392 L428.511368,234.145261 L428.764875,235.076708 C435.629825,260.764077 436.873133,287.641249 432.4948,313.759587 C431.523526,319.471026 430.278287,325.189183 428.748578,330.898133 C424.795735,345.650347 419.167147,359.50605 412.122492,372.315317 C412.077627,372.406315 412.028466,372.495267 411.979225,372.584185 L412.122492,372.315317 L411.162996,374.042433 L410.332581,375.494829 L409.471181,376.969732 L409.668694,376.637486 C409.255244,377.343321 408.837421,378.045803 408.415272,378.744905 L408.595028,378.438335 C400.991324,391.049826 391.748667,402.949752 380.867055,413.831364 C376.619425,418.078994 372.216632,422.076892 367.67692,425.825059 L366.735182,426.597417 L366.560447,426.737568 C346.512626,442.962186 323.208656,454.906785 298.208552,461.670689 C273.72063,468.247373 248.146252,469.712025 223.174561,466.065241 L221.48617,465.812858 L220.96759,465.730874 C214.704149,464.726065 208.431926,463.390557 202.170777,461.712887 C187.397491,457.754397 173.52328,452.115373 160.69871,445.056605 C160.633448,445.025819 160.569442,444.990436 160.505452,444.955011 L160.69871,445.056605 L159.025104,444.12653 L157.550789,443.283429 L156.453774,442.646093 C155.746873,442.232152 155.043335,441.813825 154.343185,441.391161 L154.581604,441.529801 C141.988277,433.931702 130.105071,424.69889 119.237546,413.831364 C115.000055,409.593873 111.011105,405.201959 107.270696,400.673736 L106.38586,399.592089 C90.1465578,379.545266 78.1889563,356.2385 71.4145776,331.233277 C71.2614749,330.666375 71.111803,330.099022 70.9648694,329.531107 L71.4145776,331.233277 L71.1083585,330.088447 L70.9648694,329.531107 C64.5974496,304.920308 63.3729765,279.253967 67.2914499,254.2372 L67.4472352,253.259105 C68.4389152,247.219335 69.7384195,241.172063 71.3560227,235.135086 C75.5074315,219.641817 81.5071695,205.137391 89.0544284,191.79548 L90.3291215,189.580922 C97.6568091,177.074065 106.577705,165.243305 117.09181,154.382641 L119.237546,152.201855 C119.44752,151.991881 119.649967,151.777231 119.844888,151.55824 C159.859734,111.995515 217.000564,91.6364355 275.257278,99.7219548 L228.170489,146.814754 C222.386775,152.598469 222.313564,161.930235 227.950854,167.803773 L228.170489,168.027957 C233.954204,173.811672 243.285969,173.884884 249.159508,168.247593 L249.383692,168.027957 L330.700972,86.7106779 L249.383693,5.3933982 C243.525829,-0.464466081 234.028354,-0.464466059 228.170489,5.39339822 C222.386775,11.1771123 222.313563,20.508878 227.950855,26.3824164 L228.170489,26.6066017 L270.529234,68.9600793 C186.802408,60.8488941 106.309119,102.798084 64.467201,174.359153 L63.9640028,175.225183 L63.2404161,176.485263 C50.4946437,198.803936 42.0716465,222.918039 37.9707944,247.610338 L37.6828749,249.376802 L37.5332934,250.353858 C32.9418733,279.960042 34.702603,309.37712 41.914842,337.052394 L42.3503942,338.697185 C49.7759582,366.500192 62.8679678,393.104646 81.626423,416.681317 Z" id="Path" fill="#000000" fill-rule="nonzero"></path>
    </g>
</svg>