<?xml version="1.0" encoding="UTF-8"?>
<svg width="500px" height="500px" viewBox="0 0 500 500" version="1.1" xmlns="http://www.w3.org/2000/svg" xmlns:xlink="http://www.w3.org/1999/xlink">
    <title>rotate-left</title>
    <g id="rotate-left" stroke="none" stroke-width="1" fill="none" fill-rule="evenodd">
        <path d="M418.479655,416.681317 L417.297668,418.149608 C416.863787,418.689278 416.423808,419.227136 415.98083,419.763349 C400.744664,438.285162 382.337803,454.361251 361.296779,467.065378 L361.131249,467.159938 L360.968167,467.25759 C360.237957,467.702495 359.501492,468.139361 358.761862,468.572097 L357.659093,469.212746 L356.322577,469.977734 C355.614762,470.382701 354.905074,470.78126 354.193624,471.175477 L353.997619,471.278721 L353.802891,471.385205 C332.262814,483.268349 309.115016,491.17229 285.43601,495.102107 L283.884316,495.355498 L282.63001,495.548825 C252.301958,500.239738 222.173823,498.265587 193.91487,490.594592 C165.945284,483.059342 139.199462,469.782732 115.543052,450.765885 L114.008804,449.520625 L113.353985,448.982434 C94.8173638,433.74281 78.727977,415.32777 66.0144356,394.275219 L65.7988688,393.907899 C65.3768522,393.21549 64.9621501,392.516679 64.5511654,391.815016 L63.8062437,390.53307 L63.0906171,389.28182 C62.682781,388.568938 62.2817437,387.854739 61.8851046,387.138757 L61.6886457,386.772023 C49.8209197,365.26148 41.9216851,342.147997 37.9856255,318.503193 C32.8152891,287.817632 34.4886024,257.281686 42.0099572,228.622778 L42.3503765,227.341631 C42.5522409,226.591494 42.7582257,225.842136 42.9682102,225.094121 C52.569594,190.628719 70.9235427,158.090928 98.0258199,130.988651 C103.883684,125.130787 113.381159,125.130787 119.239023,130.988651 C125.022738,136.772366 125.095949,146.104132 119.458658,151.97767 L119.239023,152.201854 C100.157281,171.283597 86.1153726,193.496692 77.1132997,217.187044 C77.1215765,217.198526 77.1260935,217.215387 77.1306132,217.232255 C75.1487235,222.428961 73.3977123,227.721887 71.8866121,233.095392 C71.6985293,233.7544 71.5180019,234.415159 71.341203,235.076708 L71.8866121,233.095392 L71.5947109,234.145261 L71.341203,235.076708 C64.476253,260.764077 63.2329451,287.641249 67.6112787,313.759587 C68.5825521,319.471026 69.8277915,325.189183 71.3575,330.898133 C75.3103439,345.650347 80.9389312,359.50605 87.9835863,372.315317 C88.028451,372.406315 88.0776126,372.495267 88.1268533,372.584185 L87.9835863,372.315317 L88.9430819,374.042433 L89.7734974,375.494829 L90.6348977,376.969732 L90.437384,376.637486 C90.8508345,377.343321 91.2686572,378.045803 91.6908065,378.744905 L91.5110504,378.438335 C99.1147543,391.049826 108.357412,402.949752 119.239023,413.831364 C123.486653,418.078994 127.889447,422.076892 132.429159,425.825059 L133.370897,426.597417 L133.545631,426.737568 C153.593452,442.962186 176.897423,454.906785 201.897527,461.670689 C226.385448,468.247373 251.959826,469.712025 276.931518,466.065241 L278.619909,465.812858 L279.138489,465.730874 C285.40193,464.726065 291.674153,463.390557 297.935301,461.712887 C312.708587,457.754397 326.582799,452.115373 339.407369,445.056605 C339.47263,445.025819 339.536636,444.990436 339.600626,444.955011 L339.407369,445.056605 L341.080974,444.12653 L342.55529,443.283429 L343.652305,442.646093 C344.359205,442.232152 345.062744,441.813825 345.762893,441.391161 L345.524475,441.529801 C358.117801,433.931702 370.001007,424.69889 380.868532,413.831364 C385.106023,409.593873 389.094973,405.201959 392.835382,400.673736 L393.588797,399.755674 L393.720219,399.592089 C409.959521,379.545266 421.917122,356.2385 428.691501,331.233277 C428.844604,330.666375 428.994275,330.099022 429.141209,329.531107 L428.691501,331.233277 L428.99772,330.088447 L428.99772,330.088447 L429.141209,329.531107 C435.508629,304.920308 436.733102,279.253967 432.814629,254.2372 L432.658843,253.259105 C431.667163,247.219335 430.367659,241.172063 428.750056,235.135086 C424.598647,219.641817 418.598909,205.137391 411.05165,191.79548 L409.776957,189.580922 C402.449269,177.074065 393.528373,165.243305 383.014268,154.382641 L380.868532,152.201855 C380.658559,151.991881 380.456112,151.777231 380.261191,151.55824 C340.246345,111.995515 283.105515,91.6364355 224.848801,99.7219548 L271.935589,146.814754 C277.719303,152.598469 277.792515,161.930235 272.155224,167.803773 L271.935589,168.027957 C266.151875,173.811672 256.820109,173.884884 250.946571,168.247593 L250.722386,168.027957 L169.405106,86.7106779 L250.722386,5.3933982 C256.58025,-0.464466081 266.077724,-0.464466059 271.935589,5.39339822 C277.719304,11.1771123 277.792515,20.508878 272.155224,26.3824164 L271.935589,26.6066017 L229.576845,68.9600793 C313.303671,60.8488941 393.79696,102.798084 435.638877,174.359153 L436.142076,175.225183 L436.865662,176.485263 C449.611435,198.803936 458.034432,222.918039 462.135284,247.610338 L462.423204,249.376802 L462.572785,250.353858 C467.164205,279.960042 465.403475,309.37712 458.191236,337.052394 L457.755684,338.697185 C450.33012,366.500192 437.238111,393.104646 418.479655,416.681317 Z" id="Path" fill="#000000" fill-rule="nonzero"></path>
    </g>
</svg>