<?xml version="1.0" encoding="UTF-8"?>
<svg width="500px" height="500px" viewBox="0 0 500 500" version="1.1" xmlns="http://www.w3.org/2000/svg" xmlns:xlink="http://www.w3.org/1999/xlink">
    <title>rtl</title>
    <g id="rtl" stroke="none" stroke-width="1" fill="none" fill-rule="evenodd">
        <path d="M492.571068,286.571068 C494.446432,288.446432 495.5,290.989971 495.5,293.642136 L495.5,485.357864 C495.5,490.880712 491.022847,495.357864 485.5,495.357864 C482.847835,495.357864 480.304296,494.304296 478.428932,492.428932 L382.571068,396.571068 C378.665825,392.665825 378.665825,386.334175 382.571068,382.428932 L478.428932,286.571068 C482.334175,282.665825 488.665825,282.665825 492.571068,286.571068 Z M470,5 C483.807119,5 495,16.1928813 495,30 C495,43.8071187 483.807119,55 470,55 L351,55 L351,470 C351,483.807119 339.807119,495 326,495 C312.192881,495 301,483.807119 301,470 L301,55 L251,55 L251,470 C251,483.807119 239.807119,495 226,495 C212.192881,495 201,483.807119 201,470 L201,55 L130,55 C88.5786438,55 55,88.5786438 55,130 C55,171.421356 88.5786438,205 130,205 L155,205 C168.807119,205 180,216.192881 180,230 C180,243.807119 168.807119,255 155,255 L130,255 C60.9644063,255 5,199.035594 5,130 C5,60.9644063 60.9644063,5 130,5 L470,5 Z" id="Shape" fill="#000000" fill-rule="nonzero"></path>
    </g>
</svg>