<?xml version="1.0" encoding="UTF-8"?>
<svg width="500px" height="500px" viewBox="0 0 500 500" version="1.1" xmlns="http://www.w3.org/2000/svg" xmlns:xlink="http://www.w3.org/1999/xlink">
    <title>search</title>
    <g id="search" stroke="none" stroke-width="1" fill="none" fill-rule="evenodd">
        <path d="M397.648123,341.130729 L468.294865,411.777471 C483.901712,427.384318 483.901712,452.688017 468.294865,468.294865 C452.688017,483.901712 427.384318,483.901712 411.777471,468.294865 L341.130729,397.648123 L397.648123,341.130729 Z M344.663066,323.469044 L372.921763,351.72774 L351.72774,372.921763 L323.469044,344.663066 L344.663066,323.469044 Z M72.6731096,72.6731096 C142.903922,2.44229681 256.770568,2.44229681 327.001381,72.6731096 C397.232193,142.903922 397.232193,256.770568 327.001381,327.001381 C256.770568,397.232193 142.903922,397.232193 72.6731096,327.001381 C2.44229681,256.770568 2.44229681,142.903922 72.6731096,72.6731096 Z M93.8671322,93.8671322 C35.3414549,152.392809 35.3414549,247.281681 93.8671322,305.807358 C152.392809,364.333035 247.281681,364.333035 305.807358,305.807358 C364.333035,247.281681 364.333035,152.392809 305.807358,93.8671322 C247.281681,35.3414549 152.392809,35.3414549 93.8671322,93.8671322 Z" fill="#000000" fill-rule="nonzero"></path>
    </g>
</svg>