<?xml version="1.0" encoding="UTF-8"?>
<svg width="500px" height="500px" viewBox="0 0 500 500" version="1.1" xmlns="http://www.w3.org/2000/svg" xmlns:xlink="http://www.w3.org/1999/xlink">
    <title>settings-tune</title>
    <g id="settings-tune" stroke="none" stroke-width="1" fill="none" fill-rule="evenodd">
        <path d="M210.270487,23 C216.459369,23 222.469491,27.9094133 223.705424,33.9654815 L230.370062,66.6221847 C239.415398,69.3787778 248.087071,72.9925115 256.290469,77.368767 L284.101812,58.9849977 C289.259963,55.5753723 296.985117,56.3568883 301.35785,60.7296211 L333.025927,92.3976988 C337.402128,96.7738991 338.179755,104.496224 334.770552,109.653739 L316.386787,137.46509 C320.763037,145.668477 324.376771,154.340151 327.133366,163.385493 L359.790067,170.050126 C365.846884,171.286211 370.755548,177.301084 370.755548,183.485062 L370.755548,228.270487 C370.755548,234.459369 365.846135,240.469491 359.790067,241.705424 L327.133364,248.370062 C324.376771,257.415398 320.763037,266.087071 316.386781,274.290469 L334.770551,302.101812 C337.659493,306.472263 337.539612,312.685568 334.775823,317.141116 L342.887121,309.028187 C345.133313,306.781996 349.096984,306.38286 351.744204,308.132716 L366.019057,317.568631 C370.229645,315.322414 374.680592,313.467578 379.323334,312.052688 L382.744119,295.290841 C383.37857,292.182033 386.46585,289.662541 389.639927,289.662541 L412.627136,289.662541 C415.803731,289.662541 418.888572,292.182417 419.522945,295.290841 L422.943733,312.052689 C427.586471,313.467578 432.037419,315.322414 436.248012,317.568634 L450.522861,308.132717 C453.170408,306.382644 457.135531,306.783776 459.379942,309.028187 L475.634354,325.282599 C477.880545,327.52879 478.279681,331.492461 476.529825,334.139682 L467.09391,348.414534 C469.340127,352.625122 471.194964,357.07607 472.609853,361.718812 L489.3717,365.139597 C492.480509,365.774048 495,368.861328 495,372.035405 L495,395.022614 C495,398.199208 492.480124,401.28405 489.3717,401.918423 L472.609852,405.33921 C471.194964,409.981949 469.340127,414.432896 467.093907,418.64349 L476.529824,432.918339 C478.279897,435.565885 477.878765,439.531008 475.634354,441.77542 L459.379942,458.029831 C457.133751,460.276023 453.17008,460.675159 450.52286,458.925302 L436.248007,449.489387 C432.037419,451.735604 427.586471,453.590441 422.943729,455.005331 L419.522944,471.767178 C418.888494,474.875986 415.801214,477.395478 412.627136,477.395478 L389.639927,477.395478 C386.463333,477.395478 383.378491,474.875602 382.744118,471.767177 L379.323331,455.00533 C374.680592,453.590441 370.229645,451.735604 366.019051,449.489385 L351.744203,458.925302 C349.096656,460.675375 345.131533,460.274243 342.887121,458.029831 L326.63271,441.77542 C324.386519,439.529228 323.987382,435.565557 325.737239,432.918337 L335.173154,418.643485 C332.926937,414.432896 331.0721,409.981949 329.657211,405.339207 L312.895364,401.918422 C309.786555,401.283971 307.267064,398.196691 307.267064,395.022614 L307.267064,372.035405 C307.267064,368.858811 309.786939,365.773969 312.895364,365.139596 L329.657212,361.718809 C331.0721,357.07607 332.926937,352.625122 335.173156,348.414529 L325.737239,334.13968 C324.363381,332.061279 324.315247,329.170895 325.443867,326.938421 L301.35785,351.025927 C296.981649,355.402128 289.259324,356.179755 284.101809,352.770552 L256.290459,334.386787 C248.087071,338.763037 239.415398,342.376771 230.370056,345.133366 L223.705423,377.790067 C222.469338,383.846884 216.454465,388.755548 210.270487,388.755548 L165.485062,388.755548 C159.29618,388.755548 153.286057,383.846135 152.050124,377.790067 L145.385486,345.133364 C136.340151,342.376771 127.668477,338.763037 119.46508,334.386781 L91.6537365,352.770551 C86.4955853,356.180176 78.7704316,355.39866 74.3976988,351.025927 L42.7296211,319.35785 C38.3534207,314.981649 37.5757932,307.259324 40.9849964,302.101809 L59.3687617,274.290459 C54.9925115,266.087071 51.3787778,257.415398 48.6221828,248.370056 L15.965481,241.705423 C9.90866441,240.469338 5,234.454465 5,228.270487 L5,183.485062 C5,177.29618 9.9094133,171.286057 15.9654815,170.050124 L48.6221847,163.385486 C51.3787778,154.340151 54.9925115,145.668477 59.368767,137.46508 L40.9849977,109.653736 C37.5753723,104.495585 38.3568883,96.7704316 42.7296211,92.3976988 L74.3976988,60.7296211 C78.7738991,56.3534207 86.496224,55.5757932 91.653739,58.9849964 L119.46509,77.3687617 C127.668477,72.9925115 136.340151,69.3787778 145.385493,66.6221828 L152.050126,33.965481 C153.286211,27.9086644 159.301084,23 165.485062,23 L210.270487,23 Z M404.039697,357.304202 C389.142853,357.304202 377.066574,369.38048 377.066574,384.277325 C377.066574,399.174169 389.142853,411.250448 404.039697,411.250448 C418.936542,411.250448 431.01282,399.174169 431.01282,384.277325 C431.01282,369.38048 418.936542,357.304202 404.039697,357.304202 Z M195.03752,55.3677476 L180.71695,55.3677476 L173.247685,91.9685447 L154.821219,97.5840652 C148.260654,99.5834168 141.909495,102.177395 135.835575,105.329402 L134.69998,105.926934 L117.69484,114.998644 L86.5138568,94.3870674 L76.3870674,104.513857 L96.9986513,135.694826 L87.9269393,152.69997 C84.7053177,158.738978 82.0394405,165.059458 79.9659047,171.593578 L79.5840671,172.821212 L73.9685475,191.247676 L37.3677476,198.71695 L37.3677476,213.03752 L73.9685447,220.507864 L79.5840652,238.93433 C81.5834168,245.494894 84.1773954,251.846054 87.3294023,257.919974 L87.926934,259.055568 L96.9986437,276.060709 L76.3870674,307.240613 L86.5138568,317.367402 L117.694826,296.756897 L134.69997,305.828609 C140.738978,309.050231 147.059458,311.716108 153.593578,313.789644 L154.821212,314.171481 L173.247676,319.787001 L180.71695,356.387801 L195.03752,356.387801 L202.507864,319.787004 L220.93433,314.171483 C227.494894,312.172132 233.846054,309.578153 239.919974,306.426146 L241.055568,305.828614 L258.060709,296.756905 L289.240613,317.367402 L299.367402,307.240613 L278.756897,276.060723 L287.828609,259.055578 C291.050231,253.01657 293.716108,246.696091 295.789644,240.161971 L296.171481,238.934336 L301.787001,220.507873 L338.387801,213.03752 L338.387801,198.71695 L301.787004,191.247685 L296.171483,172.821219 C294.172132,166.260654 291.578153,159.909495 288.426146,153.835575 L287.828614,152.69998 L278.756905,135.69484 L299.367402,104.513857 L289.240613,94.3870674 L258.060723,114.998651 L241.055578,105.926939 C235.01657,102.705318 228.696091,100.039441 222.161971,97.9659047 L220.934336,97.5840671 L202.507873,91.9685475 L195.03752,55.3677476 Z M187.877774,137.366042 C225.715759,137.366042 256.389507,168.039789 256.389507,205.877774 C256.389507,243.715759 225.715759,274.389507 187.877774,274.389507 C150.039789,274.389507 119.366042,243.715759 119.366042,205.877774 C119.366042,168.039789 150.039789,137.366042 187.877774,137.366042 Z M187.877774,169.733789 C167.916003,169.733789 151.733789,185.916003 151.733789,205.877774 C151.733789,225.839546 167.916003,242.021759 187.877774,242.021759 C207.839546,242.021759 224.021759,225.839546 224.021759,205.877774 C224.021759,185.916003 207.839546,169.733789 187.877774,169.733789 Z" id="Shape" fill="#0D0000" fill-rule="nonzero"></path>
    </g>
</svg>