<?xml version="1.0" encoding="UTF-8"?>
<svg width="500px" height="500px" viewBox="0 0 500 500" version="1.1" xmlns="http://www.w3.org/2000/svg" xmlns:xlink="http://www.w3.org/1999/xlink">
    <title>settings</title>
    <g id="settings" stroke="none" stroke-width="1" fill="none" fill-rule="evenodd">
        <path d="M229.495918,35 L218.897437,86.9325541 L201.818894,92.1372912 C191.649763,95.2363643 181.82639,99.3143707 172.468469,104.306528 L156.707279,112.714629 L112.470622,83.4734625 L83.4734664,112.470618 L112.714638,156.707262 L104.306535,172.468456 C99.3143718,181.826387 95.236365,191.64976 92.1372937,201.818886 L86.9325575,218.897426 L35,229.495914 L35,270.504082 L86.9325541,281.102563 L92.1372912,298.181106 C95.2363643,308.350237 99.3143707,318.17361 104.306528,327.531531 L112.714629,343.292721 L83.4734625,387.529378 L112.470618,416.526534 L156.707262,387.285362 L172.468456,395.693465 C181.826387,400.685628 191.64976,404.763635 201.818886,407.862706 L218.897426,413.067443 L229.495914,465 L270.504082,465 L281.102563,413.067446 L298.181106,407.862709 C308.350237,404.763636 318.17361,400.685629 327.531531,395.693472 L343.292721,387.285371 L387.529378,416.526537 L416.526534,387.529382 L387.285362,343.292738 L395.693465,327.531544 C400.685628,318.173613 404.763635,308.35024 407.862706,298.181114 L413.067443,281.102574 L465,270.504086 L465,229.495918 L413.067446,218.897437 L407.862709,201.818894 C404.763636,191.649763 400.685629,181.82639 395.693472,172.468469 L387.285371,156.707279 L416.526537,112.470622 L387.529382,83.4734664 L343.292738,112.714638 L327.531544,104.306535 C318.173613,99.3143718 308.35024,95.236365 298.181114,92.1372937 L281.102574,86.9325575 L270.504086,35 L229.495918,35 Z M297.998038,19.6903744 L306.926603,63.4403179 C319.044573,67.1333052 330.661949,71.9745975 341.65198,77.8374346 L378.910631,53.208835 C385.820968,48.6409851 396.170299,49.6879762 402.028417,55.546094 L444.453906,97.9715832 C450.316669,103.834346 451.358451,114.179888 446.791167,121.089372 L422.162572,158.348033 C428.025403,169.338051 432.866695,180.955427 436.559685,193.073405 L480.309626,202.001965 C488.423899,203.657938 495,211.716019 495,220.000649 L495,279.999351 C495,288.29055 488.422895,296.342267 480.309626,297.998038 L436.559682,306.926603 C432.866695,319.044573 428.025403,330.661949 422.162565,341.65198 L446.791165,378.910631 C451.359015,385.820968 450.312024,396.170299 444.453906,402.028417 L402.028417,444.453906 C396.165654,450.316669 385.820112,451.358451 378.910628,446.791167 L341.651967,422.162572 C330.661949,428.025403 319.044573,432.866695 306.926595,436.559685 L297.998035,480.309626 C296.342062,488.423899 288.283981,495 279.999351,495 L220.000649,495 C211.70945,495 203.657733,488.422895 202.001962,480.309626 L193.073397,436.559682 C180.955427,432.866695 169.338051,428.025403 158.34802,422.162565 L121.089369,446.791165 C114.179032,451.359015 103.829701,450.312024 97.9715832,444.453906 L55.546094,402.028417 C49.6833308,396.165654 48.6415489,385.820112 53.2088332,378.910628 L77.8374275,341.651967 C71.9745975,330.661949 67.1333052,319.044573 63.4403153,306.926595 L19.6903737,297.998035 C11.5761014,296.342062 5,288.283981 5,279.999351 L5,220.000649 C5,211.70945 11.5771046,203.657733 19.6903744,202.001962 L63.4403179,193.073397 C67.1333052,180.955427 71.9745975,169.338051 77.8374346,158.34802 L53.208835,121.089369 C48.6409851,114.179032 49.6879762,103.829701 55.546094,97.9715832 L97.9715832,55.546094 C103.834346,49.6833308 114.179888,48.6415489 121.089372,53.2088332 L158.348033,77.8374275 C169.338051,71.9745975 180.955427,67.1333052 193.073405,63.4403153 L202.001965,19.6903737 C203.657938,11.5761014 211.716019,5 220.000649,5 L279.999351,5 C288.29055,5 296.342267,11.5771046 297.998038,19.6903744 Z M250,300 C277.614237,300 300,277.614237 300,250 C300,222.385763 277.614237,200 250,200 C222.385763,200 200,222.385763 200,250 C200,277.614237 222.385763,300 250,300 Z M250,325 C208.578644,325 175,291.421356 175,250 C175,208.578644 208.578644,175 250,175 C291.421356,175 325,208.578644 325,250 C325,291.421356 291.421356,325 250,325 Z" fill="#000000" fill-rule="nonzero"></path>
    </g>
</svg>