<?xml version="1.0" encoding="UTF-8"?>
<svg width="500px" height="500px" viewBox="0 0 500 500" version="1.1" xmlns="http://www.w3.org/2000/svg" xmlns:xlink="http://www.w3.org/1999/xlink">
    <title>star-filled</title>
    <g id="star-filled" stroke="none" stroke-width="1" fill="none" fill-rule="evenodd">
        <path d="M146.827195,149.613686 L30.5011716,180.383796 C8.93701527,186.087863 2.36317933,208.405975 17.4078982,224.883524 L95.437537,310.344557 C100.133358,315.487599 104.191793,327.043839 103.742991,334.000264 L96.3192493,449.068267 C94.8875153,471.260145 113.846226,484.671131 134.283272,475.912397 L237.534307,431.661954 C244.020408,428.882196 256.436645,428.730152 262.991368,431.352042 L375.866911,476.502259 C396.753288,484.85681 415.196415,470.558468 412.318251,448.252699 L397.435085,332.908161 C396.573454,326.23052 400.018086,314.901072 404.454127,309.83131 L483.123173,219.923829 C497.818563,203.129098 490.761464,180.957386 469.058502,175.743038 L353.94985,148.087063 C347.092091,146.43942 337.077174,139.140771 333.408264,133.116511 L273.213972,34.278969 C261.595741,15.2021209 238.318551,15.3044108 226.866638,34.4863643 L167.374713,134.135338 C163.718923,140.258787 153.719742,147.790497 146.827195,149.613686 Z" id="Shape" fill="#000000" fill-rule="nonzero"></path>
    </g>
</svg>