<?xml version="1.0" encoding="UTF-8"?>
<svg width="500px" height="500px" viewBox="0 0 500 500" version="1.1" xmlns="http://www.w3.org/2000/svg" xmlns:xlink="http://www.w3.org/1999/xlink">
    <title>stream-focus-bottom</title>
    <g id="stream-focus-bottom" stroke="none" stroke-width="1" fill="none" fill-rule="evenodd">
        <path d="M135,145 C151.568542,145 165,131.568542 165,115 L165,40 C165,23.4314575 151.568542,10 135,10 L60,10 C43.4314575,10 30,23.4314575 30,40 L30,115 C30,131.568542 43.4314575,145 60,145 L135,145 Z M287.5,145 C304.068542,145 317.5,131.568542 317.5,115 L317.5,40 C317.5,23.4314575 304.068542,10 287.5,10 L212.5,10 C195.931458,10 182.5,23.4314575 182.5,40 L182.5,115 C182.5,131.568542 195.931458,145 212.5,145 L287.5,145 Z M440,145 C456.568542,145 470,131.568542 470,115 L470,40 C470,23.4314575 456.568542,10 440,10 L365,10 C348.431458,10 335,23.4314575 335,40 L335,115 C335,131.568542 348.431458,145 365,145 L440,145 Z M135,115 L60,115 L60,40 L135,40 L135,115 Z M287.5,115 L212.5,115 L212.5,40 L287.5,40 L287.5,115 Z M440,115 L365,115 L365,40 L440,40 L440,115 Z M425,475 C452.614237,475 475,452.614237 475,425 L475,215 C475,187.385763 452.614237,165 425,165 L75,165 C47.3857625,165 25,187.385763 25,215 L25,425 C25,452.614237 47.3857625,475 75,475 L425,475 Z M425,445 L75,445 C64.0693643,445 55.186775,436.231271 55,425.344489 L55,215 C55,204.069364 63.7687286,195.186775 74.6555106,195.002907 L75,195 L425,195 C435.930636,195 444.813225,203.768729 445,214.655511 L445,425 C445,435.930636 436.231271,444.813225 425.344489,444.997093 L425,445 Z" id="Shape" fill="#000000" fill-rule="nonzero"></path>
    </g>
</svg>