<?xml version="1.0" encoding="UTF-8"?>
<svg width="500px" height="500px" viewBox="0 0 500 500" version="1.1" xmlns="http://www.w3.org/2000/svg" xmlns:xlink="http://www.w3.org/1999/xlink">
    <title>stream-focus-left</title>
    <g id="stream-focus-left" stroke="none" stroke-width="1" fill="none" fill-rule="evenodd">
        <path d="M347.5,357.5 C347.5,340.931458 360.931458,327.5 377.5,327.5 L452.5,327.5 C469.068542,327.5 482.5,340.931458 482.5,357.5 L482.5,432.5 C482.5,449.068542 469.068542,462.5 452.5,462.5 L377.5,462.5 C360.931458,462.5 347.5,449.068542 347.5,432.5 L347.5,357.5 Z M347.5,205 C347.5,188.431458 360.931458,175 377.5,175 L452.5,175 C469.068542,175 482.5,188.431458 482.5,205 L482.5,280 C482.5,296.568542 469.068542,310 452.5,310 L377.5,310 C360.931458,310 347.5,296.568542 347.5,280 L347.5,205 Z M347.5,52.5 C347.5,35.9314575 360.931458,22.5 377.5,22.5 L452.5,22.5 C469.068542,22.5 482.5,35.9314575 482.5,52.5 L482.5,127.5 C482.5,144.068542 469.068542,157.5 452.5,157.5 L377.5,157.5 C360.931458,157.5 347.5,144.068542 347.5,127.5 L347.5,52.5 Z M377.5,357.5 L377.5,432.5 L452.5,432.5 L452.5,357.5 L377.5,357.5 Z M377.5,205 L377.5,280 L452.5,280 L452.5,205 L377.5,205 Z M377.5,52.5 L377.5,127.5 L452.5,127.5 L452.5,52.5 L377.5,52.5 Z M17.5,67.5 C17.5,39.8857625 39.8857625,17.5 67.5,17.5 L277.5,17.5 C305.114237,17.5 327.5,39.8857625 327.5,67.5 L327.5,417.5 C327.5,445.114237 305.114237,467.5 277.5,467.5 L67.5,467.5 C39.8857625,467.5 17.5,445.114237 17.5,417.5 L17.5,67.5 Z M47.5,67.5 L47.5,417.5 C47.5,428.430636 56.2687286,437.313225 67.1555106,437.5 L277.5,437.5 C288.430636,437.5 297.313225,428.731271 297.497093,417.844489 L297.5,417.5 L297.5,67.5 C297.5,56.5693643 288.731271,47.686775 277.844489,47.5 L67.5,47.5 C56.5693643,47.5 47.686775,56.2687286 47.5029071,67.1555106 L47.5,67.5 Z" id="Shape" fill="#000000" fill-rule="nonzero"></path>
    </g>
</svg>