<?xml version="1.0" encoding="UTF-8"?>
<svg width="500px" height="500px" viewBox="0 0 500 500" version="1.1" xmlns="http://www.w3.org/2000/svg" xmlns:xlink="http://www.w3.org/1999/xlink">
    <title>stream-focus-top</title>
    <g id="stream-focus-top" stroke="none" stroke-width="1" fill="none" fill-rule="evenodd">
        <path d="M135,340 C151.568542,340 165,353.431458 165,370 L165,445 C165,461.568542 151.568542,475 135,475 L60,475 C43.4314575,475 30,461.568542 30,445 L30,370 C30,353.431458 43.4314575,340 60,340 L135,340 Z M287.5,340 C304.068542,340 317.5,353.431458 317.5,370 L317.5,445 C317.5,461.568542 304.068542,475 287.5,475 L212.5,475 C195.931458,475 182.5,461.568542 182.5,445 L182.5,370 C182.5,353.431458 195.931458,340 212.5,340 L287.5,340 Z M440,340 C456.568542,340 470,353.431458 470,370 L470,445 C470,461.568542 456.568542,475 440,475 L365,475 C348.431458,475 335,461.568542 335,445 L335,370 C335,353.431458 348.431458,340 365,340 L440,340 Z M134,370 L59,370 L59,445 L134,445 L134,370 Z M287.5,370 L212.5,370 L212.5,445 L287.5,445 L287.5,370 Z M440,370 L365,370 L365,445 L440,445 L440,370 Z M425,10 C452.614237,10 475,32.3857625 475,60 L475,270 C475,297.614237 452.614237,320 425,320 L75,320 C47.3857625,320 25,297.614237 25,270 L25,60 C25,32.3857625 47.3857625,10 75,10 L425,10 Z M425,40 L75,40 C64.0693643,40 55.186775,48.7687286 55,59.6555106 L55,270 C55,280.930636 63.7687286,289.813225 74.6555106,289.997093 L75,290 L425,290 C435.930636,290 444.813225,281.231271 445,270.344489 L445,60 C445,49.0693643 436.231271,40.186775 425.344489,40.0029071 L425,40 Z" id="Shape" fill="#000000" fill-rule="nonzero"></path>
    </g>
</svg>