<?xml version="1.0" encoding="UTF-8"?>
<svg width="500px" height="500px" viewBox="0 0 500 500" version="1.1" xmlns="http://www.w3.org/2000/svg" xmlns:xlink="http://www.w3.org/1999/xlink">
    <title>stream-grid</title>
    <g id="stream-grid" stroke="none" stroke-width="1" fill="none" fill-rule="evenodd">
        <path d="M190,260 C217.614237,260 240,282.385763 240,310 L240,410 C240,437.614237 217.614237,460 190,460 L90,460 C62.3857625,460 40,437.614237 40,410 L40,310 C40,282.385763 62.3857625,260 90,260 L190,260 Z M410,260 C437.614237,260 460,282.385763 460,310 L460,410 C460,437.614237 437.614237,460 410,460 L310,460 C282.385763,460 260,437.614237 260,410 L260,310 C260,282.385763 282.385763,260 310,260 L410,260 Z M190,290 L90,290 C79.0693643,290 70.186775,298.768729 70.0029071,309.655511 L70,310 L70,410 C70,420.930636 78.7687286,429.813225 89.6555106,429.997093 L90,430 L190,430 C200.930636,430 209.813225,421.231271 209.997093,410.344489 L210,410 L210,310 C210,299.069364 201.231271,290.186775 190.344489,290.002907 L190,290 Z M410,290 L310,290 C299.069364,290 290.186775,298.768729 290.002907,309.655511 L290,310 L290,410 C290,420.930636 298.768729,429.813225 309.655511,429.997093 L310,430 L410,430 C420.930636,430 429.813225,421.231271 429.997093,410.344489 L430,410 L430,310 C430,299.069364 421.231271,290.186775 410.344489,290.002907 L410,290 Z M190,40 C217.614237,40 240,62.3857625 240,90 L240,190 C240,217.614237 217.614237,240 190,240 L90,240 C62.3857625,240 40,217.614237 40,190 L40,90 C40,62.3857625 62.3857625,40 90,40 L190,40 Z M190,70 L90,70 C79.0693643,70 70.186775,78.7687286 70.0029071,89.6555106 L70,90 L70,190 C70,200.930636 78.7687286,209.813225 89.6555106,209.997093 L90,210 L190,210 C200.930636,210 209.813225,201.231271 209.997093,190.344489 L210,190 L210,90 C210,79.0693643 201.231271,70.186775 190.344489,70.0029071 L190,70 Z M410,40 C437.614237,40 460,62.3857625 460,90 L460,190 C460,217.614237 437.614237,240 410,240 L310,240 C282.385763,240 260,217.614237 260,190 L260,90 C260,62.3857625 282.385763,40 310,40 L410,40 Z M410,70 L310,70 C299.069364,70 290.186775,78.7687286 290.002907,89.6555106 L290,90 L290,190 C290,200.930636 298.768729,209.813225 309.655511,209.997093 L310,210 L410,210 C420.930636,210 429.813225,201.231271 429.997093,190.344489 L430,190 L430,90 C430,79.0693643 421.231271,70.186775 410.344489,70.0029071 L410,70 Z" id="Shape" fill="#000000" fill-rule="nonzero"></path>
    </g>
</svg>