<?xml version="1.0" encoding="UTF-8"?>
<svg width="500px" height="500px" viewBox="0 0 500 500" version="1.1" xmlns="http://www.w3.org/2000/svg" xmlns:xlink="http://www.w3.org/1999/xlink">
    <title>stream-focus-right</title>
    <g id="stream-focus-right" stroke="none" stroke-width="1" fill="none" fill-rule="evenodd">
        <path d="M152.5,127.5 C152.5,144.068542 139.068542,157.5 122.5,157.5 L47.5,157.5 C30.9314575,157.5 17.5,144.068542 17.5,127.5 L17.5,52.5 C17.5,35.9314575 30.9314575,22.5 47.5,22.5 L122.5,22.5 C139.068542,22.5 152.5,35.9314575 152.5,52.5 L152.5,127.5 Z M152.5,280 C152.5,296.568542 139.068542,310 122.5,310 L47.5,310 C30.9314575,310 17.5,296.568542 17.5,280 L17.5,205 C17.5,188.431458 30.9314575,175 47.5,175 L122.5,175 C139.068542,175 152.5,188.431458 152.5,205 L152.5,280 Z M152.5,432.5 C152.5,449.068542 139.068542,462.5 122.5,462.5 L47.5,462.5 C30.9314575,462.5 17.5,449.068542 17.5,432.5 L17.5,357.5 C17.5,340.931458 30.9314575,327.5 47.5,327.5 L122.5,327.5 C139.068542,327.5 152.5,340.931458 152.5,357.5 L152.5,432.5 Z M122.5,127.5 L122.5,52.5 L47.5,52.5 L47.5,127.5 L122.5,127.5 Z M122.5,280 L122.5,205 L47.5,205 L47.5,280 L122.5,280 Z M122.5,432.5 L122.5,357.5 L47.5,357.5 L47.5,432.5 L122.5,432.5 Z M482.5,417.5 C482.5,445.114237 460.114237,467.5 432.5,467.5 L222.5,467.5 C194.885763,467.5 172.5,445.114237 172.5,417.5 L172.5,67.5 C172.5,39.8857625 194.885763,17.5 222.5,17.5 L432.5,17.5 C460.114237,17.5 482.5,39.8857625 482.5,67.5 L482.5,417.5 Z M452.5,417.5 L452.5,67.5 C452.5,56.5693643 443.731271,47.686775 432.844489,47.5 L222.5,47.5 C211.569364,47.5 202.686775,56.2687286 202.502907,67.1555106 L202.5,67.5 L202.5,417.5 C202.5,428.430636 211.268729,437.313225 222.155511,437.5 L432.5,437.5 C443.430636,437.5 452.313225,428.731271 452.497093,417.844489 L452.5,417.5 Z" id="Shape" fill="#000000" fill-rule="nonzero"></path>
    </g>
</svg>