<?xml version="1.0" encoding="UTF-8"?>
<svg width="500px" height="500px" viewBox="0 0 500 500" version="1.1" xmlns="http://www.w3.org/2000/svg" xmlns:xlink="http://www.w3.org/1999/xlink">
    <title>strike-through</title>
    <g id="strike-through" stroke="none" stroke-width="1" fill="none" fill-rule="evenodd">
        <path d="M475,240 L475,290 L404.168671,290.000665 C418.043203,310.008558 424.980469,333.861201 424.980469,361.558594 C424.980469,401.734375 409.082031,433.423828 377.285156,456.626953 C345.488281,479.830078 303.59375,491.431641 251.601563,491.431641 C214.433594,491.431641 180.864258,485.523438 150.893555,473.707031 C121.322461,462.048177 96.6141693,445.997115 76.7686797,425.553844 L75.9667969,424.722656 L75.9667969,326.753906 L148.798828,326.753906 L158.789062,393.462891 L159.338189,393.907615 C168.737166,401.4426 181.391038,407.68596 197.299805,412.637695 C213.520508,417.686523 231.621094,420.210938 251.601563,420.210938 C277.382812,420.210938 296.987305,414.947266 310.415039,404.419922 C323.842773,393.892578 330.556641,379.820312 330.556641,362.203125 C330.556641,344.15625 324.165039,329.654297 311.381836,318.697266 C310.711351,318.122564 310.014417,317.549636 309.291033,316.978481 L308.410277,316.293946 C306.325557,314.698683 304.033474,313.117322 301.534028,311.549863 L300.450141,310.878945 L300.450141,310.878945 L299.340863,310.20973 C297.844898,309.318578 296.281223,308.431966 294.649838,307.549892 L293.413603,306.889188 C293.205448,306.779213 292.996235,306.669308 292.785964,306.559474 L291.511642,305.901324 C290.868133,305.572674 290.215103,305.244662 289.552551,304.917289 L288.214751,304.263394 C287.989668,304.154553 287.763527,304.045784 287.536329,303.937085 L286.160442,303.285743 C285.929011,303.177328 285.696523,303.068984 285.462976,302.96071 L284.049002,302.311922 L284.049002,302.311922 L282.609637,301.664836 C282.367626,301.55713 282.124558,301.449495 281.880432,301.341931 L280.40298,300.697398 C280.154622,300.590117 279.905206,300.482908 279.654732,300.37577 L278.139192,299.73379 L278.139192,299.73379 L276.598261,299.093512 L276.598261,299.093512 L275.031939,298.454937 L275.031939,298.454937 L273.440225,297.818064 L273.440225,297.818064 L271.823121,297.182893 C271.551487,297.077173 271.278796,296.971524 271.005046,296.865946 L269.349854,296.233329 C269.071873,296.128034 268.792834,296.022811 268.512737,295.917658 L266.819458,295.287594 L266.819458,295.287594 L265.100788,294.659232 C264.812227,294.554647 264.522608,294.450133 264.231931,294.345689 L262.475173,293.719881 L262.475173,293.719881 L260.693025,293.095774 L260.693025,293.095774 L258.885485,292.47337 C258.582112,292.369778 258.277682,292.266257 257.972193,292.162806 L256.126566,291.542955 L256.126566,291.542955 L254.255548,290.924807 L254.255548,290.924807 L252.359138,290.30836 C252.040954,290.205761 251.721712,290.103233 251.401412,290.000775 L25,290 L25,240 L475,240 Z M244.833984,9 C280.927734,9 313.798828,14.4785156 343.447266,25.4355469 C372.659697,36.2314453 397.28356,50.5730555 417.318854,68.4603774 L418.212891,69.2636719 L418.212891,165.298828 L347.636719,165.298828 L335.390625,100.845703 L334.933198,100.559908 C327.880704,96.2006762 318.115876,92.3064162 305.638712,88.8771279 L303.959017,88.4226449 C302.545877,88.0462051 301.099252,87.6755058 299.619141,87.3105469 C283.935547,83.4433594 267.285156,81.5097656 249.667969,81.5097656 C223.886719,81.5097656 203.959961,86.9345703 189.887695,97.7841797 C175.81543,108.633789 168.779297,122.652344 168.779297,139.839844 C168.779297,155.738281 176.137695,168.790039 190.854492,178.995117 L191.722289,179.589187 L191.722289,179.589187 L192.61418,180.184588 L192.61418,180.184588 L193.530163,180.781322 C193.839507,180.980455 194.152865,181.17981 194.47024,181.379387 L195.434409,181.978783 L195.434409,181.978783 L196.422672,182.579512 C196.58939,182.679744 196.757112,182.780032 196.925838,182.880376 L197.950241,183.483102 L197.950241,183.483102 L198.998736,184.08716 L198.998736,184.08716 L200.071325,184.69255 L200.071325,184.69255 L201.168006,185.299271 C201.537582,185.501734 201.911174,185.704418 202.288781,185.907325 L203.433649,186.51671 L203.433649,186.51671 L204.60261,187.127427 L204.60261,187.127427 L205.795664,187.739475 L205.795664,187.739475 L207.012811,188.352856 C207.217676,188.455197 207.423546,188.557593 207.630419,188.660045 L208.883706,189.275424 L208.883706,189.275424 L210.161086,189.892134 L210.161086,189.892134 L211.462559,190.510175 L211.462559,190.510175 L212.788125,191.129549 L212.788125,191.129549 L214.137784,191.750254 L214.137784,191.750254 L215.511536,192.372291 L215.511536,192.372291 L216.909381,192.99566 L216.909381,192.99566 L218.33132,193.62036 L218.33132,193.62036 L219.777351,194.246393 L219.777351,194.246393 L221.247476,194.873757 L221.247476,194.873757 L222.741693,195.502453 L222.741693,195.502453 L224.260004,196.132481 L224.260004,196.132481 L226.582644,197.080019 L226.582644,197.080019 L228.161188,197.713376 L228.161188,197.713376 L229.763824,198.348065 L229.763824,198.348065 L231.390554,198.984086 L231.390554,198.984086 L233.041377,199.621438 L233.041377,199.621438 L234.716293,200.260123 L234.716293,200.260123 L236.415301,200.900139 L236.415301,200.900139 L238.138403,201.541487 L238.138403,201.541487 L239.885598,202.184166 L239.885598,202.184166 L241.656887,202.828178 L241.656887,202.828178 L243.452268,203.473521 L243.452268,203.473521 L245.271742,204.120196 L245.271742,204.120196 L247.11531,204.768202 L247.11531,204.768202 L248.98297,205.417541 L248.98297,205.417541 L250.874724,206.068211 L250.874724,206.068211 L252.79057,206.720213 L252.79057,206.720213 L254.73051,207.373547 L254.73051,207.373547 L256.694543,208.028213 L256.694543,208.028213 L258.682669,208.68421 L258.682669,208.68421 L260.694888,209.341539 L260.694888,209.341539 L262.7312,210.000392 L262.7312,210.000392 L97.3060219,210.000392 C82.4353406,190.754887 75,167.260615 75,139.517578 C75,101.490234 91.1132812,70.3916016 123.339844,46.2216797 C155.566406,22.0517578 196.064453,9.64453125 244.833984,9 Z" id="Shape" fill="#000000" fill-rule="nonzero"></path>
    </g>
</svg>