<?xml version="1.0" encoding="UTF-8"?>
<svg width="501px" height="500px" viewBox="0 0 501 500" version="1.1" xmlns="http://www.w3.org/2000/svg" xmlns:xlink="http://www.w3.org/1999/xlink">
    <title>strike-through-abc</title>
    <g id="strike-through-abc" stroke="none" stroke-width="1" fill="none" fill-rule="evenodd" transform="translate(0.000000, 0.000000)">
        <path d="M141.855469,294.066406 L141.858398,295.291016 C141.866211,296.916016 141.889648,298.509766 141.928711,300.072266 C141.967773,301.634766 142.053711,303.197266 142.186523,304.759766 L142.294922,305.931641 L154.013672,307.542969 L154.013672,326 L116.220703,326 L115.866852,324.240419 L115.866852,324.240419 L115.523626,322.469062 L115.523626,322.469062 L115.204562,320.752069 L115.204562,320.752069 L114.909659,319.089439 L114.909659,319.089439 L114.638918,317.481174 C114.466478,316.427118 114.310146,315.409305 114.169922,314.427734 C113.681641,311.009766 113.339844,307.591797 113.144531,304.173828 C107.578125,311.302734 100.620117,317.235352 92.2705078,321.97168 C83.9208984,326.708008 75.0097656,329.076172 65.5371094,329.076172 C49.0332031,329.076172 36.484375,325.047852 27.890625,316.991211 C19.296875,308.93457 15,297.582031 15,282.933594 C15,276.282328 16.1890674,270.30439 18.5672021,264.999779 L2,265 L2,235 L112.998,235 L112.998047,217.455078 L112.994531,216.900752 C112.879688,207.884561 109.951172,200.720703 104.208984,195.40918 C98.3496094,189.989258 90.1953125,187.279297 79.7460938,187.279297 C72.5195312,187.279297 66.1474609,188.207031 60.6298828,190.0625 C55.3245192,191.846605 50.9897591,194.26273 47.6256024,197.310876 L47.2265625,197.679688 L44.1503906,214.378906 L21.8847656,214.378906 L21.8847656,183.617188 L22.5458957,183.096556 C29.6424293,177.57687 38.1622869,173.136156 48.1054688,169.774414 C58.359375,166.307617 69.4921875,164.574219 81.5039062,164.574219 C99.4726562,164.574219 114.023438,169.164062 125.15625,178.34375 C136.142578,187.402652 141.708021,200.313236 141.852578,217.075502 L141.855469,217.748047 L141.855,235 L193.876,235 L193.876953,119.705078 L170,115.603516 L170,97 L222.734375,97 L222.734375,185.769531 L223.176933,185.153435 C228.079217,178.423771 234.108456,173.258042 241.264648,169.65625 C248.637695,165.945312 257.255859,164.089844 267.119141,164.089844 C286.650391,164.089844 301.884766,171.902344 312.822266,187.527344 C321.65032,200.13885 326.915652,215.963168 328.618263,235.000298 L351.844426,234.99988 C353.234435,216.248082 359.233142,200.316807 369.840547,187.206055 C382.047578,172.118164 399.625703,164.574219 422.574922,164.574219 C435.270234,164.574219 446.671602,166.673828 456.779023,170.873047 C466.620461,174.96176 474.81853,180.531818 481.373233,187.583222 L481.901094,188.158203 L483.219453,223.314453 L460.221406,223.314453 L453.922578,198.412109 L453.507734,198.016719 C450.151484,194.877969 445.895234,192.324219 440.738984,190.355469 C435.367891,188.304688 429.313203,187.279297 422.574922,187.279297 C407.438203,187.279297 396.622773,192.723633 390.128633,203.612305 C384.85756,212.450269 381.725663,222.912719 380.73294,234.999655 L492,235 L492,265 L381.441657,265.001056 C382.867194,274.660098 385.738439,283.103431 390.055391,290.331055 C396.500703,301.12207 407.340547,306.517578 422.574922,306.517578 C432.145234,306.517578 440.568086,303.563477 447.843477,297.655273 C454.984138,291.856481 458.620586,284.764188 458.75282,276.378393 L458.756562,275.902344 L484.684297,275.902344 L484.977266,276.78125 L484.993294,277.327305 C485.30227,290.776419 479.217826,302.72819 466.739961,313.182617 C454.093477,323.77832 439.371797,329.076172 422.574922,329.076172 C399.528047,329.076172 381.925508,321.556641 369.767305,306.517578 C360.421846,294.957734 354.668102,281.11881 352.506073,265.000805 L328.61566,265.000824 C326.905577,282.069922 321.616698,296.260077 312.749023,307.571289 C301.762695,321.584961 286.650391,328.591797 267.412109,328.591797 C257.060547,328.591797 248.076172,326.614258 240.458984,322.65918 C233.047667,318.810996 226.838185,313.183171 221.830538,305.775705 L221.416016,305.154297 L218.779297,325.515625 L193.876953,325.515625 L193.876,265 L141.855,265 L141.855469,294.066406 Z M299.43741,265.001276 L222.734,265 L222.734,281.277344 L223.06642,281.939012 C226.646252,288.952327 231.442797,294.542318 237.456055,298.708984 C243.657227,303.005859 251.201172,305.154297 260.087891,305.154297 C273.662109,305.154297 283.745117,300.320312 290.336914,290.652344 C294.94425,283.894918 297.941437,275.610832 299.328476,265.800088 L299.43741,265.001276 Z M43.8574219,283.519531 C43.8574219,290.453125 46.0058594,295.750977 50.3027344,299.413086 C54.5996094,303.075195 61.09375,304.90625 69.7851562,304.90625 C79.3554688,304.90625 88.0957031,302.611328 96.0058594,298.021484 C103.713191,293.549329 109.288137,288.196405 112.730696,281.962713 L112.998047,281.46875 L112.998047,265 L52.5226948,265 C46.7458462,270.190145 43.8574219,276.363192 43.8574219,283.519531 Z M259.794922,187.527344 C250.908203,187.527344 243.413086,189.675781 237.30957,193.972656 C231.39101,198.139323 226.643248,203.6834 223.066285,210.604888 L222.734,211.257812 L222.734,235 L299.481634,235 C298.163331,223.082544 295.090677,212.971305 290.263672,204.666016 C283.623047,193.240234 273.466797,187.527344 259.794922,187.527344 Z" id="Shape" fill="#000000"></path>
    </g>
</svg>