<?xml version="1.0" encoding="UTF-8"?>
<svg width="500px" height="500px" viewBox="0 0 500 500" version="1.1" xmlns="http://www.w3.org/2000/svg" xmlns:xlink="http://www.w3.org/1999/xlink">
    <title>subscript</title>
    <g id="subscript" stroke="none" stroke-width="1" fill="none" fill-rule="evenodd">
        <path d="M418.394531,278.642578 C440.367187,278.642578 457.652344,284.355469 470.25,295.78125 C482.847656,307.207031 489.146484,322.441406 489.146484,341.484375 C489.146484,354.375 485.606445,366.289062 478.526367,377.226562 L478.201334,377.726008 L478.201334,377.726008 L477.531999,378.73862 C477.418302,378.908913 477.303534,379.079969 477.187696,379.251786 L476.479823,380.291839 C476.239583,380.641572 475.995062,380.994354 475.746258,381.350185 L474.987001,382.426825 L474.987001,382.426825 L474.202052,383.521759 L474.202052,383.521759 L473.391411,384.634986 L473.391411,384.634986 L472.555078,385.766507 L472.555078,385.766507 L471.693053,386.916322 L471.693053,386.916322 L470.805336,388.084431 L470.805336,388.084431 L469.891927,389.270833 L469.891927,389.270833 L468.952826,390.475529 L468.952826,390.475529 L467.988034,391.698519 L467.988034,391.698519 L466.997549,392.939803 L466.997549,392.939803 L465.981373,394.19938 L465.981373,394.19938 L464.939504,395.477251 L464.939504,395.477251 L463.871944,396.773416 L463.871944,396.773416 L462.778692,398.087874 L462.778692,398.087874 L461.659747,399.420627 L461.659747,399.420627 L460.515111,400.771673 L460.515111,400.771673 L459.344783,402.141012 L459.344783,402.141012 L457.541119,404.229323 L457.541119,404.229323 L456.306561,405.644397 L456.306561,405.644397 L455.046311,407.077765 L455.046311,407.077765 L453.760369,408.529426 L453.760369,408.529426 L451.783284,410.741219 L451.783284,410.741219 L450.433112,412.238615 L450.433112,412.238615 L449.057249,413.754304 L449.057249,413.754304 L446.945281,416.06214 L446.945281,416.06214 L445.505187,417.623563 L445.505187,417.623563 L444.039402,419.203281 L444.039402,419.203281 L443.296875,420 L405.357422,461.455078 L405.650391,462.1875 L461.021484,462.1875 L462.779297,441.09375 L495.298828,441.09375 L495.298828,495 L349.693359,495 L349.693359,467.021484 L418.6875,393.046875 L419.892808,391.656707 L419.892808,391.656707 L421.06932,390.284354 L421.06932,390.284354 L422.217035,388.929816 C422.405921,388.705544 422.593608,388.482015 422.780094,388.259228 L423.884614,386.931412 C424.066301,386.711594 424.246788,386.492518 424.426076,386.274184 L425.487401,384.973091 C425.661889,384.757726 425.835177,384.543104 426.007265,384.329224 L427.025396,383.054853 C427.359973,382.633032 427.689751,382.21418 428.014729,381.798297 L428.975267,380.559555 L428.975267,380.559555 L429.907007,379.338628 C430.059898,379.136625 430.211588,378.935364 430.362079,378.734845 L431.250625,377.540641 C431.542007,377.145542 431.82859,376.753412 432.110374,376.364251 L432.941327,375.205676 C433.077419,375.014065 433.212311,374.823196 433.346004,374.633069 L434.133762,373.501217 L434.133762,373.501217 L434.892723,372.387179 C435.016817,372.20299 435.139711,372.019544 435.261405,371.83684 L435.977171,370.749525 C436.21096,370.390056 436.43995,370.033555 436.664141,369.680024 L437.322314,368.628338 C438.287976,367.064171 439.156449,365.560128 439.927734,364.116211 C444.126953,356.254883 446.226562,348.955078 446.226562,342.216797 C446.226562,333.232422 443.80957,325.883789 438.975586,320.170898 C434.141602,314.458008 427.28125,311.601562 418.394531,311.601562 C408.53125,311.601562 401.036133,314.946289 395.90918,321.635742 C390.886858,328.188676 388.324449,336.873534 388.221953,347.690316 L388.21875,348.369141 L346.617187,348.369141 L346.324219,347.490234 L346.309394,346.787713 C345.991176,327.855217 352.31936,311.805212 365.293945,298.637695 C378.428711,285.307617 396.128906,278.642578 418.394531,278.642578 Z M144.160156,72 L144.160156,114.96875 L115.107422,118.142578 L170.039062,205.300781 L225.214844,118.142578 L196.650391,114.96875 L196.650391,72 L333.613281,72 L333.613281,114.96875 L303.828125,121.072266 L212.275391,248.269531 L308.222656,378.640625 L339.716797,384.744141 L339.716797,427.46875 L199.824219,427.46875 L199.824219,384.744141 L228.144531,381.814453 L171.015625,291.970703 L113.642578,381.814453 L142.207031,384.744141 L142.207031,427.46875 L5,427.46875 L5,384.744141 L35.0292969,378.884766 L129.023438,248.269531 L37.4707031,121.072266 L7.68554688,114.96875 L7.68554688,72 L144.160156,72 Z" id="Shape" fill="#000000" fill-rule="nonzero"></path>
    </g>
</svg>