<?xml version="1.0" encoding="UTF-8"?>
<svg width="500px" height="500px" viewBox="0 0 500 500" version="1.1" xmlns="http://www.w3.org/2000/svg" xmlns:xlink="http://www.w3.org/1999/xlink">
    <title>superscript</title>
    <g id="superscript" stroke="none" stroke-width="1" fill="none" fill-rule="evenodd">
        <path d="M144.160156,72 L144.160156,114.96875 L115.107422,118.142578 L170.039062,205.300781 L225.214844,118.142578 L196.650391,114.96875 L196.650391,72 L333.613281,72 L333.613281,114.96875 L303.828125,121.072266 L212.275391,248.269531 L308.222656,378.640625 L339.716797,384.744141 L339.716797,427.46875 L199.824219,427.46875 L199.824219,384.744141 L228.144531,381.814453 L171.015625,291.970703 L113.642578,381.814453 L142.207031,384.744141 L142.207031,427.46875 L5,427.46875 L5,384.744141 L35.0292969,378.884766 L129.023438,248.269531 L37.4707031,121.072266 L7.68554688,114.96875 L7.68554688,72 L144.160156,72 Z M418.394531,4.64257812 C440.367187,4.64257812 457.652344,10.3554688 470.25,21.78125 C482.847656,33.2070312 489.146484,48.4414062 489.146484,67.484375 C489.146484,80.375 485.606445,92.2890625 478.526367,103.226562 L478.201334,103.726008 L478.201334,103.726008 L477.531999,104.73862 C477.418302,104.908913 477.303534,105.079969 477.187696,105.251786 L476.479823,106.291839 C476.239583,106.641572 475.995062,106.994354 475.746258,107.350185 L474.987001,108.426825 L474.987001,108.426825 L474.202052,109.521759 L474.202052,109.521759 L473.391411,110.634986 L473.391411,110.634986 L472.555078,111.766507 L472.555078,111.766507 L471.693053,112.916322 L471.693053,112.916322 L470.805336,114.084431 L470.805336,114.084431 L469.891927,115.270833 L469.891927,115.270833 L468.952826,116.475529 L468.952826,116.475529 L467.988034,117.698519 L467.988034,117.698519 L466.997549,118.939803 L466.997549,118.939803 L465.981373,120.19938 L465.981373,120.19938 L464.939504,121.477251 L464.939504,121.477251 L463.871944,122.773416 L463.871944,122.773416 L462.778692,124.087874 L462.778692,124.087874 L461.659747,125.420627 L461.659747,125.420627 L460.515111,126.771673 L460.515111,126.771673 L459.344783,128.141012 L459.344783,128.141012 L457.541119,130.229323 L457.541119,130.229323 L456.306561,131.644397 L456.306561,131.644397 L455.046311,133.077765 L455.046311,133.077765 L453.760369,134.529426 L453.760369,134.529426 L451.783284,136.741219 L451.783284,136.741219 L450.433112,138.238615 L450.433112,138.238615 L449.057249,139.754304 L449.057249,139.754304 L446.945281,142.06214 L446.945281,142.06214 L445.505187,143.623563 L445.505187,143.623563 L444.039402,145.203281 L444.039402,145.203281 L443.296875,146 L405.357422,187.455078 L405.650391,188.1875 L461.021484,188.1875 L462.779297,167.09375 L495.298828,167.09375 L495.298828,221 L349.693359,221 L349.693359,193.021484 L418.6875,119.046875 L419.892808,117.656707 L419.892808,117.656707 L421.06932,116.284354 L421.06932,116.284354 L422.217035,114.929816 C422.405921,114.705544 422.593608,114.482015 422.780094,114.259228 L423.884614,112.931412 C424.066301,112.711594 424.246788,112.492518 424.426076,112.274184 L425.487401,110.973091 C425.661889,110.757726 425.835177,110.543104 426.007265,110.329224 L427.025396,109.054853 C427.359973,108.633032 427.689751,108.21418 428.014729,107.798297 L428.975267,106.559555 L428.975267,106.559555 L429.907007,105.338628 C430.059898,105.136625 430.211588,104.935364 430.362079,104.734845 L431.250625,103.540641 C431.542007,103.145542 431.82859,102.753412 432.110374,102.364251 L432.941327,101.205676 C433.077419,101.014065 433.212311,100.823196 433.346004,100.633069 L434.133762,99.5012165 L434.133762,99.5012165 L434.892723,98.3871788 C435.016817,98.2029904 435.139711,98.0195443 435.261405,97.8368404 L435.977171,96.7495249 C436.21096,96.3900556 436.43995,96.0335554 436.664141,95.6800243 L437.322314,94.6283385 C438.287976,93.0641709 439.156449,91.5601283 439.927734,90.1162109 C444.126953,82.2548828 446.226562,74.9550781 446.226562,68.2167969 C446.226562,59.2324219 443.80957,51.8837891 438.975586,46.1708984 C434.141602,40.4580078 427.28125,37.6015625 418.394531,37.6015625 C408.53125,37.6015625 401.036133,40.9462891 395.90918,47.6357422 C390.886858,54.1886759 388.324449,62.8735337 388.221953,73.6903158 L388.21875,74.3691406 L346.617187,74.3691406 L346.324219,73.4902344 L346.309394,72.7877128 C345.991176,53.8552173 352.31936,37.8052115 365.293945,24.6376953 C378.428711,11.3076172 396.128906,4.64257812 418.394531,4.64257812 Z" id="Shape" fill="#000000" fill-rule="nonzero"></path>
    </g>
</svg>