<?xml version="1.0" encoding="UTF-8"?>
<svg width="500px" height="500px" viewBox="0 0 500 500" version="1.1" xmlns="http://www.w3.org/2000/svg" xmlns:xlink="http://www.w3.org/1999/xlink">
    <title>support</title>
    <g id="support" stroke="none" stroke-width="1" fill="none" fill-rule="evenodd">
        <path d="M50,210.009625 C50,99.5473595 139.549882,10 250,10 C360.45695,10 450,99.5496048 450,210.009625 L450,309.990375 L50,309.990375 L50,210.009625 Z M80,230.009625 L80,309.990375 L420,309.990375 L420,230.009625 C420,125.071552 354.933202,40 250,40 C145.070425,40 80,125.072512 80,230.009625 Z M293.620133,342.50625 C306.833801,337.800952 319.181586,330.972376 330.206617,322.315971 C341.548543,313.410752 351.356998,302.67479 359.194633,290.577018 C372.707303,269.71955 380,245.423262 380,220 C380,148.202983 321.797017,90 250,90 C178.202983,90 120,148.202983 120,220 C120,291.797017 178.202983,350 250,350 C265.06307,350 279.750945,347.444974 293.620133,342.50625 Z M250,380 C161.63444,380 90,308.36556 90,220 C90,131.63444 161.63444,60 250,60 C338.36556,60 410,131.63444 410,220 C410,252.029802 400.588382,281.861402 384.379788,306.880159 C374.723619,321.784927 362.655131,334.981567 348.727153,345.917248 C335.280404,356.475087 320.100441,364.925507 303.684747,370.771024 C286.903996,376.746536 268.831942,380 250,380 Z M275,439 L217.497355,439 C205.072409,439 195,449.070861 195,461.5 L195,461.5 C195,473.926407 205.071278,484 217.497355,484 L275,484 L275,439 Z M170,199.81982 C170,194.294267 171.921903,189.609629 175.765766,185.765766 C179.609629,181.921903 184.294267,180 189.81982,180 C195.345373,180 200.09007,181.921903 204.054054,185.765766 C208.018038,189.609629 210,194.294267 210,199.81982 C210,205.345373 208.018038,210.09007 204.054054,214.054054 C200.09007,218.018038 195.345373,220 189.81982,220 C184.294267,220 179.609629,218.018038 175.765766,214.054054 C171.921903,210.09007 170,205.345373 170,199.81982 Z M290,199.81982 C290,194.294267 291.921903,189.609629 295.765766,185.765766 C299.609629,181.921903 304.294267,180 309.81982,180 C315.345373,180 320.09007,181.921903 324.054054,185.765766 C328.018038,189.609629 330,194.294267 330,199.81982 C330,205.345373 328.018038,210.09007 324.054054,214.054054 C320.09007,218.018038 315.345373,220 309.81982,220 C304.294267,220 299.609629,218.018038 295.765766,214.054054 C291.921903,210.09007 290,205.345373 290,199.81982 Z M275,484 L275,309 L450,309 C450,405.649831 371.649831,484 275,484 Z M428.721583,329 L430,309 L275,309 L275,462.720001 L295,462.721583 C364.609478,453.75413 419.75413,398.609478 428.721583,329 Z M5,229.99615 C5,218.952581 13.9518764,210 25,210 L45,210 L45,310 L25,310 C13.954305,310 5,301.037662 5,290.00385 L5,229.99615 Z M495,229.99615 C495,218.952581 486.048124,210 475,210 L455,210 L455,310 L475,310 C486.045695,310 495,301.037662 495,290.00385 L495,229.99615 Z" id="Shape" fill="#000000" fill-rule="nonzero"></path>
    </g>
</svg>