<?xml version="1.0" encoding="UTF-8"?>
<svg width="500px" height="500px" viewBox="0 0 500 500" version="1.1" xmlns="http://www.w3.org/2000/svg" xmlns:xlink="http://www.w3.org/1999/xlink">
    <title>swap</title>
    <g id="swap" stroke="none" stroke-width="1" fill="none" fill-rule="evenodd">
        <path d="M121.672619,264.540585 C127.444338,270.312304 127.529216,279.617373 121.927254,285.493015 L121.672619,285.753788 L47.4264069,360 L121.672619,434.246212 C127.530483,440.104076 127.530483,449.601551 121.672619,455.459415 C115.9009,461.231135 106.59583,461.316013 100.720189,455.71405 L100.459415,455.459415 L5,360 L100.459415,264.540585 C106.31728,258.68272 115.814755,258.68272 121.672619,264.540585 Z M269.994949,345.208153 L269.994949,375.208153 L91.9949494,375.208153 L77,360.208153 L91.9949494,345.208153 L269.994949,345.208153 Z M230.253036,124.855726 L230.253,125.207706 L408,125.208153 L422.994949,140.208153 L408,155.208153 L230,155.208153 L230,154.865706 L229.55304,154.867169 C226.2842,154.907468 222.967281,155.352099 219.664612,156.237047 C198.325968,161.954719 185.662668,183.888197 191.380341,205.226841 C196.192384,223.185633 212.490171,234.99963 230.252608,234.883154 L230.252,234.999706 L270,235 L270,235.108706 L270.929303,235.111591 C301.581983,235.398587 329.528748,255.953791 337.849855,287.008587 C347.855782,324.351215 325.695008,362.734801 288.352381,372.740728 C282.219403,374.384055 276.058348,375.159741 269.999538,375.143798 L269.999508,345.13529 C273.494191,345.153818 277.049179,344.711127 280.587809,343.762953 C301.926453,338.045281 314.589753,316.111803 308.872081,294.773159 C304.060022,276.814313 287.762152,265.000298 269.999652,265.116847 L269.999,264.999706 L230,265 L230,264.889706 L229.323116,264.888409 C198.670437,264.601413 170.723673,244.046208 162.402566,212.991413 C152.396639,175.648785 174.557413,137.265199 211.90004,127.259272 C218.033069,125.615932 224.194177,124.840246 230.253036,124.855726 Z M399.606602,44.5405845 L495.066017,140 L399.606602,235.459415 C393.748737,241.31728 384.251263,241.31728 378.393398,235.459415 C372.535534,229.601551 372.535534,220.104076 378.393398,214.246212 L452.63961,140 L378.393398,65.753788 C372.535534,59.8959236 372.535534,50.3984489 378.393398,44.5405845 C384.251263,38.6827202 393.748737,38.6827202 399.606602,44.5405845 Z" id="Shape" fill="#000000"></path>
    </g>
</svg>