<?xml version="1.0" encoding="UTF-8"?>
<svg width="500px" height="500px" viewBox="0 0 500 500" version="1.1" xmlns="http://www.w3.org/2000/svg" xmlns:xlink="http://www.w3.org/1999/xlink">
    <title>swap-v</title>
    <g id="swap-v" stroke="none" stroke-width="1" fill="none" fill-rule="evenodd">
        <path d="M235.492424,121.63961 C229.720705,127.41133 220.415635,127.496208 214.539994,121.894245 L214.279221,121.63961 L140.033009,47.3933983 L65.7867966,121.63961 C59.9289322,127.497475 50.4314575,127.497475 44.5735931,121.63961 C38.8018738,115.867891 38.7169956,106.562822 44.3189585,100.68718 L44.5735931,100.426407 L140.033009,4.96699141 L235.492424,100.426407 C241.350288,106.284271 241.350288,115.781746 235.492424,121.63961 Z M154.824856,269.961941 L124.824856,269.961941 L124.824856,91.9619408 L139.824856,76.9669914 L154.824856,91.9619408 L154.824856,269.961941 Z M375.17751,230.220028 L374.825303,230.219991 L374.824856,407.966991 L359.824856,422.961941 L344.824856,407.966991 L344.824856,229.966991 L345.167303,229.966991 L345.16584,229.520031 C345.125541,226.251191 344.68091,222.934272 343.795962,219.631603 C338.07829,198.292959 316.144811,185.629659 294.806167,191.347332 C276.847376,196.159376 265.033378,212.457162 265.149855,230.219599 L265.033303,230.218991 L265.033009,269.966991 L264.924303,269.966991 L264.921417,270.896294 C264.634422,301.548974 244.079217,329.495739 213.024421,337.816847 C175.681794,347.822774 137.298207,325.661999 127.29228,288.319372 C125.648954,282.186395 124.873268,276.025339 124.88897,269.966529 L154.897718,269.966499 C154.87919,273.461182 155.321882,277.01617 156.270055,280.554801 C161.987728,301.893445 183.921206,314.556744 205.25985,308.839072 C223.218696,304.027014 235.03271,287.729143 234.916161,269.966643 L235.033303,269.965991 L235.033009,229.966991 L235.143303,229.966991 L235.1446,229.290108 C235.431596,198.637428 255.9868,170.690665 287.041596,162.369557 C324.384223,152.36363 362.76781,174.524405 372.773737,211.867032 C374.417077,218.000061 375.192763,224.161168 375.17751,230.220028 Z M455.492424,399.573593 L360.033009,495.033009 L264.573593,399.573593 C258.715729,393.715729 258.715729,384.218254 264.573593,378.36039 C270.431458,372.502525 279.928932,372.502525 285.786797,378.36039 L360.033009,452.606602 L434.279221,378.36039 C440.137085,372.502525 449.63456,372.502525 455.492424,378.36039 C461.350288,384.218254 461.350288,393.715729 455.492424,399.573593 Z" id="Shape" fill="#000000"></path>
    </g>
</svg>