<?xml version="1.0" encoding="UTF-8"?>
<svg width="500px" height="500px" viewBox="0 0 500 500" version="1.1" xmlns="http://www.w3.org/2000/svg" xmlns:xlink="http://www.w3.org/1999/xlink">
    <title>tab-landscape</title>
    <g id="tab-landscape" stroke="none" stroke-width="1" fill="none" fill-rule="evenodd">
        <path d="M74.9990362,400 L425.000964,400 C436.043267,400 445,391.045704 445,380.009625 L445,119.990375 C445,108.949385 436.048674,100 425.000964,100 L74.9990362,100 C63.9567335,100 55,108.954296 55,119.990375 L55,380.009625 C55,391.050615 63.9513259,400 74.9990362,400 Z M74.9990362,430 C47.385331,430 25,407.621705 25,380.009625 L25,119.990375 C25,92.3814531 47.3924916,70 74.9990362,70 L425.000964,70 C452.614669,70 475,92.3782945 475,119.990375 L475,380.009625 C475,407.618547 452.607508,430 425.000964,430 L74.9990362,430 Z M420,250 C420,238.954305 411.045695,230 400,230 C388.954305,230 380,238.954305 380,250 C380,261.045695 388.954305,270 400,270 C411.045695,270 420,261.045695 420,250 Z" fill="#000000" fill-rule="nonzero"></path>
    </g>
</svg>