<?xml version="1.0" encoding="UTF-8"?>
<svg width="500px" height="500px" viewBox="0 0 500 500" version="1.1" xmlns="http://www.w3.org/2000/svg" xmlns:xlink="http://www.w3.org/1999/xlink">
    <title>tab</title>
    <g id="tab" stroke="none" stroke-width="1" fill="none" fill-rule="evenodd">
        <path d="M100,74.9990362 L100,425.000964 C100,436.043267 108.954296,445 119.990375,445 L380.009625,445 C391.050615,445 400,436.048674 400,425.000964 L400,74.9990362 C400,63.9567335 391.045704,55 380.009625,55 L119.990375,55 C108.949385,55 100,63.9513259 100,74.9990362 Z M70,74.9990362 C70,47.385331 92.3782945,25 119.990375,25 L380.009625,25 C407.618547,25 430,47.3924916 430,74.9990362 L430,425.000964 C430,452.614669 407.621705,475 380.009625,475 L119.990375,475 C92.3814531,475 70,452.607508 70,425.000964 L70,74.9990362 Z M250,420 C261.045695,420 270,411.045695 270,400 C270,388.954305 261.045695,380 250,380 C238.954305,380 230,388.954305 230,400 C230,411.045695 238.954305,420 250,420 Z" fill="#000000" fill-rule="nonzero"></path>
    </g>
</svg>