<?xml version="1.0" encoding="UTF-8"?>
<svg width="500px" height="500px" viewBox="0 0 500 500" version="1.1" xmlns="http://www.w3.org/2000/svg" xmlns:xlink="http://www.w3.org/1999/xlink">
    <title>table</title>
    <g id="table" stroke="none" stroke-width="1" fill="none" fill-rule="evenodd">
        <path d="M495,375 C495,402.614237 472.614237,425 445,425 L55,425 C27.3857625,425 5,402.614237 5,375 L5,125 C5,97.3857625 27.3857625,75 55,75 L445,75 C472.614237,75 495,97.3857625 495,125 L495,375 Z M115,330 L35,330 L35,375 C35,385.930636 43.7687286,394.813225 54.6555106,394.997093 L55,395 L115,395 L115,330 Z M300,330 L130,330 L130,395 L300,395 L300,330 Z M465,330 L315,330 L315,395 L445,395 C455.930636,395 464.813225,386.231271 465,375.344489 L465,330 Z M115,250 L35,250 L35,315 L115,315 L115,250 Z M300,250 L130,250 L130,315 L300,315 L300,250 Z M465,250 L315,250 L315,315 L465,315 L465,250 Z M115,185 L35,185 L35,235 L115,235 L115,185 Z M300,185 L130,185 L130,235 L300,235 L300,185 Z M465,185 L315,185 L315,235 L465,235 L465,185 Z M115,105 L55,105 C44.0693643,105 35.186775,113.768729 35,124.655511 L35,155 L115,155 L115,105 Z M300,105 L130,105 L130,155 L300,155 L300,105 Z M445,105 L315,105 L315,155 L465,155 L465,125 C465,114.069364 456.231271,105.186775 445.344489,105.002907 L445,105 Z" id="Shape" fill="#000000" fill-rule="nonzero"></path>
    </g>
</svg>