<?xml version="1.0" encoding="UTF-8"?>
<svg width="500px" height="500px" viewBox="0 0 500 500" version="1.1" xmlns="http://www.w3.org/2000/svg" xmlns:xlink="http://www.w3.org/1999/xlink">
    <title>tag-filled</title>
    <g id="tag-filled" stroke="none" stroke-width="1" fill="none" fill-rule="evenodd">
        <path d="M324.346381,100 C337.601381,100 350.313982,105.263228 359.689833,114.632777 L480.853111,235.714619 C488.675642,243.513053 488.679899,256.176352 480.872039,263.989463 C480.868898,263.992606 480.865756,263.995748 480.853193,263.989463 L359.394674,385.367756 C350.018806,394.73743 337.306117,400.000738 324.051017,400.000738 L55,400.000738 C27.3857625,400.000738 5,377.614975 5,350.000738 L5,150 C5,122.385763 27.3857625,100 55,100 L324.346381,100 Z M330,200 C302.385763,200 280,222.385763 280,250 C280,277.614237 302.385763,300 330,300 C357.614237,300 380,277.614237 380,250 C380,222.661905 358.059714,200.448238 330.826841,200.006699 L330,200 Z" id="Shape" fill="#000000"></path>
    </g>
</svg>