<?xml version="1.0" encoding="UTF-8"?>
<svg width="500px" height="500px" viewBox="0 0 500 500" version="1.1" xmlns="http://www.w3.org/2000/svg" xmlns:xlink="http://www.w3.org/1999/xlink">
    <title>tag</title>
    <g id="tag" stroke="none" stroke-width="1" fill="none" fill-rule="evenodd">
        <path d="M324.346381,100 C337.601381,100 350.313982,105.263228 359.689833,114.632777 L473.779666,228.645929 C485.513463,240.343579 485.519849,259.338527 473.808059,271.058194 C473.803348,271.062909 473.798634,271.067622 473.779789,271.058194 L359.394674,385.367756 C350.018806,394.73743 337.306117,400.000738 324.051017,400.000738 L55,400.000738 C27.3857625,400.000738 5,377.614975 5,350.000738 L5,150 C5,122.385763 27.3857625,100 55,100 L324.346381,100 Z M324.346381,130 L55,130 C44.0693643,130 35.186775,138.768729 35,149.655511 L35,350.000738 C35,360.931374 43.7687286,369.813963 54.6555106,369.997831 L55,370.000738 L324.051017,370.000738 C329.205778,370.000738 334.155461,368.010753 337.872885,364.456055 L338.18848,364.147545 L452.558,249.852 L338.483762,135.853111 C334.837598,132.209397 329.929854,130.118228 324.787688,130.004863 L324.346381,130 Z M330,200 C357.614237,200 380,222.385763 380,250 C380,277.614237 357.614237,300 330,300 C302.385763,300 280,277.614237 280,250 C280,222.385763 302.385763,200 330,200 Z M330,230 C318.954305,230 310,238.954305 310,250 C310,261.045695 318.954305,270 330,270 C341.045695,270 350,261.045695 350,250 C350,238.954305 341.045695,230 330,230 Z" id="Shape" fill="#000000" fill-rule="nonzero"></path>
    </g>
</svg>