<?xml version="1.0" encoding="UTF-8"?>
<svg width="500px" height="500px" viewBox="0 0 500 500" version="1.1" xmlns="http://www.w3.org/2000/svg" xmlns:xlink="http://www.w3.org/1999/xlink">
    <title>tags</title>
    <g id="tags" stroke="none" stroke-width="1" fill="none" fill-rule="evenodd">
        <path d="M324.346381,100 C337.601381,100 350.313982,105.263228 359.689833,114.632777 L480.853111,235.714619 C488.675642,243.513053 488.679899,256.176352 480.872039,263.989463 C480.868898,263.992606 480.865756,263.995748 480.853193,263.989463 L359.394674,385.367756 C350.018806,394.73743 337.306117,400.000738 324.051017,400.000738 L105,400.000738 C77.3857625,400.000738 55,377.614975 55,350.000738 L55,150 C55,122.385763 77.3857625,100 105,100 L324.346381,100 Z M324.346381,130 L105,130 C94.0693643,130 85.186775,138.768729 85,149.655511 L85,350.000738 C85,360.931374 93.7687286,369.813963 104.655511,369.997831 L105,370.000738 L324.051017,370.000738 C329.205778,370.000738 334.155461,368.010753 337.872885,364.456055 L338.18848,364.147545 L452.559,249.851 L338.483762,135.853111 C334.837598,132.209397 329.929854,130.118228 324.787688,130.004863 L324.346381,130 Z M274.346381,40 C287.601381,40 300.313982,45.2632284 309.689833,54.6327774 L335.603586,80.5292653 C333.513237,80.2226407 331.395378,80.0473904 329.261733,80.0083688 L328.346381,80 L292.633,80 L288.483762,75.853111 C284.837598,72.2093975 279.929854,70.118228 274.787688,70.0048634 L274.346381,70 L55,70 C44.0693643,70 35.186775,78.7687286 35,89.6555106 L34.9990044,120.005799 C34.3984836,122.965992 34.0594764,126.021127 34.0071455,129.14604 L34,130 L34,330.000738 C34,331.869244 34.1024932,333.713812 34.3021641,335.529126 C17.0171191,327.658779 5,310.233133 5,290.000738 L5,90 C5,62.3857625 27.3857625,40 55,40 L274.346381,40 Z M330,200 C357.614237,200 380,222.385763 380,250 C380,277.614237 357.614237,300 330,300 C302.385763,300 280,277.614237 280,250 C280,222.385763 302.385763,200 330,200 Z M330,230 C318.954305,230 310,238.954305 310,250 C310,261.045695 318.954305,270 330,270 C341.045695,270 350,261.045695 350,250 C350,238.954305 341.045695,230 330,230 Z" id="Shape" fill="#000000" fill-rule="nonzero"></path>
    </g>
</svg>