<?xml version="1.0" encoding="UTF-8"?>
<svg width="500px" height="500px" viewBox="0 0 500 500" version="1.1" xmlns="http://www.w3.org/2000/svg" xmlns:xlink="http://www.w3.org/1999/xlink">
    <title>tags-filled</title>
    <g id="tags-filled" stroke="none" stroke-width="1" fill="none" fill-rule="evenodd">
        <path d="M324.346381,100 C337.601381,100 350.313982,105.263228 359.689833,114.632777 L480.853111,235.714619 C488.675642,243.513053 488.679899,256.176352 480.872039,263.989463 C480.868898,263.992606 480.865756,263.995748 480.853193,263.989463 L359.394674,385.367756 C350.018806,394.73743 337.306117,400.000738 324.051017,400.000738 L105,400.000738 C77.3857625,400.000738 55,377.614975 55,350.000738 L55,150 C55,122.385763 77.3857625,100 105,100 L324.346381,100 Z M274.346381,40 C287.601381,40 300.313982,45.2632284 309.689833,54.6327774 L335.603586,80.5292653 C333.513237,80.2226407 331.395378,80.0473904 329.261733,80.0083688 L328.346381,80 L292.633,80 L288.483762,75.853111 C284.837598,72.2093975 279.929854,70.118228 274.787688,70.0048634 L274.346381,70 L55,70 C44.0693643,70 35.186775,78.7687286 35,89.6555106 L34.9990044,120.005799 C34.3984836,122.965992 34.0594764,126.021127 34.0071455,129.14604 L34,130 L34,330.000738 C34,331.869244 34.1024932,333.713812 34.3021641,335.529126 C17.0171191,327.658779 5,310.233133 5,290.000738 L5,90 C5,62.3857625 27.3857625,40 55,40 L274.346381,40 Z M330,200 C302.385763,200 280,222.385763 280,250 C280,277.614237 302.385763,300 330,300 C357.614237,300 380,277.614237 380,250 C380,222.385763 357.614237,200 330,200 Z" id="Shape" fill="#000000" fill-rule="nonzero"></path>
    </g>
</svg>