<?xml version="1.0" encoding="UTF-8"?>
<svg width="500px" height="500px" viewBox="0 0 500 500" version="1.1" xmlns="http://www.w3.org/2000/svg" xmlns:xlink="http://www.w3.org/1999/xlink">
    <title>text-color</title>
    <g id="text-color" stroke="none" stroke-width="1" fill="none" fill-rule="evenodd">
        <path d="M495,395 L495,495 L5,495 L5,395 L495,395 Z M465,425 L35,425 L35,465 L465,465 L465,425 Z M286.542969,5 L393.964844,314.082031 L419.355469,317.744141 L419.355469,360.46875 L298.261719,360.46875 L298.261719,317.744141 L322.919922,313.349609 L307.294922,264.521484 L192.060547,264.521484 L176.435547,313.349609 L201.09375,317.744141 L201.09375,360.46875 L80,360.46875 L80,317.744141 L105.390625,314.082031 L213.544922,5 L286.542969,5 Z M250.410156,91.7871094 L248.945312,91.7871094 L208.90625,217.03125 L290.449219,217.03125 L250.410156,91.7871094 Z" id="Shape" fill="#000000" fill-rule="nonzero"></path>
    </g>
</svg>