<?xml version="1.0" encoding="UTF-8"?>
<svg width="500px" height="500px" viewBox="0 0 500 500" version="1.1" xmlns="http://www.w3.org/2000/svg" xmlns:xlink="http://www.w3.org/1999/xlink">
    <title>text-uppercase</title>
    <g id="text-uppercase" stroke="none" stroke-width="1" fill="none" fill-rule="evenodd">
        <path d="M90.765625,372.828125 L90.765625,342.920898 L73.5048828,339.844727 L84.4423828,305.665039 L165.106445,305.665039 L176.043945,339.844727 L158.783203,342.920898 L158.783203,372.828125 L243.548828,372.828125 L243.548828,342.920898 L225.775391,340.357422 L150.580078,124 L99.4814453,124 L23.7734375,340.357422 L6,342.920898 L6,372.828125 L90.765625,372.828125 Z M153.314453,268.921875 L96.234375,268.921875 L124.261719,181.250977 L125.287109,181.250977 L153.314453,268.921875 Z M342.157227,372.828125 L342.157227,342.920898 L324.896484,339.844727 L335.833984,305.665039 L416.498047,305.665039 L427.435547,339.844727 L410.174805,342.920898 L410.174805,372.828125 L494.94043,372.828125 L494.94043,342.920898 L477.166992,340.357422 L401.97168,124 L350.873047,124 L275.165039,340.357422 L257.391602,342.920898 L257.391602,372.828125 L342.157227,372.828125 Z M404.706055,268.921875 L347.625977,268.921875 L375.65332,181.250977 L376.678711,181.250977 L404.706055,268.921875 Z" id="AA" fill="#000000" fill-rule="nonzero"></path>
    </g>
</svg>