<?xml version="1.0" encoding="UTF-8"?>
<svg width="500px" height="500px" viewBox="0 0 500 500" version="1.1" xmlns="http://www.w3.org/2000/svg" xmlns:xlink="http://www.w3.org/1999/xlink">
    <title>text-color</title>
    <g id="text-color" stroke="none" stroke-width="1" fill="none" fill-rule="evenodd">
        <path d="M495,390 L495,490 L5,490 L5,390 L495,390 Z M465,420 L35,420 L35,460 L465,460 L465,420 Z M286.542969,10 L393.964844,319.082031 L419.355469,322.744141 L419.355469,365.46875 L298.261719,365.46875 L298.261719,322.744141 L322.919922,318.349609 L307.294922,269.521484 L192.060547,269.521484 L176.435547,318.349609 L201.09375,322.744141 L201.09375,365.46875 L80,365.46875 L80,322.744141 L105.390625,319.082031 L213.544922,10 L286.542969,10 Z M250.410156,91.7871094 L248.945312,91.7871094 L208.90625,217.03125 L290.449219,217.03125 L250.410156,91.7871094 Z" id="Shape" fill="#000000" fill-rule="nonzero"></path>
    </g>
</svg>