<?xml version="1.0" encoding="UTF-8"?>
<svg width="501px" height="500px" viewBox="0 0 501 500" version="1.1" xmlns="http://www.w3.org/2000/svg" xmlns:xlink="http://www.w3.org/1999/xlink">
    <title>text-capitalize</title>
    <g id="text-capitalize" stroke="none" stroke-width="1" fill="none" fill-rule="evenodd" transform="translate(0.000000, 0.000000)">
        <path d="M119.765625,372.828125 L119.765625,342.920898 L102.504883,339.844727 L113.442383,305.665039 L194.106445,305.665039 L205.043945,339.844727 L187.783203,342.920898 L187.783203,372.828125 L272.548828,372.828125 L272.548828,342.920898 L254.775391,340.357422 L179.580078,124 L128.481445,124 L52.7734375,340.357422 L35,342.920898 L35,372.828125 L119.765625,372.828125 Z M182.314453,268.921875 L125.234375,268.921875 L153.261719,181.250977 L154.287109,181.250977 L182.314453,268.921875 Z M351.162109,376.416992 C362.099609,376.416992 371.812337,374.309245 380.300293,370.09375 C388.788249,365.878255 395.994466,360.352539 401.918945,353.516602 C402.488607,356.820638 403.286133,360.096191 404.311523,363.343262 C405.336914,366.590332 406.533203,369.751953 407.900391,372.828125 L407.900391,372.828125 L465.493164,372.828125 L465.493164,342.920898 L450.283203,340.870117 C449.941406,338.591471 449.742025,336.198893 449.685059,333.692383 C449.628092,331.185872 449.599609,328.508464 449.599609,325.660156 L449.599609,325.660156 L449.599609,249.268555 C449.599609,228.532878 442.450358,212.553874 428.151855,201.331543 C413.853353,190.109212 395.253906,184.498047 372.353516,184.498047 C358.453776,184.498047 345.60791,186.605794 333.815918,190.821289 C322.023926,195.036784 311.570638,200.220703 302.456055,206.373047 L302.456055,206.373047 L302.285156,247.388672 L339.882812,247.388672 L343.129883,227.564453 C345.864258,225.741536 349.453125,224.174967 353.896484,222.864746 C358.339844,221.554525 363.409831,220.899414 369.106445,220.899414 C379.132487,220.899414 386.708984,223.348958 391.835938,228.248047 C396.962891,233.147135 399.526367,240.040039 399.526367,248.926758 L399.526367,248.926758 L399.526367,267.041992 L374.0625,267.041992 C347.174479,267.041992 326.780599,271.770182 312.880859,281.226562 C298.98112,290.682943 292.03125,304.069987 292.03125,321.387695 C292.03125,338.363607 297.357585,351.779134 308.010254,361.634277 C318.662923,371.489421 333.046875,376.416992 351.162109,376.416992 Z M364.663086,339.50293 C357.485352,339.50293 351.874186,337.736979 347.82959,334.205078 C343.784993,330.673177 341.762695,325.774089 341.762695,319.507812 C341.762695,312.557943 344.49707,306.60498 349.96582,301.648926 C355.43457,296.692871 363.466797,294.214844 374.0625,294.214844 L374.0625,294.214844 L399.526367,294.214844 L399.526367,322.413086 C396.108398,327.312174 391.323242,331.385254 385.170898,334.632324 C379.018555,337.879395 372.182617,339.50293 364.663086,339.50293 Z" id="Aa" fill="#000000" fill-rule="nonzero"></path>
    </g>
</svg>