<?xml version="1.0" encoding="UTF-8"?>
<svg width="500px" height="500px" viewBox="0 0 500 500" version="1.1" xmlns="http://www.w3.org/2000/svg" xmlns:xlink="http://www.w3.org/1999/xlink">
    <title>text-lowercase</title>
    <g id="text-lowercase" stroke="none" stroke-width="1" fill="none" fill-rule="evenodd">
        <path d="M126.130859,375.918945 C137.068359,375.918945 146.781087,373.811198 155.269043,369.595703 C163.756999,365.380208 170.963216,359.854492 176.887695,353.018555 C177.457357,356.322591 178.254883,359.598145 179.280273,362.845215 C180.305664,366.092285 181.501953,369.253906 182.869141,372.330078 L182.869141,372.330078 L240.461914,372.330078 L240.461914,342.422852 L225.251953,340.37207 C224.910156,338.093424 224.710775,335.700846 224.653809,333.194336 C224.596842,330.687826 224.568359,328.010417 224.568359,325.162109 L224.568359,325.162109 L224.568359,248.770508 C224.568359,228.034831 217.419108,212.055827 203.120605,200.833496 C188.822103,189.611165 170.222656,184 147.322266,184 C133.422526,184 120.57666,186.107747 108.784668,190.323242 C96.9926758,194.538737 86.539388,199.722656 77.4248047,205.875 L77.4248047,205.875 L77.2539062,246.890625 L114.851562,246.890625 L118.098633,227.066406 C120.833008,225.24349 124.421875,223.676921 128.865234,222.366699 C133.308594,221.056478 138.378581,220.401367 144.075195,220.401367 C154.101237,220.401367 161.677734,222.850911 166.804688,227.75 C171.931641,232.649089 174.495117,239.541992 174.495117,248.428711 L174.495117,248.428711 L174.495117,266.543945 L149.03125,266.543945 C122.143229,266.543945 101.749349,271.272135 87.8496094,280.728516 C73.9498698,290.184896 67,303.57194 67,320.889648 C67,337.86556 72.3263346,351.281087 82.9790039,361.13623 C93.6316732,370.991374 108.015625,375.918945 126.130859,375.918945 Z M139.631836,339.004883 C132.454102,339.004883 126.842936,337.238932 122.79834,333.707031 C118.753743,330.17513 116.731445,325.276042 116.731445,319.009766 C116.731445,312.059896 119.46582,306.106934 124.93457,301.150879 C130.40332,296.194824 138.435547,293.716797 149.03125,293.716797 L149.03125,293.716797 L174.495117,293.716797 L174.495117,321.915039 C171.077148,326.814128 166.291992,330.887207 160.139648,334.134277 C153.987305,337.381348 147.151367,339.004883 139.631836,339.004883 Z M318.391602,375.918945 C329.329102,375.918945 339.041829,373.811198 347.529785,369.595703 C356.017741,365.380208 363.223958,359.854492 369.148438,353.018555 C369.718099,356.322591 370.515625,359.598145 371.541016,362.845215 C372.566406,366.092285 373.762695,369.253906 375.129883,372.330078 L375.129883,372.330078 L432.722656,372.330078 L432.722656,342.422852 L417.512695,340.37207 C417.170898,338.093424 416.971517,335.700846 416.914551,333.194336 C416.857585,330.687826 416.829102,328.010417 416.829102,325.162109 L416.829102,325.162109 L416.829102,248.770508 C416.829102,228.034831 409.67985,212.055827 395.381348,200.833496 C381.082845,189.611165 362.483398,184 339.583008,184 C325.683268,184 312.837402,186.107747 301.04541,190.323242 C289.253418,194.538737 278.80013,199.722656 269.685547,205.875 L269.685547,205.875 L269.514648,246.890625 L307.112305,246.890625 L310.359375,227.066406 C313.09375,225.24349 316.682617,223.676921 321.125977,222.366699 C325.569336,221.056478 330.639323,220.401367 336.335938,220.401367 C346.361979,220.401367 353.938477,222.850911 359.06543,227.75 C364.192383,232.649089 366.755859,239.541992 366.755859,248.428711 L366.755859,248.428711 L366.755859,266.543945 L341.291992,266.543945 C314.403971,266.543945 294.010091,271.272135 280.110352,280.728516 C266.210612,290.184896 259.260742,303.57194 259.260742,320.889648 C259.260742,337.86556 264.587077,351.281087 275.239746,361.13623 C285.892415,370.991374 300.276367,375.918945 318.391602,375.918945 Z M331.892578,339.004883 C324.714844,339.004883 319.103678,337.238932 315.059082,333.707031 C311.014486,330.17513 308.992188,325.276042 308.992188,319.009766 C308.992188,312.059896 311.726562,306.106934 317.195312,301.150879 C322.664062,296.194824 330.696289,293.716797 341.291992,293.716797 L341.291992,293.716797 L366.755859,293.716797 L366.755859,321.915039 C363.337891,326.814128 358.552734,330.887207 352.400391,334.134277 C346.248047,337.381348 339.412109,339.004883 331.892578,339.004883 Z" id="aa" fill="#000000" fill-rule="nonzero"></path>
    </g>
</svg>