<?xml version="1.0" encoding="UTF-8"?>
<svg width="500px" height="500px" viewBox="0 0 500 500" version="1.1" xmlns="http://www.w3.org/2000/svg" xmlns:xlink="http://www.w3.org/1999/xlink">
    <title>thumbs-down-filled</title>
    <g id="thumbs-down-filled" stroke="none" stroke-width="1" fill="none" fill-rule="evenodd">
        <path d="M312.546631,145.301908 C319.361228,145.18177 328.097484,143.847006 338.060548,142.062082 C369.725,136.389082 413.773003,126.172059 447.911863,135.940631 C492.795277,148.783675 456.888546,436.472187 424.762418,464.943158 C417.742363,471.164505 412.570441,475.636901 398.041403,479.405266 C304.009881,499.015485 198.559564,485.395928 198.559564,485.395928 L148.689104,445.45818 L29,435.473743 L29,195.847254 L148.689104,181.869042 C148.689104,181.869042 182.593572,132.390549 194.517079,112.168715 C206.440585,91.9468804 197.871521,59.9707518 197.871521,59.9707518 C197.871521,59.9707518 191.033255,22.2474336 217.736821,12.6975261 C244.440387,3.14761855 273.223516,22.0229379 273.223516,22.0229379 C273.223516,22.0229379 300.832304,36.2187879 306.049554,93.5680374 C306.843106,102.290958 307.353955,109.560574 307.678885,115.616667 C309.490091,149.376511 305.524147,145.425711 312.546631,145.301908 Z" id="Shape" fill="#000000" fill-rule="nonzero" transform="translate(249.000000, 250.000000) scale(-1, -1) translate(-249.000000, -250.000000) "></path>
    </g>
</svg>