<?xml version="1.0" encoding="UTF-8"?>
<svg width="500px" height="500px" viewBox="0 0 500 500" version="1.1" xmlns="http://www.w3.org/2000/svg" xmlns:xlink="http://www.w3.org/1999/xlink">
    <title>thumbs-up</title>
    <g id="thumbs-up" stroke="none" stroke-width="1" fill="none" fill-rule="evenodd">
        <path d="M58.9222759,407.912716 L160.261035,416.366372 L210.475063,456.57926 C214.728566,457.005925 219.493985,457.430688 224.717989,457.832826 C270.728799,461.374692 320.195348,461.127126 366.042427,454.591268 C374.720269,453.354174 383.124562,451.902329 391.227074,450.229222 C397.929874,448.468416 398.974878,447.791742 404.928014,442.515925 C405.815117,440.032986 407.258233,436.778148 408.797481,432.660674 C412.180187,423.611961 415.69939,411.305735 419.087609,396.599766 C425.968707,366.733569 431.862301,328.97853 435.429989,291.723131 C439.154431,252.830837 440.099382,217.207417 437.929694,191.260244 C436.901522,178.964393 435.205107,169.363765 433.140111,163.244199 C424.2577,161.670497 413.533574,161.428014 400.915979,162.459417 C389.820516,163.366395 378.457216,165.072885 362.192612,168.058703 C359.369927,168.576885 349.959972,170.334361 349.367414,170.444209 C344.301315,171.383361 340.545092,172.05508 336.979738,172.647788 C327.475795,174.227733 320.131614,175.09723 313.466873,175.24281 C310.834901,175.470722 309.287198,175.524792 307.171222,175.37239 C302.523497,175.03764 297.828439,173.770536 293.104399,170.8644 C287.542276,167.442693 283.523151,162.582125 281.086238,157.104338 C279.632715,153.837052 278.920016,150.881951 278.540191,147.870097 C278.230078,145.411033 278.194776,143.726375 278.228188,140.668126 C278.234156,140.121901 278.264923,138.00617 278.264128,138.064409 C278.279118,136.96588 278.288194,136.039413 278.292147,135.057114 C278.302668,132.442394 278.273678,129.744713 278.189987,126.686427 C277.963684,118.416746 277.361754,108.498762 276.250589,96.2845734 C274.589213,78.0223326 270.336527,64.8429216 264.659081,55.7164003 C262.548028,52.3228731 260.517278,49.9465427 258.74616,48.3904016 C258.594029,48.2567363 256.991429,47.1866469 256.991429,47.1866469 C256.564257,46.9272907 256.13194,46.6768516 255.607417,46.3879725 C253.956327,45.4786407 252.033045,44.5397052 249.924998,43.6603763 C242.242489,40.4557732 234.908482,39.2162371 229.605911,40.388413 C229.169567,40.4848702 228.746965,40.5973249 228.336523,40.7260682 C228.134776,41.1881961 227.932636,41.7922753 227.749503,42.5241316 C226.939182,45.7624358 226.82923,50.0743454 227.23337,53.8737119 C227.355742,54.5729638 227.444673,54.9604315 227.537393,55.3752471 C228.000006,57.4449105 228.452569,59.7383528 228.87026,62.2271246 C230.828016,73.8922311 231.476653,85.9762922 229.93194,97.988337 C228.565856,108.61133 225.526083,118.506222 220.285431,127.394178 C215.934257,134.773611 208.97382,145.648102 199.945314,159.313517 C199.496263,159.993195 199.042971,160.678425 198.585576,161.369015 C193.062195,169.708399 187.156971,178.505057 181.25343,187.219733 C179.188429,190.268042 177.270399,193.089465 175.547806,195.615754 C174.943676,196.501748 174.406692,197.2882 173.942924,197.96656 C173.39287,198.770542 165.668929,210.042479 165.668929,210.042479 L58.9222759,222.509172 L58.9222759,407.912716 Z M312.546631,145.301908 C319.361228,145.18177 328.097484,143.847006 338.060548,142.062082 C369.725,136.389082 413.773003,126.172059 447.911863,135.940631 C492.795277,148.783675 456.888546,436.472187 424.762418,464.943158 C417.742363,471.164505 412.570441,475.636901 398.041403,479.405266 C304.009881,499.015485 198.559564,485.395928 198.559564,485.395928 L148.689104,445.45818 L29,435.473743 L29,195.847254 L148.689104,181.869042 C148.689104,181.869042 182.593572,132.390549 194.517079,112.168715 C206.440585,91.9468804 197.871521,59.9707518 197.871521,59.9707518 C197.871521,59.9707518 191.033255,22.2474336 217.736821,12.6975261 C244.440387,3.14761855 273.223516,22.0229379 273.223516,22.0229379 C273.223516,22.0229379 300.832304,36.2187879 306.049554,93.5680374 C306.843106,102.290958 307.353955,109.560574 307.678885,115.616667 C309.490091,149.376511 305.524147,145.425711 312.546631,145.301908 Z" id="Shape" fill="#000000" fill-rule="nonzero"></path>
    </g>
</svg>