<?xml version="1.0" encoding="UTF-8"?>
<svg width="500px" height="500px" viewBox="0 0 500 500" version="1.1" xmlns="http://www.w3.org/2000/svg" xmlns:xlink="http://www.w3.org/1999/xlink">
    <title>ticket</title>
    <g id="ticket" stroke="none" stroke-width="1" fill="none" fill-rule="evenodd">
        <path d="M414.797739,308.96162 C422.978888,317.142769 422.978888,330.407031 414.797739,338.58818 L292.58818,460.797739 C284.407031,468.978888 271.142769,468.978888 262.96162,460.797739 L11.1358614,208.971981 C2.95471285,200.790832 2.95471285,187.526569 11.1358614,179.345421 L27.8484989,162.632783 C31.3092663,159.172016 35.8725159,157.032188 40.7462779,156.584677 C71.6688287,153.745356 80.5772934,158.878506 97.0982317,142.357568 C113.576903,125.878897 108.225171,117.26077 110.669597,86.8766269 C111.068592,81.9171171 113.219757,77.2615254 116.73799,73.7432918 L133.345421,57.1358614 C141.526569,48.9547129 154.790832,48.9547129 162.971981,57.1358614 L414.797739,308.96162 Z M385.171179,323.7749 L220.37344,158.977161 L216.67012,162.680481 L205.56016,151.570521 L209.26348,147.867201 L148.158701,86.7624213 L141.643079,93.2780424 L141.380504,95.9196214 C138.128904,129.370513 140.454074,143.098342 119.980837,163.909359 L119.318152,164.577488 C98.2539666,185.641673 84.0992292,183.442299 49.1808451,187.298632 L47.4283972,187.492725 L40.7624213,194.158701 L101.867201,255.26348 L107.792513,249.338168 L118.902473,260.448128 L112.977161,266.37344 L277.7749,431.171179 L385.171179,323.7749 Z M134.456417,244.894184 L123.346457,256.004144 L112.236497,244.894184 L123.346457,233.784224 L134.456417,244.894184 Z M488.864139,308.96162 C497.045287,317.142769 497.045287,330.407031 488.864139,338.58818 L366.654579,460.797739 C358.473431,468.978888 345.209168,468.978888 337.028019,460.797739 L322.21474,445.984459 L344.434659,423.764539 L351.841299,431.171179 L459.237579,323.7749 L222.2251,86.7624213 L215.709479,93.2780424 L215.65319,93.8467362 C215.617522,94.1968474 215.581011,94.5463278 215.543657,94.8951761 L192.59854,71.9491414 L207.41182,57.1358614 C215.592969,48.9547129 228.857231,48.9547129 237.03838,57.1358614 L488.864139,308.96162 Z M150.010361,229.34024 L138.900401,240.4502 L127.790441,229.34024 L138.900401,218.23028 L150.010361,229.34024 Z M165.564305,213.786296 L154.454345,224.896256 L143.344385,213.786296 L154.454345,202.676337 L165.564305,213.786296 Z M181.118248,198.232353 L170.008288,209.342313 L158.898329,198.232353 L170.008288,187.122393 L181.118248,198.232353 Z M196.672192,182.678409 L185.562232,193.788369 L174.452272,182.678409 L185.562232,171.568449 L196.672192,182.678409 Z M212.226136,167.124465 L201.116176,178.234425 L190.006216,167.124465 L201.116176,156.014505 L212.226136,167.124465 Z" id="Shape" fill="#000000" fill-rule="nonzero"></path>
    </g>
</svg>