<?xml version="1.0" encoding="UTF-8"?>
<svg width="500px" height="500px" viewBox="0 0 500 500" version="1.1" xmlns="http://www.w3.org/2000/svg" xmlns:xlink="http://www.w3.org/1999/xlink">
    <title>trash</title>
    <g id="trash" stroke="none" stroke-width="1" fill="none" fill-rule="evenodd">
        <path d="M300,10 C313.807119,10 325,21.1928813 325,35 L325,60 L415,60 C434.329966,60 450,75.6700338 450,95 L450,115 C450,131.569719 438.485688,145.450126 423.021886,149.076397 L398.77295,444.095778 C396.640999,470.034517 374.967192,490 348.940986,490 L151.059014,490 C125.032808,490 103.359001,470.034517 101.22705,444.095778 L76.9791163,149.076632 C61.5148099,145.450725 50,131.570077 50,115 L50,95 C50,75.6700338 65.6700338,60 85,60 L175,60 L175,35 C175,21.1928813 186.192881,10 200,10 L300,10 Z M392.432,155 L107.567,155 L131.126228,441.638311 C131.969427,451.897228 140.454698,459.820233 150.708767,460 L348.940986,460 C359.234497,460 367.825951,452.192263 368.842074,441.987134 L368.873772,441.638311 L392.432,155 Z M250,207 C258.284271,207 265,213.715729 265,222 L265,392 C265,400.284271 258.284271,407 250,407 C241.715729,407 235,400.284271 235,392 L235,222 C235,213.715729 241.715729,207 250,207 Z M310,238 C318.284271,238 325,244.715729 325,253 L325,363 C325,371.284271 318.284271,378 310,378 C301.715729,378 295,371.284271 295,363 L295,253 C295,244.715729 301.715729,238 310,238 Z M190,238 C198.284271,238 205,244.715729 205,253 L205,363 C205,371.284271 198.284271,378 190,378 C181.715729,378 175,371.284271 175,363 L175,253 C175,244.715729 181.715729,238 190,238 Z M415,90 L85,90 C82.3112453,90 80.1181819,92.1223067 80.0046195,94.7831104 L80,95 L80,115 C80,117.688755 82.1223067,119.881818 84.7831104,119.99538 L85,120 L415,120 C417.688755,120 419.881818,117.877693 419.99538,115.21689 L420,115 L420,95 C420,92.3112453 417.877693,90.1181819 415.21689,90.0046195 L415,90 Z M280,40 L220,40 C211.820593,40 205.17027,46.5467864 205.003218,54.6861718 L205,55 L205,60 L295,60 L295,55 C295,46.7157288 288.284271,40 280,40 Z" id="Shape" fill="#000000" fill-rule="nonzero"></path>
    </g>
</svg>