<?xml version="1.0" encoding="UTF-8"?>
<svg width="500px" height="500px" viewBox="0 0 500 500" version="1.1" xmlns="http://www.w3.org/2000/svg" xmlns:xlink="http://www.w3.org/1999/xlink">
    <title>twitter</title>
    <g id="twitter" stroke="none" stroke-width="1" fill="none" fill-rule="evenodd">
        <path d="M483.894734,95.2985257 C476.197017,98.7127081 468.282753,101.594215 460.196199,103.933562 C469.770135,93.1061781 477.06953,80.3662198 481.525355,66.4249752 C482.524319,63.3000499 481.489,59.879545 478.92046,57.8357775 C476.355081,55.7904294 472.790738,55.5454302 469.966134,57.2193279 C452.792481,67.404972 434.264219,74.7249157 414.836573,79.0052888 C395.266669,59.8827063 368.686627,49 341.208782,49 C283.207198,49 236.018772,96.1868454 236.018772,154.186849 C236.018772,158.754898 236.308029,163.297658 236.880221,167.777191 C164.905779,161.457793 97.9925467,126.081489 52.0433424,69.7174482 C50.4057994,67.7084548 47.883098,66.6257164 45.3003322,66.8327803 C42.7159858,67.0351022 40.3940257,68.4924523 39.0884171,70.7322191 C29.7689638,86.7235538 24.8421089,105.013139 24.8421089,123.622014 C24.8421089,148.967576 33.8912728,173.015432 49.876285,191.80608 C45.015817,190.122699 40.2991873,188.018867 35.7975246,185.519875 C33.3807261,184.174751 30.4312519,184.195299 28.0302598,185.572036 C25.627687,186.948774 24.1213371,189.480959 24.0581115,192.24866 C24.047047,192.714948 24.047047,193.181237 24.047047,193.653849 C24.047047,231.486467 44.4088513,265.547678 75.5395557,284.112294 C72.8651129,283.845166 70.1922507,283.457909 67.5367755,282.950524 C64.799107,282.427332 61.9839872,283.38678 60.1377997,285.474806 C58.288451,287.561251 57.6767433,290.469628 58.5287082,293.125103 C70.0515737,329.100469 99.7186055,355.561963 135.583327,363.62955 C105.837263,382.260553 71.8203098,392.019424 36.1104914,392.019424 C28.6593545,392.019424 21.1655403,391.581587 13.8313708,390.713816 C10.1879957,390.28072 6.70426514,392.431971 5.46346275,395.896734 C4.22266036,399.363078 5.53775283,403.227743 8.63738783,405.214607 C54.512302,434.628736 107.556999,450.175911 162.033756,450.175911 C269.128438,450.175911 336.123863,399.674464 373.466483,357.30857 C420.032137,304.482002 446.73863,234.559231 446.73863,165.471038 C446.73863,162.584789 446.694372,159.670089 446.605856,156.764873 C464.977635,142.923208 480.795099,126.171586 493.66625,106.91781 C495.621502,103.993626 495.409696,100.128962 493.144639,97.4371316 C490.882743,94.7437211 487.112917,93.8727885 483.894734,95.2985257 Z" id="Shape" fill="#000000"></path>
    </g>
</svg>