<?xml version="1.0" encoding="UTF-8"?>
<svg width="500px" height="500px" viewBox="0 0 500 500" version="1.1" xmlns="http://www.w3.org/2000/svg" xmlns:xlink="http://www.w3.org/1999/xlink">
    <title>underline</title>
    <g id="underline" stroke="none" stroke-width="1" fill="none" fill-rule="evenodd">
        <path d="M475,435 L475,485 L25,485 L25,435 L475,435 Z M213.938477,15 L213.938477,62.265625 L172.043945,70.3222656 L172.043945,274.423828 L172.046204,275.22738 C172.189233,300.606273 179.126143,319.629601 192.856934,332.297363 C206.732259,345.09847 225.754883,351.499023 249.924805,351.499023 C274.452799,351.499023 293.699219,345.143229 307.664062,332.431641 C321.484939,319.851099 328.466619,300.78209 328.609102,275.224611 L328.611328,274.423828 L328.611328,70.3222656 L286.985352,62.265625 L286.985352,15 L448.923828,15 L448.923828,62.265625 L407.029297,70.3222656 L407.029297,274.423828 L407.02496,275.736738 C406.738707,318.963516 392.282959,352.36377 363.657715,375.9375 C334.743327,399.749349 296.832357,411.655273 249.924805,411.655273 C203.196289,411.655273 165.464355,399.749349 136.729004,375.9375 C108.281006,352.36377 93.9147668,318.963516 93.6302869,275.736738 L93.6259766,274.423828 L93.6259766,70.3222656 L52,62.265625 L52,15 L213.938477,15 Z" id="Shape" fill="#000000" fill-rule="nonzero"></path>
    </g>
</svg>