<?xml version="1.0" encoding="UTF-8"?>
<svg width="500px" height="500px" viewBox="0 0 500 500" version="1.1" xmlns="http://www.w3.org/2000/svg" xmlns:xlink="http://www.w3.org/1999/xlink">
    <title>undo</title>
    <g id="undo" stroke="none" stroke-width="1" fill="none" fill-rule="evenodd">
        <path d="M92.4213562,125.208153 L77.4264069,140.208153 L92.4213562,155.208153 L345.421356,155.208153 C411.032785,155.208153 464.345585,207.864839 465.40528,273.223733 L465.421356,275.208153 L465.421356,495 L495.421356,495 L495.421356,275.208153 C495.421356,192.36544 428.264069,125.208153 345.421356,125.208153 L92.4213562,125.208153 Z M135.814755,9.39339828 L5,140.208153 L135.814755,271.022907 C141.672619,276.880772 151.170094,276.880772 157.027958,271.022907 C162.885822,265.165043 162.885822,255.667568 157.027958,249.809704 L47.4264069,140.208153 L157.027958,30.6066017 C162.885822,24.7487373 162.885822,15.2512627 157.027958,9.39339828 C151.170094,3.53553391 141.672619,3.53553391 135.814755,9.39339828 Z" id="Shape" fill="#000000"></path>
    </g>
</svg>