<?xml version="1.0" encoding="UTF-8"?>
<svg width="500px" height="500px" viewBox="0 0 500 500" version="1.1" xmlns="http://www.w3.org/2000/svg" xmlns:xlink="http://www.w3.org/1999/xlink">
    <title>unlock</title>
    <g id="unlock" stroke="none" stroke-width="1" fill="none" fill-rule="evenodd">
        <path d="M410,275 L90,275 C84.5707601,275 80.1520683,279.326671 80.0038418,284.720095 L80,285 L80,455 C80,460.42924 84.3266708,464.847932 89.7200952,464.996158 L90,465 L410,465 C415.42924,465 419.847932,460.673329 419.996158,455.279905 L420,455 L420,285 C420,279.57076 415.673329,275.152068 410.279905,275.003842 L410,275 Z M250,340 C258.284271,340 265,346.715729 265,355 L265,400 C265,408.284271 258.284271,415 250,415 C241.715729,415 235,408.284271 235,400 L235,355 C235,346.715729 241.715729,340 250,340 Z M370,145 L370,105 C370,66.7266668 339.2836,35.6275333 301.157578,35.009378 L300,35 L200,35 C161.726667,35 130.627533,65.7164002 130.009378,103.842422 L130,105 L130,245 L160,245 L160,115 C160,87.3857625 182.385763,65 210,65 L290,65 C317.614237,65 340,87.3857625 340,115 L340,145 L310,145 L310,115 C310,104.069364 301.231271,95.186775 290.344489,95.0029071 L290,95 L210,95 C199.069364,95 190.186775,103.768729 190.002907,114.655511 L190,115 L190,245 L410,245 C432.09139,245 450,262.90861 450,285 L450,455 C450,477.09139 432.09139,495 410,495 L90,495 C67.90861,495 50,477.09139 50,455 L50,285 C50,262.90861 67.90861,245 90,245 L100,245 L100,105 C100,49.771525 144.771525,5 200,5 L300,5 C355.228475,5 400,49.771525 400,105 L400,175 L310,175 L310,145 L370,145 Z" id="Shape" fill="#000000" fill-rule="nonzero"></path>
    </g>
</svg>