<?xml version="1.0" encoding="UTF-8"?>
<svg width="500px" height="500px" viewBox="0 0 500 500" version="1.1" xmlns="http://www.w3.org/2000/svg" xmlns:xlink="http://www.w3.org/1999/xlink">
    <title>upload</title>
    <g id="upload" stroke="none" stroke-width="1" fill="none" fill-rule="evenodd">
        <path d="M35,285 L35,445 C35,455.930636 43.7687286,464.813225 54.6555106,464.997093 L55,465 L445,465 C455.930636,465 464.813225,456.231271 465,445.344489 L465,285 L495,285 L495,445 C495,472.614237 472.614237,495 445,495 L55,495 C27.3857625,495 5,472.614237 5,445 L5,285 L35,285 Z M228.640438,13.4388394 C240.264284,2.18590539 258.740672,2.18705364 270.36312,13.4422842 L270.713203,13.7867966 L376.779221,119.852814 L377.127178,120.206455 C388.380112,131.830301 388.378964,150.30669 377.123733,161.929137 L376.779221,162.279221 L376.42558,162.627178 C364.801733,173.880112 346.325345,173.878964 334.702897,162.623733 L334.352814,162.279221 L279.433983,107.361 L279.433983,400 L279.429964,400.496105 C279.16504,416.835828 265.83684,430 249.433983,430 C233.031126,430 219.702926,416.835828 219.438002,400.496105 L219.433983,400 L219.433983,107.493 L164.647186,162.279221 L164.293545,162.627178 C152.552286,173.993778 133.819351,173.877792 122.220779,162.279221 C110.622208,150.680649 110.506222,131.947714 121.872822,120.206455 L122.220779,119.852814 L228.286797,13.7867966 L228.640438,13.4388394 Z" id="Shape" fill="#000000" fill-rule="nonzero"></path>
    </g>
</svg>