<?xml version="1.0" encoding="UTF-8"?>
<svg width="500px" height="500px" viewBox="0 0 500 500" version="1.1" xmlns="http://www.w3.org/2000/svg" xmlns:xlink="http://www.w3.org/1999/xlink">
    <title>video-camera</title>
    <g id="video-camera" stroke="none" stroke-width="1" fill="none" fill-rule="evenodd">
        <path d="M5,250 C5,153.350169 72.1482816,75 154.994309,75 L354.997237,75 C382.613001,75 405,101.128016 405,133.335857 L405,366.664143 C405,398.882147 382.619143,425 354.997237,425 L105.001666,425 C49.7722711,425 5,372.766934 5,308.333459 L5,250 Z M35,250 L35,308.333459 C35,353.436702 66.3405857,390 105.001666,390 L354.997237,390 C366.04799,390 375,379.555227 375,366.664143 L375,133.335857 C375,120.453623 366.040722,110 354.997237,110 L154.994309,110 C88.719509,110 35,172.677002 35,250 Z M405,168.333333 L495,121.666667 L495,378.333333 L405,331.666667 L405,168.333333 Z M405,207.464523 L405,292.535477 L465,327.535477 L465,172.464523 L405,207.464523 Z" fill="#000000" fill-rule="nonzero"></path>
    </g>
</svg>