<?xml version="1.0" encoding="UTF-8"?>
<svg width="500px" height="500px" viewBox="0 0 500 500" version="1.1" xmlns="http://www.w3.org/2000/svg" xmlns:xlink="http://www.w3.org/1999/xlink">
    <title>video-camera-muted</title>
    <g id="video-camera-muted" stroke="none" stroke-width="1" fill="none" fill-rule="evenodd">
        <path d="M4.39402051,46.0194274 L46.8190205,46.0194274 L454.389021,453.589427 L411.963021,453.589427 L377.278707,418.904058 C370.570216,422.805506 363.00391,425 354.997237,425 L105.001666,425 C49.7722711,425 5,372.766934 5,308.333459 L5,250 C5,191.804732 29.3449033,140.244086 66.8029029,108.427269 L4.39402051,46.0194274 Z M35,250 L35,308.333459 C35,353.436702 66.3405857,390 105.001666,390 L348.374021,390 L90.3815436,132.006695 C57.0750568,156.88429 35,200.432892 35,250 Z M354.997237,75 C382.613001,75 405,101.128016 405,133.335857 L405,168.333333 L495,121.666667 L495,378.333333 L405,331.666667 L405,292.535477 L465,327.535477 L465,172.464523 L405,207.464523 L404.999,361.773 L374.999,331.774 L375,133.335857 C375,120.453623 366.040722,110 354.997237,110 L154.994309,110 L153.24,110.016 L122.376531,79.1489727 C132.877327,76.432475 143.792317,75 154.994309,75 L354.997237,75 Z" fill="#000000" fill-rule="nonzero"></path>
    </g>
</svg>