<?xml version="1.0" encoding="UTF-8"?>
<svg width="500px" height="500px" viewBox="0 0 500 500" version="1.1" xmlns="http://www.w3.org/2000/svg" xmlns:xlink="http://www.w3.org/1999/xlink">
    <title>view</title>
    <g id="view" stroke="none" stroke-width="1" fill="none" fill-rule="evenodd">
        <path d="M250,125 C335.11369,125 412.62459,162.094698 482.532702,236.284094 C489.791515,243.987449 489.791515,256.012551 482.532702,263.715906 C412.62459,337.905302 335.11369,375 250,375 C164.88631,375 87.3754097,337.905302 17.4672981,263.715906 C10.2084845,256.012551 10.2084845,243.987449 17.4672981,236.284094 C87.3754097,162.094698 164.88631,125 250,125 Z M289.397758,158.061016 L290.354428,158.476552 C325.483113,173.988083 350,209.130929 350,250 C350,291.239064 325.037195,326.647752 289.397758,341.939893 C347.628105,332.741536 401.933917,302.755011 452.933332,251.187936 L454.1,249.999 L452.933332,248.812064 C401.934486,197.245564 347.629316,167.259133 289.397758,158.061016 Z M210.603244,158.059677 L208.847963,158.344351 C151.280571,167.863435 97.553486,197.763291 47.0666679,248.812064 L45.899,249.999 L47.0666679,251.187936 C98.0658056,302.754731 152.371306,332.74121 210.603244,341.939142 C174.961869,326.646425 150,291.238291 150,250 C150,208.76055 174.963272,173.351585 210.603244,158.059677 Z M275,250 C261.192881,250 250,261.192881 250,275 C250,288.807119 261.192881,300 275,300 C288.807119,300 300,288.807119 300,275 C300,261.192881 288.807119,250 275,250 Z" id="Shape" fill="#000000" fill-rule="nonzero"></path>
    </g>
</svg>