<?xml version="1.0" encoding="UTF-8"?>
<svg width="500px" height="500px" viewBox="0 0 500 500" version="1.1" xmlns="http://www.w3.org/2000/svg" xmlns:xlink="http://www.w3.org/1999/xlink">
    <title>vimeo</title>
    <g id="vimeo" stroke="none" stroke-width="1" fill="none" fill-rule="evenodd">
        <path d="M492.914536,117.638297 C496.569939,97.1219846 496.488272,76.0258382 483.816864,60.0714283 C466.137653,37.7012811 428.507263,36.8780806 402.728347,40.8258497 C381.756334,44.032085 310.822257,75.3284044 286.684842,150.252718 C329.448801,147.002382 351.861415,153.33482 347.747046,200.417315 C346.023878,220.116961 336.071972,241.698208 324.966932,262.387654 C312.133824,286.239235 288.081342,333.073464 256.540023,299.314077 C228.129805,268.930791 230.26294,210.821655 223.767169,172.124698 C220.149334,150.414418 216.324065,123.358234 209.210893,101.027287 C203.08099,81.8241751 189.024514,58.6716608 171.83367,53.6540577 C153.370459,48.228121 130.542978,56.6969595 117.138203,64.5941311 C74.4526431,89.6772467 41.9215229,125.368869 5,154.812987 L5,154.812987 C11.0106704,167.690195 14.2887724,176.033267 25.0622458,177.596368 C50.4785616,181.33997 74.7009099,153.909753 91.5977538,182.449004 C101.87796,199.884848 105.089095,219.00466 111.666533,237.804339 C120.465305,262.840088 127.250176,290.103704 134.446647,318.892856 C146.618255,367.659319 161.589397,440.527265 203.739223,458.376342 C225.243703,467.508315 257.569023,455.290974 273.935034,445.585701 C318.263728,419.352718 352.807116,381.317261 382.373734,342.620304 C449.97581,251.037614 487.274633,147.288216 492.914536,117.638297 Z" id="XMLID_3_" fill="#000000" fill-rule="nonzero"></path>
    </g>
</svg>