<?xml version="1.0" encoding="UTF-8"?>
<svg width="500px" height="500px" viewBox="0 0 500 500" version="1.1" xmlns="http://www.w3.org/2000/svg" xmlns:xlink="http://www.w3.org/1999/xlink">
    <title>volume-muted</title>
    <g id="volume-muted" stroke="none" stroke-width="1" fill="none" fill-rule="evenodd">
        <path d="M10,50 L50,50 L460,450 L420,450 L300,332.926772 L300,456.946153 C300,467.991848 291.045695,476.946153 280,476.946153 C276.767551,476.946153 273.583266,476.162663 270.71986,474.662784 L111.43972,391.23033 C98.2590768,384.326183 90,370.67647 90,355.797068 L90,144.202932 C90,139.425503 90.8514301,134.774843 92.4438193,130.433527 L10,50 Z M120,157.316772 L120,355.797068 C120,359.41359 121.951653,362.73953 125.088199,364.507673 L125.35993,364.655384 L270,440.419 L270,303.658772 L120,157.316772 Z M80,150 L80,350 L60,350 C37.90861,350 20,332.09139 20,310 L20,190 C20,167.90861 37.90861,150 60,150 L80,150 Z M297.716631,33.7737069 C299.21651,36.6371124 300,39.8213976 300,43.0538468 L300,264.633772 L270,235.365772 L270,59.58 L152.763,120.988772 L130.177,98.9537718 L270.71986,25.3372161 C280.504485,20.2119364 292.591351,23.989082 297.716631,33.7737069 Z" id="Shape" fill="#000000" fill-rule="nonzero"></path>
    </g>
</svg>