<?xml version="1.0" encoding="UTF-8"?>
<svg width="500px" height="500px" viewBox="0 0 500 500" version="1.1" xmlns="http://www.w3.org/2000/svg" xmlns:xlink="http://www.w3.org/1999/xlink">
    <title>volume-50</title>
    <g id="volume-50" stroke="none" stroke-width="1" fill="none" fill-rule="evenodd">
        <path d="M297.716631,33.7737069 C299.21651,36.6371124 300,39.8213976 300,43.0538468 L300,456.946153 C300,467.991848 291.045695,476.946153 280,476.946153 C276.767551,476.946153 273.583266,476.162663 270.71986,474.662784 L111.43972,391.23033 C98.2590768,384.326183 90,370.67647 90,355.797068 L90,144.202932 C90,129.32353 98.2590768,115.673817 111.43972,108.76967 L270.71986,25.3372161 C280.504485,20.2119364 292.591351,23.989082 297.716631,33.7737069 Z M270,59.5797718 L125.35993,135.344616 L125.080295,135.496788 C122.130126,137.163385 120.230122,140.208958 120.019535,143.577017 L120.004762,143.893685 L120,144.202932 L120,355.797068 L120.005045,356.115387 C120.112471,359.502052 121.92872,362.598303 124.81454,364.34765 L125.088199,364.507673 L125.35993,364.655384 L270,440.418772 L270,59.5797718 Z M80,150 L80,350 L60,350 C37.90861,350 20,332.09139 20,310 L20,190 C20,167.90861 37.90861,150 60,150 L80,150 Z M389.683229,160.323068 C412.924938,183.418293 427.314366,215.411495 427.314366,250.765528 C427.314366,285.81821 413.169199,317.567111 390.27562,340.615474 L369.062191,319.40218 C386.52695,301.782882 397.314366,277.533973 397.314366,250.765528 C397.314366,223.695662 386.282642,199.202392 368.469679,181.536206 L389.683229,160.323068 Z M345.988548,204.017608 C357.920224,215.802181 365.314366,232.170357 365.314366,250.265528 C365.314366,268.313238 357.95896,284.643002 346.082339,296.420627 L324.867868,275.207982 C331.316256,268.859528 335.314366,260.029432 335.314366,250.265528 C335.314366,240.454687 331.277724,231.586654 324.774703,225.231692 L345.988548,204.017608 Z" id="Shape" fill="#000000" fill-rule="nonzero"></path>
    </g>
</svg>