<?xml version="1.0" encoding="UTF-8"?>
<svg width="500px" height="500px" viewBox="0 0 500 500" version="1.1" xmlns="http://www.w3.org/2000/svg" xmlns:xlink="http://www.w3.org/1999/xlink">
    <title>volume</title>
    <g id="volume" stroke="none" stroke-width="1" fill="none" fill-rule="evenodd">
        <path d="M277.679965,38.6246892 C278.903043,37.9840292 280.270011,37.8997708 281.491375,38.281447 C282.712739,38.6631231 283.788498,39.5107337 284.429158,40.7338119 C284.804127,41.4496632 285,42.2457345 285,43.0538468 L285,43.0538468 L285,456.946153 C285,458.326865 284.440356,459.576865 283.535534,460.481687 C282.630712,461.386509 281.380712,461.946153 280,461.946153 C279.191888,461.946153 278.395816,461.750281 277.679965,461.375311 L277.679965,461.375311 L118.399825,377.942857 C114.280874,375.785311 110.930918,372.57377 108.610699,368.739163 C106.290481,364.904556 105,360.446881 105,355.797068 L105,355.797068 L105,144.202932 C105,139.553119 106.290481,135.095444 108.610699,131.260837 C110.930918,127.42623 114.280874,124.214689 118.399825,122.057143 L118.399825,122.057143 Z M65,165 L65,335 L60,335 C53.0964406,335 46.8464406,332.20178 42.3223305,327.67767 C37.7982203,323.153559 35,316.903559 35,310 L35,310 L35,190 C35,183.096441 37.7982203,176.846441 42.3223305,172.32233 C46.8464406,167.79822 53.0964406,165 60,165 L60,165 L65,165 Z" id="Shape" stroke="#000000" stroke-width="30"></path>
    </g>
</svg>