<?xml version="1.0" encoding="UTF-8"?>
<svg width="500px" height="500px" viewBox="0 0 500 500" version="1.1" xmlns="http://www.w3.org/2000/svg" xmlns:xlink="http://www.w3.org/1999/xlink">
    <title>volume-muted</title>
    <g id="volume-muted" stroke="none" stroke-width="1" fill="none" fill-rule="evenodd">
        <path d="M297.716631,33.7737069 C299.21651,36.6371124 300,39.8213976 300,43.0538468 L300,456.946153 C300,467.991848 291.045695,476.946153 280,476.946153 C276.767551,476.946153 273.583266,476.162663 270.71986,474.662784 L111.43972,391.23033 C98.2590768,384.326183 90,370.67647 90,355.797068 L90,144.202932 C90,129.32353 98.2590768,115.673817 111.43972,108.76967 L270.71986,25.3372161 C280.504485,20.2119364 292.591351,23.989082 297.716631,33.7737069 Z M270,59.58 L125.35993,135.344616 C122.156301,137.022708 120.115659,140.294803 120.004762,143.893685 L120,144.202932 L120,355.797068 C120,359.41359 121.951653,362.73953 125.088199,364.507673 L125.35993,364.655384 L270,440.419 L270,59.58 Z M80,150 L80,350 L60,350 C37.90861,350 20,332.09139 20,310 L20,190 C20,167.90861 37.90861,150 60,150 L80,150 Z M453.033009,196.966991 C458.890873,202.824856 458.890873,212.32233 453.033009,218.180195 L421.213,249.999772 L453.033009,281.819805 C458.890873,287.67767 458.890873,297.175144 453.033009,303.033009 C447.175144,308.890873 437.67767,308.890873 431.819805,303.033009 L400,271.213772 L368.180195,303.033009 C362.32233,308.890873 352.824856,308.890873 346.966991,303.033009 C341.109127,297.175144 341.109127,287.67767 346.966991,281.819805 L378.786,249.999772 L346.966991,218.180195 C341.109127,212.32233 341.109127,202.824856 346.966991,196.966991 C352.824856,191.109127 362.32233,191.109127 368.180195,196.966991 L400,228.786772 L431.819805,196.966991 C437.67767,191.109127 447.175144,191.109127 453.033009,196.966991 Z" id="Shape" fill="#000000" fill-rule="nonzero"></path>
    </g>
</svg>