<?xml version="1.0" encoding="UTF-8"?>
<svg width="500px" height="500px" viewBox="0 0 500 500" version="1.1" xmlns="http://www.w3.org/2000/svg" xmlns:xlink="http://www.w3.org/1999/xlink">
    <title>website</title>
    <g id="website" stroke="none" stroke-width="1" fill="none" fill-rule="evenodd">
        <path d="M445,70 C472.614237,70 495,92.3857625 495,120 L495,380 C495,407.614237 472.614237,430 445,430 L55,430 C27.3857625,430 5,407.614237 5,380 L5,120 C5,92.3857625 27.3857625,70 55,70 L445,70 Z M445.344489,100 L55,100 C44.0693643,100 35.186775,108.768729 35,119.655511 L35,380 C35,390.930636 43.7687286,399.813225 54.6555106,400 L445,400 C455.930636,400 464.813225,391.231271 465,380.344489 L465,120 C465,109.069364 456.231271,100.186775 445.344489,100 Z M369.815685,263 L388.669659,327.232902 L389.224188,327.232902 L398.558754,281.391867 L387.837866,279.266174 L387.837866,263 L433.124373,263 L433.124373,279.266174 L423.050436,280.560074 L402.16319,363 L379.612358,363 L361.035648,303.480591 L360.48112,303.480591 L341.90441,363 L319.445999,363 L312.163021,334.383913 L322.700333,292.796588 L325.349015,292.455886 L332.477423,327.048059 L333.031951,327.048059 L351.701083,263 L369.815685,263 Z M258.619488,263 L277.473462,327.232902 L278.02799,327.232902 L287.362556,281.391867 L276.641669,279.266174 L276.641669,263 L321.928175,263 L321.928175,279.266174 L311.854238,280.560074 L290.966992,363 L268.416161,363 L249.839451,303.480591 L249.284922,303.480591 L230.708212,363 L208.249802,363 L200.968175,334.385265 L211.504262,292.796588 L214.152818,292.455886 L221.281225,327.048059 L221.835754,327.048059 L240.504885,263 L258.619488,263 Z M111.286506,263 L111.286506,279.266174 L100.658041,281.299445 L110.085028,327.048059 L110.639556,327.048059 L129.308688,263 L147.42329,263 L166.277264,327.232902 L166.831793,327.232902 L176.166359,281.391867 L165.445471,279.266174 L165.445471,263 L210.731978,263 L210.731978,279.266174 L200.658041,280.560074 L179.770795,363 L157.219963,363 L138.643253,303.480591 L138.088725,303.480591 L119.512015,363 L97.0536044,363 L76.0739372,280.560074 L66,279.266174 L66,263 L111.286506,263 Z M156,195 C161.522847,195 166,199.477153 166,205 C166,210.522847 161.522847,215 156,215 L76,215 C70.4771525,215 66,210.522847 66,205 C66,199.477153 70.4771525,195 76,195 L156,195 Z M206,160 C211.522847,160 216,164.477153 216,170 C216,175.522847 211.522847,180 206,180 L76,180 C70.4771525,180 66,175.522847 66,170 C66,164.477153 70.4771525,160 76,160 L206,160 Z M206,125 C211.522847,125 216,129.477153 216,135 C216,140.522847 211.522847,145 206,145 L76,145 C70.4771525,145 66,140.522847 66,135 C66,129.477153 70.4771525,125 76,125 L206,125 Z" id="Combined-Shape" fill="#000000" fill-rule="nonzero"></path>
    </g>
</svg>