<?xml version="1.0" encoding="UTF-8"?>
<svg width="500px" height="500px" viewBox="0 0 500 500" version="1.1" xmlns="http://www.w3.org/2000/svg" xmlns:xlink="http://www.w3.org/1999/xlink">
    <title>website</title>
    <g id="website" stroke="none" stroke-width="1" fill="none" fill-rule="evenodd">
        <path d="M5,409 C5,400.715729 11.7171807,394 19.9995093,394 L480.000491,394 C488.284491,394 495,400.713907 495,409 L495,409 C495,417.284271 488.282819,424 480.000491,424 L19.9995093,424 C11.715509,424 5,417.286093 5,409 L5,409 Z" id="laptop" fill="#000000" fill-rule="nonzero"></path>
        <path d="M123.580078,286.964844 L137.320312,242.941406 L137.730469,242.941406 L151.470703,286.964844 L168.150391,286.964844 L183.599609,225.988281 L191.050781,225.03125 L191.050781,213 L157.554688,213 L157.554688,225.03125 L165.484375,226.603516 L158.580078,260.509766 L158.169922,260.509766 L144.224609,213 L130.826172,213 L117.017578,260.373047 L116.607422,260.373047 L109.634766,226.535156 L117.496094,225.03125 L117.496094,213 L84,213 L84,225.03125 L91.4511719,225.988281 L106.96875,286.964844 L123.580078,286.964844 Z M235.826172,286.964844 L249.566406,242.941406 L249.976562,242.941406 L263.716797,286.964844 L280.396484,286.964844 L295.845703,225.988281 L303.296875,225.03125 L303.296875,213 L269.800781,213 L269.800781,225.03125 L277.730469,226.603516 L270.826172,260.509766 L270.416016,260.509766 L256.470703,213 L243.072266,213 L229.263672,260.373047 L228.853516,260.373047 L221.880859,226.535156 L229.742188,225.03125 L229.742188,213 L196.246094,213 L196.246094,225.03125 L203.697266,225.988281 L219.214844,286.964844 L235.826172,286.964844 Z M348.072266,286.964844 L361.8125,242.941406 L362.222656,242.941406 L375.962891,286.964844 L392.642578,286.964844 L408.091797,225.988281 L415.542969,225.03125 L415.542969,213 L382.046875,213 L382.046875,225.03125 L389.976562,226.603516 L383.072266,260.509766 L382.662109,260.509766 L368.716797,213 L355.318359,213 L341.509766,260.373047 L341.099609,260.373047 L334.126953,226.535156 L341.988281,225.03125 L341.988281,213 L308.492188,213 L308.492188,225.03125 L315.943359,225.988281 L331.460938,286.964844 L348.072266,286.964844 Z" id="www" fill="#000000" fill-rule="nonzero"></path>
        <path d="M410.006667,100 C437.617223,100 460,122.395442 460,150.002163 L460,329.997837 C460,357.613269 437.611959,380 410.006667,380 L89.9933326,380 C62.3827774,380 40,357.604558 40,329.997837 L40,150.002163 C40,122.386731 62.3880408,100 89.9933326,100 L410.006667,100 Z M89.9933326,130 C78.9554632,130 70,138.956394 70,150.002163 L70,329.997837 C70,341.041018 78.9563222,350 89.9933326,350 L410.006667,350 C421.044537,350 430,341.043606 430,329.997837 L430,150.002163 C430,138.958982 421.043678,130 410.006667,130 L89.9933326,130 Z" id="Combined-Shape" fill="#000000" fill-rule="nonzero"></path>
    </g>
</svg>