<?xml version="1.0" encoding="UTF-8"?>
<svg width="500px" height="500px" viewBox="0 0 500 500" version="1.1" xmlns="http://www.w3.org/2000/svg" xmlns:xlink="http://www.w3.org/1999/xlink">
    <title>whatsapp</title>
    <defs>
        <path d="M495,243.696645 C495,375.515864 387.307692,482.377311 254.433919,482.377311 C212.267747,482.377311 172.658069,471.592102 138.177357,452.706003 L5,495 L48.4124629,366.903675 C26.5224835,330.952979 13.9157727,288.738872 13.9157727,243.680667 C13.9317507,111.861447 121.592102,5 254.465875,5 C387.32367,5.03195617 495,111.877425 495,243.696645 Z M254.417941,43.0598037 C142.906871,43.0598037 52.1992696,133.080347 52.1992696,243.744579 C52.1992696,287.652362 66.5156357,328.300616 90.7224378,361.375257 L65.47706,435.881077 L143.16252,411.194933 C175.118694,432.158183 213.354257,444.365442 254.417941,444.365442 C365.929012,444.365442 456.668577,354.360877 456.668577,243.696645 C456.700525,133.080347 365.94499,43.0598037 254.417941,43.0598037 Z M375.915316,298.677243 C374.413376,296.264551 370.482766,294.794567 364.60283,291.854599 C358.738872,288.914631 329.706688,274.774024 324.322073,272.856654 C318.889523,270.891349 314.958913,269.900708 311.028304,275.764666 C307.145629,281.628624 295.833143,294.794567 292.365898,298.725177 C288.930609,302.639808 285.495321,303.135129 279.599407,300.243095 C273.703492,297.271171 254.689569,291.135585 232.160466,271.210911 C214.632504,255.68021 202.792741,236.55444 199.373431,230.690482 C195.906186,224.842502 199.021913,221.67884 201.945903,218.770829 C204.582287,216.134444 207.841817,211.932207 210.797763,208.496919 C213.753709,205.093586 214.728373,202.680895 216.693677,198.766263 C218.627026,194.851632 217.652362,191.448299 216.198357,188.492353 C214.728373,185.552385 202.952522,156.791828 198.015293,145.07989 C193.110021,133.383931 188.204748,135.317279 184.753481,135.317279 C181.318192,135.317279 177.387583,134.837937 173.456973,134.837937 C169.526364,134.837937 163.135129,136.259986 157.750514,142.123944 C152.365898,147.987902 137.122803,162.128509 137.122803,190.921023 C137.122803,219.745492 158.229856,247.531386 161.185802,251.430039 C164.157727,255.312714 201.993837,316.333029 261.927642,339.756905 C321.893403,363.164803 321.893403,355.351518 332.69459,354.360877 C343.527733,353.370235 367.590733,340.220269 372.480027,326.574983 C377.401278,312.865784 377.401278,301.12189 375.915316,298.677243 Z" id="path-1"></path>
    </defs>
    <g id="whatsapp" stroke="none" stroke-width="1" fill="none" fill-rule="evenodd">
        <mask id="mask-2" fill="white">
            <use xlink:href="#path-1"></use>
        </mask>
        <use id="Shape" fill="#000000" xlink:href="#path-1"></use>
    </g>
</svg>