<?xml version="1.0" encoding="UTF-8"?>
<svg width="500px" height="500px" viewBox="0 0 500 500" version="1.1" xmlns="http://www.w3.org/2000/svg" xmlns:xlink="http://www.w3.org/1999/xlink">
    <title>www</title>
    <g id="www" stroke="none" stroke-width="1" fill="none" fill-rule="evenodd">
        <path d="M265.00078,350 L265.000831,463.191185 C302.877418,454.056051 337.307873,411.016686 355.789686,350.002558 L386.976756,350 C376.671161,387.602513 360.732449,420.185899 340.913927,444.887785 C383.53057,424.974019 418.537049,391.493079 440.376841,350.001748 L473.727771,350.003438 C435.470884,435.461299 349.688446,495 250,495 C150.311554,495 64.5291162,435.461299 26.2722287,350.003438 L59.6231344,350.00182 C81.4628921,391.493252 116.469289,424.974431 159.085738,444.88877 C139.267401,420.18634 123.328772,387.602711 113.023214,350.00145 L144.210393,350.002819 C162.692388,411.017347 197.123243,454.056822 235.00017,463.191427 L234.99978,350 L265.00078,350 Z M403.950946,190 L428.088182,267.079482 L428.798101,267.079482 L440.7484,212.07024 L427.023304,209.519409 L427.023304,190 L485,190 L485,209.519409 L472.103143,211.072089 L445.362871,310 L416.492843,310 L392.710566,238.57671 L392.000647,238.57671 L368.21837,310 L339.466662,310 L330.142846,275.660696 L343.632925,225.755906 L347.023821,225.347063 L356.149752,266.857671 L356.859671,266.857671 L380.760268,190 L403.950946,190 Z M261.595339,190 L285.732576,267.079482 L286.442494,267.079482 L298.392793,212.07024 L284.667698,209.519409 L284.667698,190 L342.644393,190 L342.644393,209.519409 L329.747537,211.072089 L303.007265,310 L274.137237,310 L250.354959,238.57671 L249.645041,238.57671 L225.862763,310 L197.111055,310 L187.78897,275.662318 L201.27748,225.755906 L204.668214,225.347063 L213.794145,266.857671 L214.504064,266.857671 L238.404661,190 L261.595339,190 Z M72.9766957,190 L72.9766957,209.519409 L59.3699202,211.959335 L71.4385384,266.857671 L72.1484572,266.857671 L96.0490542,190 L119.239732,190 L143.376969,267.079482 L144.086888,267.079482 L156.037186,212.07024 L142.312091,209.519409 L142.312091,190 L200.288787,190 L200.288787,209.519409 L187.39193,211.072089 L160.651658,310 L131.78163,310 L107.999353,238.57671 L107.289434,238.57671 L83.5071567,310 L54.7554485,310 L27.8968568,211.072089 L15,209.519409 L15,190 L72.9766957,190 Z M250,5 C349.688836,5 435.471554,64.5391661 473.72822,149.997563 L440.377391,150 C418.537669,108.507285 383.531053,75.0257285 340.914262,55.1112296 L342.267643,56.8194424 C361.458756,81.3073995 376.907146,113.25806 386.977032,150 L355.789989,149.99844 C337.308248,88.9837828 302.877624,45.9439989 265.000831,36.8088148 L265.00078,150 L234.99978,150 L235.00017,36.8085734 C197.123036,45.9432277 162.692013,88.9831228 144.21009,149.998179 L113.022971,150 C123.328557,112.398064 139.267376,79.8143199 159.086073,55.1122151 L157.164783,56.0205266 C115.417006,76.0364561 81.1330843,109.132598 59.6224061,150 L26.2717804,149.997563 C64.528446,64.5391661 150.311164,5 250,5 Z" id="Shape" fill="#000000" fill-rule="nonzero"></path>
    </g>
</svg>