<?xml version="1.0" encoding="UTF-8"?>
<svg width="500px" height="500px" viewBox="0 0 500 500" version="1.1" xmlns="http://www.w3.org/2000/svg" xmlns:xlink="http://www.w3.org/1999/xlink">
    <title>www</title>
    <g id="www" stroke="none" stroke-width="1" fill="none" fill-rule="evenodd">
        <path d="M265.00078,350 L265.000831,463.191185 C302.877418,454.056051 337.307873,411.016686 355.789686,350.002558 L386.976756,350 C376.671161,387.602513 360.732449,420.185899 340.913927,444.887785 C383.53057,424.974019 418.537049,391.493079 440.376841,350.001748 L473.727771,350.003438 C435.470884,435.461299 349.688446,495 250,495 C150.311554,495 64.5291162,435.461299 26.2722287,350.003438 L59.6231344,350.00182 C81.4628921,391.493252 116.469289,424.974431 159.085738,444.88877 C139.267401,420.18634 123.328772,387.602711 113.023214,350.00145 L144.210393,350.002819 C162.692388,411.017347 197.123243,454.056822 235.00017,463.191427 L234.99978,350 L265.00078,350 Z M48.875,193 L48.875,206.75 L38.484375,208.546875 L51.53125,270.890625 L52,270.96875 L73.328125,193 L90.125,193 L111.609375,270.96875 L112.078125,270.890625 L125.046875,208.546875 L114.65625,206.75 L114.65625,193 L156.453125,193 L156.453125,206.75 L147.078125,207.921875 L124.03125,306.75 L102.859375,306.75 L82,231.671875 L81.53125,231.671875 L60.671875,306.75 L39.5,306.75 L16.296875,207.921875 L7,206.75 L7,193 L48.875,193 Z M214.048611,193 L214.048611,206.75 L203.657986,208.546875 L216.704861,270.890625 L217.173611,270.96875 L238.501736,193 L255.298611,193 L276.782986,270.96875 L277.251736,270.890625 L290.220486,208.546875 L279.829861,206.75 L279.829861,193 L321.626736,193 L321.626736,206.75 L312.251736,207.921875 L289.204861,306.75 L268.032986,306.75 L247.173611,231.671875 L246.704861,231.671875 L225.845486,306.75 L204.673611,306.75 L181.470486,207.921875 L172.173611,206.75 L172.173611,193 L214.048611,193 Z M379.222222,193 L379.222222,206.75 L368.831597,208.546875 L381.878472,270.890625 L382.347222,270.96875 L403.675347,193 L420.472222,193 L441.956597,270.96875 L442.425347,270.890625 L455.394097,208.546875 L445.003472,206.75 L445.003472,193 L486.800347,193 L486.800347,206.75 L477.425347,207.921875 L454.378472,306.75 L433.206597,306.75 L412.347222,231.671875 L411.878472,231.671875 L391.019097,306.75 L369.847222,306.75 L346.644097,207.921875 L337.347222,206.75 L337.347222,193 L379.222222,193 Z M250,5 C349.688836,5 435.471554,64.5391661 473.72822,149.997563 L440.377391,150 C418.537669,108.507285 383.531053,75.0257285 340.914262,55.1112296 L342.267643,56.8194424 C361.458756,81.3073995 376.907146,113.25806 386.977032,150 L355.789989,149.99844 C337.308248,88.9837828 302.877624,45.9439989 265.000831,36.8088148 L265.00078,150 L234.99978,150 L235.00017,36.8085734 C197.123036,45.9432277 162.692013,88.9831228 144.21009,149.998179 L113.022971,150 C123.328557,112.398064 139.267376,79.8143199 159.086073,55.1122151 L157.164783,56.0205266 C115.417006,76.0364561 81.1330843,109.132598 59.6224061,150 L26.2717804,149.997563 C64.528446,64.5391661 150.311164,5 250,5 Z" id="Shape" fill="#000000" fill-rule="nonzero"></path>
    </g>
</svg>