<?xml version="1.0" encoding="UTF-8"?>
<svg width="500px" height="500px" viewBox="0 0 500 500" version="1.1" xmlns="http://www.w3.org/2000/svg" xmlns:xlink="http://www.w3.org/1999/xlink">
    <title>youtube</title>
    <g id="youtube" stroke="none" stroke-width="1" fill="none" fill-rule="evenodd">
        <path d="M457.460161,119.185806 C441.216613,99.8764516 411.22629,92 353.951452,92 L146.044194,92 C87.4585484,92 56.9601613,100.384516 40.7775806,120.942258 C25,140.986129 25,170.519194 25,211.39371 L25,289.300323 C25,368.487258 43.72,408.692581 146.044194,408.692581 L353.952903,408.692581 C403.62129,408.692581 431.143871,401.742258 448.949355,384.701774 C467.209194,367.227258 475,338.695806 475,289.300323 L475,211.39371 C475,168.288065 473.779194,138.580806 457.460161,119.185806 Z M313.901452,261.102742 L219.491452,310.444516 C217.380806,311.547742 215.072742,312.095 212.767581,312.095 C210.157581,312.095 207.553387,311.392419 205.246774,309.995968 C200.903548,307.364194 198.251452,302.656613 198.251452,297.578871 L198.251452,199.211774 C198.251452,194.142742 200.89629,189.439516 205.230806,186.80629 C209.566774,184.173065 214.959516,183.993065 219.458065,186.330161 L313.868065,235.354032 C318.671452,237.847903 321.687903,242.806613 321.695161,248.216774 C321.700968,253.63129 318.697581,258.597258 313.901452,261.102742 Z" id="Shape" fill="#000000"></path>
    </g>
</svg>