<?xml version="1.0" encoding="UTF-8"?>
<svg width="500px" height="500px" viewBox="0 0 500 500" version="1.1" xmlns="http://www.w3.org/2000/svg" xmlns:xlink="http://www.w3.org/1999/xlink">
    <title>zoom</title>
    <g id="zoom" stroke="none" stroke-width="1" fill="none" fill-rule="evenodd">
        <path d="M98.65125,283.529167 L93.13875,283.284167 L43.5875,283.284167 L109.635417,217.23625 L109.37,211.72375 C109.154788,202.85015 102.01235,195.707712 93.13875,195.4925 L87.62625,195.227083 L5.08166667,195.227083 L5.3675,200.739583 C6.06166667,209.682083 12.5745833,216.460417 21.5783333,216.970833 L27.0908333,217.23625 L76.6625,217.23625 L10.57375,283.284167 L10.8595833,288.77625 C11.1658333,297.616667 18.2504167,304.70125 27.0908333,305.027917 L32.6033333,305.293333 L115.168333,305.293333 L114.8825,299.780833 C114.1475,290.73625 107.736667,284.12125 98.65125,283.549583 L98.65125,283.529167 Z M164.74,195.227083 L164.658333,195.227083 C134.276,195.243994 109.657589,219.882967 109.666042,250.265304 C109.674499,280.647641 134.30662,305.272908 164.688958,305.272908 C195.071296,305.272908 219.703418,280.647641 219.711875,250.265304 C219.720328,219.882967 195.101917,195.243994 164.719583,195.227083 L164.74,195.227083 Z M188.035417,273.606667 C179.766556,282.298098 167.435711,285.823588 155.822202,282.816691 C144.208692,279.809794 135.138116,270.743182 132.126142,259.130988 C129.114168,247.518794 132.634268,235.18641 141.322083,226.91375 C154.304452,214.551757 174.777003,214.800043 187.45575,227.473249 C200.134497,240.146455 200.391733,260.618895 188.035417,273.606667 L188.035417,273.606667 Z M450.83875,195.2475 C438.223293,195.256987 426.217651,200.676252 417.865833,210.13125 C409.515411,200.634172 397.47777,195.195658 384.831667,195.206622 C376.038982,195.194147 367.445742,197.826183 360.168333,202.760833 C355.880833,198.00375 346.285,195.206622 340.813333,195.206622 L340.813333,305.293333 L346.325833,305.027917 C355.513333,304.415417 362.189583,297.9025 362.557083,288.77625 L362.8225,283.26375 L362.8225,244.7375 L363.108333,239.225 C363.3125,235.100833 363.925,231.425833 365.803333,228.2 C368.727336,223.147948 373.538504,219.464374 379.17843,217.959628 C384.818356,216.454882 390.825044,217.252225 395.877083,220.17625 C399.196939,222.100717 401.95595,224.859728 403.880417,228.179583 C405.779167,231.44625 406.330417,235.100833 406.575417,239.204583 L406.86125,244.7375 L406.86125,283.26375 L407.126667,288.755833 C407.677917,297.739167 414.2725,304.435833 423.357917,305.0075 L428.870417,305.272917 L428.870417,244.7375 L429.115417,239.225 C429.319583,235.141667 429.932083,231.385 431.85125,228.13875 C437.955833,217.644583 451.430833,214.05125 461.925,220.17625 C465.247439,222.106364 468.006691,224.872654 469.928333,228.2 C471.806667,231.466667 472.378333,235.202917 472.602917,239.225 L472.88875,244.7375 L472.88875,283.26375 L473.154167,288.755833 C473.725833,297.800417 480.3,304.476667 489.405833,305.0075 L494.918333,305.272917 L494.918333,239.225 C494.907512,227.541654 490.25454,216.341428 481.983597,208.089629 C473.712653,199.837831 462.501673,195.210829 450.818333,195.227083 L450.83875,195.2475 Z M241.36375,211.335833 C226.865197,225.108057 220.976399,245.660093 225.981368,265.020683 C230.986338,284.381274 246.097664,299.504499 265.454309,304.524705 C284.810954,309.544912 305.367619,303.672291 319.15125,289.184583 C339.731397,267.553189 339.313622,233.458572 318.209618,212.337951 C297.105613,191.217329 263.011336,190.772719 241.36375,211.335833 L241.36375,211.335833 Z M303.614167,273.606667 C295.307108,282.134959 283.05368,285.533577 271.540542,282.502627 C260.027404,279.471677 251.035823,270.480096 248.004873,258.966958 C244.973923,247.45382 248.372541,235.200392 256.900833,226.893333 C269.84861,214.281436 290.528313,214.417307 303.309253,227.198247 C316.090193,239.979187 316.226064,260.65889 303.614167,273.606667 L303.614167,273.606667 Z" id="Shape" fill="#000000" fill-rule="nonzero"></path>
    </g>
</svg>