<?xml version="1.0" encoding="UTF-8"?>
<svg width="500px" height="500px" viewBox="0 0 500 500" version="1.1" xmlns="http://www.w3.org/2000/svg" xmlns:xlink="http://www.w3.org/1999/xlink">
    <title>ban-filled</title>
    <g id="ban-filled" stroke="none" stroke-width="1" fill="none" fill-rule="evenodd">
        <path d="M250,19 C374.264069,19 475,119.735931 475,244 C475,368.264069 374.264069,469 250,469 C125.735931,469 25,368.264069 25,244 C25,119.735931 125.735931,19 250,19 Z M370,214 L130,214 C113.431458,214 100,227.431458 100,244 C100,260.402857 113.164172,273.731057 129.503895,273.995981 L130,274 L370,274 C386.568542,274 400,260.568542 400,244 C400,227.597143 386.835828,214.268943 370.496105,214.004019 L370,214 Z" id="Shape" fill="#000000"></path>
    </g>
</svg>