<?xml version="1.0" encoding="UTF-8"?>
<svg width="500px" height="500px" viewBox="0 0 500 500" version="1.1" xmlns="http://www.w3.org/2000/svg" xmlns:xlink="http://www.w3.org/1999/xlink">
    <title>ban</title>
    <g id="ban" stroke="none" stroke-width="1" fill="none" fill-rule="evenodd">
        <path d="M250,19 C374.264069,19 475,119.735931 475,244 C475,368.264069 374.264069,469 250,469 C125.735931,469 25,368.264069 25,244 C25,119.735931 125.735931,19 250,19 Z M250,49 C142.304474,49 55,136.304474 55,244 C55,351.695526 142.304474,439 250,439 C357.695526,439 445,351.695526 445,244 C445,136.304474 357.695526,49 250,49 Z M370,214 C386.568542,214 400,227.431458 400,244 C400,260.568542 386.568542,274 370,274 L130,274 C113.431458,274 100,260.568542 100,244 C100,227.431458 113.431458,214 130,214 L370,214 Z" id="Shape" fill="#000000" fill-rule="nonzero"></path>
    </g>
</svg>